%TF.GenerationSoftware,KiCad,Pcbnew,5.1.6*%
%TF.CreationDate,2020-09-13T19:16:19-07:00*%
%TF.ProjectId,parc,70617263-2e6b-4696-9361-645f70636258,rev?*%
%TF.SameCoordinates,Original*%
%TF.FileFunction,Soldermask,Top*%
%TF.FilePolarity,Negative*%
%FSLAX46Y46*%
G04 Gerber Fmt 4.6, Leading zero omitted, Abs format (unit mm)*
G04 Created by KiCad (PCBNEW 5.1.6) date 2020-09-13 19:16:19*
%MOMM*%
%LPD*%
G01*
G04 APERTURE LIST*
%ADD10C,4.100000*%
%ADD11C,2.100000*%
%ADD12R,2.100000X2.100000*%
%ADD13O,1.700000X1.700000*%
%ADD14C,1.700000*%
%ADD15O,1.800000X1.800000*%
%ADD16R,1.800000X1.800000*%
%ADD17C,1.000000*%
%ADD18C,8.100000*%
G04 APERTURE END LIST*
D10*
%TO.C,J1*%
X77286000Y-84505800D03*
X82286000Y-84505800D03*
%TD*%
%TO.C,J2*%
X77343000Y-77851000D03*
X82343000Y-77851000D03*
%TD*%
%TO.C,J3*%
X82286000Y-90957400D03*
X77286000Y-90957400D03*
%TD*%
%TO.C,J4*%
X77286000Y-97713800D03*
X82286000Y-97713800D03*
%TD*%
%TO.C,J5*%
X82216000Y-104267000D03*
X77216000Y-104267000D03*
%TD*%
D11*
%TO.C,Q1*%
X89154000Y-86233000D03*
X91694000Y-86233000D03*
D12*
X94234000Y-86233000D03*
%TD*%
%TO.C,Q2*%
X94234000Y-92837000D03*
D11*
X91694000Y-92837000D03*
X89154000Y-92837000D03*
%TD*%
D12*
%TO.C,Q3*%
X94234000Y-99441000D03*
D11*
X91694000Y-99441000D03*
X89154000Y-99441000D03*
%TD*%
D13*
%TO.C,R1*%
X98298000Y-89408000D03*
D14*
X108458000Y-89408000D03*
%TD*%
%TO.C,R2*%
X98323400Y-86233000D03*
D13*
X108483400Y-86233000D03*
%TD*%
D14*
%TO.C,R3*%
X108458000Y-96012000D03*
D13*
X98298000Y-96012000D03*
%TD*%
%TO.C,R4*%
X108483400Y-92837000D03*
D14*
X98323400Y-92837000D03*
%TD*%
D13*
%TO.C,R5*%
X98298000Y-102616000D03*
D14*
X108458000Y-102616000D03*
%TD*%
%TO.C,R6*%
X98298000Y-99415600D03*
D13*
X108458000Y-99415600D03*
%TD*%
D15*
%TO.C,U1*%
X150114000Y-104013000D03*
X152654000Y-104013000D03*
X155194000Y-104013000D03*
D16*
X157734000Y-104013000D03*
%TD*%
%TO.C,U2*%
X89154000Y-73787000D03*
D15*
X89154000Y-76327000D03*
X89154000Y-78867000D03*
X89154000Y-81407000D03*
%TD*%
D11*
%TO.C,U3*%
X117090000Y-100390001D03*
X119630000Y-100390001D03*
X122170000Y-100390001D03*
X124710000Y-100390001D03*
X127250000Y-100390001D03*
X129790000Y-100390001D03*
X132330000Y-100390001D03*
X134870000Y-100390001D03*
X137410000Y-100390001D03*
X139950000Y-100390001D03*
X142490000Y-100390001D03*
X145030000Y-100390001D03*
X147570000Y-100390001D03*
X150110000Y-100390001D03*
X152650000Y-100390001D03*
X155190000Y-100390001D03*
X127250000Y-80070001D03*
X129790000Y-80070001D03*
X132330000Y-80070001D03*
X134870000Y-80070001D03*
X137410000Y-80070001D03*
X139950000Y-80070001D03*
X142490000Y-80070001D03*
X145030000Y-80070001D03*
X147570000Y-80070001D03*
X150110000Y-80070001D03*
X152650000Y-80070001D03*
X155190000Y-80070001D03*
%TD*%
D16*
%TO.C,U4*%
X186817000Y-97917000D03*
D15*
X186817000Y-95377000D03*
X186817000Y-92837000D03*
X186817000Y-90297000D03*
X186817000Y-87757000D03*
X186817000Y-85217000D03*
X186817000Y-82677000D03*
X186817000Y-80137000D03*
%TD*%
D11*
%TO.C,U5*%
X163830000Y-81915000D03*
X163830000Y-84455000D03*
X163830000Y-86995000D03*
X163830000Y-89535000D03*
X163830000Y-92075000D03*
X163830000Y-94615000D03*
X181610000Y-84455000D03*
X181610000Y-86995000D03*
X181610000Y-89535000D03*
X181610000Y-92075000D03*
%TD*%
D17*
%TO.C,H1*%
X195161320Y-74078680D03*
X193040000Y-73200000D03*
X190918680Y-74078680D03*
X190040000Y-76200000D03*
X190918680Y-78321320D03*
X193040000Y-79200000D03*
X195161320Y-78321320D03*
X196040000Y-76200000D03*
D18*
X193040000Y-76200000D03*
%TD*%
%TO.C,H2*%
X88900000Y-109220000D03*
D17*
X91900000Y-109220000D03*
X91021320Y-111341320D03*
X88900000Y-112220000D03*
X86778680Y-111341320D03*
X85900000Y-109220000D03*
X86778680Y-107098680D03*
X88900000Y-106220000D03*
X91021320Y-107098680D03*
%TD*%
%TO.C,H3*%
X195161320Y-107098680D03*
X193040000Y-106220000D03*
X190918680Y-107098680D03*
X190040000Y-109220000D03*
X190918680Y-111341320D03*
X193040000Y-112220000D03*
X195161320Y-111341320D03*
X196040000Y-109220000D03*
D18*
X193040000Y-109220000D03*
%TD*%
%TO.C,H4*%
X96520000Y-76200000D03*
D17*
X99520000Y-76200000D03*
X98641320Y-78321320D03*
X96520000Y-79200000D03*
X94398680Y-78321320D03*
X93520000Y-76200000D03*
X94398680Y-74078680D03*
X96520000Y-73200000D03*
X98641320Y-74078680D03*
%TD*%
M02*
