%TF.GenerationSoftware,KiCad,Pcbnew,5.1.6*%
%TF.CreationDate,2020-09-13T19:16:19-07:00*%
%TF.ProjectId,parc,70617263-2e6b-4696-9361-645f70636258,rev?*%
%TF.SameCoordinates,Original*%
%TF.FileFunction,Legend,Top*%
%TF.FilePolarity,Positive*%
%FSLAX46Y46*%
G04 Gerber Fmt 4.6, Leading zero omitted, Abs format (unit mm)*
G04 Created by KiCad (PCBNEW 5.1.6) date 2020-09-13 19:16:19*
%MOMM*%
%LPD*%
G01*
G04 APERTURE LIST*
%ADD10C,0.300000*%
%ADD11C,0.120000*%
%ADD12C,0.100000*%
%ADD13C,0.150000*%
G04 APERTURE END LIST*
D10*
X113004285Y-104667857D02*
X113504285Y-104667857D01*
X113718571Y-105453571D02*
X113004285Y-105453571D01*
X113004285Y-103953571D01*
X113718571Y-103953571D01*
X114575714Y-105453571D02*
X114432857Y-105382142D01*
X114361428Y-105239285D01*
X114361428Y-103953571D01*
X115718571Y-105382142D02*
X115575714Y-105453571D01*
X115290000Y-105453571D01*
X115147142Y-105382142D01*
X115075714Y-105239285D01*
X115075714Y-104667857D01*
X115147142Y-104525000D01*
X115290000Y-104453571D01*
X115575714Y-104453571D01*
X115718571Y-104525000D01*
X115790000Y-104667857D01*
X115790000Y-104810714D01*
X115075714Y-104953571D01*
X117075714Y-105382142D02*
X116932857Y-105453571D01*
X116647142Y-105453571D01*
X116504285Y-105382142D01*
X116432857Y-105310714D01*
X116361428Y-105167857D01*
X116361428Y-104739285D01*
X116432857Y-104596428D01*
X116504285Y-104525000D01*
X116647142Y-104453571D01*
X116932857Y-104453571D01*
X117075714Y-104525000D01*
X117504285Y-104453571D02*
X118075714Y-104453571D01*
X117718571Y-103953571D02*
X117718571Y-105239285D01*
X117790000Y-105382142D01*
X117932857Y-105453571D01*
X118075714Y-105453571D01*
X118575714Y-105453571D02*
X118575714Y-104453571D01*
X118575714Y-104739285D02*
X118647142Y-104596428D01*
X118718571Y-104525000D01*
X118861428Y-104453571D01*
X119004285Y-104453571D01*
X119718571Y-105453571D02*
X119575714Y-105382142D01*
X119504285Y-105310714D01*
X119432857Y-105167857D01*
X119432857Y-104739285D01*
X119504285Y-104596428D01*
X119575714Y-104525000D01*
X119718571Y-104453571D01*
X119932857Y-104453571D01*
X120075714Y-104525000D01*
X120147142Y-104596428D01*
X120218571Y-104739285D01*
X120218571Y-105167857D01*
X120147142Y-105310714D01*
X120075714Y-105382142D01*
X119932857Y-105453571D01*
X119718571Y-105453571D01*
X120861428Y-105453571D02*
X120861428Y-104453571D01*
X120861428Y-104596428D02*
X120932857Y-104525000D01*
X121075714Y-104453571D01*
X121290000Y-104453571D01*
X121432857Y-104525000D01*
X121504285Y-104667857D01*
X121504285Y-105453571D01*
X121504285Y-104667857D02*
X121575714Y-104525000D01*
X121718571Y-104453571D01*
X121932857Y-104453571D01*
X122075714Y-104525000D01*
X122147142Y-104667857D01*
X122147142Y-105453571D01*
X123504285Y-105453571D02*
X123504285Y-104667857D01*
X123432857Y-104525000D01*
X123290000Y-104453571D01*
X123004285Y-104453571D01*
X122861428Y-104525000D01*
X123504285Y-105382142D02*
X123361428Y-105453571D01*
X123004285Y-105453571D01*
X122861428Y-105382142D01*
X122790000Y-105239285D01*
X122790000Y-105096428D01*
X122861428Y-104953571D01*
X123004285Y-104882142D01*
X123361428Y-104882142D01*
X123504285Y-104810714D01*
X124861428Y-104453571D02*
X124861428Y-105667857D01*
X124790000Y-105810714D01*
X124718571Y-105882142D01*
X124575714Y-105953571D01*
X124361428Y-105953571D01*
X124218571Y-105882142D01*
X124861428Y-105382142D02*
X124718571Y-105453571D01*
X124432857Y-105453571D01*
X124290000Y-105382142D01*
X124218571Y-105310714D01*
X124147142Y-105167857D01*
X124147142Y-104739285D01*
X124218571Y-104596428D01*
X124290000Y-104525000D01*
X124432857Y-104453571D01*
X124718571Y-104453571D01*
X124861428Y-104525000D01*
X125575714Y-104453571D02*
X125575714Y-105453571D01*
X125575714Y-104596428D02*
X125647142Y-104525000D01*
X125790000Y-104453571D01*
X126004285Y-104453571D01*
X126147142Y-104525000D01*
X126218571Y-104667857D01*
X126218571Y-105453571D01*
X127504285Y-105382142D02*
X127361428Y-105453571D01*
X127075714Y-105453571D01*
X126932857Y-105382142D01*
X126861428Y-105239285D01*
X126861428Y-104667857D01*
X126932857Y-104525000D01*
X127075714Y-104453571D01*
X127361428Y-104453571D01*
X127504285Y-104525000D01*
X127575714Y-104667857D01*
X127575714Y-104810714D01*
X126861428Y-104953571D01*
X128004285Y-104453571D02*
X128575714Y-104453571D01*
X128218571Y-103953571D02*
X128218571Y-105239285D01*
X128290000Y-105382142D01*
X128432857Y-105453571D01*
X128575714Y-105453571D01*
X131075714Y-105310714D02*
X131004285Y-105382142D01*
X130790000Y-105453571D01*
X130647142Y-105453571D01*
X130432857Y-105382142D01*
X130290000Y-105239285D01*
X130218571Y-105096428D01*
X130147142Y-104810714D01*
X130147142Y-104596428D01*
X130218571Y-104310714D01*
X130290000Y-104167857D01*
X130432857Y-104025000D01*
X130647142Y-103953571D01*
X130790000Y-103953571D01*
X131004285Y-104025000D01*
X131075714Y-104096428D01*
X131932857Y-105453571D02*
X131790000Y-105382142D01*
X131718571Y-105310714D01*
X131647142Y-105167857D01*
X131647142Y-104739285D01*
X131718571Y-104596428D01*
X131790000Y-104525000D01*
X131932857Y-104453571D01*
X132147142Y-104453571D01*
X132290000Y-104525000D01*
X132361428Y-104596428D01*
X132432857Y-104739285D01*
X132432857Y-105167857D01*
X132361428Y-105310714D01*
X132290000Y-105382142D01*
X132147142Y-105453571D01*
X131932857Y-105453571D01*
X133075714Y-104453571D02*
X133075714Y-105453571D01*
X133075714Y-104596428D02*
X133147142Y-104525000D01*
X133290000Y-104453571D01*
X133504285Y-104453571D01*
X133647142Y-104525000D01*
X133718571Y-104667857D01*
X133718571Y-105453571D01*
X134218571Y-104453571D02*
X134790000Y-104453571D01*
X134432857Y-103953571D02*
X134432857Y-105239285D01*
X134504285Y-105382142D01*
X134647142Y-105453571D01*
X134790000Y-105453571D01*
X135290000Y-105453571D02*
X135290000Y-104453571D01*
X135290000Y-104739285D02*
X135361428Y-104596428D01*
X135432857Y-104525000D01*
X135575714Y-104453571D01*
X135718571Y-104453571D01*
X136432857Y-105453571D02*
X136290000Y-105382142D01*
X136218571Y-105310714D01*
X136147142Y-105167857D01*
X136147142Y-104739285D01*
X136218571Y-104596428D01*
X136290000Y-104525000D01*
X136432857Y-104453571D01*
X136647142Y-104453571D01*
X136790000Y-104525000D01*
X136861428Y-104596428D01*
X136932857Y-104739285D01*
X136932857Y-105167857D01*
X136861428Y-105310714D01*
X136790000Y-105382142D01*
X136647142Y-105453571D01*
X136432857Y-105453571D01*
X137790000Y-105453571D02*
X137647142Y-105382142D01*
X137575714Y-105239285D01*
X137575714Y-103953571D01*
X138575714Y-105453571D02*
X138432857Y-105382142D01*
X138361428Y-105239285D01*
X138361428Y-103953571D01*
X140790000Y-104667857D02*
X141004285Y-104739285D01*
X141075714Y-104810714D01*
X141147142Y-104953571D01*
X141147142Y-105167857D01*
X141075714Y-105310714D01*
X141004285Y-105382142D01*
X140861428Y-105453571D01*
X140290000Y-105453571D01*
X140290000Y-103953571D01*
X140790000Y-103953571D01*
X140932857Y-104025000D01*
X141004285Y-104096428D01*
X141075714Y-104239285D01*
X141075714Y-104382142D01*
X141004285Y-104525000D01*
X140932857Y-104596428D01*
X140790000Y-104667857D01*
X140290000Y-104667857D01*
X142004285Y-105453571D02*
X141861428Y-105382142D01*
X141790000Y-105310714D01*
X141718571Y-105167857D01*
X141718571Y-104739285D01*
X141790000Y-104596428D01*
X141861428Y-104525000D01*
X142004285Y-104453571D01*
X142218571Y-104453571D01*
X142361428Y-104525000D01*
X142432857Y-104596428D01*
X142504285Y-104739285D01*
X142504285Y-105167857D01*
X142432857Y-105310714D01*
X142361428Y-105382142D01*
X142218571Y-105453571D01*
X142004285Y-105453571D01*
X143790000Y-105453571D02*
X143790000Y-104667857D01*
X143718571Y-104525000D01*
X143575714Y-104453571D01*
X143290000Y-104453571D01*
X143147142Y-104525000D01*
X143790000Y-105382142D02*
X143647142Y-105453571D01*
X143290000Y-105453571D01*
X143147142Y-105382142D01*
X143075714Y-105239285D01*
X143075714Y-105096428D01*
X143147142Y-104953571D01*
X143290000Y-104882142D01*
X143647142Y-104882142D01*
X143790000Y-104810714D01*
X144504285Y-105453571D02*
X144504285Y-104453571D01*
X144504285Y-104739285D02*
X144575714Y-104596428D01*
X144647142Y-104525000D01*
X144790000Y-104453571D01*
X144932857Y-104453571D01*
X146075714Y-105453571D02*
X146075714Y-103953571D01*
X146075714Y-105382142D02*
X145932857Y-105453571D01*
X145647142Y-105453571D01*
X145504285Y-105382142D01*
X145432857Y-105310714D01*
X145361428Y-105167857D01*
X145361428Y-104739285D01*
X145432857Y-104596428D01*
X145504285Y-104525000D01*
X145647142Y-104453571D01*
X145932857Y-104453571D01*
X146075714Y-104525000D01*
X74982142Y-108477857D02*
X75196428Y-108549285D01*
X75267857Y-108620714D01*
X75339285Y-108763571D01*
X75339285Y-108977857D01*
X75267857Y-109120714D01*
X75196428Y-109192142D01*
X75053571Y-109263571D01*
X74482142Y-109263571D01*
X74482142Y-107763571D01*
X74982142Y-107763571D01*
X75125000Y-107835000D01*
X75196428Y-107906428D01*
X75267857Y-108049285D01*
X75267857Y-108192142D01*
X75196428Y-108335000D01*
X75125000Y-108406428D01*
X74982142Y-108477857D01*
X74482142Y-108477857D01*
X76625000Y-109263571D02*
X76625000Y-108477857D01*
X76553571Y-108335000D01*
X76410714Y-108263571D01*
X76125000Y-108263571D01*
X75982142Y-108335000D01*
X76625000Y-109192142D02*
X76482142Y-109263571D01*
X76125000Y-109263571D01*
X75982142Y-109192142D01*
X75910714Y-109049285D01*
X75910714Y-108906428D01*
X75982142Y-108763571D01*
X76125000Y-108692142D01*
X76482142Y-108692142D01*
X76625000Y-108620714D01*
X77125000Y-108263571D02*
X77696428Y-108263571D01*
X77339285Y-107763571D02*
X77339285Y-109049285D01*
X77410714Y-109192142D01*
X77553571Y-109263571D01*
X77696428Y-109263571D01*
X77982142Y-108263571D02*
X78553571Y-108263571D01*
X78196428Y-107763571D02*
X78196428Y-109049285D01*
X78267857Y-109192142D01*
X78410714Y-109263571D01*
X78553571Y-109263571D01*
X79625000Y-109192142D02*
X79482142Y-109263571D01*
X79196428Y-109263571D01*
X79053571Y-109192142D01*
X78982142Y-109049285D01*
X78982142Y-108477857D01*
X79053571Y-108335000D01*
X79196428Y-108263571D01*
X79482142Y-108263571D01*
X79625000Y-108335000D01*
X79696428Y-108477857D01*
X79696428Y-108620714D01*
X78982142Y-108763571D01*
X80339285Y-109263571D02*
X80339285Y-108263571D01*
X80339285Y-108549285D02*
X80410714Y-108406428D01*
X80482142Y-108335000D01*
X80625000Y-108263571D01*
X80767857Y-108263571D01*
X81125000Y-108263571D02*
X81482142Y-109263571D01*
X81839285Y-108263571D02*
X81482142Y-109263571D01*
X81339285Y-109620714D01*
X81267857Y-109692142D01*
X81125000Y-109763571D01*
X83482142Y-107906428D02*
X83553571Y-107835000D01*
X83696428Y-107763571D01*
X84053571Y-107763571D01*
X84196428Y-107835000D01*
X84267857Y-107906428D01*
X84339285Y-108049285D01*
X84339285Y-108192142D01*
X84267857Y-108406428D01*
X83410714Y-109263571D01*
X84339285Y-109263571D01*
X77395142Y-73044857D02*
X77609428Y-73116285D01*
X77680857Y-73187714D01*
X77752285Y-73330571D01*
X77752285Y-73544857D01*
X77680857Y-73687714D01*
X77609428Y-73759142D01*
X77466571Y-73830571D01*
X76895142Y-73830571D01*
X76895142Y-72330571D01*
X77395142Y-72330571D01*
X77538000Y-72402000D01*
X77609428Y-72473428D01*
X77680857Y-72616285D01*
X77680857Y-72759142D01*
X77609428Y-72902000D01*
X77538000Y-72973428D01*
X77395142Y-73044857D01*
X76895142Y-73044857D01*
X79038000Y-73830571D02*
X79038000Y-73044857D01*
X78966571Y-72902000D01*
X78823714Y-72830571D01*
X78538000Y-72830571D01*
X78395142Y-72902000D01*
X79038000Y-73759142D02*
X78895142Y-73830571D01*
X78538000Y-73830571D01*
X78395142Y-73759142D01*
X78323714Y-73616285D01*
X78323714Y-73473428D01*
X78395142Y-73330571D01*
X78538000Y-73259142D01*
X78895142Y-73259142D01*
X79038000Y-73187714D01*
X79538000Y-72830571D02*
X80109428Y-72830571D01*
X79752285Y-72330571D02*
X79752285Y-73616285D01*
X79823714Y-73759142D01*
X79966571Y-73830571D01*
X80109428Y-73830571D01*
X80395142Y-72830571D02*
X80966571Y-72830571D01*
X80609428Y-72330571D02*
X80609428Y-73616285D01*
X80680857Y-73759142D01*
X80823714Y-73830571D01*
X80966571Y-73830571D01*
X82038000Y-73759142D02*
X81895142Y-73830571D01*
X81609428Y-73830571D01*
X81466571Y-73759142D01*
X81395142Y-73616285D01*
X81395142Y-73044857D01*
X81466571Y-72902000D01*
X81609428Y-72830571D01*
X81895142Y-72830571D01*
X82038000Y-72902000D01*
X82109428Y-73044857D01*
X82109428Y-73187714D01*
X81395142Y-73330571D01*
X82752285Y-73830571D02*
X82752285Y-72830571D01*
X82752285Y-73116285D02*
X82823714Y-72973428D01*
X82895142Y-72902000D01*
X83038000Y-72830571D01*
X83180857Y-72830571D01*
X83538000Y-72830571D02*
X83895142Y-73830571D01*
X84252285Y-72830571D02*
X83895142Y-73830571D01*
X83752285Y-74187714D01*
X83680857Y-74259142D01*
X83538000Y-74330571D01*
X86752285Y-73830571D02*
X85895142Y-73830571D01*
X86323714Y-73830571D02*
X86323714Y-72330571D01*
X86180857Y-72544857D01*
X86038000Y-72687714D01*
X85895142Y-72759142D01*
D11*
%TO.C,J1*%
X83286000Y-81505800D02*
X74286000Y-81505800D01*
X85286000Y-83505800D02*
X83286000Y-81505800D01*
X85286000Y-85505800D02*
X85286000Y-83505800D01*
X83286000Y-87505800D02*
X85286000Y-85505800D01*
X82286000Y-87505800D02*
X83286000Y-87505800D01*
X74286000Y-87505800D02*
X82286000Y-87505800D01*
X74286000Y-81505800D02*
X74286000Y-87505800D01*
%TO.C,J2*%
X83343000Y-74851000D02*
X74343000Y-74851000D01*
X85343000Y-76851000D02*
X83343000Y-74851000D01*
X85343000Y-78851000D02*
X85343000Y-76851000D01*
X83343000Y-80851000D02*
X85343000Y-78851000D01*
X82343000Y-80851000D02*
X83343000Y-80851000D01*
X74343000Y-80851000D02*
X82343000Y-80851000D01*
X74343000Y-74851000D02*
X74343000Y-80851000D01*
%TO.C,J3*%
X74286000Y-87957400D02*
X74286000Y-93957400D01*
X74286000Y-93957400D02*
X82286000Y-93957400D01*
X82286000Y-93957400D02*
X83286000Y-93957400D01*
X83286000Y-93957400D02*
X85286000Y-91957400D01*
X85286000Y-91957400D02*
X85286000Y-89957400D01*
X85286000Y-89957400D02*
X83286000Y-87957400D01*
X83286000Y-87957400D02*
X74286000Y-87957400D01*
%TO.C,J4*%
X83286000Y-94713800D02*
X74286000Y-94713800D01*
X85286000Y-96713800D02*
X83286000Y-94713800D01*
X85286000Y-98713800D02*
X85286000Y-96713800D01*
X83286000Y-100713800D02*
X85286000Y-98713800D01*
X82286000Y-100713800D02*
X83286000Y-100713800D01*
X74286000Y-100713800D02*
X82286000Y-100713800D01*
X74286000Y-94713800D02*
X74286000Y-100713800D01*
%TO.C,J5*%
X74216000Y-101267000D02*
X74216000Y-107267000D01*
X74216000Y-107267000D02*
X82216000Y-107267000D01*
X82216000Y-107267000D02*
X83216000Y-107267000D01*
X83216000Y-107267000D02*
X85216000Y-105267000D01*
X85216000Y-105267000D02*
X85216000Y-103267000D01*
X85216000Y-103267000D02*
X83216000Y-101267000D01*
X83216000Y-101267000D02*
X74216000Y-101267000D01*
D12*
%TO.C,Q1*%
X96794000Y-87523000D02*
X86694000Y-87523000D01*
X86594000Y-83833000D02*
X86594000Y-84233000D01*
X86594000Y-83833000D02*
X86994000Y-83833000D01*
X96794000Y-83833000D02*
X96794000Y-88233000D01*
X96794000Y-83833000D02*
X96394000Y-83833000D01*
X96794000Y-88633000D02*
X96794000Y-88233000D01*
X96794000Y-88633000D02*
X96394000Y-88633000D01*
X86994000Y-88633000D02*
X86594000Y-88633000D01*
X86594000Y-88633000D02*
X86594000Y-88233000D01*
%TO.C,Q2*%
X86594000Y-95237000D02*
X86594000Y-94837000D01*
X86994000Y-95237000D02*
X86594000Y-95237000D01*
X96794000Y-95237000D02*
X96394000Y-95237000D01*
X96794000Y-95237000D02*
X96794000Y-94837000D01*
X96794000Y-90437000D02*
X96394000Y-90437000D01*
X96794000Y-90437000D02*
X96794000Y-94837000D01*
X86594000Y-90437000D02*
X86994000Y-90437000D01*
X86594000Y-90437000D02*
X86594000Y-90837000D01*
X96794000Y-94127000D02*
X86694000Y-94127000D01*
%TO.C,Q3*%
X86594000Y-101841000D02*
X86594000Y-101441000D01*
X86994000Y-101841000D02*
X86594000Y-101841000D01*
X96794000Y-101841000D02*
X96394000Y-101841000D01*
X96794000Y-101841000D02*
X96794000Y-101441000D01*
X96794000Y-97041000D02*
X96394000Y-97041000D01*
X96794000Y-97041000D02*
X96794000Y-101441000D01*
X86594000Y-97041000D02*
X86994000Y-97041000D01*
X86594000Y-97041000D02*
X86594000Y-97441000D01*
X96794000Y-100731000D02*
X86694000Y-100731000D01*
D11*
%TO.C,R1*%
X106648000Y-90778000D02*
X106648000Y-88038000D01*
X106648000Y-88038000D02*
X100108000Y-88038000D01*
X100108000Y-88038000D02*
X100108000Y-90778000D01*
X100108000Y-90778000D02*
X106648000Y-90778000D01*
X107418000Y-89408000D02*
X106648000Y-89408000D01*
X99338000Y-89408000D02*
X100108000Y-89408000D01*
%TO.C,R2*%
X107443400Y-86233000D02*
X106673400Y-86233000D01*
X99363400Y-86233000D02*
X100133400Y-86233000D01*
X106673400Y-84863000D02*
X100133400Y-84863000D01*
X106673400Y-87603000D02*
X106673400Y-84863000D01*
X100133400Y-87603000D02*
X106673400Y-87603000D01*
X100133400Y-84863000D02*
X100133400Y-87603000D01*
%TO.C,R3*%
X99338000Y-96012000D02*
X100108000Y-96012000D01*
X107418000Y-96012000D02*
X106648000Y-96012000D01*
X100108000Y-97382000D02*
X106648000Y-97382000D01*
X100108000Y-94642000D02*
X100108000Y-97382000D01*
X106648000Y-94642000D02*
X100108000Y-94642000D01*
X106648000Y-97382000D02*
X106648000Y-94642000D01*
%TO.C,R4*%
X100133400Y-91467000D02*
X100133400Y-94207000D01*
X100133400Y-94207000D02*
X106673400Y-94207000D01*
X106673400Y-94207000D02*
X106673400Y-91467000D01*
X106673400Y-91467000D02*
X100133400Y-91467000D01*
X99363400Y-92837000D02*
X100133400Y-92837000D01*
X107443400Y-92837000D02*
X106673400Y-92837000D01*
%TO.C,R5*%
X106648000Y-103986000D02*
X106648000Y-101246000D01*
X106648000Y-101246000D02*
X100108000Y-101246000D01*
X100108000Y-101246000D02*
X100108000Y-103986000D01*
X100108000Y-103986000D02*
X106648000Y-103986000D01*
X107418000Y-102616000D02*
X106648000Y-102616000D01*
X99338000Y-102616000D02*
X100108000Y-102616000D01*
%TO.C,R6*%
X107418000Y-99415600D02*
X106648000Y-99415600D01*
X99338000Y-99415600D02*
X100108000Y-99415600D01*
X106648000Y-98045600D02*
X100108000Y-98045600D01*
X106648000Y-100785600D02*
X106648000Y-98045600D01*
X100108000Y-100785600D02*
X106648000Y-100785600D01*
X100108000Y-98045600D02*
X100108000Y-100785600D01*
%TO.C,U1*%
X148784000Y-102683000D02*
X148784000Y-105343000D01*
X156464000Y-102683000D02*
X148784000Y-102683000D01*
X156464000Y-105343000D02*
X148784000Y-105343000D01*
X156464000Y-102683000D02*
X156464000Y-105343000D01*
X157734000Y-102683000D02*
X159064000Y-102683000D01*
X159064000Y-102683000D02*
X159064000Y-104013000D01*
%TO.C,U2*%
X87824000Y-72457000D02*
X89154000Y-72457000D01*
X87824000Y-73787000D02*
X87824000Y-72457000D01*
X87824000Y-75057000D02*
X90484000Y-75057000D01*
X90484000Y-75057000D02*
X90484000Y-82737000D01*
X87824000Y-75057000D02*
X87824000Y-82737000D01*
X87824000Y-82737000D02*
X90484000Y-82737000D01*
%TO.C,U3*%
X113280000Y-101660001D02*
X159000000Y-101660001D01*
X110740000Y-81340001D02*
X110740000Y-99120001D01*
X159000000Y-78800001D02*
X113280000Y-78800001D01*
X161540000Y-99120001D02*
X161540000Y-81340001D01*
X113280000Y-101660001D02*
G75*
G02*
X110740000Y-99120001I0J2540000D01*
G01*
X110740000Y-81340001D02*
G75*
G02*
X113280000Y-78800001I2540000J0D01*
G01*
X161540000Y-99120001D02*
G75*
G02*
X159000000Y-101660001I-2540000J0D01*
G01*
X159000000Y-78800001D02*
G75*
G02*
X161540000Y-81340001I0J-2540000D01*
G01*
%TO.C,U4*%
X188147000Y-99247000D02*
X186817000Y-99247000D01*
X188147000Y-97917000D02*
X188147000Y-99247000D01*
X188147000Y-96647000D02*
X185487000Y-96647000D01*
X185487000Y-96647000D02*
X185487000Y-78807000D01*
X188147000Y-96647000D02*
X188147000Y-78807000D01*
X188147000Y-78807000D02*
X185487000Y-78807000D01*
%TO.C,U5*%
X162560000Y-77470000D02*
X162560000Y-99060000D01*
X180340000Y-74930000D02*
X165100000Y-74930000D01*
X182880000Y-99060000D02*
X182880000Y-77470000D01*
X165100000Y-101600000D02*
X180340000Y-101600000D01*
X162560000Y-77470000D02*
G75*
G02*
X165100000Y-74930000I2540000J0D01*
G01*
X180340000Y-74930000D02*
G75*
G02*
X182880000Y-77470000I0J-2540000D01*
G01*
X182880000Y-99060000D02*
G75*
G02*
X180340000Y-101600000I-2540000J0D01*
G01*
X165100000Y-101600000D02*
G75*
G02*
X162560000Y-99060000I0J2540000D01*
G01*
%TO.C,J1*%
D13*
X85391666Y-82002380D02*
X85391666Y-82716666D01*
X85344047Y-82859523D01*
X85248809Y-82954761D01*
X85105952Y-83002380D01*
X85010714Y-83002380D01*
X86391666Y-83002380D02*
X85820238Y-83002380D01*
X86105952Y-83002380D02*
X86105952Y-82002380D01*
X86010714Y-82145238D01*
X85915476Y-82240476D01*
X85820238Y-82288095D01*
%TO.C,J2*%
X86026666Y-77557380D02*
X86026666Y-78271666D01*
X85979047Y-78414523D01*
X85883809Y-78509761D01*
X85740952Y-78557380D01*
X85645714Y-78557380D01*
X86455238Y-77652619D02*
X86502857Y-77605000D01*
X86598095Y-77557380D01*
X86836190Y-77557380D01*
X86931428Y-77605000D01*
X86979047Y-77652619D01*
X87026666Y-77747857D01*
X87026666Y-77843095D01*
X86979047Y-77985952D01*
X86407619Y-78557380D01*
X87026666Y-78557380D01*
%TO.C,J3*%
X86260666Y-90289380D02*
X86260666Y-91003666D01*
X86213047Y-91146523D01*
X86117809Y-91241761D01*
X85974952Y-91289380D01*
X85879714Y-91289380D01*
X86641619Y-90289380D02*
X87260666Y-90289380D01*
X86927333Y-90670333D01*
X87070190Y-90670333D01*
X87165428Y-90717952D01*
X87213047Y-90765571D01*
X87260666Y-90860809D01*
X87260666Y-91098904D01*
X87213047Y-91194142D01*
X87165428Y-91241761D01*
X87070190Y-91289380D01*
X86784476Y-91289380D01*
X86689238Y-91241761D01*
X86641619Y-91194142D01*
%TO.C,J4*%
X86026666Y-97242380D02*
X86026666Y-97956666D01*
X85979047Y-98099523D01*
X85883809Y-98194761D01*
X85740952Y-98242380D01*
X85645714Y-98242380D01*
X86931428Y-97575714D02*
X86931428Y-98242380D01*
X86693333Y-97194761D02*
X86455238Y-97909047D01*
X87074285Y-97909047D01*
%TO.C,J5*%
X86026666Y-103592380D02*
X86026666Y-104306666D01*
X85979047Y-104449523D01*
X85883809Y-104544761D01*
X85740952Y-104592380D01*
X85645714Y-104592380D01*
X86979047Y-103592380D02*
X86502857Y-103592380D01*
X86455238Y-104068571D01*
X86502857Y-104020952D01*
X86598095Y-103973333D01*
X86836190Y-103973333D01*
X86931428Y-104020952D01*
X86979047Y-104068571D01*
X87026666Y-104163809D01*
X87026666Y-104401904D01*
X86979047Y-104497142D01*
X86931428Y-104544761D01*
X86836190Y-104592380D01*
X86598095Y-104592380D01*
X86502857Y-104544761D01*
X86455238Y-104497142D01*
%TO.C,Q1*%
X91518761Y-90000619D02*
X91423523Y-89953000D01*
X91328285Y-89857761D01*
X91185428Y-89714904D01*
X91090190Y-89667285D01*
X90994952Y-89667285D01*
X91042571Y-89905380D02*
X90947333Y-89857761D01*
X90852095Y-89762523D01*
X90804476Y-89572047D01*
X90804476Y-89238714D01*
X90852095Y-89048238D01*
X90947333Y-88953000D01*
X91042571Y-88905380D01*
X91233047Y-88905380D01*
X91328285Y-88953000D01*
X91423523Y-89048238D01*
X91471142Y-89238714D01*
X91471142Y-89572047D01*
X91423523Y-89762523D01*
X91328285Y-89857761D01*
X91233047Y-89905380D01*
X91042571Y-89905380D01*
X92423523Y-89905380D02*
X91852095Y-89905380D01*
X92137809Y-89905380D02*
X92137809Y-88905380D01*
X92042571Y-89048238D01*
X91947333Y-89143476D01*
X91852095Y-89191095D01*
%TO.C,Q2*%
X91518761Y-96604619D02*
X91423523Y-96557000D01*
X91328285Y-96461761D01*
X91185428Y-96318904D01*
X91090190Y-96271285D01*
X90994952Y-96271285D01*
X91042571Y-96509380D02*
X90947333Y-96461761D01*
X90852095Y-96366523D01*
X90804476Y-96176047D01*
X90804476Y-95842714D01*
X90852095Y-95652238D01*
X90947333Y-95557000D01*
X91042571Y-95509380D01*
X91233047Y-95509380D01*
X91328285Y-95557000D01*
X91423523Y-95652238D01*
X91471142Y-95842714D01*
X91471142Y-96176047D01*
X91423523Y-96366523D01*
X91328285Y-96461761D01*
X91233047Y-96509380D01*
X91042571Y-96509380D01*
X91852095Y-95604619D02*
X91899714Y-95557000D01*
X91994952Y-95509380D01*
X92233047Y-95509380D01*
X92328285Y-95557000D01*
X92375904Y-95604619D01*
X92423523Y-95699857D01*
X92423523Y-95795095D01*
X92375904Y-95937952D01*
X91804476Y-96509380D01*
X92423523Y-96509380D01*
%TO.C,Q3*%
X91518761Y-103208619D02*
X91423523Y-103161000D01*
X91328285Y-103065761D01*
X91185428Y-102922904D01*
X91090190Y-102875285D01*
X90994952Y-102875285D01*
X91042571Y-103113380D02*
X90947333Y-103065761D01*
X90852095Y-102970523D01*
X90804476Y-102780047D01*
X90804476Y-102446714D01*
X90852095Y-102256238D01*
X90947333Y-102161000D01*
X91042571Y-102113380D01*
X91233047Y-102113380D01*
X91328285Y-102161000D01*
X91423523Y-102256238D01*
X91471142Y-102446714D01*
X91471142Y-102780047D01*
X91423523Y-102970523D01*
X91328285Y-103065761D01*
X91233047Y-103113380D01*
X91042571Y-103113380D01*
X91804476Y-102113380D02*
X92423523Y-102113380D01*
X92090190Y-102494333D01*
X92233047Y-102494333D01*
X92328285Y-102541952D01*
X92375904Y-102589571D01*
X92423523Y-102684809D01*
X92423523Y-102922904D01*
X92375904Y-103018142D01*
X92328285Y-103065761D01*
X92233047Y-103113380D01*
X91947333Y-103113380D01*
X91852095Y-103065761D01*
X91804476Y-103018142D01*
%TO.C,R1*%
X102068333Y-89987380D02*
X101735000Y-89511190D01*
X101496904Y-89987380D02*
X101496904Y-88987380D01*
X101877857Y-88987380D01*
X101973095Y-89035000D01*
X102020714Y-89082619D01*
X102068333Y-89177857D01*
X102068333Y-89320714D01*
X102020714Y-89415952D01*
X101973095Y-89463571D01*
X101877857Y-89511190D01*
X101496904Y-89511190D01*
X103020714Y-89987380D02*
X102449285Y-89987380D01*
X102735000Y-89987380D02*
X102735000Y-88987380D01*
X102639761Y-89130238D01*
X102544523Y-89225476D01*
X102449285Y-89273095D01*
%TO.C,R2*%
X102068333Y-86812380D02*
X101735000Y-86336190D01*
X101496904Y-86812380D02*
X101496904Y-85812380D01*
X101877857Y-85812380D01*
X101973095Y-85860000D01*
X102020714Y-85907619D01*
X102068333Y-86002857D01*
X102068333Y-86145714D01*
X102020714Y-86240952D01*
X101973095Y-86288571D01*
X101877857Y-86336190D01*
X101496904Y-86336190D01*
X102449285Y-85907619D02*
X102496904Y-85860000D01*
X102592142Y-85812380D01*
X102830238Y-85812380D01*
X102925476Y-85860000D01*
X102973095Y-85907619D01*
X103020714Y-86002857D01*
X103020714Y-86098095D01*
X102973095Y-86240952D01*
X102401666Y-86812380D01*
X103020714Y-86812380D01*
%TO.C,R3*%
X102068333Y-96972380D02*
X101735000Y-96496190D01*
X101496904Y-96972380D02*
X101496904Y-95972380D01*
X101877857Y-95972380D01*
X101973095Y-96020000D01*
X102020714Y-96067619D01*
X102068333Y-96162857D01*
X102068333Y-96305714D01*
X102020714Y-96400952D01*
X101973095Y-96448571D01*
X101877857Y-96496190D01*
X101496904Y-96496190D01*
X102401666Y-95972380D02*
X103020714Y-95972380D01*
X102687380Y-96353333D01*
X102830238Y-96353333D01*
X102925476Y-96400952D01*
X102973095Y-96448571D01*
X103020714Y-96543809D01*
X103020714Y-96781904D01*
X102973095Y-96877142D01*
X102925476Y-96924761D01*
X102830238Y-96972380D01*
X102544523Y-96972380D01*
X102449285Y-96924761D01*
X102401666Y-96877142D01*
%TO.C,R4*%
X102068333Y-93797380D02*
X101735000Y-93321190D01*
X101496904Y-93797380D02*
X101496904Y-92797380D01*
X101877857Y-92797380D01*
X101973095Y-92845000D01*
X102020714Y-92892619D01*
X102068333Y-92987857D01*
X102068333Y-93130714D01*
X102020714Y-93225952D01*
X101973095Y-93273571D01*
X101877857Y-93321190D01*
X101496904Y-93321190D01*
X102925476Y-93130714D02*
X102925476Y-93797380D01*
X102687380Y-92749761D02*
X102449285Y-93464047D01*
X103068333Y-93464047D01*
%TO.C,R5*%
X102068333Y-103322380D02*
X101735000Y-102846190D01*
X101496904Y-103322380D02*
X101496904Y-102322380D01*
X101877857Y-102322380D01*
X101973095Y-102370000D01*
X102020714Y-102417619D01*
X102068333Y-102512857D01*
X102068333Y-102655714D01*
X102020714Y-102750952D01*
X101973095Y-102798571D01*
X101877857Y-102846190D01*
X101496904Y-102846190D01*
X102973095Y-102322380D02*
X102496904Y-102322380D01*
X102449285Y-102798571D01*
X102496904Y-102750952D01*
X102592142Y-102703333D01*
X102830238Y-102703333D01*
X102925476Y-102750952D01*
X102973095Y-102798571D01*
X103020714Y-102893809D01*
X103020714Y-103131904D01*
X102973095Y-103227142D01*
X102925476Y-103274761D01*
X102830238Y-103322380D01*
X102592142Y-103322380D01*
X102496904Y-103274761D01*
X102449285Y-103227142D01*
%TO.C,R6*%
X102068333Y-100147380D02*
X101735000Y-99671190D01*
X101496904Y-100147380D02*
X101496904Y-99147380D01*
X101877857Y-99147380D01*
X101973095Y-99195000D01*
X102020714Y-99242619D01*
X102068333Y-99337857D01*
X102068333Y-99480714D01*
X102020714Y-99575952D01*
X101973095Y-99623571D01*
X101877857Y-99671190D01*
X101496904Y-99671190D01*
X102925476Y-99147380D02*
X102735000Y-99147380D01*
X102639761Y-99195000D01*
X102592142Y-99242619D01*
X102496904Y-99385476D01*
X102449285Y-99575952D01*
X102449285Y-99956904D01*
X102496904Y-100052142D01*
X102544523Y-100099761D01*
X102639761Y-100147380D01*
X102830238Y-100147380D01*
X102925476Y-100099761D01*
X102973095Y-100052142D01*
X103020714Y-99956904D01*
X103020714Y-99718809D01*
X102973095Y-99623571D01*
X102925476Y-99575952D01*
X102830238Y-99528333D01*
X102639761Y-99528333D01*
X102544523Y-99575952D01*
X102496904Y-99623571D01*
X102449285Y-99718809D01*
%TO.C,U1*%
X159516380Y-104774904D02*
X160325904Y-104774904D01*
X160421142Y-104727285D01*
X160468761Y-104679666D01*
X160516380Y-104584428D01*
X160516380Y-104393952D01*
X160468761Y-104298714D01*
X160421142Y-104251095D01*
X160325904Y-104203476D01*
X159516380Y-104203476D01*
X160516380Y-103203476D02*
X160516380Y-103774904D01*
X160516380Y-103489190D02*
X159516380Y-103489190D01*
X159659238Y-103584428D01*
X159754476Y-103679666D01*
X159802095Y-103774904D01*
%TO.C,U3*%
X113788095Y-80157381D02*
X113788095Y-80966905D01*
X113835714Y-81062143D01*
X113883333Y-81109762D01*
X113978571Y-81157381D01*
X114169047Y-81157381D01*
X114264285Y-81109762D01*
X114311904Y-81062143D01*
X114359523Y-80966905D01*
X114359523Y-80157381D01*
X114740476Y-80157381D02*
X115359523Y-80157381D01*
X115026190Y-80538334D01*
X115169047Y-80538334D01*
X115264285Y-80585953D01*
X115311904Y-80633572D01*
X115359523Y-80728810D01*
X115359523Y-80966905D01*
X115311904Y-81062143D01*
X115264285Y-81109762D01*
X115169047Y-81157381D01*
X114883333Y-81157381D01*
X114788095Y-81109762D01*
X114740476Y-81062143D01*
%TO.C,U4*%
X186055095Y-99699380D02*
X186055095Y-100508904D01*
X186102714Y-100604142D01*
X186150333Y-100651761D01*
X186245571Y-100699380D01*
X186436047Y-100699380D01*
X186531285Y-100651761D01*
X186578904Y-100604142D01*
X186626523Y-100508904D01*
X186626523Y-99699380D01*
X187531285Y-100032714D02*
X187531285Y-100699380D01*
X187293190Y-99651761D02*
X187055095Y-100366047D01*
X187674142Y-100366047D01*
%TO.C,U5*%
X180427380Y-79501904D02*
X181236904Y-79501904D01*
X181332142Y-79454285D01*
X181379761Y-79406666D01*
X181427380Y-79311428D01*
X181427380Y-79120952D01*
X181379761Y-79025714D01*
X181332142Y-78978095D01*
X181236904Y-78930476D01*
X180427380Y-78930476D01*
X180427380Y-77978095D02*
X180427380Y-78454285D01*
X180903571Y-78501904D01*
X180855952Y-78454285D01*
X180808333Y-78359047D01*
X180808333Y-78120952D01*
X180855952Y-78025714D01*
X180903571Y-77978095D01*
X180998809Y-77930476D01*
X181236904Y-77930476D01*
X181332142Y-77978095D01*
X181379761Y-78025714D01*
X181427380Y-78120952D01*
X181427380Y-78359047D01*
X181379761Y-78454285D01*
X181332142Y-78501904D01*
%TD*%
M02*
