%TF.GenerationSoftware,KiCad,Pcbnew,5.1.6*%
%TF.CreationDate,2020-09-13T19:16:19-07:00*%
%TF.ProjectId,parc,70617263-2e6b-4696-9361-645f70636258,rev?*%
%TF.SameCoordinates,Original*%
%TF.FileFunction,Copper,L2,Bot*%
%TF.FilePolarity,Positive*%
%FSLAX46Y46*%
G04 Gerber Fmt 4.6, Leading zero omitted, Abs format (unit mm)*
G04 Created by KiCad (PCBNEW 5.1.6) date 2020-09-13 19:16:19*
%MOMM*%
%LPD*%
G01*
G04 APERTURE LIST*
%TA.AperFunction,ComponentPad*%
%ADD10C,4.000000*%
%TD*%
%TA.AperFunction,ComponentPad*%
%ADD11C,2.000000*%
%TD*%
%TA.AperFunction,ComponentPad*%
%ADD12R,2.000000X2.000000*%
%TD*%
%TA.AperFunction,ComponentPad*%
%ADD13O,1.600000X1.600000*%
%TD*%
%TA.AperFunction,ComponentPad*%
%ADD14C,1.600000*%
%TD*%
%TA.AperFunction,ComponentPad*%
%ADD15O,1.700000X1.700000*%
%TD*%
%TA.AperFunction,ComponentPad*%
%ADD16R,1.700000X1.700000*%
%TD*%
%TA.AperFunction,ComponentPad*%
%ADD17C,0.900000*%
%TD*%
%TA.AperFunction,ComponentPad*%
%ADD18C,8.000000*%
%TD*%
%TA.AperFunction,ViaPad*%
%ADD19C,1.000000*%
%TD*%
%TA.AperFunction,Conductor*%
%ADD20C,5.000000*%
%TD*%
%TA.AperFunction,Conductor*%
%ADD21C,1.000000*%
%TD*%
%TA.AperFunction,Conductor*%
%ADD22C,3.000000*%
%TD*%
%TA.AperFunction,Conductor*%
%ADD23C,0.254000*%
%TD*%
G04 APERTURE END LIST*
D10*
%TO.P,J1,2*%
%TO.N,B1*%
X77286000Y-84505800D03*
%TO.P,J1,1*%
%TO.N,Net-(J1-Pad1)*%
X82286000Y-84505800D03*
%TD*%
%TO.P,J2,2*%
%TO.N,B1*%
X77343000Y-77851000D03*
%TO.P,J2,1*%
%TO.N,GND*%
X82343000Y-77851000D03*
%TD*%
%TO.P,J3,1*%
%TO.N,Net-(J3-Pad1)*%
X82286000Y-90957400D03*
%TO.P,J3,2*%
%TO.N,B2*%
X77286000Y-90957400D03*
%TD*%
%TO.P,J4,2*%
%TO.N,B2*%
X77286000Y-97713800D03*
%TO.P,J4,1*%
%TO.N,Net-(J4-Pad1)*%
X82286000Y-97713800D03*
%TD*%
%TO.P,J5,1*%
%TO.N,GND*%
X82216000Y-104267000D03*
%TO.P,J5,2*%
%TO.N,B2*%
X77216000Y-104267000D03*
%TD*%
D11*
%TO.P,Q1,3*%
%TO.N,GND*%
X89154000Y-86233000D03*
%TO.P,Q1,2*%
%TO.N,Net-(J1-Pad1)*%
X91694000Y-86233000D03*
D12*
%TO.P,Q1,1*%
%TO.N,Net-(Q1-Pad1)*%
X94234000Y-86233000D03*
%TD*%
%TO.P,Q2,1*%
%TO.N,Net-(Q2-Pad1)*%
X94234000Y-92837000D03*
D11*
%TO.P,Q2,2*%
%TO.N,Net-(J3-Pad1)*%
X91694000Y-92837000D03*
%TO.P,Q2,3*%
%TO.N,GND*%
X89154000Y-92837000D03*
%TD*%
D12*
%TO.P,Q3,1*%
%TO.N,Net-(Q3-Pad1)*%
X94234000Y-99441000D03*
D11*
%TO.P,Q3,2*%
%TO.N,Net-(J4-Pad1)*%
X91694000Y-99441000D03*
%TO.P,Q3,3*%
%TO.N,GND*%
X89154000Y-99441000D03*
%TD*%
D13*
%TO.P,R1,2*%
%TO.N,Net-(Q1-Pad1)*%
X98298000Y-89408000D03*
D14*
%TO.P,R1,1*%
%TO.N,M1*%
X108458000Y-89408000D03*
%TD*%
%TO.P,R2,1*%
%TO.N,Net-(Q1-Pad1)*%
X98323400Y-86233000D03*
D13*
%TO.P,R2,2*%
%TO.N,GND*%
X108483400Y-86233000D03*
%TD*%
D14*
%TO.P,R3,1*%
%TO.N,M2*%
X108458000Y-96012000D03*
D13*
%TO.P,R3,2*%
%TO.N,Net-(Q2-Pad1)*%
X98298000Y-96012000D03*
%TD*%
%TO.P,R4,2*%
%TO.N,GND*%
X108483400Y-92837000D03*
D14*
%TO.P,R4,1*%
%TO.N,Net-(Q2-Pad1)*%
X98323400Y-92837000D03*
%TD*%
D13*
%TO.P,R5,2*%
%TO.N,Net-(Q3-Pad1)*%
X98298000Y-102616000D03*
D14*
%TO.P,R5,1*%
%TO.N,M3*%
X108458000Y-102616000D03*
%TD*%
%TO.P,R6,1*%
%TO.N,Net-(Q3-Pad1)*%
X98298000Y-99415600D03*
D13*
%TO.P,R6,2*%
%TO.N,GND*%
X108458000Y-99415600D03*
%TD*%
D15*
%TO.P,U1,4*%
%TO.N,Net-(U1-Pad4)*%
X150114000Y-104013000D03*
%TO.P,U1,3*%
%TO.N,Net-(U1-Pad3)*%
X152654000Y-104013000D03*
%TO.P,U1,2*%
%TO.N,+5V*%
X155194000Y-104013000D03*
D16*
%TO.P,U1,1*%
%TO.N,GND*%
X157734000Y-104013000D03*
%TD*%
%TO.P,U2,1*%
%TO.N,GND*%
X89154000Y-73787000D03*
D15*
%TO.P,U2,2*%
%TO.N,+5V*%
X89154000Y-76327000D03*
%TO.P,U2,3*%
%TO.N,B1*%
X89154000Y-78867000D03*
%TO.P,U2,4*%
%TO.N,Net-(U2-Pad4)*%
X89154000Y-81407000D03*
%TD*%
D11*
%TO.P,U3,1*%
%TO.N,Net-(U3-Pad1)*%
X117090000Y-100390001D03*
%TO.P,U3,2*%
%TO.N,Net-(U3-Pad2)*%
X119630000Y-100390001D03*
%TO.P,U3,3*%
%TO.N,Net-(U3-Pad3)*%
X122170000Y-100390001D03*
%TO.P,U3,4*%
%TO.N,GND*%
X124710000Y-100390001D03*
%TO.P,U3,5*%
%TO.N,Net-(U3-Pad5)*%
X127250000Y-100390001D03*
%TO.P,U3,6*%
%TO.N,Net-(U3-Pad6)*%
X129790000Y-100390001D03*
%TO.P,U3,7*%
%TO.N,Net-(U3-Pad7)*%
X132330000Y-100390001D03*
%TO.P,U3,8*%
%TO.N,Net-(U3-Pad8)*%
X134870000Y-100390001D03*
%TO.P,U3,9*%
%TO.N,Net-(U3-Pad9)*%
X137410000Y-100390001D03*
%TO.P,U3,10*%
%TO.N,Net-(U3-Pad10)*%
X139950000Y-100390001D03*
%TO.P,U3,11*%
%TO.N,Net-(U3-Pad11)*%
X142490000Y-100390001D03*
%TO.P,U3,12*%
%TO.N,Net-(U3-Pad12)*%
X145030000Y-100390001D03*
%TO.P,U3,13*%
%TO.N,Net-(U3-Pad13)*%
X147570000Y-100390001D03*
%TO.P,U3,14*%
%TO.N,Net-(U1-Pad4)*%
X150110000Y-100390001D03*
%TO.P,U3,15*%
%TO.N,Net-(U1-Pad3)*%
X152650000Y-100390001D03*
%TO.P,U3,16*%
%TO.N,GND*%
X155190000Y-100390001D03*
%TO.P,U3,17*%
%TO.N,Net-(U3-Pad17)*%
X127250000Y-80070001D03*
%TO.P,U3,18*%
%TO.N,Net-(U3-Pad18)*%
X129790000Y-80070001D03*
%TO.P,U3,19*%
%TO.N,+5V*%
X132330000Y-80070001D03*
%TO.P,U3,20*%
%TO.N,Net-(U3-Pad20)*%
X134870000Y-80070001D03*
%TO.P,U3,21*%
%TO.N,Net-(U3-Pad21)*%
X137410000Y-80070001D03*
%TO.P,U3,22*%
%TO.N,Net-(U3-Pad22)*%
X139950000Y-80070001D03*
%TO.P,U3,23*%
%TO.N,Net-(U3-Pad23)*%
X142490000Y-80070001D03*
%TO.P,U3,24*%
%TO.N,M1*%
X145030000Y-80070001D03*
%TO.P,U3,25*%
%TO.N,M2*%
X147570000Y-80070001D03*
%TO.P,U3,26*%
%TO.N,M3*%
X150110000Y-80070001D03*
%TO.P,U3,27*%
%TO.N,Net-(U3-Pad27)*%
X152650000Y-80070001D03*
%TO.P,U3,28*%
%TO.N,Net-(U3-Pad28)*%
X155190000Y-80070001D03*
%TD*%
D16*
%TO.P,U4,1*%
%TO.N,+5V*%
X186817000Y-97917000D03*
D15*
%TO.P,U4,2*%
%TO.N,Net-(U4-Pad2)*%
X186817000Y-95377000D03*
%TO.P,U4,3*%
%TO.N,GND*%
X186817000Y-92837000D03*
%TO.P,U4,4*%
%TO.N,Net-(U3-Pad20)*%
X186817000Y-90297000D03*
%TO.P,U4,5*%
%TO.N,Net-(U3-Pad21)*%
X186817000Y-87757000D03*
%TO.P,U4,6*%
%TO.N,Net-(U3-Pad22)*%
X186817000Y-85217000D03*
%TO.P,U4,7*%
%TO.N,Net-(U3-Pad23)*%
X186817000Y-82677000D03*
%TO.P,U4,8*%
%TO.N,Net-(U4-Pad8)*%
X186817000Y-80137000D03*
%TD*%
D11*
%TO.P,U5,1*%
%TO.N,+5V*%
X163830000Y-81915000D03*
%TO.P,U5,2*%
%TO.N,Net-(U5-Pad2)*%
X163830000Y-84455000D03*
%TO.P,U5,3*%
%TO.N,GND*%
X163830000Y-86995000D03*
%TO.P,U5,4*%
%TO.N,Net-(U3-Pad28)*%
X163830000Y-89535000D03*
%TO.P,U5,5*%
%TO.N,Net-(U3-Pad27)*%
X163830000Y-92075000D03*
%TO.P,U5,6*%
%TO.N,Net-(U5-Pad6)*%
X163830000Y-94615000D03*
%TO.P,U5,7*%
%TO.N,Net-(U5-Pad7)*%
X181610000Y-84455000D03*
%TO.P,U5,8*%
%TO.N,Net-(U5-Pad8)*%
X181610000Y-86995000D03*
%TO.P,U5,9*%
%TO.N,Net-(U5-Pad9)*%
X181610000Y-89535000D03*
%TO.P,U5,10*%
%TO.N,Net-(U5-Pad10)*%
X181610000Y-92075000D03*
%TD*%
D17*
%TO.P,H1,1*%
%TO.N,GND*%
X195161320Y-74078680D03*
X193040000Y-73200000D03*
X190918680Y-74078680D03*
X190040000Y-76200000D03*
X190918680Y-78321320D03*
X193040000Y-79200000D03*
X195161320Y-78321320D03*
X196040000Y-76200000D03*
D18*
X193040000Y-76200000D03*
%TD*%
%TO.P,H2,1*%
%TO.N,GND*%
X88900000Y-109220000D03*
D17*
X91900000Y-109220000D03*
X91021320Y-111341320D03*
X88900000Y-112220000D03*
X86778680Y-111341320D03*
X85900000Y-109220000D03*
X86778680Y-107098680D03*
X88900000Y-106220000D03*
X91021320Y-107098680D03*
%TD*%
%TO.P,H3,1*%
%TO.N,GND*%
X195161320Y-107098680D03*
X193040000Y-106220000D03*
X190918680Y-107098680D03*
X190040000Y-109220000D03*
X190918680Y-111341320D03*
X193040000Y-112220000D03*
X195161320Y-111341320D03*
X196040000Y-109220000D03*
D18*
X193040000Y-109220000D03*
%TD*%
%TO.P,H4,1*%
%TO.N,GND*%
X96520000Y-76200000D03*
D17*
X99520000Y-76200000D03*
X98641320Y-78321320D03*
X96520000Y-79200000D03*
X94398680Y-78321320D03*
X93520000Y-76200000D03*
X94398680Y-74078680D03*
X96520000Y-73200000D03*
X98641320Y-74078680D03*
%TD*%
D19*
%TO.N,GND*%
X173355000Y-99060000D03*
X173355000Y-93980000D03*
%TO.N,Net-(U3-Pad21)*%
X169164000Y-80010000D03*
%TD*%
D20*
%TO.N,B1*%
X77343000Y-84448800D02*
X77286000Y-84505800D01*
X77343000Y-77851000D02*
X77343000Y-84448800D01*
%TO.N,B2*%
X77286000Y-90957400D02*
X77286000Y-97713800D01*
X77286000Y-104197000D02*
X77216000Y-104267000D01*
X77286000Y-97713800D02*
X77286000Y-104197000D01*
D21*
%TO.N,Net-(U3-Pad20)*%
X151115000Y-96315001D02*
X134870000Y-80070001D01*
X180798999Y-96315001D02*
X151115000Y-96315001D01*
X186817000Y-90297000D02*
X180798999Y-96315001D01*
%TO.N,Net-(U3-Pad21)*%
X139110001Y-81770002D02*
X137410000Y-80070001D01*
X156006001Y-81770002D02*
X139110001Y-81770002D01*
X157766003Y-80010000D02*
X156006001Y-81770002D01*
X169164000Y-80010000D02*
X157766003Y-80010000D01*
%TO.N,Net-(U3-Pad22)*%
X179970000Y-78370000D02*
X141650001Y-78370000D01*
X141650001Y-78370000D02*
X139950000Y-80070001D01*
X186817000Y-85217000D02*
X179970000Y-78370000D01*
D22*
%TO.N,Net-(J1-Pad1)*%
X91533999Y-87917001D02*
X91533999Y-87849003D01*
X90517999Y-88933001D02*
X91533999Y-87917001D01*
X86713201Y-88933001D02*
X90517999Y-88933001D01*
X82286000Y-84505800D02*
X86713201Y-88933001D01*
%TO.N,Net-(J3-Pad1)*%
X90450001Y-95537001D02*
X91533999Y-94453003D01*
X86865601Y-95537001D02*
X90450001Y-95537001D01*
X82286000Y-90957400D02*
X86865601Y-95537001D01*
%TO.N,Net-(J4-Pad1)*%
X90450001Y-102141001D02*
X91533999Y-101057003D01*
X86713201Y-102141001D02*
X90450001Y-102141001D01*
X82286000Y-97713800D02*
X86713201Y-102141001D01*
%TD*%
D23*
%TO.N,GND*%
G36*
X87773463Y-72582506D02*
G01*
X87714498Y-72692820D01*
X87678188Y-72812518D01*
X87665928Y-72937000D01*
X87669000Y-73501250D01*
X87827750Y-73660000D01*
X89027000Y-73660000D01*
X89027000Y-73640000D01*
X89281000Y-73640000D01*
X89281000Y-73660000D01*
X90480250Y-73660000D01*
X90639000Y-73501250D01*
X90642072Y-72937000D01*
X90629812Y-72812518D01*
X90593502Y-72692820D01*
X90534537Y-72582506D01*
X90480778Y-72517000D01*
X93759957Y-72517000D01*
X93430025Y-72930420D01*
X96520000Y-76020395D01*
X99609975Y-72930420D01*
X99280043Y-72517000D01*
X190279957Y-72517000D01*
X189950025Y-72930420D01*
X193040000Y-76020395D01*
X193054143Y-76006253D01*
X193233748Y-76185858D01*
X193219605Y-76200000D01*
X196309580Y-79289975D01*
X196723000Y-78960043D01*
X196723000Y-106459957D01*
X196309580Y-106130025D01*
X193219605Y-109220000D01*
X193233748Y-109234143D01*
X193054143Y-109413748D01*
X193040000Y-109399605D01*
X189950025Y-112489580D01*
X190279957Y-112903000D01*
X91660043Y-112903000D01*
X91989975Y-112489580D01*
X88900000Y-109399605D01*
X85810025Y-112489580D01*
X86139957Y-112903000D01*
X77522606Y-112903000D01*
X75057000Y-110437394D01*
X75057000Y-109164121D01*
X84242909Y-109164121D01*
X84321492Y-110073748D01*
X84576025Y-110950566D01*
X84996725Y-111760879D01*
X85058815Y-111853803D01*
X85630420Y-112309975D01*
X88720395Y-109220000D01*
X89079605Y-109220000D01*
X92169580Y-112309975D01*
X92741185Y-111853803D01*
X93181207Y-111053817D01*
X93456704Y-110183359D01*
X93557091Y-109275879D01*
X93547437Y-109164121D01*
X188382909Y-109164121D01*
X188461492Y-110073748D01*
X188716025Y-110950566D01*
X189136725Y-111760879D01*
X189198815Y-111853803D01*
X189770420Y-112309975D01*
X192860395Y-109220000D01*
X189770420Y-106130025D01*
X189198815Y-106586197D01*
X188758793Y-107386183D01*
X188483296Y-108256641D01*
X188382909Y-109164121D01*
X93547437Y-109164121D01*
X93478508Y-108366252D01*
X93223975Y-107489434D01*
X92803275Y-106679121D01*
X92741185Y-106586197D01*
X92169580Y-106130025D01*
X89079605Y-109220000D01*
X88720395Y-109220000D01*
X85630420Y-106130025D01*
X85058815Y-106586197D01*
X84618793Y-107386183D01*
X84343296Y-108256641D01*
X84242909Y-109164121D01*
X75057000Y-109164121D01*
X75057000Y-106550725D01*
X75465861Y-106886268D01*
X76010483Y-107177375D01*
X76601433Y-107356638D01*
X77216000Y-107417167D01*
X77830567Y-107356638D01*
X78421517Y-107177375D01*
X78966139Y-106886268D01*
X79323883Y-106592675D01*
X79393875Y-106522683D01*
X79513505Y-106424505D01*
X79902577Y-105950420D01*
X85810025Y-105950420D01*
X88900000Y-109040395D01*
X91989975Y-105950420D01*
X189950025Y-105950420D01*
X193040000Y-109040395D01*
X196129975Y-105950420D01*
X195673803Y-105378815D01*
X194873817Y-104938793D01*
X194003359Y-104663296D01*
X193095879Y-104562909D01*
X192186252Y-104641492D01*
X191309434Y-104896025D01*
X190499121Y-105316725D01*
X190406197Y-105378815D01*
X189950025Y-105950420D01*
X91989975Y-105950420D01*
X91533803Y-105378815D01*
X90733817Y-104938793D01*
X89863359Y-104663296D01*
X88955879Y-104562909D01*
X88046252Y-104641492D01*
X87169434Y-104896025D01*
X86359121Y-105316725D01*
X86266197Y-105378815D01*
X85810025Y-105950420D01*
X79902577Y-105950420D01*
X79905269Y-105947140D01*
X80196376Y-105402517D01*
X80375638Y-104811567D01*
X80421000Y-104351002D01*
X80421000Y-104350994D01*
X80436167Y-104197000D01*
X80421000Y-104043005D01*
X80421000Y-99575253D01*
X80606285Y-99760538D01*
X81037859Y-100048907D01*
X81517399Y-100247539D01*
X81870662Y-100317807D01*
X85129364Y-103576509D01*
X85196224Y-103657978D01*
X85521320Y-103924778D01*
X85676036Y-104007475D01*
X85892219Y-104123027D01*
X86294667Y-104245109D01*
X86332202Y-104248806D01*
X86608319Y-104276001D01*
X86608326Y-104276001D01*
X86713201Y-104286330D01*
X86818075Y-104276001D01*
X90345129Y-104276001D01*
X90450001Y-104286330D01*
X90554873Y-104276001D01*
X90554883Y-104276001D01*
X90868534Y-104245109D01*
X91270983Y-104123027D01*
X91641882Y-103924778D01*
X91966978Y-103657978D01*
X92033839Y-103576508D01*
X93117834Y-102492512D01*
X93132480Y-102474665D01*
X96863000Y-102474665D01*
X96863000Y-102757335D01*
X96918147Y-103034574D01*
X97026320Y-103295727D01*
X97183363Y-103530759D01*
X97383241Y-103730637D01*
X97618273Y-103887680D01*
X97879426Y-103995853D01*
X98156665Y-104051000D01*
X98439335Y-104051000D01*
X98716574Y-103995853D01*
X98977727Y-103887680D01*
X99212759Y-103730637D01*
X99412637Y-103530759D01*
X99569680Y-103295727D01*
X99677853Y-103034574D01*
X99733000Y-102757335D01*
X99733000Y-102474665D01*
X107023000Y-102474665D01*
X107023000Y-102757335D01*
X107078147Y-103034574D01*
X107186320Y-103295727D01*
X107343363Y-103530759D01*
X107543241Y-103730637D01*
X107778273Y-103887680D01*
X108039426Y-103995853D01*
X108316665Y-104051000D01*
X108599335Y-104051000D01*
X108876574Y-103995853D01*
X109137727Y-103887680D01*
X109169065Y-103866740D01*
X148629000Y-103866740D01*
X148629000Y-104159260D01*
X148686068Y-104446158D01*
X148798010Y-104716411D01*
X148960525Y-104959632D01*
X149167368Y-105166475D01*
X149410589Y-105328990D01*
X149680842Y-105440932D01*
X149967740Y-105498000D01*
X150260260Y-105498000D01*
X150547158Y-105440932D01*
X150817411Y-105328990D01*
X151060632Y-105166475D01*
X151267475Y-104959632D01*
X151384000Y-104785240D01*
X151500525Y-104959632D01*
X151707368Y-105166475D01*
X151950589Y-105328990D01*
X152220842Y-105440932D01*
X152507740Y-105498000D01*
X152800260Y-105498000D01*
X153087158Y-105440932D01*
X153357411Y-105328990D01*
X153600632Y-105166475D01*
X153807475Y-104959632D01*
X153924000Y-104785240D01*
X154040525Y-104959632D01*
X154247368Y-105166475D01*
X154490589Y-105328990D01*
X154760842Y-105440932D01*
X155047740Y-105498000D01*
X155340260Y-105498000D01*
X155627158Y-105440932D01*
X155897411Y-105328990D01*
X156140632Y-105166475D01*
X156272487Y-105034620D01*
X156294498Y-105107180D01*
X156353463Y-105217494D01*
X156432815Y-105314185D01*
X156529506Y-105393537D01*
X156639820Y-105452502D01*
X156759518Y-105488812D01*
X156884000Y-105501072D01*
X157448250Y-105498000D01*
X157607000Y-105339250D01*
X157607000Y-104140000D01*
X157861000Y-104140000D01*
X157861000Y-105339250D01*
X158019750Y-105498000D01*
X158584000Y-105501072D01*
X158708482Y-105488812D01*
X158828180Y-105452502D01*
X158938494Y-105393537D01*
X159035185Y-105314185D01*
X159114537Y-105217494D01*
X159173502Y-105107180D01*
X159209812Y-104987482D01*
X159222072Y-104863000D01*
X159219000Y-104298750D01*
X159060250Y-104140000D01*
X157861000Y-104140000D01*
X157607000Y-104140000D01*
X157587000Y-104140000D01*
X157587000Y-103886000D01*
X157607000Y-103886000D01*
X157607000Y-102686750D01*
X157861000Y-102686750D01*
X157861000Y-103886000D01*
X159060250Y-103886000D01*
X159219000Y-103727250D01*
X159222072Y-103163000D01*
X159209812Y-103038518D01*
X159173502Y-102918820D01*
X159114537Y-102808506D01*
X159035185Y-102711815D01*
X158938494Y-102632463D01*
X158828180Y-102573498D01*
X158708482Y-102537188D01*
X158584000Y-102524928D01*
X158019750Y-102528000D01*
X157861000Y-102686750D01*
X157607000Y-102686750D01*
X157448250Y-102528000D01*
X156884000Y-102524928D01*
X156759518Y-102537188D01*
X156639820Y-102573498D01*
X156529506Y-102632463D01*
X156432815Y-102711815D01*
X156353463Y-102808506D01*
X156294498Y-102918820D01*
X156272487Y-102991380D01*
X156140632Y-102859525D01*
X155897411Y-102697010D01*
X155627158Y-102585068D01*
X155340260Y-102528000D01*
X155047740Y-102528000D01*
X154760842Y-102585068D01*
X154490589Y-102697010D01*
X154247368Y-102859525D01*
X154040525Y-103066368D01*
X153924000Y-103240760D01*
X153807475Y-103066368D01*
X153600632Y-102859525D01*
X153357411Y-102697010D01*
X153087158Y-102585068D01*
X152800260Y-102528000D01*
X152507740Y-102528000D01*
X152220842Y-102585068D01*
X151950589Y-102697010D01*
X151707368Y-102859525D01*
X151500525Y-103066368D01*
X151384000Y-103240760D01*
X151267475Y-103066368D01*
X151060632Y-102859525D01*
X150817411Y-102697010D01*
X150547158Y-102585068D01*
X150260260Y-102528000D01*
X149967740Y-102528000D01*
X149680842Y-102585068D01*
X149410589Y-102697010D01*
X149167368Y-102859525D01*
X148960525Y-103066368D01*
X148798010Y-103309589D01*
X148686068Y-103579842D01*
X148629000Y-103866740D01*
X109169065Y-103866740D01*
X109372759Y-103730637D01*
X109572637Y-103530759D01*
X109729680Y-103295727D01*
X109837853Y-103034574D01*
X109893000Y-102757335D01*
X109893000Y-102474665D01*
X109837853Y-102197426D01*
X109729680Y-101936273D01*
X109572637Y-101701241D01*
X109372759Y-101501363D01*
X109137727Y-101344320D01*
X108876574Y-101236147D01*
X108599335Y-101181000D01*
X108316665Y-101181000D01*
X108039426Y-101236147D01*
X107778273Y-101344320D01*
X107543241Y-101501363D01*
X107343363Y-101701241D01*
X107186320Y-101936273D01*
X107078147Y-102197426D01*
X107023000Y-102474665D01*
X99733000Y-102474665D01*
X99677853Y-102197426D01*
X99569680Y-101936273D01*
X99412637Y-101701241D01*
X99212759Y-101501363D01*
X98977727Y-101344320D01*
X98716574Y-101236147D01*
X98439335Y-101181000D01*
X98156665Y-101181000D01*
X97879426Y-101236147D01*
X97618273Y-101344320D01*
X97383241Y-101501363D01*
X97183363Y-101701241D01*
X97026320Y-101936273D01*
X96918147Y-102197426D01*
X96863000Y-102474665D01*
X93132480Y-102474665D01*
X93317775Y-102248884D01*
X93516025Y-101877985D01*
X93638107Y-101475537D01*
X93677154Y-101079072D01*
X95234000Y-101079072D01*
X95358482Y-101066812D01*
X95478180Y-101030502D01*
X95588494Y-100971537D01*
X95685185Y-100892185D01*
X95764537Y-100795494D01*
X95823502Y-100685180D01*
X95859812Y-100565482D01*
X95872072Y-100441000D01*
X95872072Y-99274265D01*
X96863000Y-99274265D01*
X96863000Y-99556935D01*
X96918147Y-99834174D01*
X97026320Y-100095327D01*
X97183363Y-100330359D01*
X97383241Y-100530237D01*
X97618273Y-100687280D01*
X97879426Y-100795453D01*
X98156665Y-100850600D01*
X98439335Y-100850600D01*
X98716574Y-100795453D01*
X98977727Y-100687280D01*
X99212759Y-100530237D01*
X99412637Y-100330359D01*
X99569680Y-100095327D01*
X99677853Y-99834174D01*
X99691684Y-99764639D01*
X107066096Y-99764639D01*
X107106754Y-99898687D01*
X107226963Y-100153020D01*
X107394481Y-100379014D01*
X107602869Y-100567985D01*
X107844119Y-100712670D01*
X108108960Y-100807509D01*
X108331000Y-100686224D01*
X108331000Y-99542600D01*
X108585000Y-99542600D01*
X108585000Y-100686224D01*
X108807040Y-100807509D01*
X109071881Y-100712670D01*
X109313131Y-100567985D01*
X109521519Y-100379014D01*
X109632740Y-100228968D01*
X115455000Y-100228968D01*
X115455000Y-100551034D01*
X115517832Y-100866913D01*
X115641082Y-101164464D01*
X115820013Y-101432253D01*
X116047748Y-101659988D01*
X116315537Y-101838919D01*
X116613088Y-101962169D01*
X116928967Y-102025001D01*
X117251033Y-102025001D01*
X117566912Y-101962169D01*
X117864463Y-101838919D01*
X118132252Y-101659988D01*
X118359987Y-101432253D01*
X118360000Y-101432234D01*
X118360013Y-101432253D01*
X118587748Y-101659988D01*
X118855537Y-101838919D01*
X119153088Y-101962169D01*
X119468967Y-102025001D01*
X119791033Y-102025001D01*
X120106912Y-101962169D01*
X120404463Y-101838919D01*
X120672252Y-101659988D01*
X120899987Y-101432253D01*
X120900000Y-101432234D01*
X120900013Y-101432253D01*
X121127748Y-101659988D01*
X121395537Y-101838919D01*
X121693088Y-101962169D01*
X122008967Y-102025001D01*
X122331033Y-102025001D01*
X122646912Y-101962169D01*
X122944463Y-101838919D01*
X123212252Y-101659988D01*
X123346826Y-101525414D01*
X123754192Y-101525414D01*
X123849956Y-101789815D01*
X124139571Y-101930705D01*
X124451108Y-102012385D01*
X124772595Y-102031719D01*
X125091675Y-101987962D01*
X125396088Y-101882796D01*
X125570044Y-101789815D01*
X125665808Y-101525414D01*
X124710000Y-100569606D01*
X123754192Y-101525414D01*
X123346826Y-101525414D01*
X123439987Y-101432253D01*
X123512720Y-101323401D01*
X123574587Y-101345809D01*
X124530395Y-100390001D01*
X124889605Y-100390001D01*
X125845413Y-101345809D01*
X125907280Y-101323401D01*
X125980013Y-101432253D01*
X126207748Y-101659988D01*
X126475537Y-101838919D01*
X126773088Y-101962169D01*
X127088967Y-102025001D01*
X127411033Y-102025001D01*
X127726912Y-101962169D01*
X128024463Y-101838919D01*
X128292252Y-101659988D01*
X128519987Y-101432253D01*
X128520000Y-101432234D01*
X128520013Y-101432253D01*
X128747748Y-101659988D01*
X129015537Y-101838919D01*
X129313088Y-101962169D01*
X129628967Y-102025001D01*
X129951033Y-102025001D01*
X130266912Y-101962169D01*
X130564463Y-101838919D01*
X130832252Y-101659988D01*
X131059987Y-101432253D01*
X131060000Y-101432234D01*
X131060013Y-101432253D01*
X131287748Y-101659988D01*
X131555537Y-101838919D01*
X131853088Y-101962169D01*
X132168967Y-102025001D01*
X132491033Y-102025001D01*
X132806912Y-101962169D01*
X133104463Y-101838919D01*
X133372252Y-101659988D01*
X133599987Y-101432253D01*
X133600000Y-101432234D01*
X133600013Y-101432253D01*
X133827748Y-101659988D01*
X134095537Y-101838919D01*
X134393088Y-101962169D01*
X134708967Y-102025001D01*
X135031033Y-102025001D01*
X135346912Y-101962169D01*
X135644463Y-101838919D01*
X135912252Y-101659988D01*
X136139987Y-101432253D01*
X136140000Y-101432234D01*
X136140013Y-101432253D01*
X136367748Y-101659988D01*
X136635537Y-101838919D01*
X136933088Y-101962169D01*
X137248967Y-102025001D01*
X137571033Y-102025001D01*
X137886912Y-101962169D01*
X138184463Y-101838919D01*
X138452252Y-101659988D01*
X138679987Y-101432253D01*
X138680000Y-101432234D01*
X138680013Y-101432253D01*
X138907748Y-101659988D01*
X139175537Y-101838919D01*
X139473088Y-101962169D01*
X139788967Y-102025001D01*
X140111033Y-102025001D01*
X140426912Y-101962169D01*
X140724463Y-101838919D01*
X140992252Y-101659988D01*
X141219987Y-101432253D01*
X141220000Y-101432234D01*
X141220013Y-101432253D01*
X141447748Y-101659988D01*
X141715537Y-101838919D01*
X142013088Y-101962169D01*
X142328967Y-102025001D01*
X142651033Y-102025001D01*
X142966912Y-101962169D01*
X143264463Y-101838919D01*
X143532252Y-101659988D01*
X143759987Y-101432253D01*
X143760000Y-101432234D01*
X143760013Y-101432253D01*
X143987748Y-101659988D01*
X144255537Y-101838919D01*
X144553088Y-101962169D01*
X144868967Y-102025001D01*
X145191033Y-102025001D01*
X145506912Y-101962169D01*
X145804463Y-101838919D01*
X146072252Y-101659988D01*
X146299987Y-101432253D01*
X146300000Y-101432234D01*
X146300013Y-101432253D01*
X146527748Y-101659988D01*
X146795537Y-101838919D01*
X147093088Y-101962169D01*
X147408967Y-102025001D01*
X147731033Y-102025001D01*
X148046912Y-101962169D01*
X148344463Y-101838919D01*
X148612252Y-101659988D01*
X148839987Y-101432253D01*
X148840000Y-101432234D01*
X148840013Y-101432253D01*
X149067748Y-101659988D01*
X149335537Y-101838919D01*
X149633088Y-101962169D01*
X149948967Y-102025001D01*
X150271033Y-102025001D01*
X150586912Y-101962169D01*
X150884463Y-101838919D01*
X151152252Y-101659988D01*
X151379987Y-101432253D01*
X151380000Y-101432234D01*
X151380013Y-101432253D01*
X151607748Y-101659988D01*
X151875537Y-101838919D01*
X152173088Y-101962169D01*
X152488967Y-102025001D01*
X152811033Y-102025001D01*
X153126912Y-101962169D01*
X153424463Y-101838919D01*
X153692252Y-101659988D01*
X153826826Y-101525414D01*
X154234192Y-101525414D01*
X154329956Y-101789815D01*
X154619571Y-101930705D01*
X154931108Y-102012385D01*
X155252595Y-102031719D01*
X155571675Y-101987962D01*
X155876088Y-101882796D01*
X156050044Y-101789815D01*
X156145808Y-101525414D01*
X155190000Y-100569606D01*
X154234192Y-101525414D01*
X153826826Y-101525414D01*
X153919987Y-101432253D01*
X153992720Y-101323401D01*
X154054587Y-101345809D01*
X155010395Y-100390001D01*
X155369605Y-100390001D01*
X156325413Y-101345809D01*
X156589814Y-101250045D01*
X156730704Y-100960430D01*
X156812384Y-100648893D01*
X156831718Y-100327406D01*
X156787961Y-100008326D01*
X156682795Y-99703913D01*
X156589814Y-99529957D01*
X156325413Y-99434193D01*
X155369605Y-100390001D01*
X155010395Y-100390001D01*
X154054587Y-99434193D01*
X153992720Y-99456601D01*
X153919987Y-99347749D01*
X153826826Y-99254588D01*
X154234192Y-99254588D01*
X155190000Y-100210396D01*
X156145808Y-99254588D01*
X156050044Y-98990187D01*
X155760429Y-98849297D01*
X155448892Y-98767617D01*
X155127405Y-98748283D01*
X154808325Y-98792040D01*
X154503912Y-98897206D01*
X154329956Y-98990187D01*
X154234192Y-99254588D01*
X153826826Y-99254588D01*
X153692252Y-99120014D01*
X153424463Y-98941083D01*
X153126912Y-98817833D01*
X152811033Y-98755001D01*
X152488967Y-98755001D01*
X152173088Y-98817833D01*
X151875537Y-98941083D01*
X151607748Y-99120014D01*
X151380013Y-99347749D01*
X151380000Y-99347768D01*
X151379987Y-99347749D01*
X151152252Y-99120014D01*
X150884463Y-98941083D01*
X150586912Y-98817833D01*
X150271033Y-98755001D01*
X149948967Y-98755001D01*
X149633088Y-98817833D01*
X149335537Y-98941083D01*
X149067748Y-99120014D01*
X148840013Y-99347749D01*
X148840000Y-99347768D01*
X148839987Y-99347749D01*
X148612252Y-99120014D01*
X148344463Y-98941083D01*
X148046912Y-98817833D01*
X147731033Y-98755001D01*
X147408967Y-98755001D01*
X147093088Y-98817833D01*
X146795537Y-98941083D01*
X146527748Y-99120014D01*
X146300013Y-99347749D01*
X146300000Y-99347768D01*
X146299987Y-99347749D01*
X146072252Y-99120014D01*
X145804463Y-98941083D01*
X145506912Y-98817833D01*
X145191033Y-98755001D01*
X144868967Y-98755001D01*
X144553088Y-98817833D01*
X144255537Y-98941083D01*
X143987748Y-99120014D01*
X143760013Y-99347749D01*
X143760000Y-99347768D01*
X143759987Y-99347749D01*
X143532252Y-99120014D01*
X143264463Y-98941083D01*
X142966912Y-98817833D01*
X142651033Y-98755001D01*
X142328967Y-98755001D01*
X142013088Y-98817833D01*
X141715537Y-98941083D01*
X141447748Y-99120014D01*
X141220013Y-99347749D01*
X141220000Y-99347768D01*
X141219987Y-99347749D01*
X140992252Y-99120014D01*
X140724463Y-98941083D01*
X140426912Y-98817833D01*
X140111033Y-98755001D01*
X139788967Y-98755001D01*
X139473088Y-98817833D01*
X139175537Y-98941083D01*
X138907748Y-99120014D01*
X138680013Y-99347749D01*
X138680000Y-99347768D01*
X138679987Y-99347749D01*
X138452252Y-99120014D01*
X138184463Y-98941083D01*
X137886912Y-98817833D01*
X137571033Y-98755001D01*
X137248967Y-98755001D01*
X136933088Y-98817833D01*
X136635537Y-98941083D01*
X136367748Y-99120014D01*
X136140013Y-99347749D01*
X136140000Y-99347768D01*
X136139987Y-99347749D01*
X135912252Y-99120014D01*
X135644463Y-98941083D01*
X135346912Y-98817833D01*
X135031033Y-98755001D01*
X134708967Y-98755001D01*
X134393088Y-98817833D01*
X134095537Y-98941083D01*
X133827748Y-99120014D01*
X133600013Y-99347749D01*
X133600000Y-99347768D01*
X133599987Y-99347749D01*
X133372252Y-99120014D01*
X133104463Y-98941083D01*
X132806912Y-98817833D01*
X132491033Y-98755001D01*
X132168967Y-98755001D01*
X131853088Y-98817833D01*
X131555537Y-98941083D01*
X131287748Y-99120014D01*
X131060013Y-99347749D01*
X131060000Y-99347768D01*
X131059987Y-99347749D01*
X130832252Y-99120014D01*
X130564463Y-98941083D01*
X130266912Y-98817833D01*
X129951033Y-98755001D01*
X129628967Y-98755001D01*
X129313088Y-98817833D01*
X129015537Y-98941083D01*
X128747748Y-99120014D01*
X128520013Y-99347749D01*
X128520000Y-99347768D01*
X128519987Y-99347749D01*
X128292252Y-99120014D01*
X128024463Y-98941083D01*
X127726912Y-98817833D01*
X127411033Y-98755001D01*
X127088967Y-98755001D01*
X126773088Y-98817833D01*
X126475537Y-98941083D01*
X126207748Y-99120014D01*
X125980013Y-99347749D01*
X125907280Y-99456601D01*
X125845413Y-99434193D01*
X124889605Y-100390001D01*
X124530395Y-100390001D01*
X123574587Y-99434193D01*
X123512720Y-99456601D01*
X123439987Y-99347749D01*
X123346826Y-99254588D01*
X123754192Y-99254588D01*
X124710000Y-100210396D01*
X125665808Y-99254588D01*
X125570044Y-98990187D01*
X125280429Y-98849297D01*
X124968892Y-98767617D01*
X124647405Y-98748283D01*
X124328325Y-98792040D01*
X124023912Y-98897206D01*
X123849956Y-98990187D01*
X123754192Y-99254588D01*
X123346826Y-99254588D01*
X123212252Y-99120014D01*
X122944463Y-98941083D01*
X122646912Y-98817833D01*
X122331033Y-98755001D01*
X122008967Y-98755001D01*
X121693088Y-98817833D01*
X121395537Y-98941083D01*
X121127748Y-99120014D01*
X120900013Y-99347749D01*
X120900000Y-99347768D01*
X120899987Y-99347749D01*
X120672252Y-99120014D01*
X120404463Y-98941083D01*
X120106912Y-98817833D01*
X119791033Y-98755001D01*
X119468967Y-98755001D01*
X119153088Y-98817833D01*
X118855537Y-98941083D01*
X118587748Y-99120014D01*
X118360013Y-99347749D01*
X118360000Y-99347768D01*
X118359987Y-99347749D01*
X118132252Y-99120014D01*
X117864463Y-98941083D01*
X117566912Y-98817833D01*
X117251033Y-98755001D01*
X116928967Y-98755001D01*
X116613088Y-98817833D01*
X116315537Y-98941083D01*
X116047748Y-99120014D01*
X115820013Y-99347749D01*
X115641082Y-99615538D01*
X115517832Y-99913089D01*
X115455000Y-100228968D01*
X109632740Y-100228968D01*
X109689037Y-100153020D01*
X109809246Y-99898687D01*
X109849904Y-99764639D01*
X109727915Y-99542600D01*
X108585000Y-99542600D01*
X108331000Y-99542600D01*
X107188085Y-99542600D01*
X107066096Y-99764639D01*
X99691684Y-99764639D01*
X99733000Y-99556935D01*
X99733000Y-99274265D01*
X99691685Y-99066561D01*
X107066096Y-99066561D01*
X107188085Y-99288600D01*
X108331000Y-99288600D01*
X108331000Y-98144976D01*
X108585000Y-98144976D01*
X108585000Y-99288600D01*
X109727915Y-99288600D01*
X109849904Y-99066561D01*
X109809246Y-98932513D01*
X109689037Y-98678180D01*
X109521519Y-98452186D01*
X109313131Y-98263215D01*
X109071881Y-98118530D01*
X108807040Y-98023691D01*
X108585000Y-98144976D01*
X108331000Y-98144976D01*
X108108960Y-98023691D01*
X107844119Y-98118530D01*
X107602869Y-98263215D01*
X107394481Y-98452186D01*
X107226963Y-98678180D01*
X107106754Y-98932513D01*
X107066096Y-99066561D01*
X99691685Y-99066561D01*
X99677853Y-98997026D01*
X99569680Y-98735873D01*
X99412637Y-98500841D01*
X99212759Y-98300963D01*
X98977727Y-98143920D01*
X98716574Y-98035747D01*
X98439335Y-97980600D01*
X98156665Y-97980600D01*
X97879426Y-98035747D01*
X97618273Y-98143920D01*
X97383241Y-98300963D01*
X97183363Y-98500841D01*
X97026320Y-98735873D01*
X96918147Y-98997026D01*
X96863000Y-99274265D01*
X95872072Y-99274265D01*
X95872072Y-98441000D01*
X95859812Y-98316518D01*
X95823502Y-98196820D01*
X95764537Y-98086506D01*
X95685185Y-97989815D01*
X95588494Y-97910463D01*
X95478180Y-97851498D01*
X95358482Y-97815188D01*
X95234000Y-97802928D01*
X93234000Y-97802928D01*
X93109518Y-97815188D01*
X92989820Y-97851498D01*
X92879506Y-97910463D01*
X92782815Y-97989815D01*
X92703463Y-98086506D01*
X92678809Y-98132630D01*
X92468463Y-97992082D01*
X92170912Y-97868832D01*
X91855033Y-97806000D01*
X91532967Y-97806000D01*
X91217088Y-97868832D01*
X90919537Y-97992082D01*
X90651748Y-98171013D01*
X90424013Y-98398748D01*
X90245082Y-98666537D01*
X90121832Y-98964088D01*
X90059000Y-99279967D01*
X90059000Y-99512658D01*
X89565657Y-100006001D01*
X87597546Y-100006001D01*
X84890007Y-97298462D01*
X84819739Y-96945199D01*
X84621107Y-96465659D01*
X84332738Y-96034085D01*
X83965715Y-95667062D01*
X83534141Y-95378693D01*
X83054601Y-95180061D01*
X82545525Y-95078800D01*
X82026475Y-95078800D01*
X81517399Y-95180061D01*
X81037859Y-95378693D01*
X80606285Y-95667062D01*
X80421000Y-95852347D01*
X80421000Y-92818853D01*
X80606285Y-93004138D01*
X81037859Y-93292507D01*
X81517399Y-93491139D01*
X81870662Y-93561407D01*
X85281768Y-96972514D01*
X85348624Y-97053978D01*
X85430088Y-97120834D01*
X85430090Y-97120836D01*
X85437159Y-97126637D01*
X85673720Y-97320778D01*
X85884753Y-97433577D01*
X86044619Y-97519027D01*
X86447067Y-97641109D01*
X86484602Y-97644806D01*
X86760719Y-97672001D01*
X86760726Y-97672001D01*
X86865601Y-97682330D01*
X86970475Y-97672001D01*
X90345129Y-97672001D01*
X90450001Y-97682330D01*
X90554873Y-97672001D01*
X90554883Y-97672001D01*
X90868534Y-97641109D01*
X91270983Y-97519027D01*
X91641882Y-97320778D01*
X91966978Y-97053978D01*
X92033839Y-96972508D01*
X93117834Y-95888512D01*
X93132480Y-95870665D01*
X96863000Y-95870665D01*
X96863000Y-96153335D01*
X96918147Y-96430574D01*
X97026320Y-96691727D01*
X97183363Y-96926759D01*
X97383241Y-97126637D01*
X97618273Y-97283680D01*
X97879426Y-97391853D01*
X98156665Y-97447000D01*
X98439335Y-97447000D01*
X98716574Y-97391853D01*
X98977727Y-97283680D01*
X99212759Y-97126637D01*
X99412637Y-96926759D01*
X99569680Y-96691727D01*
X99677853Y-96430574D01*
X99733000Y-96153335D01*
X99733000Y-95870665D01*
X107023000Y-95870665D01*
X107023000Y-96153335D01*
X107078147Y-96430574D01*
X107186320Y-96691727D01*
X107343363Y-96926759D01*
X107543241Y-97126637D01*
X107778273Y-97283680D01*
X108039426Y-97391853D01*
X108316665Y-97447000D01*
X108599335Y-97447000D01*
X108876574Y-97391853D01*
X109137727Y-97283680D01*
X109372759Y-97126637D01*
X109572637Y-96926759D01*
X109729680Y-96691727D01*
X109837853Y-96430574D01*
X109893000Y-96153335D01*
X109893000Y-95870665D01*
X109837853Y-95593426D01*
X109729680Y-95332273D01*
X109572637Y-95097241D01*
X109372759Y-94897363D01*
X109137727Y-94740320D01*
X108876574Y-94632147D01*
X108599335Y-94577000D01*
X108316665Y-94577000D01*
X108039426Y-94632147D01*
X107778273Y-94740320D01*
X107543241Y-94897363D01*
X107343363Y-95097241D01*
X107186320Y-95332273D01*
X107078147Y-95593426D01*
X107023000Y-95870665D01*
X99733000Y-95870665D01*
X99677853Y-95593426D01*
X99569680Y-95332273D01*
X99412637Y-95097241D01*
X99212759Y-94897363D01*
X98977727Y-94740320D01*
X98716574Y-94632147D01*
X98439335Y-94577000D01*
X98156665Y-94577000D01*
X97879426Y-94632147D01*
X97618273Y-94740320D01*
X97383241Y-94897363D01*
X97183363Y-95097241D01*
X97026320Y-95332273D01*
X96918147Y-95593426D01*
X96863000Y-95870665D01*
X93132480Y-95870665D01*
X93317775Y-95644884D01*
X93516025Y-95273985D01*
X93638107Y-94871537D01*
X93677154Y-94475072D01*
X95234000Y-94475072D01*
X95358482Y-94462812D01*
X95478180Y-94426502D01*
X95588494Y-94367537D01*
X95685185Y-94288185D01*
X95764537Y-94191494D01*
X95823502Y-94081180D01*
X95859812Y-93961482D01*
X95872072Y-93837000D01*
X95872072Y-92695665D01*
X96888400Y-92695665D01*
X96888400Y-92978335D01*
X96943547Y-93255574D01*
X97051720Y-93516727D01*
X97208763Y-93751759D01*
X97408641Y-93951637D01*
X97643673Y-94108680D01*
X97904826Y-94216853D01*
X98182065Y-94272000D01*
X98464735Y-94272000D01*
X98741974Y-94216853D01*
X99003127Y-94108680D01*
X99238159Y-93951637D01*
X99438037Y-93751759D01*
X99595080Y-93516727D01*
X99703253Y-93255574D01*
X99717084Y-93186039D01*
X107091496Y-93186039D01*
X107132154Y-93320087D01*
X107252363Y-93574420D01*
X107419881Y-93800414D01*
X107628269Y-93989385D01*
X107869519Y-94134070D01*
X108134360Y-94228909D01*
X108356400Y-94107624D01*
X108356400Y-92964000D01*
X108610400Y-92964000D01*
X108610400Y-94107624D01*
X108832440Y-94228909D01*
X109097281Y-94134070D01*
X109338531Y-93989385D01*
X109546919Y-93800414D01*
X109714437Y-93574420D01*
X109834646Y-93320087D01*
X109875304Y-93186039D01*
X109753315Y-92964000D01*
X108610400Y-92964000D01*
X108356400Y-92964000D01*
X107213485Y-92964000D01*
X107091496Y-93186039D01*
X99717084Y-93186039D01*
X99758400Y-92978335D01*
X99758400Y-92695665D01*
X99717085Y-92487961D01*
X107091496Y-92487961D01*
X107213485Y-92710000D01*
X108356400Y-92710000D01*
X108356400Y-91566376D01*
X108610400Y-91566376D01*
X108610400Y-92710000D01*
X109753315Y-92710000D01*
X109875304Y-92487961D01*
X109834646Y-92353913D01*
X109714437Y-92099580D01*
X109546919Y-91873586D01*
X109338531Y-91684615D01*
X109097281Y-91539930D01*
X108832440Y-91445091D01*
X108610400Y-91566376D01*
X108356400Y-91566376D01*
X108134360Y-91445091D01*
X107869519Y-91539930D01*
X107628269Y-91684615D01*
X107419881Y-91873586D01*
X107252363Y-92099580D01*
X107132154Y-92353913D01*
X107091496Y-92487961D01*
X99717085Y-92487961D01*
X99703253Y-92418426D01*
X99595080Y-92157273D01*
X99438037Y-91922241D01*
X99238159Y-91722363D01*
X99003127Y-91565320D01*
X98741974Y-91457147D01*
X98464735Y-91402000D01*
X98182065Y-91402000D01*
X97904826Y-91457147D01*
X97643673Y-91565320D01*
X97408641Y-91722363D01*
X97208763Y-91922241D01*
X97051720Y-92157273D01*
X96943547Y-92418426D01*
X96888400Y-92695665D01*
X95872072Y-92695665D01*
X95872072Y-91837000D01*
X95859812Y-91712518D01*
X95823502Y-91592820D01*
X95764537Y-91482506D01*
X95685185Y-91385815D01*
X95588494Y-91306463D01*
X95478180Y-91247498D01*
X95358482Y-91211188D01*
X95234000Y-91198928D01*
X93234000Y-91198928D01*
X93109518Y-91211188D01*
X92989820Y-91247498D01*
X92879506Y-91306463D01*
X92782815Y-91385815D01*
X92703463Y-91482506D01*
X92678809Y-91528630D01*
X92468463Y-91388082D01*
X92170912Y-91264832D01*
X91855033Y-91202000D01*
X91532967Y-91202000D01*
X91217088Y-91264832D01*
X90919537Y-91388082D01*
X90651748Y-91567013D01*
X90424013Y-91794748D01*
X90245082Y-92062537D01*
X90121832Y-92360088D01*
X90059000Y-92675967D01*
X90059000Y-92908658D01*
X89565657Y-93402001D01*
X87749947Y-93402001D01*
X84890007Y-90542062D01*
X84819739Y-90188799D01*
X84727875Y-89967020D01*
X85129364Y-90368509D01*
X85196224Y-90449978D01*
X85521320Y-90716778D01*
X85686348Y-90804987D01*
X85892219Y-90915027D01*
X86294667Y-91037109D01*
X86332202Y-91040806D01*
X86608319Y-91068001D01*
X86608326Y-91068001D01*
X86713201Y-91078330D01*
X86818075Y-91068001D01*
X90413127Y-91068001D01*
X90517999Y-91078330D01*
X90622871Y-91068001D01*
X90622881Y-91068001D01*
X90936532Y-91037109D01*
X91338981Y-90915027D01*
X91709880Y-90716778D01*
X92034976Y-90449978D01*
X92101836Y-90368509D01*
X92969507Y-89500838D01*
X93050976Y-89433978D01*
X93188286Y-89266665D01*
X96863000Y-89266665D01*
X96863000Y-89549335D01*
X96918147Y-89826574D01*
X97026320Y-90087727D01*
X97183363Y-90322759D01*
X97383241Y-90522637D01*
X97618273Y-90679680D01*
X97879426Y-90787853D01*
X98156665Y-90843000D01*
X98439335Y-90843000D01*
X98716574Y-90787853D01*
X98977727Y-90679680D01*
X99212759Y-90522637D01*
X99412637Y-90322759D01*
X99569680Y-90087727D01*
X99677853Y-89826574D01*
X99733000Y-89549335D01*
X99733000Y-89266665D01*
X107023000Y-89266665D01*
X107023000Y-89549335D01*
X107078147Y-89826574D01*
X107186320Y-90087727D01*
X107343363Y-90322759D01*
X107543241Y-90522637D01*
X107778273Y-90679680D01*
X108039426Y-90787853D01*
X108316665Y-90843000D01*
X108599335Y-90843000D01*
X108876574Y-90787853D01*
X109137727Y-90679680D01*
X109372759Y-90522637D01*
X109572637Y-90322759D01*
X109729680Y-90087727D01*
X109837853Y-89826574D01*
X109893000Y-89549335D01*
X109893000Y-89266665D01*
X109837853Y-88989426D01*
X109729680Y-88728273D01*
X109572637Y-88493241D01*
X109372759Y-88293363D01*
X109137727Y-88136320D01*
X108876574Y-88028147D01*
X108599335Y-87973000D01*
X108316665Y-87973000D01*
X108039426Y-88028147D01*
X107778273Y-88136320D01*
X107543241Y-88293363D01*
X107343363Y-88493241D01*
X107186320Y-88728273D01*
X107078147Y-88989426D01*
X107023000Y-89266665D01*
X99733000Y-89266665D01*
X99677853Y-88989426D01*
X99569680Y-88728273D01*
X99412637Y-88493241D01*
X99212759Y-88293363D01*
X98977727Y-88136320D01*
X98716574Y-88028147D01*
X98439335Y-87973000D01*
X98156665Y-87973000D01*
X97879426Y-88028147D01*
X97618273Y-88136320D01*
X97383241Y-88293363D01*
X97183363Y-88493241D01*
X97026320Y-88728273D01*
X96918147Y-88989426D01*
X96863000Y-89266665D01*
X93188286Y-89266665D01*
X93317776Y-89108882D01*
X93516025Y-88737983D01*
X93638107Y-88335534D01*
X93668999Y-88021883D01*
X93668999Y-88021873D01*
X93679328Y-87917001D01*
X93674804Y-87871072D01*
X95234000Y-87871072D01*
X95358482Y-87858812D01*
X95478180Y-87822502D01*
X95588494Y-87763537D01*
X95685185Y-87684185D01*
X95764537Y-87587494D01*
X95823502Y-87477180D01*
X95859812Y-87357482D01*
X95872072Y-87233000D01*
X95872072Y-86091665D01*
X96888400Y-86091665D01*
X96888400Y-86374335D01*
X96943547Y-86651574D01*
X97051720Y-86912727D01*
X97208763Y-87147759D01*
X97408641Y-87347637D01*
X97643673Y-87504680D01*
X97904826Y-87612853D01*
X98182065Y-87668000D01*
X98464735Y-87668000D01*
X98741974Y-87612853D01*
X99003127Y-87504680D01*
X99238159Y-87347637D01*
X99438037Y-87147759D01*
X99595080Y-86912727D01*
X99703253Y-86651574D01*
X99717084Y-86582039D01*
X107091496Y-86582039D01*
X107132154Y-86716087D01*
X107252363Y-86970420D01*
X107419881Y-87196414D01*
X107628269Y-87385385D01*
X107869519Y-87530070D01*
X108134360Y-87624909D01*
X108356400Y-87503624D01*
X108356400Y-86360000D01*
X108610400Y-86360000D01*
X108610400Y-87503624D01*
X108832440Y-87624909D01*
X109097281Y-87530070D01*
X109338531Y-87385385D01*
X109546919Y-87196414D01*
X109714437Y-86970420D01*
X109834646Y-86716087D01*
X109875304Y-86582039D01*
X109753315Y-86360000D01*
X108610400Y-86360000D01*
X108356400Y-86360000D01*
X107213485Y-86360000D01*
X107091496Y-86582039D01*
X99717084Y-86582039D01*
X99758400Y-86374335D01*
X99758400Y-86091665D01*
X99717085Y-85883961D01*
X107091496Y-85883961D01*
X107213485Y-86106000D01*
X108356400Y-86106000D01*
X108356400Y-84962376D01*
X108610400Y-84962376D01*
X108610400Y-86106000D01*
X109753315Y-86106000D01*
X109875304Y-85883961D01*
X109834646Y-85749913D01*
X109714437Y-85495580D01*
X109546919Y-85269586D01*
X109338531Y-85080615D01*
X109097281Y-84935930D01*
X108832440Y-84841091D01*
X108610400Y-84962376D01*
X108356400Y-84962376D01*
X108134360Y-84841091D01*
X107869519Y-84935930D01*
X107628269Y-85080615D01*
X107419881Y-85269586D01*
X107252363Y-85495580D01*
X107132154Y-85749913D01*
X107091496Y-85883961D01*
X99717085Y-85883961D01*
X99703253Y-85814426D01*
X99595080Y-85553273D01*
X99438037Y-85318241D01*
X99238159Y-85118363D01*
X99003127Y-84961320D01*
X98741974Y-84853147D01*
X98464735Y-84798000D01*
X98182065Y-84798000D01*
X97904826Y-84853147D01*
X97643673Y-84961320D01*
X97408641Y-85118363D01*
X97208763Y-85318241D01*
X97051720Y-85553273D01*
X96943547Y-85814426D01*
X96888400Y-86091665D01*
X95872072Y-86091665D01*
X95872072Y-85233000D01*
X95859812Y-85108518D01*
X95823502Y-84988820D01*
X95764537Y-84878506D01*
X95685185Y-84781815D01*
X95588494Y-84702463D01*
X95478180Y-84643498D01*
X95358482Y-84607188D01*
X95234000Y-84594928D01*
X93234000Y-84594928D01*
X93109518Y-84607188D01*
X92989820Y-84643498D01*
X92879506Y-84702463D01*
X92782815Y-84781815D01*
X92703463Y-84878506D01*
X92678809Y-84924630D01*
X92468463Y-84784082D01*
X92170912Y-84660832D01*
X91855033Y-84598000D01*
X91532967Y-84598000D01*
X91217088Y-84660832D01*
X90919537Y-84784082D01*
X90651748Y-84963013D01*
X90424013Y-85190748D01*
X90245082Y-85458537D01*
X90121832Y-85756088D01*
X90059000Y-86071967D01*
X90059000Y-86297575D01*
X90017022Y-86332026D01*
X89750222Y-86657122D01*
X89722306Y-86709349D01*
X89633654Y-86798001D01*
X87597546Y-86798001D01*
X84890007Y-84090462D01*
X84819739Y-83737199D01*
X84621107Y-83257659D01*
X84332738Y-82826085D01*
X83965715Y-82459062D01*
X83534141Y-82170693D01*
X83054601Y-81972061D01*
X82545525Y-81870800D01*
X82026475Y-81870800D01*
X81517399Y-81972061D01*
X81037859Y-82170693D01*
X80606285Y-82459062D01*
X80478000Y-82587347D01*
X80478000Y-77696998D01*
X80432638Y-77236433D01*
X80253376Y-76645483D01*
X79962269Y-76100860D01*
X79570505Y-75623495D01*
X79093139Y-75231731D01*
X78548516Y-74940624D01*
X77957566Y-74761362D01*
X77343000Y-74700832D01*
X76728433Y-74761362D01*
X76137483Y-74940624D01*
X75592860Y-75231731D01*
X75115495Y-75623495D01*
X75057000Y-75694771D01*
X75057000Y-74982606D01*
X75402606Y-74637000D01*
X87665928Y-74637000D01*
X87678188Y-74761482D01*
X87714498Y-74881180D01*
X87773463Y-74991494D01*
X87852815Y-75088185D01*
X87949506Y-75167537D01*
X88059820Y-75226502D01*
X88132380Y-75248513D01*
X88000525Y-75380368D01*
X87838010Y-75623589D01*
X87726068Y-75893842D01*
X87669000Y-76180740D01*
X87669000Y-76473260D01*
X87726068Y-76760158D01*
X87838010Y-77030411D01*
X88000525Y-77273632D01*
X88207368Y-77480475D01*
X88381760Y-77597000D01*
X88207368Y-77713525D01*
X88000525Y-77920368D01*
X87838010Y-78163589D01*
X87726068Y-78433842D01*
X87669000Y-78720740D01*
X87669000Y-79013260D01*
X87726068Y-79300158D01*
X87838010Y-79570411D01*
X88000525Y-79813632D01*
X88207368Y-80020475D01*
X88381760Y-80137000D01*
X88207368Y-80253525D01*
X88000525Y-80460368D01*
X87838010Y-80703589D01*
X87726068Y-80973842D01*
X87669000Y-81260740D01*
X87669000Y-81553260D01*
X87726068Y-81840158D01*
X87838010Y-82110411D01*
X88000525Y-82353632D01*
X88207368Y-82560475D01*
X88450589Y-82722990D01*
X88720842Y-82834932D01*
X89007740Y-82892000D01*
X89300260Y-82892000D01*
X89587158Y-82834932D01*
X89857411Y-82722990D01*
X90100632Y-82560475D01*
X90307475Y-82353632D01*
X90469990Y-82110411D01*
X90581932Y-81840158D01*
X90639000Y-81553260D01*
X90639000Y-81260740D01*
X90581932Y-80973842D01*
X90469990Y-80703589D01*
X90307475Y-80460368D01*
X90100632Y-80253525D01*
X89926240Y-80137000D01*
X90100632Y-80020475D01*
X90307475Y-79813632D01*
X90469990Y-79570411D01*
X90511755Y-79469580D01*
X93430025Y-79469580D01*
X93886197Y-80041185D01*
X94686183Y-80481207D01*
X95556641Y-80756704D01*
X96464121Y-80857091D01*
X97373748Y-80778508D01*
X98250566Y-80523975D01*
X99060879Y-80103275D01*
X99153803Y-80041185D01*
X99259319Y-79908968D01*
X125615000Y-79908968D01*
X125615000Y-80231034D01*
X125677832Y-80546913D01*
X125801082Y-80844464D01*
X125980013Y-81112253D01*
X126207748Y-81339988D01*
X126475537Y-81518919D01*
X126773088Y-81642169D01*
X127088967Y-81705001D01*
X127411033Y-81705001D01*
X127726912Y-81642169D01*
X128024463Y-81518919D01*
X128292252Y-81339988D01*
X128519987Y-81112253D01*
X128520000Y-81112234D01*
X128520013Y-81112253D01*
X128747748Y-81339988D01*
X129015537Y-81518919D01*
X129313088Y-81642169D01*
X129628967Y-81705001D01*
X129951033Y-81705001D01*
X130266912Y-81642169D01*
X130564463Y-81518919D01*
X130832252Y-81339988D01*
X131059987Y-81112253D01*
X131060000Y-81112234D01*
X131060013Y-81112253D01*
X131287748Y-81339988D01*
X131555537Y-81518919D01*
X131853088Y-81642169D01*
X132168967Y-81705001D01*
X132491033Y-81705001D01*
X132806912Y-81642169D01*
X133104463Y-81518919D01*
X133372252Y-81339988D01*
X133599987Y-81112253D01*
X133600000Y-81112234D01*
X133600013Y-81112253D01*
X133827748Y-81339988D01*
X134095537Y-81518919D01*
X134393088Y-81642169D01*
X134708967Y-81705001D01*
X134899869Y-81705001D01*
X150273009Y-97078142D01*
X150308551Y-97121450D01*
X150481377Y-97263285D01*
X150678553Y-97368677D01*
X150892501Y-97433578D01*
X151059248Y-97450001D01*
X151059257Y-97450001D01*
X151114999Y-97455491D01*
X151170741Y-97450001D01*
X180743248Y-97450001D01*
X180798999Y-97455492D01*
X180854750Y-97450001D01*
X180854751Y-97450001D01*
X181021498Y-97433578D01*
X181235446Y-97368677D01*
X181432622Y-97263285D01*
X181605448Y-97121450D01*
X181640995Y-97078136D01*
X185410367Y-93308765D01*
X185420175Y-93341099D01*
X185545359Y-93603920D01*
X185719412Y-93837269D01*
X185935645Y-94032178D01*
X186052534Y-94101805D01*
X185870368Y-94223525D01*
X185663525Y-94430368D01*
X185501010Y-94673589D01*
X185389068Y-94943842D01*
X185332000Y-95230740D01*
X185332000Y-95523260D01*
X185389068Y-95810158D01*
X185501010Y-96080411D01*
X185663525Y-96323632D01*
X185795380Y-96455487D01*
X185722820Y-96477498D01*
X185612506Y-96536463D01*
X185515815Y-96615815D01*
X185436463Y-96712506D01*
X185377498Y-96822820D01*
X185341188Y-96942518D01*
X185328928Y-97067000D01*
X185328928Y-98767000D01*
X185341188Y-98891482D01*
X185377498Y-99011180D01*
X185436463Y-99121494D01*
X185515815Y-99218185D01*
X185612506Y-99297537D01*
X185722820Y-99356502D01*
X185842518Y-99392812D01*
X185967000Y-99405072D01*
X187667000Y-99405072D01*
X187791482Y-99392812D01*
X187911180Y-99356502D01*
X188021494Y-99297537D01*
X188118185Y-99218185D01*
X188197537Y-99121494D01*
X188256502Y-99011180D01*
X188292812Y-98891482D01*
X188305072Y-98767000D01*
X188305072Y-97067000D01*
X188292812Y-96942518D01*
X188256502Y-96822820D01*
X188197537Y-96712506D01*
X188118185Y-96615815D01*
X188021494Y-96536463D01*
X187911180Y-96477498D01*
X187838620Y-96455487D01*
X187970475Y-96323632D01*
X188132990Y-96080411D01*
X188244932Y-95810158D01*
X188302000Y-95523260D01*
X188302000Y-95230740D01*
X188244932Y-94943842D01*
X188132990Y-94673589D01*
X187970475Y-94430368D01*
X187763632Y-94223525D01*
X187581466Y-94101805D01*
X187698355Y-94032178D01*
X187914588Y-93837269D01*
X188088641Y-93603920D01*
X188213825Y-93341099D01*
X188258476Y-93193890D01*
X188137155Y-92964000D01*
X186944000Y-92964000D01*
X186944000Y-92984000D01*
X186690000Y-92984000D01*
X186690000Y-92964000D01*
X186670000Y-92964000D01*
X186670000Y-92710000D01*
X186690000Y-92710000D01*
X186690000Y-92690000D01*
X186944000Y-92690000D01*
X186944000Y-92710000D01*
X188137155Y-92710000D01*
X188258476Y-92480110D01*
X188213825Y-92332901D01*
X188088641Y-92070080D01*
X187914588Y-91836731D01*
X187698355Y-91641822D01*
X187581466Y-91572195D01*
X187763632Y-91450475D01*
X187970475Y-91243632D01*
X188132990Y-91000411D01*
X188244932Y-90730158D01*
X188302000Y-90443260D01*
X188302000Y-90150740D01*
X188244932Y-89863842D01*
X188132990Y-89593589D01*
X187970475Y-89350368D01*
X187763632Y-89143525D01*
X187589240Y-89027000D01*
X187763632Y-88910475D01*
X187970475Y-88703632D01*
X188132990Y-88460411D01*
X188244932Y-88190158D01*
X188302000Y-87903260D01*
X188302000Y-87610740D01*
X188244932Y-87323842D01*
X188132990Y-87053589D01*
X187970475Y-86810368D01*
X187763632Y-86603525D01*
X187589240Y-86487000D01*
X187763632Y-86370475D01*
X187970475Y-86163632D01*
X188132990Y-85920411D01*
X188244932Y-85650158D01*
X188302000Y-85363260D01*
X188302000Y-85070740D01*
X188244932Y-84783842D01*
X188132990Y-84513589D01*
X187970475Y-84270368D01*
X187763632Y-84063525D01*
X187589240Y-83947000D01*
X187763632Y-83830475D01*
X187970475Y-83623632D01*
X188132990Y-83380411D01*
X188244932Y-83110158D01*
X188302000Y-82823260D01*
X188302000Y-82530740D01*
X188244932Y-82243842D01*
X188132990Y-81973589D01*
X187970475Y-81730368D01*
X187763632Y-81523525D01*
X187589240Y-81407000D01*
X187763632Y-81290475D01*
X187970475Y-81083632D01*
X188132990Y-80840411D01*
X188244932Y-80570158D01*
X188302000Y-80283260D01*
X188302000Y-79990740D01*
X188244932Y-79703842D01*
X188147898Y-79469580D01*
X189950025Y-79469580D01*
X190406197Y-80041185D01*
X191206183Y-80481207D01*
X192076641Y-80756704D01*
X192984121Y-80857091D01*
X193893748Y-80778508D01*
X194770566Y-80523975D01*
X195580879Y-80103275D01*
X195673803Y-80041185D01*
X196129975Y-79469580D01*
X193040000Y-76379605D01*
X189950025Y-79469580D01*
X188147898Y-79469580D01*
X188132990Y-79433589D01*
X187970475Y-79190368D01*
X187763632Y-78983525D01*
X187520411Y-78821010D01*
X187250158Y-78709068D01*
X186963260Y-78652000D01*
X186670740Y-78652000D01*
X186383842Y-78709068D01*
X186113589Y-78821010D01*
X185870368Y-78983525D01*
X185663525Y-79190368D01*
X185501010Y-79433589D01*
X185389068Y-79703842D01*
X185332000Y-79990740D01*
X185332000Y-80283260D01*
X185389068Y-80570158D01*
X185501010Y-80840411D01*
X185663525Y-81083632D01*
X185870368Y-81290475D01*
X186044760Y-81407000D01*
X185870368Y-81523525D01*
X185663525Y-81730368D01*
X185501010Y-81973589D01*
X185406614Y-82201482D01*
X180811996Y-77606865D01*
X180776449Y-77563551D01*
X180603623Y-77421716D01*
X180406447Y-77316324D01*
X180192499Y-77251423D01*
X180025752Y-77235000D01*
X180025751Y-77235000D01*
X179970000Y-77229509D01*
X179914249Y-77235000D01*
X141705742Y-77235000D01*
X141650000Y-77229510D01*
X141594258Y-77235000D01*
X141594249Y-77235000D01*
X141427502Y-77251423D01*
X141213554Y-77316324D01*
X141016378Y-77421716D01*
X140843552Y-77563551D01*
X140808010Y-77606860D01*
X139979869Y-78435001D01*
X139788967Y-78435001D01*
X139473088Y-78497833D01*
X139175537Y-78621083D01*
X138907748Y-78800014D01*
X138680013Y-79027749D01*
X138680000Y-79027768D01*
X138679987Y-79027749D01*
X138452252Y-78800014D01*
X138184463Y-78621083D01*
X137886912Y-78497833D01*
X137571033Y-78435001D01*
X137248967Y-78435001D01*
X136933088Y-78497833D01*
X136635537Y-78621083D01*
X136367748Y-78800014D01*
X136140013Y-79027749D01*
X136140000Y-79027768D01*
X136139987Y-79027749D01*
X135912252Y-78800014D01*
X135644463Y-78621083D01*
X135346912Y-78497833D01*
X135031033Y-78435001D01*
X134708967Y-78435001D01*
X134393088Y-78497833D01*
X134095537Y-78621083D01*
X133827748Y-78800014D01*
X133600013Y-79027749D01*
X133600000Y-79027768D01*
X133599987Y-79027749D01*
X133372252Y-78800014D01*
X133104463Y-78621083D01*
X132806912Y-78497833D01*
X132491033Y-78435001D01*
X132168967Y-78435001D01*
X131853088Y-78497833D01*
X131555537Y-78621083D01*
X131287748Y-78800014D01*
X131060013Y-79027749D01*
X131060000Y-79027768D01*
X131059987Y-79027749D01*
X130832252Y-78800014D01*
X130564463Y-78621083D01*
X130266912Y-78497833D01*
X129951033Y-78435001D01*
X129628967Y-78435001D01*
X129313088Y-78497833D01*
X129015537Y-78621083D01*
X128747748Y-78800014D01*
X128520013Y-79027749D01*
X128520000Y-79027768D01*
X128519987Y-79027749D01*
X128292252Y-78800014D01*
X128024463Y-78621083D01*
X127726912Y-78497833D01*
X127411033Y-78435001D01*
X127088967Y-78435001D01*
X126773088Y-78497833D01*
X126475537Y-78621083D01*
X126207748Y-78800014D01*
X125980013Y-79027749D01*
X125801082Y-79295538D01*
X125677832Y-79593089D01*
X125615000Y-79908968D01*
X99259319Y-79908968D01*
X99609975Y-79469580D01*
X96520000Y-76379605D01*
X93430025Y-79469580D01*
X90511755Y-79469580D01*
X90581932Y-79300158D01*
X90639000Y-79013260D01*
X90639000Y-78720740D01*
X90581932Y-78433842D01*
X90469990Y-78163589D01*
X90307475Y-77920368D01*
X90100632Y-77713525D01*
X89926240Y-77597000D01*
X90100632Y-77480475D01*
X90307475Y-77273632D01*
X90469990Y-77030411D01*
X90581932Y-76760158D01*
X90639000Y-76473260D01*
X90639000Y-76180740D01*
X90631716Y-76144121D01*
X91862909Y-76144121D01*
X91941492Y-77053748D01*
X92196025Y-77930566D01*
X92616725Y-78740879D01*
X92678815Y-78833803D01*
X93250420Y-79289975D01*
X96340395Y-76200000D01*
X96699605Y-76200000D01*
X99789580Y-79289975D01*
X100361185Y-78833803D01*
X100801207Y-78033817D01*
X101076704Y-77163359D01*
X101177091Y-76255879D01*
X101167437Y-76144121D01*
X188382909Y-76144121D01*
X188461492Y-77053748D01*
X188716025Y-77930566D01*
X189136725Y-78740879D01*
X189198815Y-78833803D01*
X189770420Y-79289975D01*
X192860395Y-76200000D01*
X189770420Y-73110025D01*
X189198815Y-73566197D01*
X188758793Y-74366183D01*
X188483296Y-75236641D01*
X188382909Y-76144121D01*
X101167437Y-76144121D01*
X101098508Y-75346252D01*
X100843975Y-74469434D01*
X100423275Y-73659121D01*
X100361185Y-73566197D01*
X99789580Y-73110025D01*
X96699605Y-76200000D01*
X96340395Y-76200000D01*
X93250420Y-73110025D01*
X92678815Y-73566197D01*
X92238793Y-74366183D01*
X91963296Y-75236641D01*
X91862909Y-76144121D01*
X90631716Y-76144121D01*
X90581932Y-75893842D01*
X90469990Y-75623589D01*
X90307475Y-75380368D01*
X90175620Y-75248513D01*
X90248180Y-75226502D01*
X90358494Y-75167537D01*
X90455185Y-75088185D01*
X90534537Y-74991494D01*
X90593502Y-74881180D01*
X90629812Y-74761482D01*
X90642072Y-74637000D01*
X90639000Y-74072750D01*
X90480250Y-73914000D01*
X89281000Y-73914000D01*
X89281000Y-73934000D01*
X89027000Y-73934000D01*
X89027000Y-73914000D01*
X87827750Y-73914000D01*
X87669000Y-74072750D01*
X87665928Y-74637000D01*
X75402606Y-74637000D01*
X77522606Y-72517000D01*
X87827222Y-72517000D01*
X87773463Y-72582506D01*
G37*
X87773463Y-72582506D02*
X87714498Y-72692820D01*
X87678188Y-72812518D01*
X87665928Y-72937000D01*
X87669000Y-73501250D01*
X87827750Y-73660000D01*
X89027000Y-73660000D01*
X89027000Y-73640000D01*
X89281000Y-73640000D01*
X89281000Y-73660000D01*
X90480250Y-73660000D01*
X90639000Y-73501250D01*
X90642072Y-72937000D01*
X90629812Y-72812518D01*
X90593502Y-72692820D01*
X90534537Y-72582506D01*
X90480778Y-72517000D01*
X93759957Y-72517000D01*
X93430025Y-72930420D01*
X96520000Y-76020395D01*
X99609975Y-72930420D01*
X99280043Y-72517000D01*
X190279957Y-72517000D01*
X189950025Y-72930420D01*
X193040000Y-76020395D01*
X193054143Y-76006253D01*
X193233748Y-76185858D01*
X193219605Y-76200000D01*
X196309580Y-79289975D01*
X196723000Y-78960043D01*
X196723000Y-106459957D01*
X196309580Y-106130025D01*
X193219605Y-109220000D01*
X193233748Y-109234143D01*
X193054143Y-109413748D01*
X193040000Y-109399605D01*
X189950025Y-112489580D01*
X190279957Y-112903000D01*
X91660043Y-112903000D01*
X91989975Y-112489580D01*
X88900000Y-109399605D01*
X85810025Y-112489580D01*
X86139957Y-112903000D01*
X77522606Y-112903000D01*
X75057000Y-110437394D01*
X75057000Y-109164121D01*
X84242909Y-109164121D01*
X84321492Y-110073748D01*
X84576025Y-110950566D01*
X84996725Y-111760879D01*
X85058815Y-111853803D01*
X85630420Y-112309975D01*
X88720395Y-109220000D01*
X89079605Y-109220000D01*
X92169580Y-112309975D01*
X92741185Y-111853803D01*
X93181207Y-111053817D01*
X93456704Y-110183359D01*
X93557091Y-109275879D01*
X93547437Y-109164121D01*
X188382909Y-109164121D01*
X188461492Y-110073748D01*
X188716025Y-110950566D01*
X189136725Y-111760879D01*
X189198815Y-111853803D01*
X189770420Y-112309975D01*
X192860395Y-109220000D01*
X189770420Y-106130025D01*
X189198815Y-106586197D01*
X188758793Y-107386183D01*
X188483296Y-108256641D01*
X188382909Y-109164121D01*
X93547437Y-109164121D01*
X93478508Y-108366252D01*
X93223975Y-107489434D01*
X92803275Y-106679121D01*
X92741185Y-106586197D01*
X92169580Y-106130025D01*
X89079605Y-109220000D01*
X88720395Y-109220000D01*
X85630420Y-106130025D01*
X85058815Y-106586197D01*
X84618793Y-107386183D01*
X84343296Y-108256641D01*
X84242909Y-109164121D01*
X75057000Y-109164121D01*
X75057000Y-106550725D01*
X75465861Y-106886268D01*
X76010483Y-107177375D01*
X76601433Y-107356638D01*
X77216000Y-107417167D01*
X77830567Y-107356638D01*
X78421517Y-107177375D01*
X78966139Y-106886268D01*
X79323883Y-106592675D01*
X79393875Y-106522683D01*
X79513505Y-106424505D01*
X79902577Y-105950420D01*
X85810025Y-105950420D01*
X88900000Y-109040395D01*
X91989975Y-105950420D01*
X189950025Y-105950420D01*
X193040000Y-109040395D01*
X196129975Y-105950420D01*
X195673803Y-105378815D01*
X194873817Y-104938793D01*
X194003359Y-104663296D01*
X193095879Y-104562909D01*
X192186252Y-104641492D01*
X191309434Y-104896025D01*
X190499121Y-105316725D01*
X190406197Y-105378815D01*
X189950025Y-105950420D01*
X91989975Y-105950420D01*
X91533803Y-105378815D01*
X90733817Y-104938793D01*
X89863359Y-104663296D01*
X88955879Y-104562909D01*
X88046252Y-104641492D01*
X87169434Y-104896025D01*
X86359121Y-105316725D01*
X86266197Y-105378815D01*
X85810025Y-105950420D01*
X79902577Y-105950420D01*
X79905269Y-105947140D01*
X80196376Y-105402517D01*
X80375638Y-104811567D01*
X80421000Y-104351002D01*
X80421000Y-104350994D01*
X80436167Y-104197000D01*
X80421000Y-104043005D01*
X80421000Y-99575253D01*
X80606285Y-99760538D01*
X81037859Y-100048907D01*
X81517399Y-100247539D01*
X81870662Y-100317807D01*
X85129364Y-103576509D01*
X85196224Y-103657978D01*
X85521320Y-103924778D01*
X85676036Y-104007475D01*
X85892219Y-104123027D01*
X86294667Y-104245109D01*
X86332202Y-104248806D01*
X86608319Y-104276001D01*
X86608326Y-104276001D01*
X86713201Y-104286330D01*
X86818075Y-104276001D01*
X90345129Y-104276001D01*
X90450001Y-104286330D01*
X90554873Y-104276001D01*
X90554883Y-104276001D01*
X90868534Y-104245109D01*
X91270983Y-104123027D01*
X91641882Y-103924778D01*
X91966978Y-103657978D01*
X92033839Y-103576508D01*
X93117834Y-102492512D01*
X93132480Y-102474665D01*
X96863000Y-102474665D01*
X96863000Y-102757335D01*
X96918147Y-103034574D01*
X97026320Y-103295727D01*
X97183363Y-103530759D01*
X97383241Y-103730637D01*
X97618273Y-103887680D01*
X97879426Y-103995853D01*
X98156665Y-104051000D01*
X98439335Y-104051000D01*
X98716574Y-103995853D01*
X98977727Y-103887680D01*
X99212759Y-103730637D01*
X99412637Y-103530759D01*
X99569680Y-103295727D01*
X99677853Y-103034574D01*
X99733000Y-102757335D01*
X99733000Y-102474665D01*
X107023000Y-102474665D01*
X107023000Y-102757335D01*
X107078147Y-103034574D01*
X107186320Y-103295727D01*
X107343363Y-103530759D01*
X107543241Y-103730637D01*
X107778273Y-103887680D01*
X108039426Y-103995853D01*
X108316665Y-104051000D01*
X108599335Y-104051000D01*
X108876574Y-103995853D01*
X109137727Y-103887680D01*
X109169065Y-103866740D01*
X148629000Y-103866740D01*
X148629000Y-104159260D01*
X148686068Y-104446158D01*
X148798010Y-104716411D01*
X148960525Y-104959632D01*
X149167368Y-105166475D01*
X149410589Y-105328990D01*
X149680842Y-105440932D01*
X149967740Y-105498000D01*
X150260260Y-105498000D01*
X150547158Y-105440932D01*
X150817411Y-105328990D01*
X151060632Y-105166475D01*
X151267475Y-104959632D01*
X151384000Y-104785240D01*
X151500525Y-104959632D01*
X151707368Y-105166475D01*
X151950589Y-105328990D01*
X152220842Y-105440932D01*
X152507740Y-105498000D01*
X152800260Y-105498000D01*
X153087158Y-105440932D01*
X153357411Y-105328990D01*
X153600632Y-105166475D01*
X153807475Y-104959632D01*
X153924000Y-104785240D01*
X154040525Y-104959632D01*
X154247368Y-105166475D01*
X154490589Y-105328990D01*
X154760842Y-105440932D01*
X155047740Y-105498000D01*
X155340260Y-105498000D01*
X155627158Y-105440932D01*
X155897411Y-105328990D01*
X156140632Y-105166475D01*
X156272487Y-105034620D01*
X156294498Y-105107180D01*
X156353463Y-105217494D01*
X156432815Y-105314185D01*
X156529506Y-105393537D01*
X156639820Y-105452502D01*
X156759518Y-105488812D01*
X156884000Y-105501072D01*
X157448250Y-105498000D01*
X157607000Y-105339250D01*
X157607000Y-104140000D01*
X157861000Y-104140000D01*
X157861000Y-105339250D01*
X158019750Y-105498000D01*
X158584000Y-105501072D01*
X158708482Y-105488812D01*
X158828180Y-105452502D01*
X158938494Y-105393537D01*
X159035185Y-105314185D01*
X159114537Y-105217494D01*
X159173502Y-105107180D01*
X159209812Y-104987482D01*
X159222072Y-104863000D01*
X159219000Y-104298750D01*
X159060250Y-104140000D01*
X157861000Y-104140000D01*
X157607000Y-104140000D01*
X157587000Y-104140000D01*
X157587000Y-103886000D01*
X157607000Y-103886000D01*
X157607000Y-102686750D01*
X157861000Y-102686750D01*
X157861000Y-103886000D01*
X159060250Y-103886000D01*
X159219000Y-103727250D01*
X159222072Y-103163000D01*
X159209812Y-103038518D01*
X159173502Y-102918820D01*
X159114537Y-102808506D01*
X159035185Y-102711815D01*
X158938494Y-102632463D01*
X158828180Y-102573498D01*
X158708482Y-102537188D01*
X158584000Y-102524928D01*
X158019750Y-102528000D01*
X157861000Y-102686750D01*
X157607000Y-102686750D01*
X157448250Y-102528000D01*
X156884000Y-102524928D01*
X156759518Y-102537188D01*
X156639820Y-102573498D01*
X156529506Y-102632463D01*
X156432815Y-102711815D01*
X156353463Y-102808506D01*
X156294498Y-102918820D01*
X156272487Y-102991380D01*
X156140632Y-102859525D01*
X155897411Y-102697010D01*
X155627158Y-102585068D01*
X155340260Y-102528000D01*
X155047740Y-102528000D01*
X154760842Y-102585068D01*
X154490589Y-102697010D01*
X154247368Y-102859525D01*
X154040525Y-103066368D01*
X153924000Y-103240760D01*
X153807475Y-103066368D01*
X153600632Y-102859525D01*
X153357411Y-102697010D01*
X153087158Y-102585068D01*
X152800260Y-102528000D01*
X152507740Y-102528000D01*
X152220842Y-102585068D01*
X151950589Y-102697010D01*
X151707368Y-102859525D01*
X151500525Y-103066368D01*
X151384000Y-103240760D01*
X151267475Y-103066368D01*
X151060632Y-102859525D01*
X150817411Y-102697010D01*
X150547158Y-102585068D01*
X150260260Y-102528000D01*
X149967740Y-102528000D01*
X149680842Y-102585068D01*
X149410589Y-102697010D01*
X149167368Y-102859525D01*
X148960525Y-103066368D01*
X148798010Y-103309589D01*
X148686068Y-103579842D01*
X148629000Y-103866740D01*
X109169065Y-103866740D01*
X109372759Y-103730637D01*
X109572637Y-103530759D01*
X109729680Y-103295727D01*
X109837853Y-103034574D01*
X109893000Y-102757335D01*
X109893000Y-102474665D01*
X109837853Y-102197426D01*
X109729680Y-101936273D01*
X109572637Y-101701241D01*
X109372759Y-101501363D01*
X109137727Y-101344320D01*
X108876574Y-101236147D01*
X108599335Y-101181000D01*
X108316665Y-101181000D01*
X108039426Y-101236147D01*
X107778273Y-101344320D01*
X107543241Y-101501363D01*
X107343363Y-101701241D01*
X107186320Y-101936273D01*
X107078147Y-102197426D01*
X107023000Y-102474665D01*
X99733000Y-102474665D01*
X99677853Y-102197426D01*
X99569680Y-101936273D01*
X99412637Y-101701241D01*
X99212759Y-101501363D01*
X98977727Y-101344320D01*
X98716574Y-101236147D01*
X98439335Y-101181000D01*
X98156665Y-101181000D01*
X97879426Y-101236147D01*
X97618273Y-101344320D01*
X97383241Y-101501363D01*
X97183363Y-101701241D01*
X97026320Y-101936273D01*
X96918147Y-102197426D01*
X96863000Y-102474665D01*
X93132480Y-102474665D01*
X93317775Y-102248884D01*
X93516025Y-101877985D01*
X93638107Y-101475537D01*
X93677154Y-101079072D01*
X95234000Y-101079072D01*
X95358482Y-101066812D01*
X95478180Y-101030502D01*
X95588494Y-100971537D01*
X95685185Y-100892185D01*
X95764537Y-100795494D01*
X95823502Y-100685180D01*
X95859812Y-100565482D01*
X95872072Y-100441000D01*
X95872072Y-99274265D01*
X96863000Y-99274265D01*
X96863000Y-99556935D01*
X96918147Y-99834174D01*
X97026320Y-100095327D01*
X97183363Y-100330359D01*
X97383241Y-100530237D01*
X97618273Y-100687280D01*
X97879426Y-100795453D01*
X98156665Y-100850600D01*
X98439335Y-100850600D01*
X98716574Y-100795453D01*
X98977727Y-100687280D01*
X99212759Y-100530237D01*
X99412637Y-100330359D01*
X99569680Y-100095327D01*
X99677853Y-99834174D01*
X99691684Y-99764639D01*
X107066096Y-99764639D01*
X107106754Y-99898687D01*
X107226963Y-100153020D01*
X107394481Y-100379014D01*
X107602869Y-100567985D01*
X107844119Y-100712670D01*
X108108960Y-100807509D01*
X108331000Y-100686224D01*
X108331000Y-99542600D01*
X108585000Y-99542600D01*
X108585000Y-100686224D01*
X108807040Y-100807509D01*
X109071881Y-100712670D01*
X109313131Y-100567985D01*
X109521519Y-100379014D01*
X109632740Y-100228968D01*
X115455000Y-100228968D01*
X115455000Y-100551034D01*
X115517832Y-100866913D01*
X115641082Y-101164464D01*
X115820013Y-101432253D01*
X116047748Y-101659988D01*
X116315537Y-101838919D01*
X116613088Y-101962169D01*
X116928967Y-102025001D01*
X117251033Y-102025001D01*
X117566912Y-101962169D01*
X117864463Y-101838919D01*
X118132252Y-101659988D01*
X118359987Y-101432253D01*
X118360000Y-101432234D01*
X118360013Y-101432253D01*
X118587748Y-101659988D01*
X118855537Y-101838919D01*
X119153088Y-101962169D01*
X119468967Y-102025001D01*
X119791033Y-102025001D01*
X120106912Y-101962169D01*
X120404463Y-101838919D01*
X120672252Y-101659988D01*
X120899987Y-101432253D01*
X120900000Y-101432234D01*
X120900013Y-101432253D01*
X121127748Y-101659988D01*
X121395537Y-101838919D01*
X121693088Y-101962169D01*
X122008967Y-102025001D01*
X122331033Y-102025001D01*
X122646912Y-101962169D01*
X122944463Y-101838919D01*
X123212252Y-101659988D01*
X123346826Y-101525414D01*
X123754192Y-101525414D01*
X123849956Y-101789815D01*
X124139571Y-101930705D01*
X124451108Y-102012385D01*
X124772595Y-102031719D01*
X125091675Y-101987962D01*
X125396088Y-101882796D01*
X125570044Y-101789815D01*
X125665808Y-101525414D01*
X124710000Y-100569606D01*
X123754192Y-101525414D01*
X123346826Y-101525414D01*
X123439987Y-101432253D01*
X123512720Y-101323401D01*
X123574587Y-101345809D01*
X124530395Y-100390001D01*
X124889605Y-100390001D01*
X125845413Y-101345809D01*
X125907280Y-101323401D01*
X125980013Y-101432253D01*
X126207748Y-101659988D01*
X126475537Y-101838919D01*
X126773088Y-101962169D01*
X127088967Y-102025001D01*
X127411033Y-102025001D01*
X127726912Y-101962169D01*
X128024463Y-101838919D01*
X128292252Y-101659988D01*
X128519987Y-101432253D01*
X128520000Y-101432234D01*
X128520013Y-101432253D01*
X128747748Y-101659988D01*
X129015537Y-101838919D01*
X129313088Y-101962169D01*
X129628967Y-102025001D01*
X129951033Y-102025001D01*
X130266912Y-101962169D01*
X130564463Y-101838919D01*
X130832252Y-101659988D01*
X131059987Y-101432253D01*
X131060000Y-101432234D01*
X131060013Y-101432253D01*
X131287748Y-101659988D01*
X131555537Y-101838919D01*
X131853088Y-101962169D01*
X132168967Y-102025001D01*
X132491033Y-102025001D01*
X132806912Y-101962169D01*
X133104463Y-101838919D01*
X133372252Y-101659988D01*
X133599987Y-101432253D01*
X133600000Y-101432234D01*
X133600013Y-101432253D01*
X133827748Y-101659988D01*
X134095537Y-101838919D01*
X134393088Y-101962169D01*
X134708967Y-102025001D01*
X135031033Y-102025001D01*
X135346912Y-101962169D01*
X135644463Y-101838919D01*
X135912252Y-101659988D01*
X136139987Y-101432253D01*
X136140000Y-101432234D01*
X136140013Y-101432253D01*
X136367748Y-101659988D01*
X136635537Y-101838919D01*
X136933088Y-101962169D01*
X137248967Y-102025001D01*
X137571033Y-102025001D01*
X137886912Y-101962169D01*
X138184463Y-101838919D01*
X138452252Y-101659988D01*
X138679987Y-101432253D01*
X138680000Y-101432234D01*
X138680013Y-101432253D01*
X138907748Y-101659988D01*
X139175537Y-101838919D01*
X139473088Y-101962169D01*
X139788967Y-102025001D01*
X140111033Y-102025001D01*
X140426912Y-101962169D01*
X140724463Y-101838919D01*
X140992252Y-101659988D01*
X141219987Y-101432253D01*
X141220000Y-101432234D01*
X141220013Y-101432253D01*
X141447748Y-101659988D01*
X141715537Y-101838919D01*
X142013088Y-101962169D01*
X142328967Y-102025001D01*
X142651033Y-102025001D01*
X142966912Y-101962169D01*
X143264463Y-101838919D01*
X143532252Y-101659988D01*
X143759987Y-101432253D01*
X143760000Y-101432234D01*
X143760013Y-101432253D01*
X143987748Y-101659988D01*
X144255537Y-101838919D01*
X144553088Y-101962169D01*
X144868967Y-102025001D01*
X145191033Y-102025001D01*
X145506912Y-101962169D01*
X145804463Y-101838919D01*
X146072252Y-101659988D01*
X146299987Y-101432253D01*
X146300000Y-101432234D01*
X146300013Y-101432253D01*
X146527748Y-101659988D01*
X146795537Y-101838919D01*
X147093088Y-101962169D01*
X147408967Y-102025001D01*
X147731033Y-102025001D01*
X148046912Y-101962169D01*
X148344463Y-101838919D01*
X148612252Y-101659988D01*
X148839987Y-101432253D01*
X148840000Y-101432234D01*
X148840013Y-101432253D01*
X149067748Y-101659988D01*
X149335537Y-101838919D01*
X149633088Y-101962169D01*
X149948967Y-102025001D01*
X150271033Y-102025001D01*
X150586912Y-101962169D01*
X150884463Y-101838919D01*
X151152252Y-101659988D01*
X151379987Y-101432253D01*
X151380000Y-101432234D01*
X151380013Y-101432253D01*
X151607748Y-101659988D01*
X151875537Y-101838919D01*
X152173088Y-101962169D01*
X152488967Y-102025001D01*
X152811033Y-102025001D01*
X153126912Y-101962169D01*
X153424463Y-101838919D01*
X153692252Y-101659988D01*
X153826826Y-101525414D01*
X154234192Y-101525414D01*
X154329956Y-101789815D01*
X154619571Y-101930705D01*
X154931108Y-102012385D01*
X155252595Y-102031719D01*
X155571675Y-101987962D01*
X155876088Y-101882796D01*
X156050044Y-101789815D01*
X156145808Y-101525414D01*
X155190000Y-100569606D01*
X154234192Y-101525414D01*
X153826826Y-101525414D01*
X153919987Y-101432253D01*
X153992720Y-101323401D01*
X154054587Y-101345809D01*
X155010395Y-100390001D01*
X155369605Y-100390001D01*
X156325413Y-101345809D01*
X156589814Y-101250045D01*
X156730704Y-100960430D01*
X156812384Y-100648893D01*
X156831718Y-100327406D01*
X156787961Y-100008326D01*
X156682795Y-99703913D01*
X156589814Y-99529957D01*
X156325413Y-99434193D01*
X155369605Y-100390001D01*
X155010395Y-100390001D01*
X154054587Y-99434193D01*
X153992720Y-99456601D01*
X153919987Y-99347749D01*
X153826826Y-99254588D01*
X154234192Y-99254588D01*
X155190000Y-100210396D01*
X156145808Y-99254588D01*
X156050044Y-98990187D01*
X155760429Y-98849297D01*
X155448892Y-98767617D01*
X155127405Y-98748283D01*
X154808325Y-98792040D01*
X154503912Y-98897206D01*
X154329956Y-98990187D01*
X154234192Y-99254588D01*
X153826826Y-99254588D01*
X153692252Y-99120014D01*
X153424463Y-98941083D01*
X153126912Y-98817833D01*
X152811033Y-98755001D01*
X152488967Y-98755001D01*
X152173088Y-98817833D01*
X151875537Y-98941083D01*
X151607748Y-99120014D01*
X151380013Y-99347749D01*
X151380000Y-99347768D01*
X151379987Y-99347749D01*
X151152252Y-99120014D01*
X150884463Y-98941083D01*
X150586912Y-98817833D01*
X150271033Y-98755001D01*
X149948967Y-98755001D01*
X149633088Y-98817833D01*
X149335537Y-98941083D01*
X149067748Y-99120014D01*
X148840013Y-99347749D01*
X148840000Y-99347768D01*
X148839987Y-99347749D01*
X148612252Y-99120014D01*
X148344463Y-98941083D01*
X148046912Y-98817833D01*
X147731033Y-98755001D01*
X147408967Y-98755001D01*
X147093088Y-98817833D01*
X146795537Y-98941083D01*
X146527748Y-99120014D01*
X146300013Y-99347749D01*
X146300000Y-99347768D01*
X146299987Y-99347749D01*
X146072252Y-99120014D01*
X145804463Y-98941083D01*
X145506912Y-98817833D01*
X145191033Y-98755001D01*
X144868967Y-98755001D01*
X144553088Y-98817833D01*
X144255537Y-98941083D01*
X143987748Y-99120014D01*
X143760013Y-99347749D01*
X143760000Y-99347768D01*
X143759987Y-99347749D01*
X143532252Y-99120014D01*
X143264463Y-98941083D01*
X142966912Y-98817833D01*
X142651033Y-98755001D01*
X142328967Y-98755001D01*
X142013088Y-98817833D01*
X141715537Y-98941083D01*
X141447748Y-99120014D01*
X141220013Y-99347749D01*
X141220000Y-99347768D01*
X141219987Y-99347749D01*
X140992252Y-99120014D01*
X140724463Y-98941083D01*
X140426912Y-98817833D01*
X140111033Y-98755001D01*
X139788967Y-98755001D01*
X139473088Y-98817833D01*
X139175537Y-98941083D01*
X138907748Y-99120014D01*
X138680013Y-99347749D01*
X138680000Y-99347768D01*
X138679987Y-99347749D01*
X138452252Y-99120014D01*
X138184463Y-98941083D01*
X137886912Y-98817833D01*
X137571033Y-98755001D01*
X137248967Y-98755001D01*
X136933088Y-98817833D01*
X136635537Y-98941083D01*
X136367748Y-99120014D01*
X136140013Y-99347749D01*
X136140000Y-99347768D01*
X136139987Y-99347749D01*
X135912252Y-99120014D01*
X135644463Y-98941083D01*
X135346912Y-98817833D01*
X135031033Y-98755001D01*
X134708967Y-98755001D01*
X134393088Y-98817833D01*
X134095537Y-98941083D01*
X133827748Y-99120014D01*
X133600013Y-99347749D01*
X133600000Y-99347768D01*
X133599987Y-99347749D01*
X133372252Y-99120014D01*
X133104463Y-98941083D01*
X132806912Y-98817833D01*
X132491033Y-98755001D01*
X132168967Y-98755001D01*
X131853088Y-98817833D01*
X131555537Y-98941083D01*
X131287748Y-99120014D01*
X131060013Y-99347749D01*
X131060000Y-99347768D01*
X131059987Y-99347749D01*
X130832252Y-99120014D01*
X130564463Y-98941083D01*
X130266912Y-98817833D01*
X129951033Y-98755001D01*
X129628967Y-98755001D01*
X129313088Y-98817833D01*
X129015537Y-98941083D01*
X128747748Y-99120014D01*
X128520013Y-99347749D01*
X128520000Y-99347768D01*
X128519987Y-99347749D01*
X128292252Y-99120014D01*
X128024463Y-98941083D01*
X127726912Y-98817833D01*
X127411033Y-98755001D01*
X127088967Y-98755001D01*
X126773088Y-98817833D01*
X126475537Y-98941083D01*
X126207748Y-99120014D01*
X125980013Y-99347749D01*
X125907280Y-99456601D01*
X125845413Y-99434193D01*
X124889605Y-100390001D01*
X124530395Y-100390001D01*
X123574587Y-99434193D01*
X123512720Y-99456601D01*
X123439987Y-99347749D01*
X123346826Y-99254588D01*
X123754192Y-99254588D01*
X124710000Y-100210396D01*
X125665808Y-99254588D01*
X125570044Y-98990187D01*
X125280429Y-98849297D01*
X124968892Y-98767617D01*
X124647405Y-98748283D01*
X124328325Y-98792040D01*
X124023912Y-98897206D01*
X123849956Y-98990187D01*
X123754192Y-99254588D01*
X123346826Y-99254588D01*
X123212252Y-99120014D01*
X122944463Y-98941083D01*
X122646912Y-98817833D01*
X122331033Y-98755001D01*
X122008967Y-98755001D01*
X121693088Y-98817833D01*
X121395537Y-98941083D01*
X121127748Y-99120014D01*
X120900013Y-99347749D01*
X120900000Y-99347768D01*
X120899987Y-99347749D01*
X120672252Y-99120014D01*
X120404463Y-98941083D01*
X120106912Y-98817833D01*
X119791033Y-98755001D01*
X119468967Y-98755001D01*
X119153088Y-98817833D01*
X118855537Y-98941083D01*
X118587748Y-99120014D01*
X118360013Y-99347749D01*
X118360000Y-99347768D01*
X118359987Y-99347749D01*
X118132252Y-99120014D01*
X117864463Y-98941083D01*
X117566912Y-98817833D01*
X117251033Y-98755001D01*
X116928967Y-98755001D01*
X116613088Y-98817833D01*
X116315537Y-98941083D01*
X116047748Y-99120014D01*
X115820013Y-99347749D01*
X115641082Y-99615538D01*
X115517832Y-99913089D01*
X115455000Y-100228968D01*
X109632740Y-100228968D01*
X109689037Y-100153020D01*
X109809246Y-99898687D01*
X109849904Y-99764639D01*
X109727915Y-99542600D01*
X108585000Y-99542600D01*
X108331000Y-99542600D01*
X107188085Y-99542600D01*
X107066096Y-99764639D01*
X99691684Y-99764639D01*
X99733000Y-99556935D01*
X99733000Y-99274265D01*
X99691685Y-99066561D01*
X107066096Y-99066561D01*
X107188085Y-99288600D01*
X108331000Y-99288600D01*
X108331000Y-98144976D01*
X108585000Y-98144976D01*
X108585000Y-99288600D01*
X109727915Y-99288600D01*
X109849904Y-99066561D01*
X109809246Y-98932513D01*
X109689037Y-98678180D01*
X109521519Y-98452186D01*
X109313131Y-98263215D01*
X109071881Y-98118530D01*
X108807040Y-98023691D01*
X108585000Y-98144976D01*
X108331000Y-98144976D01*
X108108960Y-98023691D01*
X107844119Y-98118530D01*
X107602869Y-98263215D01*
X107394481Y-98452186D01*
X107226963Y-98678180D01*
X107106754Y-98932513D01*
X107066096Y-99066561D01*
X99691685Y-99066561D01*
X99677853Y-98997026D01*
X99569680Y-98735873D01*
X99412637Y-98500841D01*
X99212759Y-98300963D01*
X98977727Y-98143920D01*
X98716574Y-98035747D01*
X98439335Y-97980600D01*
X98156665Y-97980600D01*
X97879426Y-98035747D01*
X97618273Y-98143920D01*
X97383241Y-98300963D01*
X97183363Y-98500841D01*
X97026320Y-98735873D01*
X96918147Y-98997026D01*
X96863000Y-99274265D01*
X95872072Y-99274265D01*
X95872072Y-98441000D01*
X95859812Y-98316518D01*
X95823502Y-98196820D01*
X95764537Y-98086506D01*
X95685185Y-97989815D01*
X95588494Y-97910463D01*
X95478180Y-97851498D01*
X95358482Y-97815188D01*
X95234000Y-97802928D01*
X93234000Y-97802928D01*
X93109518Y-97815188D01*
X92989820Y-97851498D01*
X92879506Y-97910463D01*
X92782815Y-97989815D01*
X92703463Y-98086506D01*
X92678809Y-98132630D01*
X92468463Y-97992082D01*
X92170912Y-97868832D01*
X91855033Y-97806000D01*
X91532967Y-97806000D01*
X91217088Y-97868832D01*
X90919537Y-97992082D01*
X90651748Y-98171013D01*
X90424013Y-98398748D01*
X90245082Y-98666537D01*
X90121832Y-98964088D01*
X90059000Y-99279967D01*
X90059000Y-99512658D01*
X89565657Y-100006001D01*
X87597546Y-100006001D01*
X84890007Y-97298462D01*
X84819739Y-96945199D01*
X84621107Y-96465659D01*
X84332738Y-96034085D01*
X83965715Y-95667062D01*
X83534141Y-95378693D01*
X83054601Y-95180061D01*
X82545525Y-95078800D01*
X82026475Y-95078800D01*
X81517399Y-95180061D01*
X81037859Y-95378693D01*
X80606285Y-95667062D01*
X80421000Y-95852347D01*
X80421000Y-92818853D01*
X80606285Y-93004138D01*
X81037859Y-93292507D01*
X81517399Y-93491139D01*
X81870662Y-93561407D01*
X85281768Y-96972514D01*
X85348624Y-97053978D01*
X85430088Y-97120834D01*
X85430090Y-97120836D01*
X85437159Y-97126637D01*
X85673720Y-97320778D01*
X85884753Y-97433577D01*
X86044619Y-97519027D01*
X86447067Y-97641109D01*
X86484602Y-97644806D01*
X86760719Y-97672001D01*
X86760726Y-97672001D01*
X86865601Y-97682330D01*
X86970475Y-97672001D01*
X90345129Y-97672001D01*
X90450001Y-97682330D01*
X90554873Y-97672001D01*
X90554883Y-97672001D01*
X90868534Y-97641109D01*
X91270983Y-97519027D01*
X91641882Y-97320778D01*
X91966978Y-97053978D01*
X92033839Y-96972508D01*
X93117834Y-95888512D01*
X93132480Y-95870665D01*
X96863000Y-95870665D01*
X96863000Y-96153335D01*
X96918147Y-96430574D01*
X97026320Y-96691727D01*
X97183363Y-96926759D01*
X97383241Y-97126637D01*
X97618273Y-97283680D01*
X97879426Y-97391853D01*
X98156665Y-97447000D01*
X98439335Y-97447000D01*
X98716574Y-97391853D01*
X98977727Y-97283680D01*
X99212759Y-97126637D01*
X99412637Y-96926759D01*
X99569680Y-96691727D01*
X99677853Y-96430574D01*
X99733000Y-96153335D01*
X99733000Y-95870665D01*
X107023000Y-95870665D01*
X107023000Y-96153335D01*
X107078147Y-96430574D01*
X107186320Y-96691727D01*
X107343363Y-96926759D01*
X107543241Y-97126637D01*
X107778273Y-97283680D01*
X108039426Y-97391853D01*
X108316665Y-97447000D01*
X108599335Y-97447000D01*
X108876574Y-97391853D01*
X109137727Y-97283680D01*
X109372759Y-97126637D01*
X109572637Y-96926759D01*
X109729680Y-96691727D01*
X109837853Y-96430574D01*
X109893000Y-96153335D01*
X109893000Y-95870665D01*
X109837853Y-95593426D01*
X109729680Y-95332273D01*
X109572637Y-95097241D01*
X109372759Y-94897363D01*
X109137727Y-94740320D01*
X108876574Y-94632147D01*
X108599335Y-94577000D01*
X108316665Y-94577000D01*
X108039426Y-94632147D01*
X107778273Y-94740320D01*
X107543241Y-94897363D01*
X107343363Y-95097241D01*
X107186320Y-95332273D01*
X107078147Y-95593426D01*
X107023000Y-95870665D01*
X99733000Y-95870665D01*
X99677853Y-95593426D01*
X99569680Y-95332273D01*
X99412637Y-95097241D01*
X99212759Y-94897363D01*
X98977727Y-94740320D01*
X98716574Y-94632147D01*
X98439335Y-94577000D01*
X98156665Y-94577000D01*
X97879426Y-94632147D01*
X97618273Y-94740320D01*
X97383241Y-94897363D01*
X97183363Y-95097241D01*
X97026320Y-95332273D01*
X96918147Y-95593426D01*
X96863000Y-95870665D01*
X93132480Y-95870665D01*
X93317775Y-95644884D01*
X93516025Y-95273985D01*
X93638107Y-94871537D01*
X93677154Y-94475072D01*
X95234000Y-94475072D01*
X95358482Y-94462812D01*
X95478180Y-94426502D01*
X95588494Y-94367537D01*
X95685185Y-94288185D01*
X95764537Y-94191494D01*
X95823502Y-94081180D01*
X95859812Y-93961482D01*
X95872072Y-93837000D01*
X95872072Y-92695665D01*
X96888400Y-92695665D01*
X96888400Y-92978335D01*
X96943547Y-93255574D01*
X97051720Y-93516727D01*
X97208763Y-93751759D01*
X97408641Y-93951637D01*
X97643673Y-94108680D01*
X97904826Y-94216853D01*
X98182065Y-94272000D01*
X98464735Y-94272000D01*
X98741974Y-94216853D01*
X99003127Y-94108680D01*
X99238159Y-93951637D01*
X99438037Y-93751759D01*
X99595080Y-93516727D01*
X99703253Y-93255574D01*
X99717084Y-93186039D01*
X107091496Y-93186039D01*
X107132154Y-93320087D01*
X107252363Y-93574420D01*
X107419881Y-93800414D01*
X107628269Y-93989385D01*
X107869519Y-94134070D01*
X108134360Y-94228909D01*
X108356400Y-94107624D01*
X108356400Y-92964000D01*
X108610400Y-92964000D01*
X108610400Y-94107624D01*
X108832440Y-94228909D01*
X109097281Y-94134070D01*
X109338531Y-93989385D01*
X109546919Y-93800414D01*
X109714437Y-93574420D01*
X109834646Y-93320087D01*
X109875304Y-93186039D01*
X109753315Y-92964000D01*
X108610400Y-92964000D01*
X108356400Y-92964000D01*
X107213485Y-92964000D01*
X107091496Y-93186039D01*
X99717084Y-93186039D01*
X99758400Y-92978335D01*
X99758400Y-92695665D01*
X99717085Y-92487961D01*
X107091496Y-92487961D01*
X107213485Y-92710000D01*
X108356400Y-92710000D01*
X108356400Y-91566376D01*
X108610400Y-91566376D01*
X108610400Y-92710000D01*
X109753315Y-92710000D01*
X109875304Y-92487961D01*
X109834646Y-92353913D01*
X109714437Y-92099580D01*
X109546919Y-91873586D01*
X109338531Y-91684615D01*
X109097281Y-91539930D01*
X108832440Y-91445091D01*
X108610400Y-91566376D01*
X108356400Y-91566376D01*
X108134360Y-91445091D01*
X107869519Y-91539930D01*
X107628269Y-91684615D01*
X107419881Y-91873586D01*
X107252363Y-92099580D01*
X107132154Y-92353913D01*
X107091496Y-92487961D01*
X99717085Y-92487961D01*
X99703253Y-92418426D01*
X99595080Y-92157273D01*
X99438037Y-91922241D01*
X99238159Y-91722363D01*
X99003127Y-91565320D01*
X98741974Y-91457147D01*
X98464735Y-91402000D01*
X98182065Y-91402000D01*
X97904826Y-91457147D01*
X97643673Y-91565320D01*
X97408641Y-91722363D01*
X97208763Y-91922241D01*
X97051720Y-92157273D01*
X96943547Y-92418426D01*
X96888400Y-92695665D01*
X95872072Y-92695665D01*
X95872072Y-91837000D01*
X95859812Y-91712518D01*
X95823502Y-91592820D01*
X95764537Y-91482506D01*
X95685185Y-91385815D01*
X95588494Y-91306463D01*
X95478180Y-91247498D01*
X95358482Y-91211188D01*
X95234000Y-91198928D01*
X93234000Y-91198928D01*
X93109518Y-91211188D01*
X92989820Y-91247498D01*
X92879506Y-91306463D01*
X92782815Y-91385815D01*
X92703463Y-91482506D01*
X92678809Y-91528630D01*
X92468463Y-91388082D01*
X92170912Y-91264832D01*
X91855033Y-91202000D01*
X91532967Y-91202000D01*
X91217088Y-91264832D01*
X90919537Y-91388082D01*
X90651748Y-91567013D01*
X90424013Y-91794748D01*
X90245082Y-92062537D01*
X90121832Y-92360088D01*
X90059000Y-92675967D01*
X90059000Y-92908658D01*
X89565657Y-93402001D01*
X87749947Y-93402001D01*
X84890007Y-90542062D01*
X84819739Y-90188799D01*
X84727875Y-89967020D01*
X85129364Y-90368509D01*
X85196224Y-90449978D01*
X85521320Y-90716778D01*
X85686348Y-90804987D01*
X85892219Y-90915027D01*
X86294667Y-91037109D01*
X86332202Y-91040806D01*
X86608319Y-91068001D01*
X86608326Y-91068001D01*
X86713201Y-91078330D01*
X86818075Y-91068001D01*
X90413127Y-91068001D01*
X90517999Y-91078330D01*
X90622871Y-91068001D01*
X90622881Y-91068001D01*
X90936532Y-91037109D01*
X91338981Y-90915027D01*
X91709880Y-90716778D01*
X92034976Y-90449978D01*
X92101836Y-90368509D01*
X92969507Y-89500838D01*
X93050976Y-89433978D01*
X93188286Y-89266665D01*
X96863000Y-89266665D01*
X96863000Y-89549335D01*
X96918147Y-89826574D01*
X97026320Y-90087727D01*
X97183363Y-90322759D01*
X97383241Y-90522637D01*
X97618273Y-90679680D01*
X97879426Y-90787853D01*
X98156665Y-90843000D01*
X98439335Y-90843000D01*
X98716574Y-90787853D01*
X98977727Y-90679680D01*
X99212759Y-90522637D01*
X99412637Y-90322759D01*
X99569680Y-90087727D01*
X99677853Y-89826574D01*
X99733000Y-89549335D01*
X99733000Y-89266665D01*
X107023000Y-89266665D01*
X107023000Y-89549335D01*
X107078147Y-89826574D01*
X107186320Y-90087727D01*
X107343363Y-90322759D01*
X107543241Y-90522637D01*
X107778273Y-90679680D01*
X108039426Y-90787853D01*
X108316665Y-90843000D01*
X108599335Y-90843000D01*
X108876574Y-90787853D01*
X109137727Y-90679680D01*
X109372759Y-90522637D01*
X109572637Y-90322759D01*
X109729680Y-90087727D01*
X109837853Y-89826574D01*
X109893000Y-89549335D01*
X109893000Y-89266665D01*
X109837853Y-88989426D01*
X109729680Y-88728273D01*
X109572637Y-88493241D01*
X109372759Y-88293363D01*
X109137727Y-88136320D01*
X108876574Y-88028147D01*
X108599335Y-87973000D01*
X108316665Y-87973000D01*
X108039426Y-88028147D01*
X107778273Y-88136320D01*
X107543241Y-88293363D01*
X107343363Y-88493241D01*
X107186320Y-88728273D01*
X107078147Y-88989426D01*
X107023000Y-89266665D01*
X99733000Y-89266665D01*
X99677853Y-88989426D01*
X99569680Y-88728273D01*
X99412637Y-88493241D01*
X99212759Y-88293363D01*
X98977727Y-88136320D01*
X98716574Y-88028147D01*
X98439335Y-87973000D01*
X98156665Y-87973000D01*
X97879426Y-88028147D01*
X97618273Y-88136320D01*
X97383241Y-88293363D01*
X97183363Y-88493241D01*
X97026320Y-88728273D01*
X96918147Y-88989426D01*
X96863000Y-89266665D01*
X93188286Y-89266665D01*
X93317776Y-89108882D01*
X93516025Y-88737983D01*
X93638107Y-88335534D01*
X93668999Y-88021883D01*
X93668999Y-88021873D01*
X93679328Y-87917001D01*
X93674804Y-87871072D01*
X95234000Y-87871072D01*
X95358482Y-87858812D01*
X95478180Y-87822502D01*
X95588494Y-87763537D01*
X95685185Y-87684185D01*
X95764537Y-87587494D01*
X95823502Y-87477180D01*
X95859812Y-87357482D01*
X95872072Y-87233000D01*
X95872072Y-86091665D01*
X96888400Y-86091665D01*
X96888400Y-86374335D01*
X96943547Y-86651574D01*
X97051720Y-86912727D01*
X97208763Y-87147759D01*
X97408641Y-87347637D01*
X97643673Y-87504680D01*
X97904826Y-87612853D01*
X98182065Y-87668000D01*
X98464735Y-87668000D01*
X98741974Y-87612853D01*
X99003127Y-87504680D01*
X99238159Y-87347637D01*
X99438037Y-87147759D01*
X99595080Y-86912727D01*
X99703253Y-86651574D01*
X99717084Y-86582039D01*
X107091496Y-86582039D01*
X107132154Y-86716087D01*
X107252363Y-86970420D01*
X107419881Y-87196414D01*
X107628269Y-87385385D01*
X107869519Y-87530070D01*
X108134360Y-87624909D01*
X108356400Y-87503624D01*
X108356400Y-86360000D01*
X108610400Y-86360000D01*
X108610400Y-87503624D01*
X108832440Y-87624909D01*
X109097281Y-87530070D01*
X109338531Y-87385385D01*
X109546919Y-87196414D01*
X109714437Y-86970420D01*
X109834646Y-86716087D01*
X109875304Y-86582039D01*
X109753315Y-86360000D01*
X108610400Y-86360000D01*
X108356400Y-86360000D01*
X107213485Y-86360000D01*
X107091496Y-86582039D01*
X99717084Y-86582039D01*
X99758400Y-86374335D01*
X99758400Y-86091665D01*
X99717085Y-85883961D01*
X107091496Y-85883961D01*
X107213485Y-86106000D01*
X108356400Y-86106000D01*
X108356400Y-84962376D01*
X108610400Y-84962376D01*
X108610400Y-86106000D01*
X109753315Y-86106000D01*
X109875304Y-85883961D01*
X109834646Y-85749913D01*
X109714437Y-85495580D01*
X109546919Y-85269586D01*
X109338531Y-85080615D01*
X109097281Y-84935930D01*
X108832440Y-84841091D01*
X108610400Y-84962376D01*
X108356400Y-84962376D01*
X108134360Y-84841091D01*
X107869519Y-84935930D01*
X107628269Y-85080615D01*
X107419881Y-85269586D01*
X107252363Y-85495580D01*
X107132154Y-85749913D01*
X107091496Y-85883961D01*
X99717085Y-85883961D01*
X99703253Y-85814426D01*
X99595080Y-85553273D01*
X99438037Y-85318241D01*
X99238159Y-85118363D01*
X99003127Y-84961320D01*
X98741974Y-84853147D01*
X98464735Y-84798000D01*
X98182065Y-84798000D01*
X97904826Y-84853147D01*
X97643673Y-84961320D01*
X97408641Y-85118363D01*
X97208763Y-85318241D01*
X97051720Y-85553273D01*
X96943547Y-85814426D01*
X96888400Y-86091665D01*
X95872072Y-86091665D01*
X95872072Y-85233000D01*
X95859812Y-85108518D01*
X95823502Y-84988820D01*
X95764537Y-84878506D01*
X95685185Y-84781815D01*
X95588494Y-84702463D01*
X95478180Y-84643498D01*
X95358482Y-84607188D01*
X95234000Y-84594928D01*
X93234000Y-84594928D01*
X93109518Y-84607188D01*
X92989820Y-84643498D01*
X92879506Y-84702463D01*
X92782815Y-84781815D01*
X92703463Y-84878506D01*
X92678809Y-84924630D01*
X92468463Y-84784082D01*
X92170912Y-84660832D01*
X91855033Y-84598000D01*
X91532967Y-84598000D01*
X91217088Y-84660832D01*
X90919537Y-84784082D01*
X90651748Y-84963013D01*
X90424013Y-85190748D01*
X90245082Y-85458537D01*
X90121832Y-85756088D01*
X90059000Y-86071967D01*
X90059000Y-86297575D01*
X90017022Y-86332026D01*
X89750222Y-86657122D01*
X89722306Y-86709349D01*
X89633654Y-86798001D01*
X87597546Y-86798001D01*
X84890007Y-84090462D01*
X84819739Y-83737199D01*
X84621107Y-83257659D01*
X84332738Y-82826085D01*
X83965715Y-82459062D01*
X83534141Y-82170693D01*
X83054601Y-81972061D01*
X82545525Y-81870800D01*
X82026475Y-81870800D01*
X81517399Y-81972061D01*
X81037859Y-82170693D01*
X80606285Y-82459062D01*
X80478000Y-82587347D01*
X80478000Y-77696998D01*
X80432638Y-77236433D01*
X80253376Y-76645483D01*
X79962269Y-76100860D01*
X79570505Y-75623495D01*
X79093139Y-75231731D01*
X78548516Y-74940624D01*
X77957566Y-74761362D01*
X77343000Y-74700832D01*
X76728433Y-74761362D01*
X76137483Y-74940624D01*
X75592860Y-75231731D01*
X75115495Y-75623495D01*
X75057000Y-75694771D01*
X75057000Y-74982606D01*
X75402606Y-74637000D01*
X87665928Y-74637000D01*
X87678188Y-74761482D01*
X87714498Y-74881180D01*
X87773463Y-74991494D01*
X87852815Y-75088185D01*
X87949506Y-75167537D01*
X88059820Y-75226502D01*
X88132380Y-75248513D01*
X88000525Y-75380368D01*
X87838010Y-75623589D01*
X87726068Y-75893842D01*
X87669000Y-76180740D01*
X87669000Y-76473260D01*
X87726068Y-76760158D01*
X87838010Y-77030411D01*
X88000525Y-77273632D01*
X88207368Y-77480475D01*
X88381760Y-77597000D01*
X88207368Y-77713525D01*
X88000525Y-77920368D01*
X87838010Y-78163589D01*
X87726068Y-78433842D01*
X87669000Y-78720740D01*
X87669000Y-79013260D01*
X87726068Y-79300158D01*
X87838010Y-79570411D01*
X88000525Y-79813632D01*
X88207368Y-80020475D01*
X88381760Y-80137000D01*
X88207368Y-80253525D01*
X88000525Y-80460368D01*
X87838010Y-80703589D01*
X87726068Y-80973842D01*
X87669000Y-81260740D01*
X87669000Y-81553260D01*
X87726068Y-81840158D01*
X87838010Y-82110411D01*
X88000525Y-82353632D01*
X88207368Y-82560475D01*
X88450589Y-82722990D01*
X88720842Y-82834932D01*
X89007740Y-82892000D01*
X89300260Y-82892000D01*
X89587158Y-82834932D01*
X89857411Y-82722990D01*
X90100632Y-82560475D01*
X90307475Y-82353632D01*
X90469990Y-82110411D01*
X90581932Y-81840158D01*
X90639000Y-81553260D01*
X90639000Y-81260740D01*
X90581932Y-80973842D01*
X90469990Y-80703589D01*
X90307475Y-80460368D01*
X90100632Y-80253525D01*
X89926240Y-80137000D01*
X90100632Y-80020475D01*
X90307475Y-79813632D01*
X90469990Y-79570411D01*
X90511755Y-79469580D01*
X93430025Y-79469580D01*
X93886197Y-80041185D01*
X94686183Y-80481207D01*
X95556641Y-80756704D01*
X96464121Y-80857091D01*
X97373748Y-80778508D01*
X98250566Y-80523975D01*
X99060879Y-80103275D01*
X99153803Y-80041185D01*
X99259319Y-79908968D01*
X125615000Y-79908968D01*
X125615000Y-80231034D01*
X125677832Y-80546913D01*
X125801082Y-80844464D01*
X125980013Y-81112253D01*
X126207748Y-81339988D01*
X126475537Y-81518919D01*
X126773088Y-81642169D01*
X127088967Y-81705001D01*
X127411033Y-81705001D01*
X127726912Y-81642169D01*
X128024463Y-81518919D01*
X128292252Y-81339988D01*
X128519987Y-81112253D01*
X128520000Y-81112234D01*
X128520013Y-81112253D01*
X128747748Y-81339988D01*
X129015537Y-81518919D01*
X129313088Y-81642169D01*
X129628967Y-81705001D01*
X129951033Y-81705001D01*
X130266912Y-81642169D01*
X130564463Y-81518919D01*
X130832252Y-81339988D01*
X131059987Y-81112253D01*
X131060000Y-81112234D01*
X131060013Y-81112253D01*
X131287748Y-81339988D01*
X131555537Y-81518919D01*
X131853088Y-81642169D01*
X132168967Y-81705001D01*
X132491033Y-81705001D01*
X132806912Y-81642169D01*
X133104463Y-81518919D01*
X133372252Y-81339988D01*
X133599987Y-81112253D01*
X133600000Y-81112234D01*
X133600013Y-81112253D01*
X133827748Y-81339988D01*
X134095537Y-81518919D01*
X134393088Y-81642169D01*
X134708967Y-81705001D01*
X134899869Y-81705001D01*
X150273009Y-97078142D01*
X150308551Y-97121450D01*
X150481377Y-97263285D01*
X150678553Y-97368677D01*
X150892501Y-97433578D01*
X151059248Y-97450001D01*
X151059257Y-97450001D01*
X151114999Y-97455491D01*
X151170741Y-97450001D01*
X180743248Y-97450001D01*
X180798999Y-97455492D01*
X180854750Y-97450001D01*
X180854751Y-97450001D01*
X181021498Y-97433578D01*
X181235446Y-97368677D01*
X181432622Y-97263285D01*
X181605448Y-97121450D01*
X181640995Y-97078136D01*
X185410367Y-93308765D01*
X185420175Y-93341099D01*
X185545359Y-93603920D01*
X185719412Y-93837269D01*
X185935645Y-94032178D01*
X186052534Y-94101805D01*
X185870368Y-94223525D01*
X185663525Y-94430368D01*
X185501010Y-94673589D01*
X185389068Y-94943842D01*
X185332000Y-95230740D01*
X185332000Y-95523260D01*
X185389068Y-95810158D01*
X185501010Y-96080411D01*
X185663525Y-96323632D01*
X185795380Y-96455487D01*
X185722820Y-96477498D01*
X185612506Y-96536463D01*
X185515815Y-96615815D01*
X185436463Y-96712506D01*
X185377498Y-96822820D01*
X185341188Y-96942518D01*
X185328928Y-97067000D01*
X185328928Y-98767000D01*
X185341188Y-98891482D01*
X185377498Y-99011180D01*
X185436463Y-99121494D01*
X185515815Y-99218185D01*
X185612506Y-99297537D01*
X185722820Y-99356502D01*
X185842518Y-99392812D01*
X185967000Y-99405072D01*
X187667000Y-99405072D01*
X187791482Y-99392812D01*
X187911180Y-99356502D01*
X188021494Y-99297537D01*
X188118185Y-99218185D01*
X188197537Y-99121494D01*
X188256502Y-99011180D01*
X188292812Y-98891482D01*
X188305072Y-98767000D01*
X188305072Y-97067000D01*
X188292812Y-96942518D01*
X188256502Y-96822820D01*
X188197537Y-96712506D01*
X188118185Y-96615815D01*
X188021494Y-96536463D01*
X187911180Y-96477498D01*
X187838620Y-96455487D01*
X187970475Y-96323632D01*
X188132990Y-96080411D01*
X188244932Y-95810158D01*
X188302000Y-95523260D01*
X188302000Y-95230740D01*
X188244932Y-94943842D01*
X188132990Y-94673589D01*
X187970475Y-94430368D01*
X187763632Y-94223525D01*
X187581466Y-94101805D01*
X187698355Y-94032178D01*
X187914588Y-93837269D01*
X188088641Y-93603920D01*
X188213825Y-93341099D01*
X188258476Y-93193890D01*
X188137155Y-92964000D01*
X186944000Y-92964000D01*
X186944000Y-92984000D01*
X186690000Y-92984000D01*
X186690000Y-92964000D01*
X186670000Y-92964000D01*
X186670000Y-92710000D01*
X186690000Y-92710000D01*
X186690000Y-92690000D01*
X186944000Y-92690000D01*
X186944000Y-92710000D01*
X188137155Y-92710000D01*
X188258476Y-92480110D01*
X188213825Y-92332901D01*
X188088641Y-92070080D01*
X187914588Y-91836731D01*
X187698355Y-91641822D01*
X187581466Y-91572195D01*
X187763632Y-91450475D01*
X187970475Y-91243632D01*
X188132990Y-91000411D01*
X188244932Y-90730158D01*
X188302000Y-90443260D01*
X188302000Y-90150740D01*
X188244932Y-89863842D01*
X188132990Y-89593589D01*
X187970475Y-89350368D01*
X187763632Y-89143525D01*
X187589240Y-89027000D01*
X187763632Y-88910475D01*
X187970475Y-88703632D01*
X188132990Y-88460411D01*
X188244932Y-88190158D01*
X188302000Y-87903260D01*
X188302000Y-87610740D01*
X188244932Y-87323842D01*
X188132990Y-87053589D01*
X187970475Y-86810368D01*
X187763632Y-86603525D01*
X187589240Y-86487000D01*
X187763632Y-86370475D01*
X187970475Y-86163632D01*
X188132990Y-85920411D01*
X188244932Y-85650158D01*
X188302000Y-85363260D01*
X188302000Y-85070740D01*
X188244932Y-84783842D01*
X188132990Y-84513589D01*
X187970475Y-84270368D01*
X187763632Y-84063525D01*
X187589240Y-83947000D01*
X187763632Y-83830475D01*
X187970475Y-83623632D01*
X188132990Y-83380411D01*
X188244932Y-83110158D01*
X188302000Y-82823260D01*
X188302000Y-82530740D01*
X188244932Y-82243842D01*
X188132990Y-81973589D01*
X187970475Y-81730368D01*
X187763632Y-81523525D01*
X187589240Y-81407000D01*
X187763632Y-81290475D01*
X187970475Y-81083632D01*
X188132990Y-80840411D01*
X188244932Y-80570158D01*
X188302000Y-80283260D01*
X188302000Y-79990740D01*
X188244932Y-79703842D01*
X188147898Y-79469580D01*
X189950025Y-79469580D01*
X190406197Y-80041185D01*
X191206183Y-80481207D01*
X192076641Y-80756704D01*
X192984121Y-80857091D01*
X193893748Y-80778508D01*
X194770566Y-80523975D01*
X195580879Y-80103275D01*
X195673803Y-80041185D01*
X196129975Y-79469580D01*
X193040000Y-76379605D01*
X189950025Y-79469580D01*
X188147898Y-79469580D01*
X188132990Y-79433589D01*
X187970475Y-79190368D01*
X187763632Y-78983525D01*
X187520411Y-78821010D01*
X187250158Y-78709068D01*
X186963260Y-78652000D01*
X186670740Y-78652000D01*
X186383842Y-78709068D01*
X186113589Y-78821010D01*
X185870368Y-78983525D01*
X185663525Y-79190368D01*
X185501010Y-79433589D01*
X185389068Y-79703842D01*
X185332000Y-79990740D01*
X185332000Y-80283260D01*
X185389068Y-80570158D01*
X185501010Y-80840411D01*
X185663525Y-81083632D01*
X185870368Y-81290475D01*
X186044760Y-81407000D01*
X185870368Y-81523525D01*
X185663525Y-81730368D01*
X185501010Y-81973589D01*
X185406614Y-82201482D01*
X180811996Y-77606865D01*
X180776449Y-77563551D01*
X180603623Y-77421716D01*
X180406447Y-77316324D01*
X180192499Y-77251423D01*
X180025752Y-77235000D01*
X180025751Y-77235000D01*
X179970000Y-77229509D01*
X179914249Y-77235000D01*
X141705742Y-77235000D01*
X141650000Y-77229510D01*
X141594258Y-77235000D01*
X141594249Y-77235000D01*
X141427502Y-77251423D01*
X141213554Y-77316324D01*
X141016378Y-77421716D01*
X140843552Y-77563551D01*
X140808010Y-77606860D01*
X139979869Y-78435001D01*
X139788967Y-78435001D01*
X139473088Y-78497833D01*
X139175537Y-78621083D01*
X138907748Y-78800014D01*
X138680013Y-79027749D01*
X138680000Y-79027768D01*
X138679987Y-79027749D01*
X138452252Y-78800014D01*
X138184463Y-78621083D01*
X137886912Y-78497833D01*
X137571033Y-78435001D01*
X137248967Y-78435001D01*
X136933088Y-78497833D01*
X136635537Y-78621083D01*
X136367748Y-78800014D01*
X136140013Y-79027749D01*
X136140000Y-79027768D01*
X136139987Y-79027749D01*
X135912252Y-78800014D01*
X135644463Y-78621083D01*
X135346912Y-78497833D01*
X135031033Y-78435001D01*
X134708967Y-78435001D01*
X134393088Y-78497833D01*
X134095537Y-78621083D01*
X133827748Y-78800014D01*
X133600013Y-79027749D01*
X133600000Y-79027768D01*
X133599987Y-79027749D01*
X133372252Y-78800014D01*
X133104463Y-78621083D01*
X132806912Y-78497833D01*
X132491033Y-78435001D01*
X132168967Y-78435001D01*
X131853088Y-78497833D01*
X131555537Y-78621083D01*
X131287748Y-78800014D01*
X131060013Y-79027749D01*
X131060000Y-79027768D01*
X131059987Y-79027749D01*
X130832252Y-78800014D01*
X130564463Y-78621083D01*
X130266912Y-78497833D01*
X129951033Y-78435001D01*
X129628967Y-78435001D01*
X129313088Y-78497833D01*
X129015537Y-78621083D01*
X128747748Y-78800014D01*
X128520013Y-79027749D01*
X128520000Y-79027768D01*
X128519987Y-79027749D01*
X128292252Y-78800014D01*
X128024463Y-78621083D01*
X127726912Y-78497833D01*
X127411033Y-78435001D01*
X127088967Y-78435001D01*
X126773088Y-78497833D01*
X126475537Y-78621083D01*
X126207748Y-78800014D01*
X125980013Y-79027749D01*
X125801082Y-79295538D01*
X125677832Y-79593089D01*
X125615000Y-79908968D01*
X99259319Y-79908968D01*
X99609975Y-79469580D01*
X96520000Y-76379605D01*
X93430025Y-79469580D01*
X90511755Y-79469580D01*
X90581932Y-79300158D01*
X90639000Y-79013260D01*
X90639000Y-78720740D01*
X90581932Y-78433842D01*
X90469990Y-78163589D01*
X90307475Y-77920368D01*
X90100632Y-77713525D01*
X89926240Y-77597000D01*
X90100632Y-77480475D01*
X90307475Y-77273632D01*
X90469990Y-77030411D01*
X90581932Y-76760158D01*
X90639000Y-76473260D01*
X90639000Y-76180740D01*
X90631716Y-76144121D01*
X91862909Y-76144121D01*
X91941492Y-77053748D01*
X92196025Y-77930566D01*
X92616725Y-78740879D01*
X92678815Y-78833803D01*
X93250420Y-79289975D01*
X96340395Y-76200000D01*
X96699605Y-76200000D01*
X99789580Y-79289975D01*
X100361185Y-78833803D01*
X100801207Y-78033817D01*
X101076704Y-77163359D01*
X101177091Y-76255879D01*
X101167437Y-76144121D01*
X188382909Y-76144121D01*
X188461492Y-77053748D01*
X188716025Y-77930566D01*
X189136725Y-78740879D01*
X189198815Y-78833803D01*
X189770420Y-79289975D01*
X192860395Y-76200000D01*
X189770420Y-73110025D01*
X189198815Y-73566197D01*
X188758793Y-74366183D01*
X188483296Y-75236641D01*
X188382909Y-76144121D01*
X101167437Y-76144121D01*
X101098508Y-75346252D01*
X100843975Y-74469434D01*
X100423275Y-73659121D01*
X100361185Y-73566197D01*
X99789580Y-73110025D01*
X96699605Y-76200000D01*
X96340395Y-76200000D01*
X93250420Y-73110025D01*
X92678815Y-73566197D01*
X92238793Y-74366183D01*
X91963296Y-75236641D01*
X91862909Y-76144121D01*
X90631716Y-76144121D01*
X90581932Y-75893842D01*
X90469990Y-75623589D01*
X90307475Y-75380368D01*
X90175620Y-75248513D01*
X90248180Y-75226502D01*
X90358494Y-75167537D01*
X90455185Y-75088185D01*
X90534537Y-74991494D01*
X90593502Y-74881180D01*
X90629812Y-74761482D01*
X90642072Y-74637000D01*
X90639000Y-74072750D01*
X90480250Y-73914000D01*
X89281000Y-73914000D01*
X89281000Y-73934000D01*
X89027000Y-73934000D01*
X89027000Y-73914000D01*
X87827750Y-73914000D01*
X87669000Y-74072750D01*
X87665928Y-74637000D01*
X75402606Y-74637000D01*
X77522606Y-72517000D01*
X87827222Y-72517000D01*
X87773463Y-72582506D01*
G36*
X185332000Y-85337132D02*
G01*
X185332000Y-85363260D01*
X185389068Y-85650158D01*
X185501010Y-85920411D01*
X185663525Y-86163632D01*
X185870368Y-86370475D01*
X186044760Y-86487000D01*
X185870368Y-86603525D01*
X185663525Y-86810368D01*
X185501010Y-87053589D01*
X185389068Y-87323842D01*
X185332000Y-87610740D01*
X185332000Y-87903260D01*
X185389068Y-88190158D01*
X185501010Y-88460411D01*
X185663525Y-88703632D01*
X185870368Y-88910475D01*
X186044760Y-89027000D01*
X185870368Y-89143525D01*
X185663525Y-89350368D01*
X185501010Y-89593589D01*
X185389068Y-89863842D01*
X185332000Y-90150740D01*
X185332000Y-90176867D01*
X183238089Y-92270779D01*
X183245000Y-92236033D01*
X183245000Y-91913967D01*
X183182168Y-91598088D01*
X183058918Y-91300537D01*
X182879987Y-91032748D01*
X182652252Y-90805013D01*
X182652233Y-90805000D01*
X182652252Y-90804987D01*
X182879987Y-90577252D01*
X183058918Y-90309463D01*
X183182168Y-90011912D01*
X183245000Y-89696033D01*
X183245000Y-89373967D01*
X183182168Y-89058088D01*
X183058918Y-88760537D01*
X182879987Y-88492748D01*
X182652252Y-88265013D01*
X182652233Y-88265000D01*
X182652252Y-88264987D01*
X182879987Y-88037252D01*
X183058918Y-87769463D01*
X183182168Y-87471912D01*
X183245000Y-87156033D01*
X183245000Y-86833967D01*
X183182168Y-86518088D01*
X183058918Y-86220537D01*
X182879987Y-85952748D01*
X182652252Y-85725013D01*
X182652233Y-85725000D01*
X182652252Y-85724987D01*
X182879987Y-85497252D01*
X183058918Y-85229463D01*
X183182168Y-84931912D01*
X183245000Y-84616033D01*
X183245000Y-84293967D01*
X183182168Y-83978088D01*
X183058918Y-83680537D01*
X182879987Y-83412748D01*
X182652252Y-83185013D01*
X182384463Y-83006082D01*
X182086912Y-82882832D01*
X181771033Y-82820000D01*
X181448967Y-82820000D01*
X181133088Y-82882832D01*
X180835537Y-83006082D01*
X180567748Y-83185013D01*
X180340013Y-83412748D01*
X180161082Y-83680537D01*
X180037832Y-83978088D01*
X179975000Y-84293967D01*
X179975000Y-84616033D01*
X180037832Y-84931912D01*
X180161082Y-85229463D01*
X180340013Y-85497252D01*
X180567748Y-85724987D01*
X180567767Y-85725000D01*
X180567748Y-85725013D01*
X180340013Y-85952748D01*
X180161082Y-86220537D01*
X180037832Y-86518088D01*
X179975000Y-86833967D01*
X179975000Y-87156033D01*
X180037832Y-87471912D01*
X180161082Y-87769463D01*
X180340013Y-88037252D01*
X180567748Y-88264987D01*
X180567767Y-88265000D01*
X180567748Y-88265013D01*
X180340013Y-88492748D01*
X180161082Y-88760537D01*
X180037832Y-89058088D01*
X179975000Y-89373967D01*
X179975000Y-89696033D01*
X180037832Y-90011912D01*
X180161082Y-90309463D01*
X180340013Y-90577252D01*
X180567748Y-90804987D01*
X180567767Y-90805000D01*
X180567748Y-90805013D01*
X180340013Y-91032748D01*
X180161082Y-91300537D01*
X180037832Y-91598088D01*
X179975000Y-91913967D01*
X179975000Y-92236033D01*
X180037832Y-92551912D01*
X180161082Y-92849463D01*
X180340013Y-93117252D01*
X180567748Y-93344987D01*
X180835537Y-93523918D01*
X181133088Y-93647168D01*
X181448967Y-93710000D01*
X181771033Y-93710000D01*
X181805780Y-93703088D01*
X180328868Y-95180001D01*
X165365680Y-95180001D01*
X165402168Y-95091912D01*
X165465000Y-94776033D01*
X165465000Y-94453967D01*
X165402168Y-94138088D01*
X165278918Y-93840537D01*
X165099987Y-93572748D01*
X164872252Y-93345013D01*
X164872233Y-93345000D01*
X164872252Y-93344987D01*
X165099987Y-93117252D01*
X165278918Y-92849463D01*
X165402168Y-92551912D01*
X165465000Y-92236033D01*
X165465000Y-91913967D01*
X165402168Y-91598088D01*
X165278918Y-91300537D01*
X165099987Y-91032748D01*
X164872252Y-90805013D01*
X164872233Y-90805000D01*
X164872252Y-90804987D01*
X165099987Y-90577252D01*
X165278918Y-90309463D01*
X165402168Y-90011912D01*
X165465000Y-89696033D01*
X165465000Y-89373967D01*
X165402168Y-89058088D01*
X165278918Y-88760537D01*
X165099987Y-88492748D01*
X164872252Y-88265013D01*
X164763400Y-88192280D01*
X164785808Y-88130413D01*
X163830000Y-87174605D01*
X162874192Y-88130413D01*
X162896600Y-88192280D01*
X162787748Y-88265013D01*
X162560013Y-88492748D01*
X162381082Y-88760537D01*
X162257832Y-89058088D01*
X162195000Y-89373967D01*
X162195000Y-89696033D01*
X162257832Y-90011912D01*
X162381082Y-90309463D01*
X162560013Y-90577252D01*
X162787748Y-90804987D01*
X162787767Y-90805000D01*
X162787748Y-90805013D01*
X162560013Y-91032748D01*
X162381082Y-91300537D01*
X162257832Y-91598088D01*
X162195000Y-91913967D01*
X162195000Y-92236033D01*
X162257832Y-92551912D01*
X162381082Y-92849463D01*
X162560013Y-93117252D01*
X162787748Y-93344987D01*
X162787767Y-93345000D01*
X162787748Y-93345013D01*
X162560013Y-93572748D01*
X162381082Y-93840537D01*
X162257832Y-94138088D01*
X162195000Y-94453967D01*
X162195000Y-94776033D01*
X162257832Y-95091912D01*
X162294320Y-95180001D01*
X151585132Y-95180001D01*
X143462726Y-87057595D01*
X162188282Y-87057595D01*
X162232039Y-87376675D01*
X162337205Y-87681088D01*
X162430186Y-87855044D01*
X162694587Y-87950808D01*
X163650395Y-86995000D01*
X164009605Y-86995000D01*
X164965413Y-87950808D01*
X165229814Y-87855044D01*
X165370704Y-87565429D01*
X165452384Y-87253892D01*
X165471718Y-86932405D01*
X165427961Y-86613325D01*
X165322795Y-86308912D01*
X165229814Y-86134956D01*
X164965413Y-86039192D01*
X164009605Y-86995000D01*
X163650395Y-86995000D01*
X162694587Y-86039192D01*
X162430186Y-86134956D01*
X162289296Y-86424571D01*
X162207616Y-86736108D01*
X162188282Y-87057595D01*
X143462726Y-87057595D01*
X139310132Y-82905002D01*
X155950250Y-82905002D01*
X156006001Y-82910493D01*
X156061752Y-82905002D01*
X156061753Y-82905002D01*
X156228500Y-82888579D01*
X156442448Y-82823678D01*
X156639624Y-82718286D01*
X156812450Y-82576451D01*
X156847996Y-82533138D01*
X158236136Y-81145000D01*
X162379233Y-81145000D01*
X162257832Y-81438088D01*
X162195000Y-81753967D01*
X162195000Y-82076033D01*
X162257832Y-82391912D01*
X162381082Y-82689463D01*
X162560013Y-82957252D01*
X162787748Y-83184987D01*
X162787767Y-83185000D01*
X162787748Y-83185013D01*
X162560013Y-83412748D01*
X162381082Y-83680537D01*
X162257832Y-83978088D01*
X162195000Y-84293967D01*
X162195000Y-84616033D01*
X162257832Y-84931912D01*
X162381082Y-85229463D01*
X162560013Y-85497252D01*
X162787748Y-85724987D01*
X162896600Y-85797720D01*
X162874192Y-85859587D01*
X163830000Y-86815395D01*
X164785808Y-85859587D01*
X164763400Y-85797720D01*
X164872252Y-85724987D01*
X165099987Y-85497252D01*
X165278918Y-85229463D01*
X165402168Y-84931912D01*
X165465000Y-84616033D01*
X165465000Y-84293967D01*
X165402168Y-83978088D01*
X165278918Y-83680537D01*
X165099987Y-83412748D01*
X164872252Y-83185013D01*
X164872233Y-83185000D01*
X164872252Y-83184987D01*
X165099987Y-82957252D01*
X165278918Y-82689463D01*
X165402168Y-82391912D01*
X165465000Y-82076033D01*
X165465000Y-81753967D01*
X165402168Y-81438088D01*
X165280767Y-81145000D01*
X169275788Y-81145000D01*
X169330747Y-81134068D01*
X169386499Y-81128577D01*
X169440106Y-81112315D01*
X169495067Y-81101383D01*
X169546842Y-81079937D01*
X169600447Y-81063676D01*
X169649851Y-81037269D01*
X169701624Y-81015824D01*
X169748214Y-80984693D01*
X169797623Y-80958284D01*
X169840932Y-80922741D01*
X169887520Y-80891612D01*
X169927141Y-80851991D01*
X169970449Y-80816449D01*
X170005991Y-80773141D01*
X170045612Y-80733520D01*
X170076741Y-80686932D01*
X170112284Y-80643623D01*
X170138693Y-80594214D01*
X170169824Y-80547624D01*
X170191269Y-80495851D01*
X170217676Y-80446447D01*
X170233937Y-80392842D01*
X170255383Y-80341067D01*
X170266315Y-80286106D01*
X170282577Y-80232499D01*
X170288068Y-80176747D01*
X170299000Y-80121788D01*
X170299000Y-80065752D01*
X170304491Y-80010000D01*
X170299000Y-79954248D01*
X170299000Y-79898212D01*
X170288068Y-79843253D01*
X170282577Y-79787501D01*
X170266315Y-79733894D01*
X170255383Y-79678933D01*
X170233937Y-79627158D01*
X170217676Y-79573553D01*
X170191269Y-79524149D01*
X170183337Y-79505000D01*
X179499869Y-79505000D01*
X185332000Y-85337132D01*
G37*
X185332000Y-85337132D02*
X185332000Y-85363260D01*
X185389068Y-85650158D01*
X185501010Y-85920411D01*
X185663525Y-86163632D01*
X185870368Y-86370475D01*
X186044760Y-86487000D01*
X185870368Y-86603525D01*
X185663525Y-86810368D01*
X185501010Y-87053589D01*
X185389068Y-87323842D01*
X185332000Y-87610740D01*
X185332000Y-87903260D01*
X185389068Y-88190158D01*
X185501010Y-88460411D01*
X185663525Y-88703632D01*
X185870368Y-88910475D01*
X186044760Y-89027000D01*
X185870368Y-89143525D01*
X185663525Y-89350368D01*
X185501010Y-89593589D01*
X185389068Y-89863842D01*
X185332000Y-90150740D01*
X185332000Y-90176867D01*
X183238089Y-92270779D01*
X183245000Y-92236033D01*
X183245000Y-91913967D01*
X183182168Y-91598088D01*
X183058918Y-91300537D01*
X182879987Y-91032748D01*
X182652252Y-90805013D01*
X182652233Y-90805000D01*
X182652252Y-90804987D01*
X182879987Y-90577252D01*
X183058918Y-90309463D01*
X183182168Y-90011912D01*
X183245000Y-89696033D01*
X183245000Y-89373967D01*
X183182168Y-89058088D01*
X183058918Y-88760537D01*
X182879987Y-88492748D01*
X182652252Y-88265013D01*
X182652233Y-88265000D01*
X182652252Y-88264987D01*
X182879987Y-88037252D01*
X183058918Y-87769463D01*
X183182168Y-87471912D01*
X183245000Y-87156033D01*
X183245000Y-86833967D01*
X183182168Y-86518088D01*
X183058918Y-86220537D01*
X182879987Y-85952748D01*
X182652252Y-85725013D01*
X182652233Y-85725000D01*
X182652252Y-85724987D01*
X182879987Y-85497252D01*
X183058918Y-85229463D01*
X183182168Y-84931912D01*
X183245000Y-84616033D01*
X183245000Y-84293967D01*
X183182168Y-83978088D01*
X183058918Y-83680537D01*
X182879987Y-83412748D01*
X182652252Y-83185013D01*
X182384463Y-83006082D01*
X182086912Y-82882832D01*
X181771033Y-82820000D01*
X181448967Y-82820000D01*
X181133088Y-82882832D01*
X180835537Y-83006082D01*
X180567748Y-83185013D01*
X180340013Y-83412748D01*
X180161082Y-83680537D01*
X180037832Y-83978088D01*
X179975000Y-84293967D01*
X179975000Y-84616033D01*
X180037832Y-84931912D01*
X180161082Y-85229463D01*
X180340013Y-85497252D01*
X180567748Y-85724987D01*
X180567767Y-85725000D01*
X180567748Y-85725013D01*
X180340013Y-85952748D01*
X180161082Y-86220537D01*
X180037832Y-86518088D01*
X179975000Y-86833967D01*
X179975000Y-87156033D01*
X180037832Y-87471912D01*
X180161082Y-87769463D01*
X180340013Y-88037252D01*
X180567748Y-88264987D01*
X180567767Y-88265000D01*
X180567748Y-88265013D01*
X180340013Y-88492748D01*
X180161082Y-88760537D01*
X180037832Y-89058088D01*
X179975000Y-89373967D01*
X179975000Y-89696033D01*
X180037832Y-90011912D01*
X180161082Y-90309463D01*
X180340013Y-90577252D01*
X180567748Y-90804987D01*
X180567767Y-90805000D01*
X180567748Y-90805013D01*
X180340013Y-91032748D01*
X180161082Y-91300537D01*
X180037832Y-91598088D01*
X179975000Y-91913967D01*
X179975000Y-92236033D01*
X180037832Y-92551912D01*
X180161082Y-92849463D01*
X180340013Y-93117252D01*
X180567748Y-93344987D01*
X180835537Y-93523918D01*
X181133088Y-93647168D01*
X181448967Y-93710000D01*
X181771033Y-93710000D01*
X181805780Y-93703088D01*
X180328868Y-95180001D01*
X165365680Y-95180001D01*
X165402168Y-95091912D01*
X165465000Y-94776033D01*
X165465000Y-94453967D01*
X165402168Y-94138088D01*
X165278918Y-93840537D01*
X165099987Y-93572748D01*
X164872252Y-93345013D01*
X164872233Y-93345000D01*
X164872252Y-93344987D01*
X165099987Y-93117252D01*
X165278918Y-92849463D01*
X165402168Y-92551912D01*
X165465000Y-92236033D01*
X165465000Y-91913967D01*
X165402168Y-91598088D01*
X165278918Y-91300537D01*
X165099987Y-91032748D01*
X164872252Y-90805013D01*
X164872233Y-90805000D01*
X164872252Y-90804987D01*
X165099987Y-90577252D01*
X165278918Y-90309463D01*
X165402168Y-90011912D01*
X165465000Y-89696033D01*
X165465000Y-89373967D01*
X165402168Y-89058088D01*
X165278918Y-88760537D01*
X165099987Y-88492748D01*
X164872252Y-88265013D01*
X164763400Y-88192280D01*
X164785808Y-88130413D01*
X163830000Y-87174605D01*
X162874192Y-88130413D01*
X162896600Y-88192280D01*
X162787748Y-88265013D01*
X162560013Y-88492748D01*
X162381082Y-88760537D01*
X162257832Y-89058088D01*
X162195000Y-89373967D01*
X162195000Y-89696033D01*
X162257832Y-90011912D01*
X162381082Y-90309463D01*
X162560013Y-90577252D01*
X162787748Y-90804987D01*
X162787767Y-90805000D01*
X162787748Y-90805013D01*
X162560013Y-91032748D01*
X162381082Y-91300537D01*
X162257832Y-91598088D01*
X162195000Y-91913967D01*
X162195000Y-92236033D01*
X162257832Y-92551912D01*
X162381082Y-92849463D01*
X162560013Y-93117252D01*
X162787748Y-93344987D01*
X162787767Y-93345000D01*
X162787748Y-93345013D01*
X162560013Y-93572748D01*
X162381082Y-93840537D01*
X162257832Y-94138088D01*
X162195000Y-94453967D01*
X162195000Y-94776033D01*
X162257832Y-95091912D01*
X162294320Y-95180001D01*
X151585132Y-95180001D01*
X143462726Y-87057595D01*
X162188282Y-87057595D01*
X162232039Y-87376675D01*
X162337205Y-87681088D01*
X162430186Y-87855044D01*
X162694587Y-87950808D01*
X163650395Y-86995000D01*
X164009605Y-86995000D01*
X164965413Y-87950808D01*
X165229814Y-87855044D01*
X165370704Y-87565429D01*
X165452384Y-87253892D01*
X165471718Y-86932405D01*
X165427961Y-86613325D01*
X165322795Y-86308912D01*
X165229814Y-86134956D01*
X164965413Y-86039192D01*
X164009605Y-86995000D01*
X163650395Y-86995000D01*
X162694587Y-86039192D01*
X162430186Y-86134956D01*
X162289296Y-86424571D01*
X162207616Y-86736108D01*
X162188282Y-87057595D01*
X143462726Y-87057595D01*
X139310132Y-82905002D01*
X155950250Y-82905002D01*
X156006001Y-82910493D01*
X156061752Y-82905002D01*
X156061753Y-82905002D01*
X156228500Y-82888579D01*
X156442448Y-82823678D01*
X156639624Y-82718286D01*
X156812450Y-82576451D01*
X156847996Y-82533138D01*
X158236136Y-81145000D01*
X162379233Y-81145000D01*
X162257832Y-81438088D01*
X162195000Y-81753967D01*
X162195000Y-82076033D01*
X162257832Y-82391912D01*
X162381082Y-82689463D01*
X162560013Y-82957252D01*
X162787748Y-83184987D01*
X162787767Y-83185000D01*
X162787748Y-83185013D01*
X162560013Y-83412748D01*
X162381082Y-83680537D01*
X162257832Y-83978088D01*
X162195000Y-84293967D01*
X162195000Y-84616033D01*
X162257832Y-84931912D01*
X162381082Y-85229463D01*
X162560013Y-85497252D01*
X162787748Y-85724987D01*
X162896600Y-85797720D01*
X162874192Y-85859587D01*
X163830000Y-86815395D01*
X164785808Y-85859587D01*
X164763400Y-85797720D01*
X164872252Y-85724987D01*
X165099987Y-85497252D01*
X165278918Y-85229463D01*
X165402168Y-84931912D01*
X165465000Y-84616033D01*
X165465000Y-84293967D01*
X165402168Y-83978088D01*
X165278918Y-83680537D01*
X165099987Y-83412748D01*
X164872252Y-83185013D01*
X164872233Y-83185000D01*
X164872252Y-83184987D01*
X165099987Y-82957252D01*
X165278918Y-82689463D01*
X165402168Y-82391912D01*
X165465000Y-82076033D01*
X165465000Y-81753967D01*
X165402168Y-81438088D01*
X165280767Y-81145000D01*
X169275788Y-81145000D01*
X169330747Y-81134068D01*
X169386499Y-81128577D01*
X169440106Y-81112315D01*
X169495067Y-81101383D01*
X169546842Y-81079937D01*
X169600447Y-81063676D01*
X169649851Y-81037269D01*
X169701624Y-81015824D01*
X169748214Y-80984693D01*
X169797623Y-80958284D01*
X169840932Y-80922741D01*
X169887520Y-80891612D01*
X169927141Y-80851991D01*
X169970449Y-80816449D01*
X170005991Y-80773141D01*
X170045612Y-80733520D01*
X170076741Y-80686932D01*
X170112284Y-80643623D01*
X170138693Y-80594214D01*
X170169824Y-80547624D01*
X170191269Y-80495851D01*
X170217676Y-80446447D01*
X170233937Y-80392842D01*
X170255383Y-80341067D01*
X170266315Y-80286106D01*
X170282577Y-80232499D01*
X170288068Y-80176747D01*
X170299000Y-80121788D01*
X170299000Y-80065752D01*
X170304491Y-80010000D01*
X170299000Y-79954248D01*
X170299000Y-79898212D01*
X170288068Y-79843253D01*
X170282577Y-79787501D01*
X170266315Y-79733894D01*
X170255383Y-79678933D01*
X170233937Y-79627158D01*
X170217676Y-79573553D01*
X170191269Y-79524149D01*
X170183337Y-79505000D01*
X179499869Y-79505000D01*
X185332000Y-85337132D01*
%TD*%
M02*
