M48
; DRILL file {KiCad 5.1.6} date Sun Sep 13 19:16:23 2020
; FORMAT={-:-/ absolute / inch / decimal}
; #@! TF.CreationDate,2020-09-13T19:16:23-07:00
; #@! TF.GenerationSoftware,Kicad,Pcbnew,5.1.6
; #@! TF.FileFunction,Plated,1,2,PTH
FMAT,2
INCH
T1C0.0236
T2C0.0276
T3C0.0315
T4C0.0394
T5C0.0630
T6C0.1575
%
G90
G05
T1
X3.3819Y-4.3
X3.4165Y-4.2165
X3.4165Y-4.3835
X3.5Y-4.1819
X3.5Y-4.4181
X3.5835Y-4.2165
X3.5835Y-4.3835
X3.6181Y-4.3
X7.4819Y-4.3
X7.5165Y-4.2165
X7.5165Y-4.3835
X7.6Y-4.1819
X7.6Y-4.4181
X7.6835Y-4.2165
X7.6835Y-4.3835
X7.7181Y-4.3
X3.6819Y-3.0
X3.7165Y-2.9165
X3.7165Y-3.0835
X3.8Y-2.8819
X3.8Y-3.1181
X3.8835Y-2.9165
X3.8835Y-3.0835
X3.9181Y-3.0
X7.4819Y-3.0
X7.5165Y-2.9165
X7.5165Y-3.0835
X7.6Y-2.8819
X7.6Y-3.1181
X7.6835Y-2.9165
X7.6835Y-3.0835
X7.7181Y-3.0
T2
X6.66Y-3.15
X6.825Y-3.7
X6.825Y-3.9
T3
X3.87Y-3.78
X4.27Y-3.78
X3.871Y-3.655
X4.271Y-3.655
X3.87Y-4.04
X4.27Y-4.04
X3.87Y-3.52
X4.27Y-3.52
X3.871Y-3.395
X4.271Y-3.395
X3.87Y-3.914
X4.27Y-3.914
T4
X3.51Y-3.655
X3.61Y-3.655
X3.71Y-3.655
X7.355Y-3.155
X7.355Y-3.255
X7.355Y-3.355
X7.355Y-3.455
X7.355Y-3.555
X7.355Y-3.655
X7.355Y-3.755
X7.355Y-3.855
X3.51Y-3.915
X3.61Y-3.915
X3.71Y-3.915
X4.6098Y-3.9524
X4.7098Y-3.9524
X4.8098Y-3.9524
X4.9098Y-3.9524
X5.0098Y-3.1524
X5.0098Y-3.9524
X5.1098Y-3.1524
X5.1098Y-3.9524
X5.2098Y-3.1524
X5.2098Y-3.9524
X5.3098Y-3.1524
X5.3098Y-3.9524
X5.4098Y-3.1524
X5.4098Y-3.9524
X5.5098Y-3.1524
X5.5098Y-3.9524
X5.6098Y-3.1524
X5.6098Y-3.9524
X5.7098Y-3.1524
X5.7098Y-3.9524
X5.8098Y-3.1524
X5.8098Y-3.9524
X5.9098Y-3.1524
X5.9098Y-3.9524
X6.0098Y-3.1524
X6.0098Y-3.9524
X6.1098Y-3.1524
X6.1098Y-3.9524
X6.45Y-3.225
X6.45Y-3.325
X6.45Y-3.425
X6.45Y-3.525
X6.45Y-3.625
X6.45Y-3.725
X7.15Y-3.325
X7.15Y-3.425
X7.15Y-3.525
X7.15Y-3.625
X5.91Y-4.095
X6.01Y-4.095
X6.11Y-4.095
X6.21Y-4.095
X3.51Y-2.905
X3.51Y-3.005
X3.51Y-3.105
X3.51Y-3.205
X3.51Y-3.395
X3.61Y-3.395
X3.71Y-3.395
T5
X3.0428Y-3.327
X3.2396Y-3.327
X3.0428Y-3.847
X3.2396Y-3.847
X3.0428Y-3.581
X3.2396Y-3.581
X3.045Y-3.065
X3.2419Y-3.065
X3.04Y-4.105
X3.2369Y-4.105
T6
X3.5Y-4.3
X7.6Y-4.3
X3.8Y-3.0
X7.6Y-3.0
T0
M30
