%TF.GenerationSoftware,KiCad,Pcbnew,5.1.9*%
%TF.CreationDate,2021-02-20T15:12:24-08:00*%
%TF.ProjectId,Transmitter,5472616e-736d-4697-9474-65722e6b6963,rev?*%
%TF.SameCoordinates,Original*%
%TF.FileFunction,Copper,L1,Top*%
%TF.FilePolarity,Positive*%
%FSLAX46Y46*%
G04 Gerber Fmt 4.6, Leading zero omitted, Abs format (unit mm)*
G04 Created by KiCad (PCBNEW 5.1.9) date 2021-02-20 15:12:24*
%MOMM*%
%LPD*%
G01*
G04 APERTURE LIST*
%TA.AperFunction,ComponentPad*%
%ADD10C,1.750000*%
%TD*%
%TA.AperFunction,ComponentPad*%
%ADD11C,3.800000*%
%TD*%
%TA.AperFunction,SMDPad,CuDef*%
%ADD12R,0.740000X2.400000*%
%TD*%
%TA.AperFunction,ComponentPad*%
%ADD13O,1.700000X1.700000*%
%TD*%
%TA.AperFunction,ComponentPad*%
%ADD14R,1.700000X1.700000*%
%TD*%
%TA.AperFunction,SMDPad,CuDef*%
%ADD15R,0.900000X0.800000*%
%TD*%
%TA.AperFunction,SMDPad,CuDef*%
%ADD16R,2.600000X1.800000*%
%TD*%
%TA.AperFunction,SMDPad,CuDef*%
%ADD17R,1.300000X0.600000*%
%TD*%
%TA.AperFunction,SMDPad,CuDef*%
%ADD18R,0.800000X0.500000*%
%TD*%
%TA.AperFunction,SMDPad,CuDef*%
%ADD19R,2.200000X1.050000*%
%TD*%
%TA.AperFunction,SMDPad,CuDef*%
%ADD20R,1.050000X1.000000*%
%TD*%
%TA.AperFunction,SMDPad,CuDef*%
%ADD21R,1.000000X1.800000*%
%TD*%
%TA.AperFunction,ViaPad*%
%ADD22C,0.800000*%
%TD*%
%TA.AperFunction,Conductor*%
%ADD23C,1.000000*%
%TD*%
%TA.AperFunction,Conductor*%
%ADD24C,0.500000*%
%TD*%
%TA.AperFunction,Conductor*%
%ADD25C,1.750000*%
%TD*%
%TA.AperFunction,Conductor*%
%ADD26C,0.250000*%
%TD*%
%TA.AperFunction,Conductor*%
%ADD27C,0.254000*%
%TD*%
%TA.AperFunction,Conductor*%
%ADD28C,0.100000*%
%TD*%
G04 APERTURE END LIST*
D10*
%TO.P,J1,1*%
%TO.N,Net-(J1-Pad1)*%
X111633000Y-90805000D03*
%TD*%
%TO.P,C1,2*%
%TO.N,GND*%
%TA.AperFunction,SMDPad,CuDef*%
G36*
G01*
X111587500Y-84010000D02*
X111932500Y-84010000D01*
G75*
G02*
X112080000Y-84157500I0J-147500D01*
G01*
X112080000Y-84452500D01*
G75*
G02*
X111932500Y-84600000I-147500J0D01*
G01*
X111587500Y-84600000D01*
G75*
G02*
X111440000Y-84452500I0J147500D01*
G01*
X111440000Y-84157500D01*
G75*
G02*
X111587500Y-84010000I147500J0D01*
G01*
G37*
%TD.AperFunction*%
%TO.P,C1,1*%
%TO.N,+3V3*%
%TA.AperFunction,SMDPad,CuDef*%
G36*
G01*
X111587500Y-83040000D02*
X111932500Y-83040000D01*
G75*
G02*
X112080000Y-83187500I0J-147500D01*
G01*
X112080000Y-83482500D01*
G75*
G02*
X111932500Y-83630000I-147500J0D01*
G01*
X111587500Y-83630000D01*
G75*
G02*
X111440000Y-83482500I0J147500D01*
G01*
X111440000Y-83187500D01*
G75*
G02*
X111587500Y-83040000I147500J0D01*
G01*
G37*
%TD.AperFunction*%
%TD*%
%TO.P,C2,2*%
%TO.N,GND*%
%TA.AperFunction,SMDPad,CuDef*%
G36*
G01*
X80327500Y-100890000D02*
X80672500Y-100890000D01*
G75*
G02*
X80820000Y-101037500I0J-147500D01*
G01*
X80820000Y-101332500D01*
G75*
G02*
X80672500Y-101480000I-147500J0D01*
G01*
X80327500Y-101480000D01*
G75*
G02*
X80180000Y-101332500I0J147500D01*
G01*
X80180000Y-101037500D01*
G75*
G02*
X80327500Y-100890000I147500J0D01*
G01*
G37*
%TD.AperFunction*%
%TO.P,C2,1*%
%TO.N,OSC_IN*%
%TA.AperFunction,SMDPad,CuDef*%
G36*
G01*
X80327500Y-99920000D02*
X80672500Y-99920000D01*
G75*
G02*
X80820000Y-100067500I0J-147500D01*
G01*
X80820000Y-100362500D01*
G75*
G02*
X80672500Y-100510000I-147500J0D01*
G01*
X80327500Y-100510000D01*
G75*
G02*
X80180000Y-100362500I0J147500D01*
G01*
X80180000Y-100067500D01*
G75*
G02*
X80327500Y-99920000I147500J0D01*
G01*
G37*
%TD.AperFunction*%
%TD*%
%TO.P,C3,2*%
%TO.N,GND*%
%TA.AperFunction,SMDPad,CuDef*%
G36*
G01*
X82877500Y-100890000D02*
X83222500Y-100890000D01*
G75*
G02*
X83370000Y-101037500I0J-147500D01*
G01*
X83370000Y-101332500D01*
G75*
G02*
X83222500Y-101480000I-147500J0D01*
G01*
X82877500Y-101480000D01*
G75*
G02*
X82730000Y-101332500I0J147500D01*
G01*
X82730000Y-101037500D01*
G75*
G02*
X82877500Y-100890000I147500J0D01*
G01*
G37*
%TD.AperFunction*%
%TO.P,C3,1*%
%TO.N,OSC_OUT*%
%TA.AperFunction,SMDPad,CuDef*%
G36*
G01*
X82877500Y-99920000D02*
X83222500Y-99920000D01*
G75*
G02*
X83370000Y-100067500I0J-147500D01*
G01*
X83370000Y-100362500D01*
G75*
G02*
X83222500Y-100510000I-147500J0D01*
G01*
X82877500Y-100510000D01*
G75*
G02*
X82730000Y-100362500I0J147500D01*
G01*
X82730000Y-100067500D01*
G75*
G02*
X82877500Y-99920000I147500J0D01*
G01*
G37*
%TD.AperFunction*%
%TD*%
%TO.P,C4,2*%
%TO.N,GND*%
%TA.AperFunction,SMDPad,CuDef*%
G36*
G01*
X97986000Y-98500250D02*
X97986000Y-97587750D01*
G75*
G02*
X98229750Y-97344000I243750J0D01*
G01*
X98717250Y-97344000D01*
G75*
G02*
X98961000Y-97587750I0J-243750D01*
G01*
X98961000Y-98500250D01*
G75*
G02*
X98717250Y-98744000I-243750J0D01*
G01*
X98229750Y-98744000D01*
G75*
G02*
X97986000Y-98500250I0J243750D01*
G01*
G37*
%TD.AperFunction*%
%TO.P,C4,1*%
%TO.N,Net-(C4-Pad1)*%
%TA.AperFunction,SMDPad,CuDef*%
G36*
G01*
X96111000Y-98500250D02*
X96111000Y-97587750D01*
G75*
G02*
X96354750Y-97344000I243750J0D01*
G01*
X96842250Y-97344000D01*
G75*
G02*
X97086000Y-97587750I0J-243750D01*
G01*
X97086000Y-98500250D01*
G75*
G02*
X96842250Y-98744000I-243750J0D01*
G01*
X96354750Y-98744000D01*
G75*
G02*
X96111000Y-98500250I0J243750D01*
G01*
G37*
%TD.AperFunction*%
%TD*%
%TO.P,C5,2*%
%TO.N,GND*%
%TA.AperFunction,SMDPad,CuDef*%
G36*
G01*
X86194000Y-99168250D02*
X86194000Y-98655750D01*
G75*
G02*
X86412750Y-98437000I218750J0D01*
G01*
X86850250Y-98437000D01*
G75*
G02*
X87069000Y-98655750I0J-218750D01*
G01*
X87069000Y-99168250D01*
G75*
G02*
X86850250Y-99387000I-218750J0D01*
G01*
X86412750Y-99387000D01*
G75*
G02*
X86194000Y-99168250I0J218750D01*
G01*
G37*
%TD.AperFunction*%
%TO.P,C5,1*%
%TO.N,+3.3VA*%
%TA.AperFunction,SMDPad,CuDef*%
G36*
G01*
X84619000Y-99168250D02*
X84619000Y-98655750D01*
G75*
G02*
X84837750Y-98437000I218750J0D01*
G01*
X85275250Y-98437000D01*
G75*
G02*
X85494000Y-98655750I0J-218750D01*
G01*
X85494000Y-99168250D01*
G75*
G02*
X85275250Y-99387000I-218750J0D01*
G01*
X84837750Y-99387000D01*
G75*
G02*
X84619000Y-99168250I0J218750D01*
G01*
G37*
%TD.AperFunction*%
%TD*%
%TO.P,C6,2*%
%TO.N,GND*%
%TA.AperFunction,SMDPad,CuDef*%
G36*
G01*
X86194000Y-100692250D02*
X86194000Y-100179750D01*
G75*
G02*
X86412750Y-99961000I218750J0D01*
G01*
X86850250Y-99961000D01*
G75*
G02*
X87069000Y-100179750I0J-218750D01*
G01*
X87069000Y-100692250D01*
G75*
G02*
X86850250Y-100911000I-218750J0D01*
G01*
X86412750Y-100911000D01*
G75*
G02*
X86194000Y-100692250I0J218750D01*
G01*
G37*
%TD.AperFunction*%
%TO.P,C6,1*%
%TO.N,+3.3VA*%
%TA.AperFunction,SMDPad,CuDef*%
G36*
G01*
X84619000Y-100692250D02*
X84619000Y-100179750D01*
G75*
G02*
X84837750Y-99961000I218750J0D01*
G01*
X85275250Y-99961000D01*
G75*
G02*
X85494000Y-100179750I0J-218750D01*
G01*
X85494000Y-100692250D01*
G75*
G02*
X85275250Y-100911000I-218750J0D01*
G01*
X84837750Y-100911000D01*
G75*
G02*
X84619000Y-100692250I0J218750D01*
G01*
G37*
%TD.AperFunction*%
%TD*%
%TO.P,C7,2*%
%TO.N,GND*%
%TA.AperFunction,SMDPad,CuDef*%
G36*
G01*
X93922000Y-99516250D02*
X93922000Y-98603750D01*
G75*
G02*
X94165750Y-98360000I243750J0D01*
G01*
X94653250Y-98360000D01*
G75*
G02*
X94897000Y-98603750I0J-243750D01*
G01*
X94897000Y-99516250D01*
G75*
G02*
X94653250Y-99760000I-243750J0D01*
G01*
X94165750Y-99760000D01*
G75*
G02*
X93922000Y-99516250I0J243750D01*
G01*
G37*
%TD.AperFunction*%
%TO.P,C7,1*%
%TO.N,+3V3*%
%TA.AperFunction,SMDPad,CuDef*%
G36*
G01*
X92047000Y-99516250D02*
X92047000Y-98603750D01*
G75*
G02*
X92290750Y-98360000I243750J0D01*
G01*
X92778250Y-98360000D01*
G75*
G02*
X93022000Y-98603750I0J-243750D01*
G01*
X93022000Y-99516250D01*
G75*
G02*
X92778250Y-99760000I-243750J0D01*
G01*
X92290750Y-99760000D01*
G75*
G02*
X92047000Y-99516250I0J243750D01*
G01*
G37*
%TD.AperFunction*%
%TD*%
%TO.P,C8,2*%
%TO.N,GND*%
%TA.AperFunction,SMDPad,CuDef*%
G36*
G01*
X79535000Y-94675500D02*
X79535000Y-95020500D01*
G75*
G02*
X79387500Y-95168000I-147500J0D01*
G01*
X79092500Y-95168000D01*
G75*
G02*
X78945000Y-95020500I0J147500D01*
G01*
X78945000Y-94675500D01*
G75*
G02*
X79092500Y-94528000I147500J0D01*
G01*
X79387500Y-94528000D01*
G75*
G02*
X79535000Y-94675500I0J-147500D01*
G01*
G37*
%TD.AperFunction*%
%TO.P,C8,1*%
%TO.N,+3V3*%
%TA.AperFunction,SMDPad,CuDef*%
G36*
G01*
X80505000Y-94675500D02*
X80505000Y-95020500D01*
G75*
G02*
X80357500Y-95168000I-147500J0D01*
G01*
X80062500Y-95168000D01*
G75*
G02*
X79915000Y-95020500I0J147500D01*
G01*
X79915000Y-94675500D01*
G75*
G02*
X80062500Y-94528000I147500J0D01*
G01*
X80357500Y-94528000D01*
G75*
G02*
X80505000Y-94675500I0J-147500D01*
G01*
G37*
%TD.AperFunction*%
%TD*%
%TO.P,C9,2*%
%TO.N,GND*%
%TA.AperFunction,SMDPad,CuDef*%
G36*
G01*
X88190000Y-74672500D02*
X88190000Y-74327500D01*
G75*
G02*
X88337500Y-74180000I147500J0D01*
G01*
X88632500Y-74180000D01*
G75*
G02*
X88780000Y-74327500I0J-147500D01*
G01*
X88780000Y-74672500D01*
G75*
G02*
X88632500Y-74820000I-147500J0D01*
G01*
X88337500Y-74820000D01*
G75*
G02*
X88190000Y-74672500I0J147500D01*
G01*
G37*
%TD.AperFunction*%
%TO.P,C9,1*%
%TO.N,+3V3*%
%TA.AperFunction,SMDPad,CuDef*%
G36*
G01*
X87220000Y-74672500D02*
X87220000Y-74327500D01*
G75*
G02*
X87367500Y-74180000I147500J0D01*
G01*
X87662500Y-74180000D01*
G75*
G02*
X87810000Y-74327500I0J-147500D01*
G01*
X87810000Y-74672500D01*
G75*
G02*
X87662500Y-74820000I-147500J0D01*
G01*
X87367500Y-74820000D01*
G75*
G02*
X87220000Y-74672500I0J147500D01*
G01*
G37*
%TD.AperFunction*%
%TD*%
%TO.P,C10,2*%
%TO.N,GND*%
%TA.AperFunction,SMDPad,CuDef*%
G36*
G01*
X88190000Y-73572500D02*
X88190000Y-73227500D01*
G75*
G02*
X88337500Y-73080000I147500J0D01*
G01*
X88632500Y-73080000D01*
G75*
G02*
X88780000Y-73227500I0J-147500D01*
G01*
X88780000Y-73572500D01*
G75*
G02*
X88632500Y-73720000I-147500J0D01*
G01*
X88337500Y-73720000D01*
G75*
G02*
X88190000Y-73572500I0J147500D01*
G01*
G37*
%TD.AperFunction*%
%TO.P,C10,1*%
%TO.N,+3V3*%
%TA.AperFunction,SMDPad,CuDef*%
G36*
G01*
X87220000Y-73572500D02*
X87220000Y-73227500D01*
G75*
G02*
X87367500Y-73080000I147500J0D01*
G01*
X87662500Y-73080000D01*
G75*
G02*
X87810000Y-73227500I0J-147500D01*
G01*
X87810000Y-73572500D01*
G75*
G02*
X87662500Y-73720000I-147500J0D01*
G01*
X87367500Y-73720000D01*
G75*
G02*
X87220000Y-73572500I0J147500D01*
G01*
G37*
%TD.AperFunction*%
%TD*%
%TO.P,C11,2*%
%TO.N,GND*%
%TA.AperFunction,SMDPad,CuDef*%
G36*
G01*
X88955000Y-86003500D02*
X88955000Y-85658500D01*
G75*
G02*
X89102500Y-85511000I147500J0D01*
G01*
X89397500Y-85511000D01*
G75*
G02*
X89545000Y-85658500I0J-147500D01*
G01*
X89545000Y-86003500D01*
G75*
G02*
X89397500Y-86151000I-147500J0D01*
G01*
X89102500Y-86151000D01*
G75*
G02*
X88955000Y-86003500I0J147500D01*
G01*
G37*
%TD.AperFunction*%
%TO.P,C11,1*%
%TO.N,+3V3*%
%TA.AperFunction,SMDPad,CuDef*%
G36*
G01*
X87985000Y-86003500D02*
X87985000Y-85658500D01*
G75*
G02*
X88132500Y-85511000I147500J0D01*
G01*
X88427500Y-85511000D01*
G75*
G02*
X88575000Y-85658500I0J-147500D01*
G01*
X88575000Y-86003500D01*
G75*
G02*
X88427500Y-86151000I-147500J0D01*
G01*
X88132500Y-86151000D01*
G75*
G02*
X87985000Y-86003500I0J147500D01*
G01*
G37*
%TD.AperFunction*%
%TD*%
%TO.P,C12,2*%
%TO.N,GND*%
%TA.AperFunction,SMDPad,CuDef*%
G36*
G01*
X88955000Y-84860500D02*
X88955000Y-84515500D01*
G75*
G02*
X89102500Y-84368000I147500J0D01*
G01*
X89397500Y-84368000D01*
G75*
G02*
X89545000Y-84515500I0J-147500D01*
G01*
X89545000Y-84860500D01*
G75*
G02*
X89397500Y-85008000I-147500J0D01*
G01*
X89102500Y-85008000D01*
G75*
G02*
X88955000Y-84860500I0J147500D01*
G01*
G37*
%TD.AperFunction*%
%TO.P,C12,1*%
%TO.N,+3V3*%
%TA.AperFunction,SMDPad,CuDef*%
G36*
G01*
X87985000Y-84860500D02*
X87985000Y-84515500D01*
G75*
G02*
X88132500Y-84368000I147500J0D01*
G01*
X88427500Y-84368000D01*
G75*
G02*
X88575000Y-84515500I0J-147500D01*
G01*
X88575000Y-84860500D01*
G75*
G02*
X88427500Y-85008000I-147500J0D01*
G01*
X88132500Y-85008000D01*
G75*
G02*
X87985000Y-84860500I0J147500D01*
G01*
G37*
%TD.AperFunction*%
%TD*%
%TO.P,D1,2*%
%TO.N,Net-(D1-Pad2)*%
%TA.AperFunction,SMDPad,CuDef*%
G36*
G01*
X77259750Y-85724500D02*
X78172250Y-85724500D01*
G75*
G02*
X78416000Y-85968250I0J-243750D01*
G01*
X78416000Y-86455750D01*
G75*
G02*
X78172250Y-86699500I-243750J0D01*
G01*
X77259750Y-86699500D01*
G75*
G02*
X77016000Y-86455750I0J243750D01*
G01*
X77016000Y-85968250D01*
G75*
G02*
X77259750Y-85724500I243750J0D01*
G01*
G37*
%TD.AperFunction*%
%TO.P,D1,1*%
%TO.N,Net-(D1-Pad1)*%
%TA.AperFunction,SMDPad,CuDef*%
G36*
G01*
X77259750Y-83849500D02*
X78172250Y-83849500D01*
G75*
G02*
X78416000Y-84093250I0J-243750D01*
G01*
X78416000Y-84580750D01*
G75*
G02*
X78172250Y-84824500I-243750J0D01*
G01*
X77259750Y-84824500D01*
G75*
G02*
X77016000Y-84580750I0J243750D01*
G01*
X77016000Y-84093250D01*
G75*
G02*
X77259750Y-83849500I243750J0D01*
G01*
G37*
%TD.AperFunction*%
%TD*%
D11*
%TO.P,H1,1*%
%TO.N,GND*%
X74295000Y-74295000D03*
%TD*%
%TO.P,H2,1*%
%TO.N,GND*%
X74295000Y-100965000D03*
%TD*%
%TO.P,H3,1*%
%TO.N,GND*%
X113792000Y-74295000D03*
%TD*%
%TO.P,H4,1*%
%TO.N,GND*%
X113792000Y-100965000D03*
%TD*%
%TO.P,J2,MP*%
%TO.N,N/C*%
%TA.AperFunction,SMDPad,CuDef*%
G36*
G01*
X106740000Y-102140000D02*
X106740000Y-99240000D01*
G75*
G02*
X106990000Y-98990000I250000J0D01*
G01*
X107990000Y-98990000D01*
G75*
G02*
X108240000Y-99240000I0J-250000D01*
G01*
X108240000Y-102140000D01*
G75*
G02*
X107990000Y-102390000I-250000J0D01*
G01*
X106990000Y-102390000D01*
G75*
G02*
X106740000Y-102140000I0J250000D01*
G01*
G37*
%TD.AperFunction*%
%TA.AperFunction,SMDPad,CuDef*%
G36*
G01*
X100040000Y-102140000D02*
X100040000Y-99240000D01*
G75*
G02*
X100290000Y-98990000I250000J0D01*
G01*
X101290000Y-98990000D01*
G75*
G02*
X101540000Y-99240000I0J-250000D01*
G01*
X101540000Y-102140000D01*
G75*
G02*
X101290000Y-102390000I-250000J0D01*
G01*
X100290000Y-102390000D01*
G75*
G02*
X100040000Y-102140000I0J250000D01*
G01*
G37*
%TD.AperFunction*%
%TO.P,J2,2*%
%TO.N,GND*%
%TA.AperFunction,SMDPad,CuDef*%
G36*
G01*
X104640000Y-96440000D02*
X104640000Y-93440000D01*
G75*
G02*
X104890000Y-93190000I250000J0D01*
G01*
X105390000Y-93190000D01*
G75*
G02*
X105640000Y-93440000I0J-250000D01*
G01*
X105640000Y-96440000D01*
G75*
G02*
X105390000Y-96690000I-250000J0D01*
G01*
X104890000Y-96690000D01*
G75*
G02*
X104640000Y-96440000I0J250000D01*
G01*
G37*
%TD.AperFunction*%
%TO.P,J2,1*%
%TO.N,VIN*%
%TA.AperFunction,SMDPad,CuDef*%
G36*
G01*
X102640000Y-96440000D02*
X102640000Y-93440000D01*
G75*
G02*
X102890000Y-93190000I250000J0D01*
G01*
X103390000Y-93190000D01*
G75*
G02*
X103640000Y-93440000I0J-250000D01*
G01*
X103640000Y-96440000D01*
G75*
G02*
X103390000Y-96690000I-250000J0D01*
G01*
X102890000Y-96690000D01*
G75*
G02*
X102640000Y-96440000I0J250000D01*
G01*
G37*
%TD.AperFunction*%
%TD*%
D12*
%TO.P,J4,10*%
%TO.N,Net-(J4-Pad10)*%
X78160000Y-78250000D03*
%TO.P,J4,9*%
%TO.N,GND*%
X78160000Y-74350000D03*
%TO.P,J4,8*%
%TO.N,Net-(J4-Pad8)*%
X79430000Y-78250000D03*
%TO.P,J4,7*%
%TO.N,Net-(J4-Pad7)*%
X79430000Y-74350000D03*
%TO.P,J4,6*%
%TO.N,Net-(J4-Pad6)*%
X80700000Y-78250000D03*
%TO.P,J4,5*%
%TO.N,GND*%
X80700000Y-74350000D03*
%TO.P,J4,4*%
%TO.N,Net-(J4-Pad4)*%
X81970000Y-78250000D03*
%TO.P,J4,3*%
%TO.N,GND*%
X81970000Y-74350000D03*
%TO.P,J4,2*%
%TO.N,Net-(J4-Pad2)*%
X83240000Y-78250000D03*
%TO.P,J4,1*%
%TO.N,+3V3*%
X83240000Y-74350000D03*
%TD*%
D13*
%TO.P,J7,8*%
%TO.N,GND*%
X74295000Y-96520000D03*
%TO.P,J7,7*%
%TO.N,SYS_WAKEUP*%
X74295000Y-93980000D03*
%TO.P,J7,6*%
%TO.N,USART2_CTS*%
X74295000Y-91440000D03*
%TO.P,J7,5*%
%TO.N,USART2_RTS*%
X74295000Y-88900000D03*
%TO.P,J7,4*%
%TO.N,ADC_9*%
X74295000Y-86360000D03*
%TO.P,J7,3*%
%TO.N,ADC_8*%
X74295000Y-83820000D03*
%TO.P,J7,2*%
%TO.N,ADC_1*%
X74295000Y-81280000D03*
D14*
%TO.P,J7,1*%
%TO.N,+3V3*%
X74295000Y-78740000D03*
%TD*%
%TO.P,L1,2*%
%TO.N,+3.3VA*%
%TA.AperFunction,SMDPad,CuDef*%
G36*
G01*
X85169000Y-97215500D02*
X85169000Y-97560500D01*
G75*
G02*
X85021500Y-97708000I-147500J0D01*
G01*
X84726500Y-97708000D01*
G75*
G02*
X84579000Y-97560500I0J147500D01*
G01*
X84579000Y-97215500D01*
G75*
G02*
X84726500Y-97068000I147500J0D01*
G01*
X85021500Y-97068000D01*
G75*
G02*
X85169000Y-97215500I0J-147500D01*
G01*
G37*
%TD.AperFunction*%
%TO.P,L1,1*%
%TO.N,+3V3*%
%TA.AperFunction,SMDPad,CuDef*%
G36*
G01*
X86139000Y-97215500D02*
X86139000Y-97560500D01*
G75*
G02*
X85991500Y-97708000I-147500J0D01*
G01*
X85696500Y-97708000D01*
G75*
G02*
X85549000Y-97560500I0J147500D01*
G01*
X85549000Y-97215500D01*
G75*
G02*
X85696500Y-97068000I147500J0D01*
G01*
X85991500Y-97068000D01*
G75*
G02*
X86139000Y-97215500I0J-147500D01*
G01*
G37*
%TD.AperFunction*%
%TD*%
D15*
%TO.P,Q1,3*%
%TO.N,VIN*%
X98536000Y-94996000D03*
%TO.P,Q1,2*%
%TO.N,Net-(C4-Pad1)*%
X96536000Y-95946000D03*
%TO.P,Q1,1*%
%TO.N,GND*%
X96536000Y-94046000D03*
%TD*%
%TO.P,R1,2*%
%TO.N,+3V3*%
%TA.AperFunction,SMDPad,CuDef*%
G36*
G01*
X92243000Y-84663500D02*
X92243000Y-85008500D01*
G75*
G02*
X92095500Y-85156000I-147500J0D01*
G01*
X91800500Y-85156000D01*
G75*
G02*
X91653000Y-85008500I0J147500D01*
G01*
X91653000Y-84663500D01*
G75*
G02*
X91800500Y-84516000I147500J0D01*
G01*
X92095500Y-84516000D01*
G75*
G02*
X92243000Y-84663500I0J-147500D01*
G01*
G37*
%TD.AperFunction*%
%TO.P,R1,1*%
%TO.N,CS*%
%TA.AperFunction,SMDPad,CuDef*%
G36*
G01*
X93213000Y-84663500D02*
X93213000Y-85008500D01*
G75*
G02*
X93065500Y-85156000I-147500J0D01*
G01*
X92770500Y-85156000D01*
G75*
G02*
X92623000Y-85008500I0J147500D01*
G01*
X92623000Y-84663500D01*
G75*
G02*
X92770500Y-84516000I147500J0D01*
G01*
X93065500Y-84516000D01*
G75*
G02*
X93213000Y-84663500I0J-147500D01*
G01*
G37*
%TD.AperFunction*%
%TD*%
%TO.P,R2,2*%
%TO.N,+3V3*%
%TA.AperFunction,SMDPad,CuDef*%
G36*
G01*
X92266000Y-86695500D02*
X92266000Y-87040500D01*
G75*
G02*
X92118500Y-87188000I-147500J0D01*
G01*
X91823500Y-87188000D01*
G75*
G02*
X91676000Y-87040500I0J147500D01*
G01*
X91676000Y-86695500D01*
G75*
G02*
X91823500Y-86548000I147500J0D01*
G01*
X92118500Y-86548000D01*
G75*
G02*
X92266000Y-86695500I0J-147500D01*
G01*
G37*
%TD.AperFunction*%
%TO.P,R2,1*%
%TO.N,RST*%
%TA.AperFunction,SMDPad,CuDef*%
G36*
G01*
X93236000Y-86695500D02*
X93236000Y-87040500D01*
G75*
G02*
X93088500Y-87188000I-147500J0D01*
G01*
X92793500Y-87188000D01*
G75*
G02*
X92646000Y-87040500I0J147500D01*
G01*
X92646000Y-86695500D01*
G75*
G02*
X92793500Y-86548000I147500J0D01*
G01*
X93088500Y-86548000D01*
G75*
G02*
X93236000Y-86695500I0J-147500D01*
G01*
G37*
%TD.AperFunction*%
%TD*%
%TO.P,R3,2*%
%TO.N,+3V3*%
%TA.AperFunction,SMDPad,CuDef*%
G36*
G01*
X89772500Y-73695000D02*
X89427500Y-73695000D01*
G75*
G02*
X89280000Y-73547500I0J147500D01*
G01*
X89280000Y-73252500D01*
G75*
G02*
X89427500Y-73105000I147500J0D01*
G01*
X89772500Y-73105000D01*
G75*
G02*
X89920000Y-73252500I0J-147500D01*
G01*
X89920000Y-73547500D01*
G75*
G02*
X89772500Y-73695000I-147500J0D01*
G01*
G37*
%TD.AperFunction*%
%TO.P,R3,1*%
%TO.N,I2C_SCL*%
%TA.AperFunction,SMDPad,CuDef*%
G36*
G01*
X89772500Y-74665000D02*
X89427500Y-74665000D01*
G75*
G02*
X89280000Y-74517500I0J147500D01*
G01*
X89280000Y-74222500D01*
G75*
G02*
X89427500Y-74075000I147500J0D01*
G01*
X89772500Y-74075000D01*
G75*
G02*
X89920000Y-74222500I0J-147500D01*
G01*
X89920000Y-74517500D01*
G75*
G02*
X89772500Y-74665000I-147500J0D01*
G01*
G37*
%TD.AperFunction*%
%TD*%
%TO.P,R4,2*%
%TO.N,Net-(D1-Pad1)*%
%TA.AperFunction,SMDPad,CuDef*%
G36*
G01*
X79843750Y-83650000D02*
X80356250Y-83650000D01*
G75*
G02*
X80575000Y-83868750I0J-218750D01*
G01*
X80575000Y-84306250D01*
G75*
G02*
X80356250Y-84525000I-218750J0D01*
G01*
X79843750Y-84525000D01*
G75*
G02*
X79625000Y-84306250I0J218750D01*
G01*
X79625000Y-83868750D01*
G75*
G02*
X79843750Y-83650000I218750J0D01*
G01*
G37*
%TD.AperFunction*%
%TO.P,R4,1*%
%TO.N,GND*%
%TA.AperFunction,SMDPad,CuDef*%
G36*
G01*
X79843750Y-82075000D02*
X80356250Y-82075000D01*
G75*
G02*
X80575000Y-82293750I0J-218750D01*
G01*
X80575000Y-82731250D01*
G75*
G02*
X80356250Y-82950000I-218750J0D01*
G01*
X79843750Y-82950000D01*
G75*
G02*
X79625000Y-82731250I0J218750D01*
G01*
X79625000Y-82293750D01*
G75*
G02*
X79843750Y-82075000I218750J0D01*
G01*
G37*
%TD.AperFunction*%
%TD*%
%TO.P,R5,2*%
%TO.N,+3V3*%
%TA.AperFunction,SMDPad,CuDef*%
G36*
G01*
X86572500Y-73710000D02*
X86227500Y-73710000D01*
G75*
G02*
X86080000Y-73562500I0J147500D01*
G01*
X86080000Y-73267500D01*
G75*
G02*
X86227500Y-73120000I147500J0D01*
G01*
X86572500Y-73120000D01*
G75*
G02*
X86720000Y-73267500I0J-147500D01*
G01*
X86720000Y-73562500D01*
G75*
G02*
X86572500Y-73710000I-147500J0D01*
G01*
G37*
%TD.AperFunction*%
%TO.P,R5,1*%
%TO.N,I2C_SDA*%
%TA.AperFunction,SMDPad,CuDef*%
G36*
G01*
X86572500Y-74680000D02*
X86227500Y-74680000D01*
G75*
G02*
X86080000Y-74532500I0J147500D01*
G01*
X86080000Y-74237500D01*
G75*
G02*
X86227500Y-74090000I147500J0D01*
G01*
X86572500Y-74090000D01*
G75*
G02*
X86720000Y-74237500I0J-147500D01*
G01*
X86720000Y-74532500D01*
G75*
G02*
X86572500Y-74680000I-147500J0D01*
G01*
G37*
%TD.AperFunction*%
%TD*%
%TO.P,R6,2*%
%TO.N,Net-(J4-Pad2)*%
%TA.AperFunction,SMDPad,CuDef*%
G36*
G01*
X83372500Y-81595000D02*
X83027500Y-81595000D01*
G75*
G02*
X82880000Y-81447500I0J147500D01*
G01*
X82880000Y-81152500D01*
G75*
G02*
X83027500Y-81005000I147500J0D01*
G01*
X83372500Y-81005000D01*
G75*
G02*
X83520000Y-81152500I0J-147500D01*
G01*
X83520000Y-81447500D01*
G75*
G02*
X83372500Y-81595000I-147500J0D01*
G01*
G37*
%TD.AperFunction*%
%TO.P,R6,1*%
%TO.N,SWDIO*%
%TA.AperFunction,SMDPad,CuDef*%
G36*
G01*
X83372500Y-82565000D02*
X83027500Y-82565000D01*
G75*
G02*
X82880000Y-82417500I0J147500D01*
G01*
X82880000Y-82122500D01*
G75*
G02*
X83027500Y-81975000I147500J0D01*
G01*
X83372500Y-81975000D01*
G75*
G02*
X83520000Y-82122500I0J-147500D01*
G01*
X83520000Y-82417500D01*
G75*
G02*
X83372500Y-82565000I-147500J0D01*
G01*
G37*
%TD.AperFunction*%
%TD*%
%TO.P,R7,2*%
%TO.N,Net-(J4-Pad4)*%
%TA.AperFunction,SMDPad,CuDef*%
G36*
G01*
X82372500Y-81610000D02*
X82027500Y-81610000D01*
G75*
G02*
X81880000Y-81462500I0J147500D01*
G01*
X81880000Y-81167500D01*
G75*
G02*
X82027500Y-81020000I147500J0D01*
G01*
X82372500Y-81020000D01*
G75*
G02*
X82520000Y-81167500I0J-147500D01*
G01*
X82520000Y-81462500D01*
G75*
G02*
X82372500Y-81610000I-147500J0D01*
G01*
G37*
%TD.AperFunction*%
%TO.P,R7,1*%
%TO.N,SWCLK*%
%TA.AperFunction,SMDPad,CuDef*%
G36*
G01*
X82372500Y-82580000D02*
X82027500Y-82580000D01*
G75*
G02*
X81880000Y-82432500I0J147500D01*
G01*
X81880000Y-82137500D01*
G75*
G02*
X82027500Y-81990000I147500J0D01*
G01*
X82372500Y-81990000D01*
G75*
G02*
X82520000Y-82137500I0J-147500D01*
G01*
X82520000Y-82432500D01*
G75*
G02*
X82372500Y-82580000I-147500J0D01*
G01*
G37*
%TD.AperFunction*%
%TD*%
%TO.P,R8,2*%
%TO.N,Net-(J4-Pad10)*%
%TA.AperFunction,SMDPad,CuDef*%
G36*
G01*
X78272500Y-81610000D02*
X77927500Y-81610000D01*
G75*
G02*
X77780000Y-81462500I0J147500D01*
G01*
X77780000Y-81167500D01*
G75*
G02*
X77927500Y-81020000I147500J0D01*
G01*
X78272500Y-81020000D01*
G75*
G02*
X78420000Y-81167500I0J-147500D01*
G01*
X78420000Y-81462500D01*
G75*
G02*
X78272500Y-81610000I-147500J0D01*
G01*
G37*
%TD.AperFunction*%
%TO.P,R8,1*%
%TO.N,NRST*%
%TA.AperFunction,SMDPad,CuDef*%
G36*
G01*
X78272500Y-82580000D02*
X77927500Y-82580000D01*
G75*
G02*
X77780000Y-82432500I0J147500D01*
G01*
X77780000Y-82137500D01*
G75*
G02*
X77927500Y-81990000I147500J0D01*
G01*
X78272500Y-81990000D01*
G75*
G02*
X78420000Y-82137500I0J-147500D01*
G01*
X78420000Y-82432500D01*
G75*
G02*
X78272500Y-82580000I-147500J0D01*
G01*
G37*
%TD.AperFunction*%
%TD*%
%TO.P,R9,2*%
%TO.N,BOOT0*%
%TA.AperFunction,SMDPad,CuDef*%
G36*
G01*
X78396500Y-92626000D02*
X78051500Y-92626000D01*
G75*
G02*
X77904000Y-92478500I0J147500D01*
G01*
X77904000Y-92183500D01*
G75*
G02*
X78051500Y-92036000I147500J0D01*
G01*
X78396500Y-92036000D01*
G75*
G02*
X78544000Y-92183500I0J-147500D01*
G01*
X78544000Y-92478500D01*
G75*
G02*
X78396500Y-92626000I-147500J0D01*
G01*
G37*
%TD.AperFunction*%
%TO.P,R9,1*%
%TO.N,Net-(R9-Pad1)*%
%TA.AperFunction,SMDPad,CuDef*%
G36*
G01*
X78396500Y-93596000D02*
X78051500Y-93596000D01*
G75*
G02*
X77904000Y-93448500I0J147500D01*
G01*
X77904000Y-93153500D01*
G75*
G02*
X78051500Y-93006000I147500J0D01*
G01*
X78396500Y-93006000D01*
G75*
G02*
X78544000Y-93153500I0J-147500D01*
G01*
X78544000Y-93448500D01*
G75*
G02*
X78396500Y-93596000I-147500J0D01*
G01*
G37*
%TD.AperFunction*%
%TD*%
D16*
%TO.P,U1,16*%
%TO.N,Net-(U1-Pad16)*%
X109435000Y-76820000D03*
%TO.P,U1,15*%
%TO.N,Net-(U1-Pad15)*%
X109435000Y-78820000D03*
%TO.P,U1,14*%
%TO.N,Net-(U1-Pad14)*%
X109435000Y-80820000D03*
%TO.P,U1,13*%
%TO.N,+3V3*%
X109435000Y-82820000D03*
%TO.P,U1,12*%
%TO.N,Net-(U1-Pad12)*%
X109435000Y-84820000D03*
%TO.P,U1,11*%
%TO.N,Net-(U1-Pad11)*%
X109435000Y-86820000D03*
%TO.P,U1,10*%
%TO.N,GND*%
X109435000Y-88820000D03*
%TO.P,U1,9*%
%TO.N,Net-(J1-Pad1)*%
X109435000Y-90820000D03*
%TO.P,U1,8*%
%TO.N,GND*%
X95035000Y-90820000D03*
%TO.P,U1,7*%
%TO.N,Net-(CFG1-Pad2)*%
X95035000Y-88820000D03*
%TO.P,U1,6*%
%TO.N,RST*%
X95035000Y-86820000D03*
%TO.P,U1,5*%
%TO.N,CS*%
X95035000Y-84820000D03*
%TO.P,U1,4*%
%TO.N,SCK*%
X95035000Y-82820000D03*
%TO.P,U1,3*%
%TO.N,MOSI*%
X95035000Y-80820000D03*
%TO.P,U1,2*%
%TO.N,MISO*%
X95035000Y-78820000D03*
%TO.P,U1,1*%
%TO.N,GND*%
X95035000Y-76820000D03*
%TD*%
D17*
%TO.P,U2,1*%
%TO.N,GND*%
X92422000Y-95062000D03*
%TO.P,U2,2*%
%TO.N,+3V3*%
X92422000Y-96962000D03*
%TO.P,U2,3*%
%TO.N,Net-(C4-Pad1)*%
X94522000Y-96012000D03*
%TD*%
%TO.P,U3,32*%
%TO.N,GND*%
%TA.AperFunction,SMDPad,CuDef*%
G36*
G01*
X80770000Y-93326000D02*
X79520000Y-93326000D01*
G75*
G02*
X79395000Y-93201000I0J125000D01*
G01*
X79395000Y-92951000D01*
G75*
G02*
X79520000Y-92826000I125000J0D01*
G01*
X80770000Y-92826000D01*
G75*
G02*
X80895000Y-92951000I0J-125000D01*
G01*
X80895000Y-93201000D01*
G75*
G02*
X80770000Y-93326000I-125000J0D01*
G01*
G37*
%TD.AperFunction*%
%TO.P,U3,31*%
%TO.N,BOOT0*%
%TA.AperFunction,SMDPad,CuDef*%
G36*
G01*
X80770000Y-92526000D02*
X79520000Y-92526000D01*
G75*
G02*
X79395000Y-92401000I0J125000D01*
G01*
X79395000Y-92151000D01*
G75*
G02*
X79520000Y-92026000I125000J0D01*
G01*
X80770000Y-92026000D01*
G75*
G02*
X80895000Y-92151000I0J-125000D01*
G01*
X80895000Y-92401000D01*
G75*
G02*
X80770000Y-92526000I-125000J0D01*
G01*
G37*
%TD.AperFunction*%
%TO.P,U3,30*%
%TO.N,USART2_RX*%
%TA.AperFunction,SMDPad,CuDef*%
G36*
G01*
X80770000Y-91726000D02*
X79520000Y-91726000D01*
G75*
G02*
X79395000Y-91601000I0J125000D01*
G01*
X79395000Y-91351000D01*
G75*
G02*
X79520000Y-91226000I125000J0D01*
G01*
X80770000Y-91226000D01*
G75*
G02*
X80895000Y-91351000I0J-125000D01*
G01*
X80895000Y-91601000D01*
G75*
G02*
X80770000Y-91726000I-125000J0D01*
G01*
G37*
%TD.AperFunction*%
%TO.P,U3,29*%
%TO.N,USART2_TX*%
%TA.AperFunction,SMDPad,CuDef*%
G36*
G01*
X80770000Y-90926000D02*
X79520000Y-90926000D01*
G75*
G02*
X79395000Y-90801000I0J125000D01*
G01*
X79395000Y-90551000D01*
G75*
G02*
X79520000Y-90426000I125000J0D01*
G01*
X80770000Y-90426000D01*
G75*
G02*
X80895000Y-90551000I0J-125000D01*
G01*
X80895000Y-90801000D01*
G75*
G02*
X80770000Y-90926000I-125000J0D01*
G01*
G37*
%TD.AperFunction*%
%TO.P,U3,28*%
%TO.N,RST*%
%TA.AperFunction,SMDPad,CuDef*%
G36*
G01*
X80770000Y-90126000D02*
X79520000Y-90126000D01*
G75*
G02*
X79395000Y-90001000I0J125000D01*
G01*
X79395000Y-89751000D01*
G75*
G02*
X79520000Y-89626000I125000J0D01*
G01*
X80770000Y-89626000D01*
G75*
G02*
X80895000Y-89751000I0J-125000D01*
G01*
X80895000Y-90001000D01*
G75*
G02*
X80770000Y-90126000I-125000J0D01*
G01*
G37*
%TD.AperFunction*%
%TO.P,U3,27*%
%TO.N,Net-(U3-Pad27)*%
%TA.AperFunction,SMDPad,CuDef*%
G36*
G01*
X80770000Y-89326000D02*
X79520000Y-89326000D01*
G75*
G02*
X79395000Y-89201000I0J125000D01*
G01*
X79395000Y-88951000D01*
G75*
G02*
X79520000Y-88826000I125000J0D01*
G01*
X80770000Y-88826000D01*
G75*
G02*
X80895000Y-88951000I0J-125000D01*
G01*
X80895000Y-89201000D01*
G75*
G02*
X80770000Y-89326000I-125000J0D01*
G01*
G37*
%TD.AperFunction*%
%TO.P,U3,26*%
%TO.N,Net-(U3-Pad26)*%
%TA.AperFunction,SMDPad,CuDef*%
G36*
G01*
X80770000Y-88526000D02*
X79520000Y-88526000D01*
G75*
G02*
X79395000Y-88401000I0J125000D01*
G01*
X79395000Y-88151000D01*
G75*
G02*
X79520000Y-88026000I125000J0D01*
G01*
X80770000Y-88026000D01*
G75*
G02*
X80895000Y-88151000I0J-125000D01*
G01*
X80895000Y-88401000D01*
G75*
G02*
X80770000Y-88526000I-125000J0D01*
G01*
G37*
%TD.AperFunction*%
%TO.P,U3,25*%
%TO.N,Net-(D1-Pad2)*%
%TA.AperFunction,SMDPad,CuDef*%
G36*
G01*
X80770000Y-87726000D02*
X79520000Y-87726000D01*
G75*
G02*
X79395000Y-87601000I0J125000D01*
G01*
X79395000Y-87351000D01*
G75*
G02*
X79520000Y-87226000I125000J0D01*
G01*
X80770000Y-87226000D01*
G75*
G02*
X80895000Y-87351000I0J-125000D01*
G01*
X80895000Y-87601000D01*
G75*
G02*
X80770000Y-87726000I-125000J0D01*
G01*
G37*
%TD.AperFunction*%
%TO.P,U3,24*%
%TO.N,SWCLK*%
%TA.AperFunction,SMDPad,CuDef*%
G36*
G01*
X81645000Y-86851000D02*
X81395000Y-86851000D01*
G75*
G02*
X81270000Y-86726000I0J125000D01*
G01*
X81270000Y-85476000D01*
G75*
G02*
X81395000Y-85351000I125000J0D01*
G01*
X81645000Y-85351000D01*
G75*
G02*
X81770000Y-85476000I0J-125000D01*
G01*
X81770000Y-86726000D01*
G75*
G02*
X81645000Y-86851000I-125000J0D01*
G01*
G37*
%TD.AperFunction*%
%TO.P,U3,23*%
%TO.N,SWDIO*%
%TA.AperFunction,SMDPad,CuDef*%
G36*
G01*
X82445000Y-86851000D02*
X82195000Y-86851000D01*
G75*
G02*
X82070000Y-86726000I0J125000D01*
G01*
X82070000Y-85476000D01*
G75*
G02*
X82195000Y-85351000I125000J0D01*
G01*
X82445000Y-85351000D01*
G75*
G02*
X82570000Y-85476000I0J-125000D01*
G01*
X82570000Y-86726000D01*
G75*
G02*
X82445000Y-86851000I-125000J0D01*
G01*
G37*
%TD.AperFunction*%
%TO.P,U3,22*%
%TO.N,USART2_RTS*%
%TA.AperFunction,SMDPad,CuDef*%
G36*
G01*
X83245000Y-86851000D02*
X82995000Y-86851000D01*
G75*
G02*
X82870000Y-86726000I0J125000D01*
G01*
X82870000Y-85476000D01*
G75*
G02*
X82995000Y-85351000I125000J0D01*
G01*
X83245000Y-85351000D01*
G75*
G02*
X83370000Y-85476000I0J-125000D01*
G01*
X83370000Y-86726000D01*
G75*
G02*
X83245000Y-86851000I-125000J0D01*
G01*
G37*
%TD.AperFunction*%
%TO.P,U3,21*%
%TO.N,USART2_CTS*%
%TA.AperFunction,SMDPad,CuDef*%
G36*
G01*
X84045000Y-86851000D02*
X83795000Y-86851000D01*
G75*
G02*
X83670000Y-86726000I0J125000D01*
G01*
X83670000Y-85476000D01*
G75*
G02*
X83795000Y-85351000I125000J0D01*
G01*
X84045000Y-85351000D01*
G75*
G02*
X84170000Y-85476000I0J-125000D01*
G01*
X84170000Y-86726000D01*
G75*
G02*
X84045000Y-86851000I-125000J0D01*
G01*
G37*
%TD.AperFunction*%
%TO.P,U3,20*%
%TO.N,I2C_SDA*%
%TA.AperFunction,SMDPad,CuDef*%
G36*
G01*
X84845000Y-86851000D02*
X84595000Y-86851000D01*
G75*
G02*
X84470000Y-86726000I0J125000D01*
G01*
X84470000Y-85476000D01*
G75*
G02*
X84595000Y-85351000I125000J0D01*
G01*
X84845000Y-85351000D01*
G75*
G02*
X84970000Y-85476000I0J-125000D01*
G01*
X84970000Y-86726000D01*
G75*
G02*
X84845000Y-86851000I-125000J0D01*
G01*
G37*
%TD.AperFunction*%
%TO.P,U3,19*%
%TO.N,I2C_SCL*%
%TA.AperFunction,SMDPad,CuDef*%
G36*
G01*
X85645000Y-86851000D02*
X85395000Y-86851000D01*
G75*
G02*
X85270000Y-86726000I0J125000D01*
G01*
X85270000Y-85476000D01*
G75*
G02*
X85395000Y-85351000I125000J0D01*
G01*
X85645000Y-85351000D01*
G75*
G02*
X85770000Y-85476000I0J-125000D01*
G01*
X85770000Y-86726000D01*
G75*
G02*
X85645000Y-86851000I-125000J0D01*
G01*
G37*
%TD.AperFunction*%
%TO.P,U3,18*%
%TO.N,Net-(U3-Pad18)*%
%TA.AperFunction,SMDPad,CuDef*%
G36*
G01*
X86445000Y-86851000D02*
X86195000Y-86851000D01*
G75*
G02*
X86070000Y-86726000I0J125000D01*
G01*
X86070000Y-85476000D01*
G75*
G02*
X86195000Y-85351000I125000J0D01*
G01*
X86445000Y-85351000D01*
G75*
G02*
X86570000Y-85476000I0J-125000D01*
G01*
X86570000Y-86726000D01*
G75*
G02*
X86445000Y-86851000I-125000J0D01*
G01*
G37*
%TD.AperFunction*%
%TO.P,U3,17*%
%TO.N,+3V3*%
%TA.AperFunction,SMDPad,CuDef*%
G36*
G01*
X87245000Y-86851000D02*
X86995000Y-86851000D01*
G75*
G02*
X86870000Y-86726000I0J125000D01*
G01*
X86870000Y-85476000D01*
G75*
G02*
X86995000Y-85351000I125000J0D01*
G01*
X87245000Y-85351000D01*
G75*
G02*
X87370000Y-85476000I0J-125000D01*
G01*
X87370000Y-86726000D01*
G75*
G02*
X87245000Y-86851000I-125000J0D01*
G01*
G37*
%TD.AperFunction*%
%TO.P,U3,16*%
%TO.N,GND*%
%TA.AperFunction,SMDPad,CuDef*%
G36*
G01*
X89120000Y-87726000D02*
X87870000Y-87726000D01*
G75*
G02*
X87745000Y-87601000I0J125000D01*
G01*
X87745000Y-87351000D01*
G75*
G02*
X87870000Y-87226000I125000J0D01*
G01*
X89120000Y-87226000D01*
G75*
G02*
X89245000Y-87351000I0J-125000D01*
G01*
X89245000Y-87601000D01*
G75*
G02*
X89120000Y-87726000I-125000J0D01*
G01*
G37*
%TD.AperFunction*%
%TO.P,U3,15*%
%TO.N,ADC_9*%
%TA.AperFunction,SMDPad,CuDef*%
G36*
G01*
X89120000Y-88526000D02*
X87870000Y-88526000D01*
G75*
G02*
X87745000Y-88401000I0J125000D01*
G01*
X87745000Y-88151000D01*
G75*
G02*
X87870000Y-88026000I125000J0D01*
G01*
X89120000Y-88026000D01*
G75*
G02*
X89245000Y-88151000I0J-125000D01*
G01*
X89245000Y-88401000D01*
G75*
G02*
X89120000Y-88526000I-125000J0D01*
G01*
G37*
%TD.AperFunction*%
%TO.P,U3,14*%
%TO.N,ADC_8*%
%TA.AperFunction,SMDPad,CuDef*%
G36*
G01*
X89120000Y-89326000D02*
X87870000Y-89326000D01*
G75*
G02*
X87745000Y-89201000I0J125000D01*
G01*
X87745000Y-88951000D01*
G75*
G02*
X87870000Y-88826000I125000J0D01*
G01*
X89120000Y-88826000D01*
G75*
G02*
X89245000Y-88951000I0J-125000D01*
G01*
X89245000Y-89201000D01*
G75*
G02*
X89120000Y-89326000I-125000J0D01*
G01*
G37*
%TD.AperFunction*%
%TO.P,U3,13*%
%TO.N,MOSI*%
%TA.AperFunction,SMDPad,CuDef*%
G36*
G01*
X89120000Y-90126000D02*
X87870000Y-90126000D01*
G75*
G02*
X87745000Y-90001000I0J125000D01*
G01*
X87745000Y-89751000D01*
G75*
G02*
X87870000Y-89626000I125000J0D01*
G01*
X89120000Y-89626000D01*
G75*
G02*
X89245000Y-89751000I0J-125000D01*
G01*
X89245000Y-90001000D01*
G75*
G02*
X89120000Y-90126000I-125000J0D01*
G01*
G37*
%TD.AperFunction*%
%TO.P,U3,12*%
%TO.N,MISO*%
%TA.AperFunction,SMDPad,CuDef*%
G36*
G01*
X89120000Y-90926000D02*
X87870000Y-90926000D01*
G75*
G02*
X87745000Y-90801000I0J125000D01*
G01*
X87745000Y-90551000D01*
G75*
G02*
X87870000Y-90426000I125000J0D01*
G01*
X89120000Y-90426000D01*
G75*
G02*
X89245000Y-90551000I0J-125000D01*
G01*
X89245000Y-90801000D01*
G75*
G02*
X89120000Y-90926000I-125000J0D01*
G01*
G37*
%TD.AperFunction*%
%TO.P,U3,11*%
%TO.N,SCK*%
%TA.AperFunction,SMDPad,CuDef*%
G36*
G01*
X89120000Y-91726000D02*
X87870000Y-91726000D01*
G75*
G02*
X87745000Y-91601000I0J125000D01*
G01*
X87745000Y-91351000D01*
G75*
G02*
X87870000Y-91226000I125000J0D01*
G01*
X89120000Y-91226000D01*
G75*
G02*
X89245000Y-91351000I0J-125000D01*
G01*
X89245000Y-91601000D01*
G75*
G02*
X89120000Y-91726000I-125000J0D01*
G01*
G37*
%TD.AperFunction*%
%TO.P,U3,10*%
%TO.N,CS*%
%TA.AperFunction,SMDPad,CuDef*%
G36*
G01*
X89120000Y-92526000D02*
X87870000Y-92526000D01*
G75*
G02*
X87745000Y-92401000I0J125000D01*
G01*
X87745000Y-92151000D01*
G75*
G02*
X87870000Y-92026000I125000J0D01*
G01*
X89120000Y-92026000D01*
G75*
G02*
X89245000Y-92151000I0J-125000D01*
G01*
X89245000Y-92401000D01*
G75*
G02*
X89120000Y-92526000I-125000J0D01*
G01*
G37*
%TD.AperFunction*%
%TO.P,U3,9*%
%TO.N,Net-(U3-Pad9)*%
%TA.AperFunction,SMDPad,CuDef*%
G36*
G01*
X89120000Y-93326000D02*
X87870000Y-93326000D01*
G75*
G02*
X87745000Y-93201000I0J125000D01*
G01*
X87745000Y-92951000D01*
G75*
G02*
X87870000Y-92826000I125000J0D01*
G01*
X89120000Y-92826000D01*
G75*
G02*
X89245000Y-92951000I0J-125000D01*
G01*
X89245000Y-93201000D01*
G75*
G02*
X89120000Y-93326000I-125000J0D01*
G01*
G37*
%TD.AperFunction*%
%TO.P,U3,8*%
%TO.N,SYS_WAKEUP*%
%TA.AperFunction,SMDPad,CuDef*%
G36*
G01*
X87245000Y-95201000D02*
X86995000Y-95201000D01*
G75*
G02*
X86870000Y-95076000I0J125000D01*
G01*
X86870000Y-93826000D01*
G75*
G02*
X86995000Y-93701000I125000J0D01*
G01*
X87245000Y-93701000D01*
G75*
G02*
X87370000Y-93826000I0J-125000D01*
G01*
X87370000Y-95076000D01*
G75*
G02*
X87245000Y-95201000I-125000J0D01*
G01*
G37*
%TD.AperFunction*%
%TO.P,U3,7*%
%TO.N,ADC_1*%
%TA.AperFunction,SMDPad,CuDef*%
G36*
G01*
X86445000Y-95201000D02*
X86195000Y-95201000D01*
G75*
G02*
X86070000Y-95076000I0J125000D01*
G01*
X86070000Y-93826000D01*
G75*
G02*
X86195000Y-93701000I125000J0D01*
G01*
X86445000Y-93701000D01*
G75*
G02*
X86570000Y-93826000I0J-125000D01*
G01*
X86570000Y-95076000D01*
G75*
G02*
X86445000Y-95201000I-125000J0D01*
G01*
G37*
%TD.AperFunction*%
%TO.P,U3,6*%
%TO.N,HSE_IN*%
%TA.AperFunction,SMDPad,CuDef*%
G36*
G01*
X85645000Y-95201000D02*
X85395000Y-95201000D01*
G75*
G02*
X85270000Y-95076000I0J125000D01*
G01*
X85270000Y-93826000D01*
G75*
G02*
X85395000Y-93701000I125000J0D01*
G01*
X85645000Y-93701000D01*
G75*
G02*
X85770000Y-93826000I0J-125000D01*
G01*
X85770000Y-95076000D01*
G75*
G02*
X85645000Y-95201000I-125000J0D01*
G01*
G37*
%TD.AperFunction*%
%TO.P,U3,5*%
%TO.N,+3.3VA*%
%TA.AperFunction,SMDPad,CuDef*%
G36*
G01*
X84845000Y-95201000D02*
X84595000Y-95201000D01*
G75*
G02*
X84470000Y-95076000I0J125000D01*
G01*
X84470000Y-93826000D01*
G75*
G02*
X84595000Y-93701000I125000J0D01*
G01*
X84845000Y-93701000D01*
G75*
G02*
X84970000Y-93826000I0J-125000D01*
G01*
X84970000Y-95076000D01*
G75*
G02*
X84845000Y-95201000I-125000J0D01*
G01*
G37*
%TD.AperFunction*%
%TO.P,U3,4*%
%TO.N,NRST*%
%TA.AperFunction,SMDPad,CuDef*%
G36*
G01*
X84045000Y-95201000D02*
X83795000Y-95201000D01*
G75*
G02*
X83670000Y-95076000I0J125000D01*
G01*
X83670000Y-93826000D01*
G75*
G02*
X83795000Y-93701000I125000J0D01*
G01*
X84045000Y-93701000D01*
G75*
G02*
X84170000Y-93826000I0J-125000D01*
G01*
X84170000Y-95076000D01*
G75*
G02*
X84045000Y-95201000I-125000J0D01*
G01*
G37*
%TD.AperFunction*%
%TO.P,U3,3*%
%TO.N,OSC_OUT*%
%TA.AperFunction,SMDPad,CuDef*%
G36*
G01*
X83245000Y-95201000D02*
X82995000Y-95201000D01*
G75*
G02*
X82870000Y-95076000I0J125000D01*
G01*
X82870000Y-93826000D01*
G75*
G02*
X82995000Y-93701000I125000J0D01*
G01*
X83245000Y-93701000D01*
G75*
G02*
X83370000Y-93826000I0J-125000D01*
G01*
X83370000Y-95076000D01*
G75*
G02*
X83245000Y-95201000I-125000J0D01*
G01*
G37*
%TD.AperFunction*%
%TO.P,U3,2*%
%TO.N,OSC_IN*%
%TA.AperFunction,SMDPad,CuDef*%
G36*
G01*
X82445000Y-95201000D02*
X82195000Y-95201000D01*
G75*
G02*
X82070000Y-95076000I0J125000D01*
G01*
X82070000Y-93826000D01*
G75*
G02*
X82195000Y-93701000I125000J0D01*
G01*
X82445000Y-93701000D01*
G75*
G02*
X82570000Y-93826000I0J-125000D01*
G01*
X82570000Y-95076000D01*
G75*
G02*
X82445000Y-95201000I-125000J0D01*
G01*
G37*
%TD.AperFunction*%
%TO.P,U3,1*%
%TO.N,+3V3*%
%TA.AperFunction,SMDPad,CuDef*%
G36*
G01*
X81645000Y-95201000D02*
X81395000Y-95201000D01*
G75*
G02*
X81270000Y-95076000I0J125000D01*
G01*
X81270000Y-93826000D01*
G75*
G02*
X81395000Y-93701000I125000J0D01*
G01*
X81645000Y-93701000D01*
G75*
G02*
X81770000Y-93826000I0J-125000D01*
G01*
X81770000Y-95076000D01*
G75*
G02*
X81645000Y-95201000I-125000J0D01*
G01*
G37*
%TD.AperFunction*%
%TD*%
D18*
%TO.P,U4,2*%
%TO.N,+3V3*%
X88400000Y-77700000D03*
%TO.P,U4,6*%
%TO.N,Net-(U4-Pad6)*%
X86400000Y-78700000D03*
%TO.P,U4,5*%
%TO.N,GND*%
X86400000Y-77700000D03*
%TO.P,U4,4*%
%TO.N,I2C_SDA*%
X86400000Y-76700000D03*
%TO.P,U4,3*%
%TO.N,I2C_SCL*%
X88400000Y-76700000D03*
%TO.P,U4,1*%
%TO.N,Net-(U4-Pad1)*%
X88400000Y-78700000D03*
%TD*%
D19*
%TO.P,X1,2*%
%TO.N,GND*%
X114775000Y-89330000D03*
D20*
%TO.P,X1,1*%
%TO.N,Net-(J1-Pad1)*%
X113250000Y-90805000D03*
D19*
%TO.P,X1,2*%
%TO.N,GND*%
X114775000Y-92280000D03*
%TD*%
D21*
%TO.P,Y1,2*%
%TO.N,OSC_OUT*%
X83030000Y-98531000D03*
%TO.P,Y1,1*%
%TO.N,OSC_IN*%
X80530000Y-98531000D03*
%TD*%
D22*
%TO.N,+3V3*%
X91000000Y-98000000D03*
X91000000Y-99000000D03*
X91000000Y-100000000D03*
X90000000Y-100000000D03*
X90000000Y-99000000D03*
X90000000Y-98000000D03*
X89000000Y-98000000D03*
X89000000Y-99000000D03*
X89000000Y-100000000D03*
X112000000Y-82000000D03*
X83000000Y-76000000D03*
X85000000Y-74000000D03*
X85000000Y-73000000D03*
X91000000Y-73000000D03*
X88300000Y-83200000D03*
X89300000Y-83200000D03*
X80200000Y-96300000D03*
X81200000Y-96300000D03*
X92500000Y-85800000D03*
X76900000Y-94830000D03*
X104000000Y-75700000D03*
X97000000Y-101600000D03*
%TO.N,GND*%
X109105000Y-94179000D03*
X110105000Y-94179000D03*
X111105000Y-94179000D03*
X112105000Y-94179000D03*
X114100000Y-94200000D03*
X113105000Y-94179000D03*
X115100000Y-94200000D03*
X115100000Y-94200000D03*
X115100000Y-98200000D03*
X113105000Y-98179000D03*
X114100000Y-98200000D03*
X109105000Y-95179000D03*
X110105000Y-95179000D03*
X111105000Y-95179000D03*
X112105000Y-95179000D03*
X113105000Y-95179000D03*
X114100000Y-95200000D03*
X114100000Y-95200000D03*
X115100000Y-95200000D03*
X115100000Y-96200000D03*
X115100000Y-97200000D03*
X114100000Y-96200000D03*
X114100000Y-97200000D03*
X113105000Y-97179000D03*
X113105000Y-97179000D03*
X112105000Y-96179000D03*
X113105000Y-96179000D03*
X112105000Y-97179000D03*
X112105000Y-98179000D03*
X111105000Y-102179000D03*
X111105000Y-101179000D03*
X111105000Y-100179000D03*
X111105000Y-99179000D03*
X111105000Y-98179000D03*
X111105000Y-97179000D03*
X111105000Y-96179000D03*
X110105000Y-96179000D03*
X110105000Y-97179000D03*
X110105000Y-98179000D03*
X110105000Y-99179000D03*
X110105000Y-101179000D03*
X110105000Y-100179000D03*
X110105000Y-102179000D03*
X109105000Y-102179000D03*
X109105000Y-101179000D03*
X109105000Y-100179000D03*
X109105000Y-99179000D03*
X109105000Y-98179000D03*
X109105000Y-97179000D03*
X109105000Y-96179000D03*
X82000000Y-76200000D03*
X88500000Y-75300000D03*
X86400000Y-81600000D03*
X86400000Y-80600000D03*
X87400000Y-80600000D03*
X80700000Y-76200000D03*
X79500000Y-80750000D03*
X80600000Y-80750000D03*
X88900000Y-86600000D03*
X81300000Y-82900000D03*
X78358002Y-98100000D03*
X97500000Y-87800000D03*
X98600000Y-87800000D03*
X98700000Y-82500000D03*
X97800000Y-81400000D03*
%TO.N,HSE_IN*%
X85500000Y-93100000D03*
%TO.N,Net-(CFG1-Pad2)*%
X92900000Y-89400000D03*
%TO.N,USART2_TX*%
X83300000Y-90800000D03*
X95600000Y-92700000D03*
%TO.N,USART2_RX*%
X81700000Y-92300000D03*
X100100000Y-96600000D03*
%TO.N,I2C_SDA*%
X84900000Y-76600000D03*
%TO.N,I2C_SCL*%
X89600000Y-75500000D03*
%TO.N,MOSI*%
X92800000Y-79900000D03*
%TO.N,MISO*%
X90595010Y-84800000D03*
X97100000Y-78800000D03*
%TO.N,SCK*%
X97200000Y-83000000D03*
%TO.N,CS*%
X92000000Y-91300000D03*
X93134998Y-83700000D03*
X97300000Y-85000000D03*
%TO.N,ADC_1*%
X86323959Y-91073959D03*
%TO.N,ADC_8*%
X85473959Y-89100000D03*
%TO.N,ADC_9*%
X84700000Y-88200000D03*
%TO.N,USART2_RTS*%
X82300000Y-87800000D03*
%TO.N,USART2_CTS*%
X83400000Y-87800000D03*
%TO.N,SYS_WAKEUP*%
X86414352Y-95862000D03*
%TO.N,RST*%
X92500000Y-87900000D03*
X85473959Y-90200000D03*
%TO.N,NRST*%
X83800000Y-93000000D03*
X76900000Y-82700000D03*
%TO.N,Net-(R9-Pad1)*%
X78400000Y-96800000D03*
%TD*%
D23*
%TO.N,+3V3*%
X92534500Y-97074500D02*
X92422000Y-96962000D01*
X92534500Y-99060000D02*
X92534500Y-97074500D01*
X86295010Y-96962000D02*
X85869010Y-97388000D01*
X89000000Y-98000000D02*
X89000000Y-99000000D01*
X89000000Y-99000000D02*
X89000000Y-100000000D01*
X89000000Y-98000000D02*
X90000000Y-98000000D01*
X90000000Y-98000000D02*
X90000000Y-99000000D01*
X90000000Y-99000000D02*
X90000000Y-100000000D01*
X90000000Y-100000000D02*
X91000000Y-100000000D01*
X91000000Y-99000000D02*
X91000000Y-98000000D01*
X91000000Y-100000000D02*
X91000000Y-99000000D01*
X90000000Y-100000000D02*
X89000000Y-100000000D01*
X91000000Y-98000000D02*
X90000000Y-98000000D01*
X89000000Y-97000000D02*
X89038000Y-96962000D01*
X89000000Y-98000000D02*
X89000000Y-97000000D01*
X89038000Y-96962000D02*
X86295010Y-96962000D01*
X90000000Y-97000000D02*
X90038000Y-96962000D01*
X90000000Y-98000000D02*
X90000000Y-97000000D01*
X90038000Y-96962000D02*
X89038000Y-96962000D01*
X91000000Y-98000000D02*
X91000000Y-97000000D01*
X91000000Y-97000000D02*
X90962000Y-96962000D01*
X90962000Y-96962000D02*
X90038000Y-96962000D01*
X92422000Y-96962000D02*
X90962000Y-96962000D01*
D24*
X83240000Y-75760000D02*
X83000000Y-76000000D01*
X83240000Y-74350000D02*
X83240000Y-75760000D01*
X85000000Y-74000000D02*
X85000000Y-73000000D01*
X85985000Y-73000000D02*
X86400000Y-73415000D01*
X85000000Y-73000000D02*
X85985000Y-73000000D01*
X87500000Y-73415000D02*
X87515000Y-73400000D01*
X86400000Y-73415000D02*
X87500000Y-73415000D01*
X87515000Y-73400000D02*
X87515000Y-74500000D01*
X90015000Y-73000000D02*
X89600000Y-73415000D01*
X91000000Y-73000000D02*
X90015000Y-73000000D01*
X111245000Y-82820000D02*
X111760000Y-83335000D01*
X109435000Y-82820000D02*
X111245000Y-82820000D01*
X111760000Y-82240000D02*
X112000000Y-82000000D01*
X111760000Y-83335000D02*
X111760000Y-82240000D01*
X89300000Y-83200000D02*
X88300000Y-83200000D01*
X88300000Y-84668000D02*
X88280000Y-84688000D01*
X88300000Y-83200000D02*
X88300000Y-84668000D01*
X88280000Y-84688000D02*
X88280000Y-85831000D01*
X87390000Y-85831000D02*
X87120000Y-86101000D01*
X88280000Y-85831000D02*
X87390000Y-85831000D01*
X81123000Y-94848000D02*
X81520000Y-94451000D01*
X80210000Y-94848000D02*
X81123000Y-94848000D01*
X81200000Y-96300000D02*
X80200000Y-96300000D01*
X80200000Y-94858000D02*
X80210000Y-94848000D01*
X80200000Y-96300000D02*
X80200000Y-94858000D01*
D23*
X83590000Y-74000000D02*
X83240000Y-74350000D01*
X85000000Y-74000000D02*
X83590000Y-74000000D01*
X84590000Y-73000000D02*
X83240000Y-74350000D01*
X85000000Y-73000000D02*
X84590000Y-73000000D01*
D24*
X87515000Y-77275002D02*
X87515000Y-74500000D01*
X87939998Y-77700000D02*
X87515000Y-77275002D01*
X88400000Y-77700000D02*
X87939998Y-77700000D01*
X91948000Y-85248000D02*
X92500000Y-85800000D01*
X91948000Y-84836000D02*
X91948000Y-85248000D01*
X91971000Y-86329000D02*
X92500000Y-85800000D01*
X91971000Y-86868000D02*
X91971000Y-86329000D01*
D23*
%TO.N,GND*%
X105140000Y-96690000D02*
X105140000Y-94940000D01*
X103786000Y-98044000D02*
X105140000Y-96690000D01*
X98473500Y-98044000D02*
X103786000Y-98044000D01*
X98473500Y-98744000D02*
X98473500Y-98044000D01*
X97671973Y-99545527D02*
X98473500Y-98744000D01*
X94895027Y-99545527D02*
X97671973Y-99545527D01*
X94409500Y-99060000D02*
X94895027Y-99545527D01*
X86631500Y-98912000D02*
X86631500Y-100436000D01*
D24*
X89250000Y-86721000D02*
X89250000Y-85831000D01*
X88495000Y-87476000D02*
X89250000Y-86721000D01*
X79240000Y-93981000D02*
X80145000Y-93076000D01*
X79240000Y-94848000D02*
X79240000Y-93981000D01*
D23*
X87400000Y-80600000D02*
X86400000Y-80600000D01*
D24*
X88500000Y-74515000D02*
X88485000Y-74500000D01*
X88500000Y-75300000D02*
X88500000Y-74515000D01*
D23*
X80700000Y-74350000D02*
X80700000Y-76200000D01*
X80700000Y-76200000D02*
X81899999Y-76200000D01*
X81899999Y-75471999D02*
X81899999Y-76200000D01*
X81970000Y-75401998D02*
X81899999Y-75471999D01*
X81970000Y-74350000D02*
X81970000Y-75401998D01*
D24*
X89250000Y-85831000D02*
X89250000Y-84688000D01*
X88495000Y-87005000D02*
X88900000Y-86600000D01*
X88495000Y-87476000D02*
X88495000Y-87005000D01*
X87299990Y-80499990D02*
X87400000Y-80600000D01*
X86860002Y-77700000D02*
X87299990Y-78139988D01*
X87299990Y-78139988D02*
X87299990Y-80499990D01*
X86400000Y-77700000D02*
X86860002Y-77700000D01*
D23*
X86400000Y-80600000D02*
X86400000Y-81600000D01*
X86400000Y-81600000D02*
X87400000Y-80600000D01*
D24*
X79250001Y-96391999D02*
X79250001Y-97208001D01*
X79240000Y-96381998D02*
X79250001Y-96391999D01*
X79240000Y-94848000D02*
X79240000Y-96381998D01*
X80487500Y-82900000D02*
X80100000Y-82512500D01*
X81300000Y-82900000D02*
X80487500Y-82900000D01*
X79250001Y-97208001D02*
X78358002Y-98100000D01*
X75875000Y-98100000D02*
X74295000Y-96520000D01*
X78358002Y-98100000D02*
X75875000Y-98100000D01*
%TO.N,OSC_IN*%
X82320000Y-96741000D02*
X80530000Y-98531000D01*
X82320000Y-94451000D02*
X82320000Y-96741000D01*
X80500000Y-98561000D02*
X80530000Y-98531000D01*
X80500000Y-100215000D02*
X80500000Y-98561000D01*
%TO.N,OSC_OUT*%
X83120000Y-98441000D02*
X83030000Y-98531000D01*
X83120000Y-94451000D02*
X83120000Y-98441000D01*
X83050000Y-98551000D02*
X83030000Y-98531000D01*
X83050000Y-100215000D02*
X83050000Y-98551000D01*
D23*
%TO.N,Net-(C4-Pad1)*%
X96470000Y-96012000D02*
X96536000Y-95946000D01*
X94522000Y-96012000D02*
X96470000Y-96012000D01*
X96598500Y-96008500D02*
X96536000Y-95946000D01*
X96598500Y-98044000D02*
X96598500Y-96008500D01*
%TO.N,+3.3VA*%
X85056500Y-98912000D02*
X85056500Y-100436000D01*
D24*
X84874000Y-98729500D02*
X85056500Y-98912000D01*
X84874000Y-97388000D02*
X84874000Y-98729500D01*
X84720000Y-97234000D02*
X84720000Y-94451000D01*
X84874000Y-97388000D02*
X84720000Y-97234000D01*
%TO.N,HSE_IN*%
X85520000Y-93120000D02*
X85500000Y-93100000D01*
X85520000Y-94451000D02*
X85520000Y-93120000D01*
%TO.N,Net-(CFG1-Pad2)*%
X95055000Y-88800000D02*
X95035000Y-88820000D01*
D23*
X93480000Y-88820000D02*
X95035000Y-88820000D01*
X92900000Y-89400000D02*
X93480000Y-88820000D01*
D24*
%TO.N,Net-(D1-Pad1)*%
X79850500Y-84337000D02*
X80100000Y-84087500D01*
X77716000Y-84337000D02*
X79850500Y-84337000D01*
%TO.N,Net-(D1-Pad2)*%
X78980000Y-87476000D02*
X77716000Y-86212000D01*
X80145000Y-87476000D02*
X78980000Y-87476000D01*
D25*
%TO.N,Net-(J1-Pad1)*%
X111658998Y-90820000D02*
X111673998Y-90805000D01*
X109435000Y-90820000D02*
X111658998Y-90820000D01*
X111633000Y-90805000D02*
X112689998Y-90805000D01*
D23*
%TO.N,VIN*%
X103084000Y-94996000D02*
X103140000Y-94940000D01*
X98536000Y-94996000D02*
X103084000Y-94996000D01*
D24*
%TO.N,USART2_TX*%
X83176000Y-90676000D02*
X83300000Y-90800000D01*
X80145000Y-90676000D02*
X83176000Y-90676000D01*
%TO.N,USART2_RX*%
X81700000Y-91734315D02*
X81700000Y-92300000D01*
X81441685Y-91476000D02*
X81700000Y-91734315D01*
X80145000Y-91476000D02*
X81441685Y-91476000D01*
%TO.N,Net-(J4-Pad2)*%
X83240000Y-81260000D02*
X83200000Y-81300000D01*
X83240000Y-78250000D02*
X83240000Y-81260000D01*
%TO.N,Net-(J4-Pad4)*%
X81970000Y-81085000D02*
X82200000Y-81315000D01*
X81970000Y-78250000D02*
X81970000Y-81085000D01*
%TO.N,Net-(J4-Pad10)*%
X78100000Y-78310000D02*
X78160000Y-78250000D01*
X78100000Y-81315000D02*
X78100000Y-78310000D01*
%TO.N,I2C_SDA*%
X84720000Y-77919998D02*
X84720000Y-86101000D01*
X85939998Y-76700000D02*
X84720000Y-77919998D01*
X86400000Y-76700000D02*
X85939998Y-76700000D01*
X86400000Y-76700000D02*
X86400000Y-74385000D01*
X85000000Y-76700000D02*
X84900000Y-76600000D01*
X86400000Y-76700000D02*
X85000000Y-76700000D01*
%TO.N,I2C_SCL*%
X89600000Y-75500000D02*
X89600000Y-74385000D01*
X88400000Y-76700000D02*
X89600000Y-75500000D01*
X85520000Y-84721998D02*
X85520000Y-86101000D01*
X89250001Y-80991997D02*
X85520000Y-84721998D01*
X88860002Y-76700000D02*
X89250001Y-77089999D01*
X89250001Y-77089999D02*
X89250001Y-80991997D01*
X88400000Y-76700000D02*
X88860002Y-76700000D01*
D26*
%TO.N,MOSI*%
X89870010Y-89250990D02*
X89870010Y-84270010D01*
X89245000Y-89876000D02*
X89870010Y-89250990D01*
X88495000Y-89876000D02*
X89245000Y-89876000D01*
X93320020Y-80820000D02*
X95035000Y-80820000D01*
X89870010Y-84270010D02*
X93320020Y-80820000D01*
D24*
X93720000Y-80820000D02*
X95035000Y-80820000D01*
X92800000Y-79900000D02*
X93720000Y-80820000D01*
D26*
%TO.N,MISO*%
X90595010Y-89489580D02*
X90595010Y-84800000D01*
X89408590Y-90676000D02*
X90595010Y-89489580D01*
X88495000Y-90676000D02*
X89408590Y-90676000D01*
X95055000Y-78800000D02*
X95035000Y-78820000D01*
X97100000Y-78800000D02*
X95055000Y-78800000D01*
%TO.N,SCK*%
X89245000Y-91476000D02*
X88495000Y-91476000D01*
X91327990Y-84467778D02*
X91327990Y-89393010D01*
X92975768Y-82820000D02*
X91327990Y-84467778D01*
X91327990Y-89393010D02*
X89245000Y-91476000D01*
X95035000Y-82820000D02*
X92975768Y-82820000D01*
D24*
X95215000Y-83000000D02*
X95035000Y-82820000D01*
X97200000Y-83000000D02*
X95215000Y-83000000D01*
%TO.N,CS*%
X95019000Y-84836000D02*
X95035000Y-84820000D01*
X92918000Y-84836000D02*
X95019000Y-84836000D01*
D26*
X91024000Y-92276000D02*
X92000000Y-91300000D01*
X88495000Y-92276000D02*
X91024000Y-92276000D01*
X93134998Y-84619002D02*
X92918000Y-84836000D01*
X93134998Y-83700000D02*
X93134998Y-84619002D01*
D24*
X95215000Y-85000000D02*
X95035000Y-84820000D01*
X97300000Y-85000000D02*
X95215000Y-85000000D01*
%TO.N,ADC_1*%
X86350001Y-91100001D02*
X86323959Y-91073959D01*
X86350001Y-94420999D02*
X86350001Y-91100001D01*
X86320000Y-94451000D02*
X86350001Y-94420999D01*
%TO.N,ADC_8*%
X88495000Y-89076000D02*
X85497959Y-89076000D01*
X85497959Y-89076000D02*
X85473959Y-89100000D01*
%TO.N,ADC_9*%
X88495000Y-88276000D02*
X88468999Y-88249999D01*
X88419000Y-88200000D02*
X84700000Y-88200000D01*
X88495000Y-88276000D02*
X88419000Y-88200000D01*
%TO.N,USART2_RTS*%
X82300000Y-87684188D02*
X82300000Y-87800000D01*
X82549999Y-87434189D02*
X83120000Y-86864188D01*
X83120000Y-86864188D02*
X83120000Y-86101000D01*
X82549999Y-87550001D02*
X82549999Y-87434189D01*
X82300000Y-87800000D02*
X82549999Y-87550001D01*
%TO.N,USART2_CTS*%
X83920000Y-87280000D02*
X83400000Y-87800000D01*
X83920000Y-86101000D02*
X83920000Y-87280000D01*
%TO.N,SYS_WAKEUP*%
X86472188Y-95862000D02*
X86414352Y-95862000D01*
X87120000Y-95214188D02*
X86472188Y-95862000D01*
X87120000Y-94451000D02*
X87120000Y-95214188D01*
%TO.N,RST*%
X94987000Y-86868000D02*
X95035000Y-86820000D01*
X92941000Y-86868000D02*
X94987000Y-86868000D01*
X92941000Y-87459000D02*
X92941000Y-86868000D01*
X92500000Y-87900000D02*
X92941000Y-87459000D01*
X85315957Y-90200000D02*
X85473959Y-90200000D01*
X84991957Y-89876000D02*
X85315957Y-90200000D01*
X80145000Y-89876000D02*
X84991957Y-89876000D01*
%TO.N,SWDIO*%
X82320000Y-85337812D02*
X82320000Y-86101000D01*
X83200000Y-84457812D02*
X82320000Y-85337812D01*
X83200000Y-82270000D02*
X83200000Y-84457812D01*
%TO.N,SWCLK*%
X81520000Y-86101000D02*
X81520001Y-85147849D01*
X82200000Y-84467850D02*
X82200000Y-82285000D01*
X81520001Y-85147849D02*
X82200000Y-84467850D01*
%TO.N,NRST*%
X83920000Y-93120000D02*
X83800000Y-93000000D01*
X83920000Y-94451000D02*
X83920000Y-93120000D01*
X77685000Y-82700000D02*
X78100000Y-82285000D01*
X76900000Y-82700000D02*
X77685000Y-82700000D01*
%TO.N,BOOT0*%
X78279000Y-92276000D02*
X78224000Y-92331000D01*
X80145000Y-92276000D02*
X78279000Y-92276000D01*
%TO.N,Net-(R9-Pad1)*%
X78224000Y-96624000D02*
X78400000Y-96800000D01*
X78224000Y-93301000D02*
X78224000Y-96624000D01*
%TD*%
D27*
%TO.N,GND*%
X83472940Y-72511928D02*
X82870000Y-72511928D01*
X82745518Y-72524188D01*
X82625820Y-72560498D01*
X82605000Y-72571627D01*
X82584180Y-72560498D01*
X82464482Y-72524188D01*
X82340000Y-72511928D01*
X82255750Y-72515000D01*
X82097000Y-72673750D01*
X82097000Y-74223000D01*
X82112017Y-74223000D01*
X82099509Y-74350000D01*
X82112017Y-74477000D01*
X82097000Y-74477000D01*
X82097000Y-75488485D01*
X82082795Y-75509744D01*
X82004774Y-75698102D01*
X81965000Y-75898061D01*
X81965000Y-76101939D01*
X82004774Y-76301898D01*
X82050350Y-76411928D01*
X81600000Y-76411928D01*
X81475518Y-76424188D01*
X81355820Y-76460498D01*
X81335000Y-76471627D01*
X81314180Y-76460498D01*
X81194482Y-76424188D01*
X81070000Y-76411928D01*
X80330000Y-76411928D01*
X80205518Y-76424188D01*
X80085820Y-76460498D01*
X80065000Y-76471627D01*
X80044180Y-76460498D01*
X79924482Y-76424188D01*
X79800000Y-76411928D01*
X79060000Y-76411928D01*
X78935518Y-76424188D01*
X78815820Y-76460498D01*
X78795000Y-76471627D01*
X78774180Y-76460498D01*
X78654482Y-76424188D01*
X78530000Y-76411928D01*
X77790000Y-76411928D01*
X77665518Y-76424188D01*
X77545820Y-76460498D01*
X77435506Y-76519463D01*
X77338815Y-76598815D01*
X77259463Y-76695506D01*
X77200498Y-76805820D01*
X77164188Y-76925518D01*
X77151928Y-77050000D01*
X77151928Y-79450000D01*
X77164188Y-79574482D01*
X77200498Y-79694180D01*
X77215001Y-79721312D01*
X77215000Y-80842041D01*
X77201726Y-80866875D01*
X77157023Y-81014243D01*
X77141928Y-81167500D01*
X77141928Y-81462500D01*
X77157023Y-81615757D01*
X77182878Y-81700991D01*
X77001939Y-81665000D01*
X76798061Y-81665000D01*
X76598102Y-81704774D01*
X76409744Y-81782795D01*
X76240226Y-81896063D01*
X76096063Y-82040226D01*
X75982795Y-82209744D01*
X75904774Y-82398102D01*
X75865000Y-82598061D01*
X75865000Y-82801939D01*
X75904774Y-83001898D01*
X75982795Y-83190256D01*
X76096063Y-83359774D01*
X76240226Y-83503937D01*
X76409744Y-83617205D01*
X76499301Y-83654301D01*
X76445053Y-83755791D01*
X76394872Y-83921215D01*
X76377928Y-84093250D01*
X76377928Y-84580750D01*
X76394872Y-84752785D01*
X76445053Y-84918209D01*
X76526542Y-85070664D01*
X76636208Y-85204292D01*
X76721756Y-85274500D01*
X76636208Y-85344708D01*
X76526542Y-85478336D01*
X76445053Y-85630791D01*
X76394872Y-85796215D01*
X76377928Y-85968250D01*
X76377928Y-86455750D01*
X76394872Y-86627785D01*
X76445053Y-86793209D01*
X76526542Y-86945664D01*
X76636208Y-87079292D01*
X76769836Y-87188958D01*
X76922291Y-87270447D01*
X77087715Y-87320628D01*
X77259750Y-87337572D01*
X77589994Y-87337572D01*
X78323470Y-88071049D01*
X78351183Y-88104817D01*
X78384951Y-88132530D01*
X78384953Y-88132532D01*
X78446199Y-88182795D01*
X78485941Y-88215411D01*
X78639687Y-88297589D01*
X78750469Y-88331195D01*
X78756928Y-88333154D01*
X78756928Y-88401000D01*
X78771590Y-88549868D01*
X78809852Y-88676000D01*
X78771590Y-88802132D01*
X78756928Y-88951000D01*
X78756928Y-89201000D01*
X78771590Y-89349868D01*
X78809852Y-89476000D01*
X78771590Y-89602132D01*
X78756928Y-89751000D01*
X78756928Y-90001000D01*
X78771590Y-90149868D01*
X78809852Y-90276000D01*
X78771590Y-90402132D01*
X78756928Y-90551000D01*
X78756928Y-90801000D01*
X78771590Y-90949868D01*
X78809852Y-91076000D01*
X78771590Y-91202132D01*
X78756928Y-91351000D01*
X78756928Y-91391000D01*
X78322469Y-91391000D01*
X78279000Y-91386719D01*
X78235531Y-91391000D01*
X78235523Y-91391000D01*
X78165181Y-91397928D01*
X78051500Y-91397928D01*
X77898243Y-91413023D01*
X77750875Y-91457726D01*
X77615060Y-91530321D01*
X77496017Y-91628017D01*
X77398321Y-91747060D01*
X77325726Y-91882875D01*
X77281023Y-92030243D01*
X77265928Y-92183500D01*
X77265928Y-92478500D01*
X77281023Y-92631757D01*
X77325726Y-92779125D01*
X77345436Y-92816000D01*
X77325726Y-92852875D01*
X77281023Y-93000243D01*
X77265928Y-93153500D01*
X77265928Y-93448500D01*
X77281023Y-93601757D01*
X77325726Y-93749125D01*
X77339000Y-93773959D01*
X77339000Y-93891564D01*
X77201898Y-93834774D01*
X77001939Y-93795000D01*
X76798061Y-93795000D01*
X76598102Y-93834774D01*
X76409744Y-93912795D01*
X76240226Y-94026063D01*
X76096063Y-94170226D01*
X75982795Y-94339744D01*
X75904774Y-94528102D01*
X75865000Y-94728061D01*
X75865000Y-94931939D01*
X75904774Y-95131898D01*
X75982795Y-95320256D01*
X76096063Y-95489774D01*
X76240226Y-95633937D01*
X76409744Y-95747205D01*
X76598102Y-95825226D01*
X76798061Y-95865000D01*
X77001939Y-95865000D01*
X77201898Y-95825226D01*
X77339001Y-95768436D01*
X77339001Y-96580521D01*
X77334719Y-96624000D01*
X77351805Y-96797490D01*
X77365000Y-96840987D01*
X77365000Y-96901939D01*
X77404774Y-97101898D01*
X77482795Y-97290256D01*
X77596063Y-97459774D01*
X77740226Y-97603937D01*
X77909744Y-97717205D01*
X78098102Y-97795226D01*
X78298061Y-97835000D01*
X78501939Y-97835000D01*
X78701898Y-97795226D01*
X78890256Y-97717205D01*
X79059774Y-97603937D01*
X79203937Y-97459774D01*
X79317205Y-97290256D01*
X79395226Y-97101898D01*
X79418945Y-96982656D01*
X79540226Y-97103937D01*
X79612461Y-97152203D01*
X79578815Y-97179815D01*
X79499463Y-97276506D01*
X79440498Y-97386820D01*
X79404188Y-97506518D01*
X79391928Y-97631000D01*
X79391928Y-99431000D01*
X79404188Y-99555482D01*
X79440498Y-99675180D01*
X79499463Y-99785494D01*
X79570004Y-99871449D01*
X79557023Y-99914243D01*
X79541928Y-100067500D01*
X79541928Y-100362500D01*
X79557023Y-100515757D01*
X79594312Y-100638684D01*
X79590498Y-100645820D01*
X79554188Y-100765518D01*
X79541928Y-100890000D01*
X79545000Y-100899250D01*
X79703750Y-101058000D01*
X79970237Y-101058000D01*
X80026875Y-101088274D01*
X80174243Y-101132977D01*
X80327500Y-101148072D01*
X80672500Y-101148072D01*
X80825757Y-101132977D01*
X80973125Y-101088274D01*
X81029763Y-101058000D01*
X81296250Y-101058000D01*
X81455000Y-100899250D01*
X81458072Y-100890000D01*
X81445812Y-100765518D01*
X81409502Y-100645820D01*
X81405688Y-100638684D01*
X81442977Y-100515757D01*
X81458072Y-100362500D01*
X81458072Y-100067500D01*
X81442977Y-99914243D01*
X81442807Y-99913681D01*
X81481185Y-99882185D01*
X81560537Y-99785494D01*
X81619502Y-99675180D01*
X81655812Y-99555482D01*
X81668072Y-99431000D01*
X81668072Y-98644506D01*
X81891928Y-98420650D01*
X81891928Y-99431000D01*
X81904188Y-99555482D01*
X81940498Y-99675180D01*
X81999463Y-99785494D01*
X82078815Y-99882185D01*
X82109187Y-99907110D01*
X82107023Y-99914243D01*
X82091928Y-100067500D01*
X82091928Y-100362500D01*
X82107023Y-100515757D01*
X82144312Y-100638684D01*
X82140498Y-100645820D01*
X82104188Y-100765518D01*
X82091928Y-100890000D01*
X82095000Y-100899250D01*
X82253750Y-101058000D01*
X82520237Y-101058000D01*
X82576875Y-101088274D01*
X82724243Y-101132977D01*
X82877500Y-101148072D01*
X83222500Y-101148072D01*
X83375757Y-101132977D01*
X83523125Y-101088274D01*
X83579763Y-101058000D01*
X83846250Y-101058000D01*
X84005000Y-100899250D01*
X84007340Y-100892203D01*
X84046150Y-101020142D01*
X84125329Y-101168275D01*
X84231885Y-101298115D01*
X84361725Y-101404671D01*
X84509858Y-101483850D01*
X84670592Y-101532608D01*
X84805327Y-101545879D01*
X84834002Y-101554577D01*
X85056500Y-101576491D01*
X85278999Y-101554577D01*
X85307674Y-101545878D01*
X85442408Y-101532608D01*
X85603142Y-101483850D01*
X85751275Y-101404671D01*
X85772930Y-101386900D01*
X85839506Y-101441537D01*
X85949820Y-101500502D01*
X86069518Y-101536812D01*
X86194000Y-101549072D01*
X86345750Y-101546000D01*
X86504500Y-101387250D01*
X86504500Y-100563000D01*
X86758500Y-100563000D01*
X86758500Y-101387250D01*
X86917250Y-101546000D01*
X87069000Y-101549072D01*
X87193482Y-101536812D01*
X87313180Y-101500502D01*
X87317746Y-101498061D01*
X95965000Y-101498061D01*
X95965000Y-101701939D01*
X96004774Y-101901898D01*
X96082795Y-102090256D01*
X96196063Y-102259774D01*
X96340226Y-102403937D01*
X96509744Y-102517205D01*
X96698102Y-102595226D01*
X96898061Y-102635000D01*
X97101939Y-102635000D01*
X97301898Y-102595226D01*
X97490256Y-102517205D01*
X97659774Y-102403937D01*
X97803937Y-102259774D01*
X97917205Y-102090256D01*
X97995226Y-101901898D01*
X98035000Y-101701939D01*
X98035000Y-101498061D01*
X97995226Y-101298102D01*
X97917205Y-101109744D01*
X97803937Y-100940226D01*
X97659774Y-100796063D01*
X97490256Y-100682795D01*
X97301898Y-100604774D01*
X97101939Y-100565000D01*
X96898061Y-100565000D01*
X96698102Y-100604774D01*
X96509744Y-100682795D01*
X96340226Y-100796063D01*
X96196063Y-100940226D01*
X96082795Y-101109744D01*
X96004774Y-101298102D01*
X95965000Y-101498061D01*
X87317746Y-101498061D01*
X87423494Y-101441537D01*
X87520185Y-101362185D01*
X87599537Y-101265494D01*
X87658502Y-101155180D01*
X87694812Y-101035482D01*
X87707072Y-100911000D01*
X87704000Y-100721750D01*
X87545250Y-100563000D01*
X86758500Y-100563000D01*
X86504500Y-100563000D01*
X86484500Y-100563000D01*
X86484500Y-100309000D01*
X86504500Y-100309000D01*
X86504500Y-99039000D01*
X86758500Y-99039000D01*
X86758500Y-100309000D01*
X87545250Y-100309000D01*
X87704000Y-100150250D01*
X87707072Y-99961000D01*
X87694812Y-99836518D01*
X87658502Y-99716820D01*
X87635614Y-99674000D01*
X87658502Y-99631180D01*
X87694812Y-99511482D01*
X87707072Y-99387000D01*
X87704000Y-99197750D01*
X87545250Y-99039000D01*
X86758500Y-99039000D01*
X86504500Y-99039000D01*
X86484500Y-99039000D01*
X86484500Y-98785000D01*
X86504500Y-98785000D01*
X86504500Y-98765000D01*
X86758500Y-98765000D01*
X86758500Y-98785000D01*
X87545250Y-98785000D01*
X87704000Y-98626250D01*
X87707072Y-98437000D01*
X87694812Y-98312518D01*
X87658502Y-98192820D01*
X87607284Y-98097000D01*
X87865000Y-98097000D01*
X87865000Y-99944248D01*
X87859509Y-100000000D01*
X87881423Y-100222499D01*
X87946324Y-100436447D01*
X88051716Y-100633623D01*
X88193551Y-100806449D01*
X88366377Y-100948284D01*
X88563553Y-101053676D01*
X88777501Y-101118577D01*
X88944248Y-101135000D01*
X88944249Y-101135000D01*
X89000000Y-101140491D01*
X89055752Y-101135000D01*
X89944249Y-101135000D01*
X90000000Y-101140491D01*
X90055752Y-101135000D01*
X90944248Y-101135000D01*
X91000000Y-101140491D01*
X91055751Y-101135000D01*
X91055752Y-101135000D01*
X91222499Y-101118577D01*
X91436447Y-101053676D01*
X91633623Y-100948284D01*
X91806449Y-100806449D01*
X91948284Y-100633623D01*
X92053676Y-100436447D01*
X92074524Y-100367723D01*
X92118715Y-100381128D01*
X92290750Y-100398072D01*
X92778250Y-100398072D01*
X92950285Y-100381128D01*
X93115709Y-100330947D01*
X93268164Y-100249458D01*
X93401792Y-100139792D01*
X93407008Y-100133436D01*
X93470815Y-100211185D01*
X93567506Y-100290537D01*
X93677820Y-100349502D01*
X93797518Y-100385812D01*
X93922000Y-100398072D01*
X94123750Y-100395000D01*
X94282500Y-100236250D01*
X94282500Y-99187000D01*
X94536500Y-99187000D01*
X94536500Y-100236250D01*
X94695250Y-100395000D01*
X94897000Y-100398072D01*
X95021482Y-100385812D01*
X95141180Y-100349502D01*
X95251494Y-100290537D01*
X95348185Y-100211185D01*
X95427537Y-100114494D01*
X95486502Y-100004180D01*
X95522812Y-99884482D01*
X95535072Y-99760000D01*
X95532000Y-99345750D01*
X95373250Y-99187000D01*
X94536500Y-99187000D01*
X94282500Y-99187000D01*
X94262500Y-99187000D01*
X94262500Y-98933000D01*
X94282500Y-98933000D01*
X94282500Y-97883750D01*
X94123750Y-97725000D01*
X93922000Y-97721928D01*
X93797518Y-97734188D01*
X93677820Y-97770498D01*
X93669500Y-97774945D01*
X93669500Y-97479814D01*
X93697812Y-97386482D01*
X93710072Y-97262000D01*
X93710072Y-96926453D01*
X93747518Y-96937812D01*
X93872000Y-96950072D01*
X93875934Y-96950072D01*
X93888377Y-96960284D01*
X94085553Y-97065676D01*
X94299501Y-97130577D01*
X94466248Y-97147000D01*
X95463500Y-97147000D01*
X95463500Y-98072787D01*
X95427537Y-98005506D01*
X95348185Y-97908815D01*
X95251494Y-97829463D01*
X95141180Y-97770498D01*
X95021482Y-97734188D01*
X94897000Y-97721928D01*
X94695250Y-97725000D01*
X94536500Y-97883750D01*
X94536500Y-98933000D01*
X95373250Y-98933000D01*
X95523409Y-98782841D01*
X95540053Y-98837709D01*
X95621542Y-98990164D01*
X95731208Y-99123792D01*
X95864836Y-99233458D01*
X96017291Y-99314947D01*
X96182715Y-99365128D01*
X96354750Y-99382072D01*
X96842250Y-99382072D01*
X97014285Y-99365128D01*
X97179709Y-99314947D01*
X97332164Y-99233458D01*
X97465792Y-99123792D01*
X97471008Y-99117436D01*
X97534815Y-99195185D01*
X97631506Y-99274537D01*
X97741820Y-99333502D01*
X97861518Y-99369812D01*
X97986000Y-99382072D01*
X98187750Y-99379000D01*
X98346500Y-99220250D01*
X98346500Y-98171000D01*
X98326500Y-98171000D01*
X98326500Y-97917000D01*
X98346500Y-97917000D01*
X98346500Y-96867750D01*
X98187750Y-96709000D01*
X97986000Y-96705928D01*
X97861518Y-96718188D01*
X97741820Y-96754498D01*
X97733500Y-96758945D01*
X97733500Y-96064241D01*
X97738990Y-96008499D01*
X97733500Y-95952758D01*
X97733500Y-95952748D01*
X97730867Y-95926012D01*
X97731506Y-95926537D01*
X97841820Y-95985502D01*
X97961518Y-96021812D01*
X98066827Y-96032184D01*
X98099553Y-96049676D01*
X98313501Y-96114577D01*
X98480248Y-96131000D01*
X99173990Y-96131000D01*
X99104774Y-96298102D01*
X99065000Y-96498061D01*
X99065000Y-96701939D01*
X99067887Y-96716455D01*
X98961000Y-96705928D01*
X98759250Y-96709000D01*
X98600500Y-96867750D01*
X98600500Y-97917000D01*
X99437250Y-97917000D01*
X99596000Y-97758250D01*
X99597846Y-97509255D01*
X99609744Y-97517205D01*
X99798102Y-97595226D01*
X99998061Y-97635000D01*
X100201939Y-97635000D01*
X100401898Y-97595226D01*
X100590256Y-97517205D01*
X100759774Y-97403937D01*
X100903937Y-97259774D01*
X101017205Y-97090256D01*
X101095226Y-96901898D01*
X101135000Y-96701939D01*
X101135000Y-96498061D01*
X101095226Y-96298102D01*
X101026010Y-96131000D01*
X102001928Y-96131000D01*
X102001928Y-96440000D01*
X102018992Y-96613254D01*
X102069528Y-96779850D01*
X102151595Y-96933386D01*
X102262038Y-97067962D01*
X102396614Y-97178405D01*
X102550150Y-97260472D01*
X102716746Y-97311008D01*
X102890000Y-97328072D01*
X103390000Y-97328072D01*
X103563254Y-97311008D01*
X103729850Y-97260472D01*
X103883386Y-97178405D01*
X104017962Y-97067962D01*
X104080969Y-96991187D01*
X104109463Y-97044494D01*
X104188815Y-97141185D01*
X104285506Y-97220537D01*
X104395820Y-97279502D01*
X104515518Y-97315812D01*
X104640000Y-97328072D01*
X104854250Y-97325000D01*
X105013000Y-97166250D01*
X105013000Y-95067000D01*
X105267000Y-95067000D01*
X105267000Y-97166250D01*
X105425750Y-97325000D01*
X105640000Y-97328072D01*
X105764482Y-97315812D01*
X105884180Y-97279502D01*
X105994494Y-97220537D01*
X106091185Y-97141185D01*
X106170537Y-97044494D01*
X106229502Y-96934180D01*
X106265812Y-96814482D01*
X106278072Y-96690000D01*
X106275000Y-95225750D01*
X106116250Y-95067000D01*
X105267000Y-95067000D01*
X105013000Y-95067000D01*
X104993000Y-95067000D01*
X104993000Y-94813000D01*
X105013000Y-94813000D01*
X105013000Y-92713750D01*
X105267000Y-92713750D01*
X105267000Y-94813000D01*
X106116250Y-94813000D01*
X106275000Y-94654250D01*
X106278072Y-93190000D01*
X106265812Y-93065518D01*
X106229502Y-92945820D01*
X106170537Y-92835506D01*
X106145502Y-92805000D01*
X113036928Y-92805000D01*
X113049188Y-92929482D01*
X113085498Y-93049180D01*
X113144463Y-93159494D01*
X113223815Y-93256185D01*
X113320506Y-93335537D01*
X113430820Y-93394502D01*
X113550518Y-93430812D01*
X113675000Y-93443072D01*
X114489250Y-93440000D01*
X114648000Y-93281250D01*
X114648000Y-92407000D01*
X113198750Y-92407000D01*
X113040000Y-92565750D01*
X113036928Y-92805000D01*
X106145502Y-92805000D01*
X106091185Y-92738815D01*
X105994494Y-92659463D01*
X105884180Y-92600498D01*
X105764482Y-92564188D01*
X105640000Y-92551928D01*
X105425750Y-92555000D01*
X105267000Y-92713750D01*
X105013000Y-92713750D01*
X104854250Y-92555000D01*
X104640000Y-92551928D01*
X104515518Y-92564188D01*
X104395820Y-92600498D01*
X104285506Y-92659463D01*
X104188815Y-92738815D01*
X104109463Y-92835506D01*
X104080969Y-92888813D01*
X104017962Y-92812038D01*
X103883386Y-92701595D01*
X103729850Y-92619528D01*
X103563254Y-92568992D01*
X103390000Y-92551928D01*
X102890000Y-92551928D01*
X102716746Y-92568992D01*
X102550150Y-92619528D01*
X102396614Y-92701595D01*
X102262038Y-92812038D01*
X102151595Y-92946614D01*
X102069528Y-93100150D01*
X102018992Y-93266746D01*
X102001928Y-93440000D01*
X102001928Y-93861000D01*
X98480248Y-93861000D01*
X98313501Y-93877423D01*
X98099553Y-93942324D01*
X98066827Y-93959816D01*
X97961518Y-93970188D01*
X97841820Y-94006498D01*
X97731506Y-94065463D01*
X97634815Y-94144815D01*
X97555463Y-94241506D01*
X97546857Y-94257607D01*
X97462250Y-94173000D01*
X96663000Y-94173000D01*
X96663000Y-94193000D01*
X96409000Y-94193000D01*
X96409000Y-94173000D01*
X95609750Y-94173000D01*
X95451000Y-94331750D01*
X95447928Y-94446000D01*
X95460188Y-94570482D01*
X95496498Y-94690180D01*
X95555463Y-94800494D01*
X95618250Y-94877000D01*
X94466248Y-94877000D01*
X94299501Y-94893423D01*
X94085553Y-94958324D01*
X93888377Y-95063716D01*
X93875934Y-95073928D01*
X93872000Y-95073928D01*
X93747518Y-95086188D01*
X93627820Y-95122498D01*
X93517506Y-95181463D01*
X93508322Y-95189000D01*
X92549000Y-95189000D01*
X92549000Y-95209000D01*
X92295000Y-95209000D01*
X92295000Y-95189000D01*
X91295750Y-95189000D01*
X91137000Y-95347750D01*
X91133928Y-95362000D01*
X91146188Y-95486482D01*
X91182498Y-95606180D01*
X91241463Y-95716494D01*
X91320815Y-95813185D01*
X91337649Y-95827000D01*
X91017751Y-95827000D01*
X90962000Y-95821509D01*
X90906249Y-95827000D01*
X90093751Y-95827000D01*
X90037999Y-95821509D01*
X89982248Y-95827000D01*
X89093751Y-95827000D01*
X89037999Y-95821509D01*
X88982248Y-95827000D01*
X87761952Y-95827000D01*
X87779128Y-95806072D01*
X87859411Y-95708247D01*
X87941589Y-95554502D01*
X87992195Y-95387678D01*
X87993764Y-95371744D01*
X88005000Y-95257665D01*
X88005000Y-95257657D01*
X88009281Y-95214188D01*
X88005000Y-95170719D01*
X88005000Y-95107191D01*
X88008072Y-95076000D01*
X88008072Y-94762000D01*
X91133928Y-94762000D01*
X91137000Y-94776250D01*
X91295750Y-94935000D01*
X92295000Y-94935000D01*
X92295000Y-94285750D01*
X92549000Y-94285750D01*
X92549000Y-94935000D01*
X93548250Y-94935000D01*
X93707000Y-94776250D01*
X93710072Y-94762000D01*
X93697812Y-94637518D01*
X93661502Y-94517820D01*
X93602537Y-94407506D01*
X93523185Y-94310815D01*
X93426494Y-94231463D01*
X93316180Y-94172498D01*
X93196482Y-94136188D01*
X93072000Y-94123928D01*
X92707750Y-94127000D01*
X92549000Y-94285750D01*
X92295000Y-94285750D01*
X92136250Y-94127000D01*
X91772000Y-94123928D01*
X91647518Y-94136188D01*
X91527820Y-94172498D01*
X91417506Y-94231463D01*
X91320815Y-94310815D01*
X91241463Y-94407506D01*
X91182498Y-94517820D01*
X91146188Y-94637518D01*
X91133928Y-94762000D01*
X88008072Y-94762000D01*
X88008072Y-93964072D01*
X89120000Y-93964072D01*
X89268868Y-93949410D01*
X89412015Y-93905987D01*
X89543940Y-93835471D01*
X89659573Y-93740573D01*
X89754471Y-93624940D01*
X89824987Y-93493015D01*
X89868410Y-93349868D01*
X89883072Y-93201000D01*
X89883072Y-93036000D01*
X90986678Y-93036000D01*
X91024000Y-93039676D01*
X91061322Y-93036000D01*
X91061333Y-93036000D01*
X91172986Y-93025003D01*
X91316247Y-92981546D01*
X91448276Y-92910974D01*
X91564001Y-92816001D01*
X91587803Y-92786998D01*
X92039802Y-92335000D01*
X92101939Y-92335000D01*
X92301898Y-92295226D01*
X92490256Y-92217205D01*
X92659774Y-92103937D01*
X92803937Y-91959774D01*
X92917205Y-91790256D01*
X92946306Y-91720000D01*
X93096928Y-91720000D01*
X93109188Y-91844482D01*
X93145498Y-91964180D01*
X93204463Y-92074494D01*
X93283815Y-92171185D01*
X93380506Y-92250537D01*
X93490820Y-92309502D01*
X93610518Y-92345812D01*
X93735000Y-92358072D01*
X94622469Y-92355384D01*
X94604774Y-92398102D01*
X94565000Y-92598061D01*
X94565000Y-92801939D01*
X94604774Y-93001898D01*
X94682795Y-93190256D01*
X94796063Y-93359774D01*
X94940226Y-93503937D01*
X95109744Y-93617205D01*
X95298102Y-93695226D01*
X95450064Y-93725453D01*
X95451000Y-93760250D01*
X95609750Y-93919000D01*
X96409000Y-93919000D01*
X96409000Y-93899000D01*
X96663000Y-93899000D01*
X96663000Y-93919000D01*
X97462250Y-93919000D01*
X97621000Y-93760250D01*
X97624072Y-93646000D01*
X97611812Y-93521518D01*
X97575502Y-93401820D01*
X97516537Y-93291506D01*
X97437185Y-93194815D01*
X97340494Y-93115463D01*
X97230180Y-93056498D01*
X97110482Y-93020188D01*
X96986000Y-93007928D01*
X96821750Y-93011000D01*
X96663002Y-93169748D01*
X96663002Y-93011000D01*
X96591456Y-93011000D01*
X96595226Y-93001898D01*
X96635000Y-92801939D01*
X96635000Y-92598061D01*
X96595226Y-92398102D01*
X96560832Y-92315068D01*
X96579180Y-92309502D01*
X96689494Y-92250537D01*
X96786185Y-92171185D01*
X96865537Y-92074494D01*
X96924502Y-91964180D01*
X96960812Y-91844482D01*
X96973072Y-91720000D01*
X96970000Y-91105750D01*
X96811250Y-90947000D01*
X95162000Y-90947000D01*
X95162000Y-90967000D01*
X94908000Y-90967000D01*
X94908000Y-90947000D01*
X93258750Y-90947000D01*
X93100000Y-91105750D01*
X93096928Y-91720000D01*
X92946306Y-91720000D01*
X92995226Y-91601898D01*
X93035000Y-91401939D01*
X93035000Y-91198061D01*
X92995226Y-90998102D01*
X92917205Y-90809744D01*
X92803937Y-90640226D01*
X92682811Y-90519100D01*
X92900000Y-90540491D01*
X93099933Y-90520799D01*
X93100000Y-90534250D01*
X93258750Y-90693000D01*
X94908000Y-90693000D01*
X94908000Y-90673000D01*
X95162000Y-90673000D01*
X95162000Y-90693000D01*
X96811250Y-90693000D01*
X96970000Y-90534250D01*
X96973072Y-89920000D01*
X96963223Y-89820000D01*
X96973072Y-89720000D01*
X107496928Y-89720000D01*
X107506777Y-89820000D01*
X107496928Y-89920000D01*
X107496928Y-91720000D01*
X107509188Y-91844482D01*
X107545498Y-91964180D01*
X107604463Y-92074494D01*
X107683815Y-92171185D01*
X107780506Y-92250537D01*
X107890820Y-92309502D01*
X108010518Y-92345812D01*
X108135000Y-92358072D01*
X110735000Y-92358072D01*
X110859482Y-92345812D01*
X110911607Y-92330000D01*
X111584828Y-92330000D01*
X111658998Y-92337305D01*
X111733168Y-92330000D01*
X111733176Y-92330000D01*
X111885472Y-92315000D01*
X112764176Y-92315000D01*
X112986010Y-92293151D01*
X113270646Y-92206808D01*
X113371314Y-92153000D01*
X114648000Y-92153000D01*
X114648000Y-91278750D01*
X114489250Y-91120000D01*
X114413072Y-91119713D01*
X114413072Y-90490287D01*
X114489250Y-90490000D01*
X114648000Y-90331250D01*
X114648000Y-89457000D01*
X113371314Y-89457000D01*
X113270646Y-89403192D01*
X112986010Y-89316849D01*
X112764176Y-89295000D01*
X111748168Y-89295000D01*
X111673997Y-89287695D01*
X111599827Y-89295000D01*
X111484278Y-89295000D01*
X111411166Y-89309543D01*
X111406526Y-89310000D01*
X111371021Y-89310000D01*
X111370000Y-89105750D01*
X111211250Y-88947000D01*
X109562000Y-88947000D01*
X109562000Y-88967000D01*
X109308000Y-88967000D01*
X109308000Y-88947000D01*
X107658750Y-88947000D01*
X107500000Y-89105750D01*
X107496928Y-89720000D01*
X96973072Y-89720000D01*
X96973072Y-88805000D01*
X113036928Y-88805000D01*
X113040000Y-89044250D01*
X113198750Y-89203000D01*
X114648000Y-89203000D01*
X114648000Y-88328750D01*
X114489250Y-88170000D01*
X113675000Y-88166928D01*
X113550518Y-88179188D01*
X113430820Y-88215498D01*
X113320506Y-88274463D01*
X113223815Y-88353815D01*
X113144463Y-88450506D01*
X113085498Y-88560820D01*
X113049188Y-88680518D01*
X113036928Y-88805000D01*
X96973072Y-88805000D01*
X96973072Y-87920000D01*
X96963223Y-87820000D01*
X96973072Y-87720000D01*
X96973072Y-85984858D01*
X96998102Y-85995226D01*
X97198061Y-86035000D01*
X97401939Y-86035000D01*
X97601898Y-85995226D01*
X97790256Y-85917205D01*
X97959774Y-85803937D01*
X98103937Y-85659774D01*
X98217205Y-85490256D01*
X98295226Y-85301898D01*
X98335000Y-85101939D01*
X98335000Y-84898061D01*
X98295226Y-84698102D01*
X98217205Y-84509744D01*
X98103937Y-84340226D01*
X97959774Y-84196063D01*
X97790256Y-84082795D01*
X97601898Y-84004774D01*
X97518767Y-83988238D01*
X97690256Y-83917205D01*
X97859774Y-83803937D01*
X98003937Y-83659774D01*
X98117205Y-83490256D01*
X98195226Y-83301898D01*
X98235000Y-83101939D01*
X98235000Y-82898061D01*
X98195226Y-82698102D01*
X98117205Y-82509744D01*
X98003937Y-82340226D01*
X97859774Y-82196063D01*
X97690256Y-82082795D01*
X97501898Y-82004774D01*
X97301939Y-81965000D01*
X97098061Y-81965000D01*
X96973072Y-81989862D01*
X96973072Y-81920000D01*
X96963223Y-81820000D01*
X96973072Y-81720000D01*
X96973072Y-79920000D01*
X96964034Y-79828232D01*
X96998061Y-79835000D01*
X97201939Y-79835000D01*
X97401898Y-79795226D01*
X97590256Y-79717205D01*
X97759774Y-79603937D01*
X97903937Y-79459774D01*
X98017205Y-79290256D01*
X98095226Y-79101898D01*
X98135000Y-78901939D01*
X98135000Y-78698061D01*
X98095226Y-78498102D01*
X98017205Y-78309744D01*
X97903937Y-78140226D01*
X97759774Y-77996063D01*
X97590256Y-77882795D01*
X97401898Y-77804774D01*
X97201939Y-77765000D01*
X96998061Y-77765000D01*
X96968052Y-77770969D01*
X96973072Y-77720000D01*
X96970000Y-77105750D01*
X96811250Y-76947000D01*
X95162000Y-76947000D01*
X95162000Y-76967000D01*
X94908000Y-76967000D01*
X94908000Y-76947000D01*
X93258750Y-76947000D01*
X93100000Y-77105750D01*
X93096928Y-77720000D01*
X93106777Y-77820000D01*
X93096928Y-77920000D01*
X93096928Y-78903785D01*
X92901939Y-78865000D01*
X92698061Y-78865000D01*
X92498102Y-78904774D01*
X92309744Y-78982795D01*
X92140226Y-79096063D01*
X91996063Y-79240226D01*
X91882795Y-79409744D01*
X91804774Y-79598102D01*
X91765000Y-79798061D01*
X91765000Y-80001939D01*
X91804774Y-80201898D01*
X91882795Y-80390256D01*
X91996063Y-80559774D01*
X92140226Y-80703937D01*
X92272739Y-80792479D01*
X90257703Y-82807515D01*
X90217205Y-82709744D01*
X90103937Y-82540226D01*
X89959774Y-82396063D01*
X89790256Y-82282795D01*
X89601898Y-82204774D01*
X89401939Y-82165000D01*
X89328577Y-82165000D01*
X89845050Y-81648527D01*
X89878818Y-81620814D01*
X89910659Y-81582017D01*
X89989411Y-81486057D01*
X89990339Y-81484321D01*
X90071590Y-81332310D01*
X90118275Y-81178412D01*
X90122196Y-81165488D01*
X90126035Y-81126510D01*
X90135001Y-81035474D01*
X90135001Y-81035467D01*
X90139282Y-80991998D01*
X90135001Y-80948529D01*
X90135001Y-77133468D01*
X90139282Y-77089999D01*
X90135001Y-77046530D01*
X90135001Y-77046522D01*
X90122196Y-76916509D01*
X90071590Y-76749686D01*
X89989412Y-76595940D01*
X89905525Y-76493724D01*
X90090256Y-76417205D01*
X90259774Y-76303937D01*
X90403937Y-76159774D01*
X90517205Y-75990256D01*
X90546306Y-75920000D01*
X93096928Y-75920000D01*
X93100000Y-76534250D01*
X93258750Y-76693000D01*
X94908000Y-76693000D01*
X94908000Y-75443750D01*
X95162000Y-75443750D01*
X95162000Y-76693000D01*
X96811250Y-76693000D01*
X96970000Y-76534250D01*
X96973072Y-75920000D01*
X96960812Y-75795518D01*
X96924502Y-75675820D01*
X96882939Y-75598061D01*
X102965000Y-75598061D01*
X102965000Y-75801939D01*
X103004774Y-76001898D01*
X103082795Y-76190256D01*
X103196063Y-76359774D01*
X103340226Y-76503937D01*
X103509744Y-76617205D01*
X103698102Y-76695226D01*
X103898061Y-76735000D01*
X104101939Y-76735000D01*
X104301898Y-76695226D01*
X104490256Y-76617205D01*
X104659774Y-76503937D01*
X104803937Y-76359774D01*
X104917205Y-76190256D01*
X104995226Y-76001898D01*
X105011516Y-75920000D01*
X107496928Y-75920000D01*
X107496928Y-77720000D01*
X107506777Y-77820000D01*
X107496928Y-77920000D01*
X107496928Y-79720000D01*
X107506777Y-79820000D01*
X107496928Y-79920000D01*
X107496928Y-81720000D01*
X107506777Y-81820000D01*
X107496928Y-81920000D01*
X107496928Y-83720000D01*
X107506777Y-83820000D01*
X107496928Y-83920000D01*
X107496928Y-85720000D01*
X107506777Y-85820000D01*
X107496928Y-85920000D01*
X107496928Y-87720000D01*
X107506777Y-87820000D01*
X107496928Y-87920000D01*
X107500000Y-88534250D01*
X107658750Y-88693000D01*
X109308000Y-88693000D01*
X109308000Y-88673000D01*
X109562000Y-88673000D01*
X109562000Y-88693000D01*
X111211250Y-88693000D01*
X111370000Y-88534250D01*
X111373072Y-87920000D01*
X111363223Y-87820000D01*
X111373072Y-87720000D01*
X111373072Y-85920000D01*
X111363223Y-85820000D01*
X111373072Y-85720000D01*
X111373072Y-85231480D01*
X111440000Y-85238072D01*
X111474250Y-85235000D01*
X111633000Y-85076250D01*
X111633000Y-84432000D01*
X111887000Y-84432000D01*
X111887000Y-85076250D01*
X112045750Y-85235000D01*
X112080000Y-85238072D01*
X112204482Y-85225812D01*
X112324180Y-85189502D01*
X112434494Y-85130537D01*
X112531185Y-85051185D01*
X112610537Y-84954494D01*
X112669502Y-84844180D01*
X112705812Y-84724482D01*
X112718072Y-84600000D01*
X112715000Y-84590750D01*
X112556250Y-84432000D01*
X111887000Y-84432000D01*
X111633000Y-84432000D01*
X111613000Y-84432000D01*
X111613000Y-84268072D01*
X111932500Y-84268072D01*
X112085757Y-84252977D01*
X112233125Y-84208274D01*
X112289763Y-84178000D01*
X112556250Y-84178000D01*
X112715000Y-84019250D01*
X112718072Y-84010000D01*
X112705812Y-83885518D01*
X112669502Y-83765820D01*
X112665688Y-83758684D01*
X112702977Y-83635757D01*
X112718072Y-83482500D01*
X112718072Y-83187500D01*
X112702977Y-83034243D01*
X112658274Y-82886875D01*
X112645000Y-82862041D01*
X112645000Y-82813809D01*
X112659774Y-82803937D01*
X112803937Y-82659774D01*
X112917205Y-82490256D01*
X112995226Y-82301898D01*
X113035000Y-82101939D01*
X113035000Y-81898061D01*
X112995226Y-81698102D01*
X112917205Y-81509744D01*
X112803937Y-81340226D01*
X112659774Y-81196063D01*
X112490256Y-81082795D01*
X112301898Y-81004774D01*
X112101939Y-80965000D01*
X111898061Y-80965000D01*
X111698102Y-81004774D01*
X111509744Y-81082795D01*
X111373072Y-81174116D01*
X111373072Y-79920000D01*
X111363223Y-79820000D01*
X111373072Y-79720000D01*
X111373072Y-77920000D01*
X111363223Y-77820000D01*
X111373072Y-77720000D01*
X111373072Y-76071349D01*
X112195256Y-76071349D01*
X112399362Y-76427867D01*
X112842223Y-76658575D01*
X113321583Y-76798452D01*
X113819021Y-76842123D01*
X114315422Y-76787909D01*
X114791707Y-76637894D01*
X115184638Y-76427867D01*
X115388744Y-76071349D01*
X113792000Y-74474605D01*
X112195256Y-76071349D01*
X111373072Y-76071349D01*
X111373072Y-75920000D01*
X111360812Y-75795518D01*
X111324502Y-75675820D01*
X111265537Y-75565506D01*
X111186185Y-75468815D01*
X111089494Y-75389463D01*
X110979180Y-75330498D01*
X110859482Y-75294188D01*
X110735000Y-75281928D01*
X108135000Y-75281928D01*
X108010518Y-75294188D01*
X107890820Y-75330498D01*
X107780506Y-75389463D01*
X107683815Y-75468815D01*
X107604463Y-75565506D01*
X107545498Y-75675820D01*
X107509188Y-75795518D01*
X107496928Y-75920000D01*
X105011516Y-75920000D01*
X105035000Y-75801939D01*
X105035000Y-75598061D01*
X104995226Y-75398102D01*
X104917205Y-75209744D01*
X104803937Y-75040226D01*
X104659774Y-74896063D01*
X104490256Y-74782795D01*
X104301898Y-74704774D01*
X104101939Y-74665000D01*
X103898061Y-74665000D01*
X103698102Y-74704774D01*
X103509744Y-74782795D01*
X103340226Y-74896063D01*
X103196063Y-75040226D01*
X103082795Y-75209744D01*
X103004774Y-75398102D01*
X102965000Y-75598061D01*
X96882939Y-75598061D01*
X96865537Y-75565506D01*
X96786185Y-75468815D01*
X96689494Y-75389463D01*
X96579180Y-75330498D01*
X96459482Y-75294188D01*
X96335000Y-75281928D01*
X95320750Y-75285000D01*
X95162000Y-75443750D01*
X94908000Y-75443750D01*
X94749250Y-75285000D01*
X93735000Y-75281928D01*
X93610518Y-75294188D01*
X93490820Y-75330498D01*
X93380506Y-75389463D01*
X93283815Y-75468815D01*
X93204463Y-75565506D01*
X93145498Y-75675820D01*
X93109188Y-75795518D01*
X93096928Y-75920000D01*
X90546306Y-75920000D01*
X90595226Y-75801898D01*
X90635000Y-75601939D01*
X90635000Y-75398061D01*
X90595226Y-75198102D01*
X90517205Y-75009744D01*
X90485000Y-74961546D01*
X90485000Y-74842959D01*
X90498274Y-74818125D01*
X90542977Y-74670757D01*
X90558072Y-74517500D01*
X90558072Y-74222500D01*
X90542977Y-74069243D01*
X90498274Y-73921875D01*
X90488019Y-73902689D01*
X90509744Y-73917205D01*
X90698102Y-73995226D01*
X90898061Y-74035000D01*
X91101939Y-74035000D01*
X91301898Y-73995226D01*
X91490256Y-73917205D01*
X91659774Y-73803937D01*
X91786821Y-73676890D01*
X92774048Y-73676890D01*
X92774048Y-73923110D01*
X92822083Y-74164598D01*
X92916307Y-74392074D01*
X93053099Y-74596798D01*
X93227202Y-74770901D01*
X93431926Y-74907693D01*
X93659402Y-75001917D01*
X93900890Y-75049952D01*
X94147110Y-75049952D01*
X94388598Y-75001917D01*
X94616074Y-74907693D01*
X94820798Y-74770901D01*
X94994901Y-74596798D01*
X95131693Y-74392074D01*
X95225917Y-74164598D01*
X95273952Y-73923110D01*
X95273952Y-73876890D01*
X108274048Y-73876890D01*
X108274048Y-74123110D01*
X108322083Y-74364598D01*
X108416307Y-74592074D01*
X108553099Y-74796798D01*
X108727202Y-74970901D01*
X108931926Y-75107693D01*
X109159402Y-75201917D01*
X109400890Y-75249952D01*
X109647110Y-75249952D01*
X109888598Y-75201917D01*
X110116074Y-75107693D01*
X110320798Y-74970901D01*
X110494901Y-74796798D01*
X110631693Y-74592074D01*
X110725917Y-74364598D01*
X110734386Y-74322021D01*
X111244877Y-74322021D01*
X111299091Y-74818422D01*
X111449106Y-75294707D01*
X111659133Y-75687638D01*
X112015651Y-75891744D01*
X113612395Y-74295000D01*
X112015651Y-72698256D01*
X111659133Y-72902362D01*
X111428425Y-73345223D01*
X111288548Y-73824583D01*
X111244877Y-74322021D01*
X110734386Y-74322021D01*
X110773952Y-74123110D01*
X110773952Y-73876890D01*
X110725917Y-73635402D01*
X110631693Y-73407926D01*
X110494901Y-73203202D01*
X110320798Y-73029099D01*
X110116074Y-72892307D01*
X109888598Y-72798083D01*
X109647110Y-72750048D01*
X109400890Y-72750048D01*
X109159402Y-72798083D01*
X108931926Y-72892307D01*
X108727202Y-73029099D01*
X108553099Y-73203202D01*
X108416307Y-73407926D01*
X108322083Y-73635402D01*
X108274048Y-73876890D01*
X95273952Y-73876890D01*
X95273952Y-73676890D01*
X95225917Y-73435402D01*
X95131693Y-73207926D01*
X94994901Y-73003202D01*
X94820798Y-72829099D01*
X94616074Y-72692307D01*
X94388598Y-72598083D01*
X94147110Y-72550048D01*
X93900890Y-72550048D01*
X93659402Y-72598083D01*
X93431926Y-72692307D01*
X93227202Y-72829099D01*
X93053099Y-73003202D01*
X92916307Y-73207926D01*
X92822083Y-73435402D01*
X92774048Y-73676890D01*
X91786821Y-73676890D01*
X91803937Y-73659774D01*
X91917205Y-73490256D01*
X91995226Y-73301898D01*
X92035000Y-73101939D01*
X92035000Y-72898061D01*
X91995226Y-72698102D01*
X91917205Y-72509744D01*
X91853899Y-72415000D01*
X112254596Y-72415000D01*
X112195256Y-72518651D01*
X113792000Y-74115395D01*
X113806143Y-74101253D01*
X113985748Y-74280858D01*
X113971605Y-74295000D01*
X115568349Y-75891744D01*
X115672001Y-75832403D01*
X115672000Y-88167694D01*
X115060750Y-88170000D01*
X114902000Y-88328750D01*
X114902000Y-89203000D01*
X114922000Y-89203000D01*
X114922000Y-89457000D01*
X114902000Y-89457000D01*
X114902000Y-90331250D01*
X115060750Y-90490000D01*
X115672000Y-90492306D01*
X115672000Y-91117694D01*
X115060750Y-91120000D01*
X114902000Y-91278750D01*
X114902000Y-92153000D01*
X114922000Y-92153000D01*
X114922000Y-92407000D01*
X114902000Y-92407000D01*
X114902000Y-93281250D01*
X115060750Y-93440000D01*
X115672000Y-93442306D01*
X115672000Y-99427596D01*
X115568349Y-99368256D01*
X113971605Y-100965000D01*
X113985748Y-100979143D01*
X113806143Y-101158748D01*
X113792000Y-101144605D01*
X112195256Y-102741349D01*
X112254596Y-102845000D01*
X108524090Y-102845000D01*
X108617962Y-102767962D01*
X108728405Y-102633386D01*
X108810472Y-102479850D01*
X108861008Y-102313254D01*
X108878072Y-102140000D01*
X108878072Y-100992021D01*
X111244877Y-100992021D01*
X111299091Y-101488422D01*
X111449106Y-101964707D01*
X111659133Y-102357638D01*
X112015651Y-102561744D01*
X113612395Y-100965000D01*
X112015651Y-99368256D01*
X111659133Y-99572362D01*
X111428425Y-100015223D01*
X111288548Y-100494583D01*
X111244877Y-100992021D01*
X108878072Y-100992021D01*
X108878072Y-99240000D01*
X108873015Y-99188651D01*
X112195256Y-99188651D01*
X113792000Y-100785395D01*
X115388744Y-99188651D01*
X115184638Y-98832133D01*
X114741777Y-98601425D01*
X114262417Y-98461548D01*
X113764979Y-98417877D01*
X113268578Y-98472091D01*
X112792293Y-98622106D01*
X112399362Y-98832133D01*
X112195256Y-99188651D01*
X108873015Y-99188651D01*
X108861008Y-99066746D01*
X108810472Y-98900150D01*
X108728405Y-98746614D01*
X108617962Y-98612038D01*
X108483386Y-98501595D01*
X108329850Y-98419528D01*
X108163254Y-98368992D01*
X107990000Y-98351928D01*
X106990000Y-98351928D01*
X106816746Y-98368992D01*
X106650150Y-98419528D01*
X106496614Y-98501595D01*
X106362038Y-98612038D01*
X106251595Y-98746614D01*
X106169528Y-98900150D01*
X106118992Y-99066746D01*
X106101928Y-99240000D01*
X106101928Y-102140000D01*
X106118992Y-102313254D01*
X106169528Y-102479850D01*
X106251595Y-102633386D01*
X106362038Y-102767962D01*
X106455910Y-102845000D01*
X101824090Y-102845000D01*
X101917962Y-102767962D01*
X102028405Y-102633386D01*
X102110472Y-102479850D01*
X102161008Y-102313254D01*
X102178072Y-102140000D01*
X102178072Y-99240000D01*
X102161008Y-99066746D01*
X102110472Y-98900150D01*
X102028405Y-98746614D01*
X101917962Y-98612038D01*
X101783386Y-98501595D01*
X101629850Y-98419528D01*
X101463254Y-98368992D01*
X101290000Y-98351928D01*
X100290000Y-98351928D01*
X100116746Y-98368992D01*
X99950150Y-98419528D01*
X99796614Y-98501595D01*
X99662038Y-98612038D01*
X99598666Y-98689257D01*
X99596000Y-98329750D01*
X99437250Y-98171000D01*
X98600500Y-98171000D01*
X98600500Y-99220250D01*
X98759250Y-99379000D01*
X98961000Y-99382072D01*
X99085482Y-99369812D01*
X99205180Y-99333502D01*
X99315494Y-99274537D01*
X99405828Y-99200402D01*
X99401928Y-99240000D01*
X99401928Y-102140000D01*
X99418992Y-102313254D01*
X99469528Y-102479850D01*
X99551595Y-102633386D01*
X99662038Y-102767962D01*
X99755910Y-102845000D01*
X75832404Y-102845000D01*
X75891744Y-102741349D01*
X74295000Y-101144605D01*
X74280858Y-101158748D01*
X74101253Y-100979143D01*
X74115395Y-100965000D01*
X74474605Y-100965000D01*
X76071349Y-102561744D01*
X76427867Y-102357638D01*
X76658575Y-101914777D01*
X76798452Y-101435417D01*
X76842123Y-100937979D01*
X76835452Y-100876890D01*
X76874048Y-100876890D01*
X76874048Y-101123110D01*
X76922083Y-101364598D01*
X77016307Y-101592074D01*
X77153099Y-101796798D01*
X77327202Y-101970901D01*
X77531926Y-102107693D01*
X77759402Y-102201917D01*
X78000890Y-102249952D01*
X78247110Y-102249952D01*
X78488598Y-102201917D01*
X78716074Y-102107693D01*
X78920798Y-101970901D01*
X79094901Y-101796798D01*
X79231693Y-101592074D01*
X79278115Y-101480000D01*
X79541928Y-101480000D01*
X79554188Y-101604482D01*
X79590498Y-101724180D01*
X79649463Y-101834494D01*
X79728815Y-101931185D01*
X79825506Y-102010537D01*
X79935820Y-102069502D01*
X80055518Y-102105812D01*
X80180000Y-102118072D01*
X80214250Y-102115000D01*
X80373000Y-101956250D01*
X80373000Y-101312000D01*
X80627000Y-101312000D01*
X80627000Y-101956250D01*
X80785750Y-102115000D01*
X80820000Y-102118072D01*
X80944482Y-102105812D01*
X81064180Y-102069502D01*
X81174494Y-102010537D01*
X81271185Y-101931185D01*
X81350537Y-101834494D01*
X81409502Y-101724180D01*
X81445812Y-101604482D01*
X81458072Y-101480000D01*
X82091928Y-101480000D01*
X82104188Y-101604482D01*
X82140498Y-101724180D01*
X82199463Y-101834494D01*
X82278815Y-101931185D01*
X82375506Y-102010537D01*
X82485820Y-102069502D01*
X82605518Y-102105812D01*
X82730000Y-102118072D01*
X82764250Y-102115000D01*
X82923000Y-101956250D01*
X82923000Y-101312000D01*
X83177000Y-101312000D01*
X83177000Y-101956250D01*
X83335750Y-102115000D01*
X83370000Y-102118072D01*
X83494482Y-102105812D01*
X83614180Y-102069502D01*
X83724494Y-102010537D01*
X83821185Y-101931185D01*
X83900537Y-101834494D01*
X83959502Y-101724180D01*
X83995812Y-101604482D01*
X84008072Y-101480000D01*
X84005000Y-101470750D01*
X83846250Y-101312000D01*
X83177000Y-101312000D01*
X82923000Y-101312000D01*
X82253750Y-101312000D01*
X82095000Y-101470750D01*
X82091928Y-101480000D01*
X81458072Y-101480000D01*
X81455000Y-101470750D01*
X81296250Y-101312000D01*
X80627000Y-101312000D01*
X80373000Y-101312000D01*
X79703750Y-101312000D01*
X79545000Y-101470750D01*
X79541928Y-101480000D01*
X79278115Y-101480000D01*
X79325917Y-101364598D01*
X79373952Y-101123110D01*
X79373952Y-100876890D01*
X79325917Y-100635402D01*
X79231693Y-100407926D01*
X79094901Y-100203202D01*
X78920798Y-100029099D01*
X78716074Y-99892307D01*
X78488598Y-99798083D01*
X78247110Y-99750048D01*
X78000890Y-99750048D01*
X77759402Y-99798083D01*
X77531926Y-99892307D01*
X77327202Y-100029099D01*
X77153099Y-100203202D01*
X77016307Y-100407926D01*
X76922083Y-100635402D01*
X76874048Y-100876890D01*
X76835452Y-100876890D01*
X76787909Y-100441578D01*
X76637894Y-99965293D01*
X76427867Y-99572362D01*
X76071349Y-99368256D01*
X74474605Y-100965000D01*
X74115395Y-100965000D01*
X72518651Y-99368256D01*
X72415000Y-99427596D01*
X72415000Y-99188651D01*
X72698256Y-99188651D01*
X74295000Y-100785395D01*
X75891744Y-99188651D01*
X75687638Y-98832133D01*
X75244777Y-98601425D01*
X74765417Y-98461548D01*
X74267979Y-98417877D01*
X73771578Y-98472091D01*
X73295293Y-98622106D01*
X72902362Y-98832133D01*
X72698256Y-99188651D01*
X72415000Y-99188651D01*
X72415000Y-96876890D01*
X72853524Y-96876890D01*
X72898175Y-97024099D01*
X73023359Y-97286920D01*
X73197412Y-97520269D01*
X73413645Y-97715178D01*
X73663748Y-97864157D01*
X73938109Y-97961481D01*
X74168000Y-97840814D01*
X74168000Y-96647000D01*
X74422000Y-96647000D01*
X74422000Y-97840814D01*
X74651891Y-97961481D01*
X74926252Y-97864157D01*
X75176355Y-97715178D01*
X75392588Y-97520269D01*
X75566641Y-97286920D01*
X75691825Y-97024099D01*
X75736476Y-96876890D01*
X75615155Y-96647000D01*
X74422000Y-96647000D01*
X74168000Y-96647000D01*
X72974845Y-96647000D01*
X72853524Y-96876890D01*
X72415000Y-96876890D01*
X72415000Y-77890000D01*
X72806928Y-77890000D01*
X72806928Y-79590000D01*
X72819188Y-79714482D01*
X72855498Y-79834180D01*
X72914463Y-79944494D01*
X72993815Y-80041185D01*
X73090506Y-80120537D01*
X73200820Y-80179502D01*
X73273380Y-80201513D01*
X73141525Y-80333368D01*
X72979010Y-80576589D01*
X72867068Y-80846842D01*
X72810000Y-81133740D01*
X72810000Y-81426260D01*
X72867068Y-81713158D01*
X72979010Y-81983411D01*
X73141525Y-82226632D01*
X73348368Y-82433475D01*
X73522760Y-82550000D01*
X73348368Y-82666525D01*
X73141525Y-82873368D01*
X72979010Y-83116589D01*
X72867068Y-83386842D01*
X72810000Y-83673740D01*
X72810000Y-83966260D01*
X72867068Y-84253158D01*
X72979010Y-84523411D01*
X73141525Y-84766632D01*
X73348368Y-84973475D01*
X73522760Y-85090000D01*
X73348368Y-85206525D01*
X73141525Y-85413368D01*
X72979010Y-85656589D01*
X72867068Y-85926842D01*
X72810000Y-86213740D01*
X72810000Y-86506260D01*
X72867068Y-86793158D01*
X72979010Y-87063411D01*
X73141525Y-87306632D01*
X73348368Y-87513475D01*
X73522760Y-87630000D01*
X73348368Y-87746525D01*
X73141525Y-87953368D01*
X72979010Y-88196589D01*
X72867068Y-88466842D01*
X72810000Y-88753740D01*
X72810000Y-89046260D01*
X72867068Y-89333158D01*
X72979010Y-89603411D01*
X73141525Y-89846632D01*
X73348368Y-90053475D01*
X73522760Y-90170000D01*
X73348368Y-90286525D01*
X73141525Y-90493368D01*
X72979010Y-90736589D01*
X72867068Y-91006842D01*
X72810000Y-91293740D01*
X72810000Y-91586260D01*
X72867068Y-91873158D01*
X72979010Y-92143411D01*
X73141525Y-92386632D01*
X73348368Y-92593475D01*
X73522760Y-92710000D01*
X73348368Y-92826525D01*
X73141525Y-93033368D01*
X72979010Y-93276589D01*
X72867068Y-93546842D01*
X72810000Y-93833740D01*
X72810000Y-94126260D01*
X72867068Y-94413158D01*
X72979010Y-94683411D01*
X73141525Y-94926632D01*
X73348368Y-95133475D01*
X73530534Y-95255195D01*
X73413645Y-95324822D01*
X73197412Y-95519731D01*
X73023359Y-95753080D01*
X72898175Y-96015901D01*
X72853524Y-96163110D01*
X72974845Y-96393000D01*
X74168000Y-96393000D01*
X74168000Y-96373000D01*
X74422000Y-96373000D01*
X74422000Y-96393000D01*
X75615155Y-96393000D01*
X75736476Y-96163110D01*
X75691825Y-96015901D01*
X75566641Y-95753080D01*
X75392588Y-95519731D01*
X75176355Y-95324822D01*
X75059466Y-95255195D01*
X75241632Y-95133475D01*
X75448475Y-94926632D01*
X75610990Y-94683411D01*
X75722932Y-94413158D01*
X75780000Y-94126260D01*
X75780000Y-93833740D01*
X75722932Y-93546842D01*
X75610990Y-93276589D01*
X75448475Y-93033368D01*
X75241632Y-92826525D01*
X75067240Y-92710000D01*
X75241632Y-92593475D01*
X75448475Y-92386632D01*
X75610990Y-92143411D01*
X75722932Y-91873158D01*
X75780000Y-91586260D01*
X75780000Y-91293740D01*
X75722932Y-91006842D01*
X75610990Y-90736589D01*
X75448475Y-90493368D01*
X75241632Y-90286525D01*
X75067240Y-90170000D01*
X75241632Y-90053475D01*
X75448475Y-89846632D01*
X75610990Y-89603411D01*
X75722932Y-89333158D01*
X75780000Y-89046260D01*
X75780000Y-88753740D01*
X75722932Y-88466842D01*
X75610990Y-88196589D01*
X75448475Y-87953368D01*
X75241632Y-87746525D01*
X75067240Y-87630000D01*
X75241632Y-87513475D01*
X75448475Y-87306632D01*
X75610990Y-87063411D01*
X75722932Y-86793158D01*
X75780000Y-86506260D01*
X75780000Y-86213740D01*
X75722932Y-85926842D01*
X75610990Y-85656589D01*
X75448475Y-85413368D01*
X75241632Y-85206525D01*
X75067240Y-85090000D01*
X75241632Y-84973475D01*
X75448475Y-84766632D01*
X75610990Y-84523411D01*
X75722932Y-84253158D01*
X75780000Y-83966260D01*
X75780000Y-83673740D01*
X75722932Y-83386842D01*
X75610990Y-83116589D01*
X75448475Y-82873368D01*
X75241632Y-82666525D01*
X75067240Y-82550000D01*
X75241632Y-82433475D01*
X75448475Y-82226632D01*
X75610990Y-81983411D01*
X75722932Y-81713158D01*
X75780000Y-81426260D01*
X75780000Y-81133740D01*
X75722932Y-80846842D01*
X75610990Y-80576589D01*
X75448475Y-80333368D01*
X75316620Y-80201513D01*
X75389180Y-80179502D01*
X75499494Y-80120537D01*
X75596185Y-80041185D01*
X75675537Y-79944494D01*
X75734502Y-79834180D01*
X75770812Y-79714482D01*
X75783072Y-79590000D01*
X75783072Y-77890000D01*
X75770812Y-77765518D01*
X75734502Y-77645820D01*
X75675537Y-77535506D01*
X75596185Y-77438815D01*
X75499494Y-77359463D01*
X75389180Y-77300498D01*
X75269482Y-77264188D01*
X75145000Y-77251928D01*
X73445000Y-77251928D01*
X73320518Y-77264188D01*
X73200820Y-77300498D01*
X73090506Y-77359463D01*
X72993815Y-77438815D01*
X72914463Y-77535506D01*
X72855498Y-77645820D01*
X72819188Y-77765518D01*
X72806928Y-77890000D01*
X72415000Y-77890000D01*
X72415000Y-76071349D01*
X72698256Y-76071349D01*
X72902362Y-76427867D01*
X73345223Y-76658575D01*
X73824583Y-76798452D01*
X74322021Y-76842123D01*
X74818422Y-76787909D01*
X75294707Y-76637894D01*
X75687638Y-76427867D01*
X75891744Y-76071349D01*
X74295000Y-74474605D01*
X72698256Y-76071349D01*
X72415000Y-76071349D01*
X72415000Y-75832404D01*
X72518651Y-75891744D01*
X74115395Y-74295000D01*
X74474605Y-74295000D01*
X76071349Y-75891744D01*
X76427867Y-75687638D01*
X76499569Y-75550000D01*
X77151928Y-75550000D01*
X77164188Y-75674482D01*
X77200498Y-75794180D01*
X77259463Y-75904494D01*
X77338815Y-76001185D01*
X77435506Y-76080537D01*
X77545820Y-76139502D01*
X77665518Y-76175812D01*
X77790000Y-76188072D01*
X77874250Y-76185000D01*
X78033000Y-76026250D01*
X78033000Y-74477000D01*
X77313750Y-74477000D01*
X77155000Y-74635750D01*
X77151928Y-75550000D01*
X76499569Y-75550000D01*
X76658575Y-75244777D01*
X76798452Y-74765417D01*
X76842123Y-74267979D01*
X76787909Y-73771578D01*
X76637894Y-73295293D01*
X76560233Y-73150000D01*
X77151928Y-73150000D01*
X77155000Y-74064250D01*
X77313750Y-74223000D01*
X78033000Y-74223000D01*
X78033000Y-72673750D01*
X78287000Y-72673750D01*
X78287000Y-74223000D01*
X78307000Y-74223000D01*
X78307000Y-74477000D01*
X78287000Y-74477000D01*
X78287000Y-76026250D01*
X78445750Y-76185000D01*
X78530000Y-76188072D01*
X78654482Y-76175812D01*
X78774180Y-76139502D01*
X78795000Y-76128373D01*
X78815820Y-76139502D01*
X78935518Y-76175812D01*
X79060000Y-76188072D01*
X79800000Y-76188072D01*
X79924482Y-76175812D01*
X80044180Y-76139502D01*
X80065000Y-76128373D01*
X80085820Y-76139502D01*
X80205518Y-76175812D01*
X80330000Y-76188072D01*
X80414250Y-76185000D01*
X80573000Y-76026250D01*
X80573000Y-74477000D01*
X80827000Y-74477000D01*
X80827000Y-76026250D01*
X80985750Y-76185000D01*
X81070000Y-76188072D01*
X81194482Y-76175812D01*
X81314180Y-76139502D01*
X81335000Y-76128373D01*
X81355820Y-76139502D01*
X81475518Y-76175812D01*
X81600000Y-76188072D01*
X81684250Y-76185000D01*
X81843000Y-76026250D01*
X81843000Y-74477000D01*
X80827000Y-74477000D01*
X80573000Y-74477000D01*
X80553000Y-74477000D01*
X80553000Y-74223000D01*
X80573000Y-74223000D01*
X80573000Y-72673750D01*
X80827000Y-72673750D01*
X80827000Y-74223000D01*
X81843000Y-74223000D01*
X81843000Y-72673750D01*
X81684250Y-72515000D01*
X81600000Y-72511928D01*
X81475518Y-72524188D01*
X81355820Y-72560498D01*
X81335000Y-72571627D01*
X81314180Y-72560498D01*
X81194482Y-72524188D01*
X81070000Y-72511928D01*
X80985750Y-72515000D01*
X80827000Y-72673750D01*
X80573000Y-72673750D01*
X80414250Y-72515000D01*
X80330000Y-72511928D01*
X80205518Y-72524188D01*
X80085820Y-72560498D01*
X80065000Y-72571627D01*
X80044180Y-72560498D01*
X79924482Y-72524188D01*
X79800000Y-72511928D01*
X79060000Y-72511928D01*
X78935518Y-72524188D01*
X78815820Y-72560498D01*
X78795000Y-72571627D01*
X78774180Y-72560498D01*
X78654482Y-72524188D01*
X78530000Y-72511928D01*
X78445750Y-72515000D01*
X78287000Y-72673750D01*
X78033000Y-72673750D01*
X77874250Y-72515000D01*
X77790000Y-72511928D01*
X77665518Y-72524188D01*
X77545820Y-72560498D01*
X77435506Y-72619463D01*
X77338815Y-72698815D01*
X77259463Y-72795506D01*
X77200498Y-72905820D01*
X77164188Y-73025518D01*
X77151928Y-73150000D01*
X76560233Y-73150000D01*
X76427867Y-72902362D01*
X76071349Y-72698256D01*
X74474605Y-74295000D01*
X74115395Y-74295000D01*
X74101253Y-74280858D01*
X74280858Y-74101253D01*
X74295000Y-74115395D01*
X75891744Y-72518651D01*
X75832404Y-72415000D01*
X83569868Y-72415000D01*
X83472940Y-72511928D01*
%TA.AperFunction,Conductor*%
D28*
G36*
X83472940Y-72511928D02*
G01*
X82870000Y-72511928D01*
X82745518Y-72524188D01*
X82625820Y-72560498D01*
X82605000Y-72571627D01*
X82584180Y-72560498D01*
X82464482Y-72524188D01*
X82340000Y-72511928D01*
X82255750Y-72515000D01*
X82097000Y-72673750D01*
X82097000Y-74223000D01*
X82112017Y-74223000D01*
X82099509Y-74350000D01*
X82112017Y-74477000D01*
X82097000Y-74477000D01*
X82097000Y-75488485D01*
X82082795Y-75509744D01*
X82004774Y-75698102D01*
X81965000Y-75898061D01*
X81965000Y-76101939D01*
X82004774Y-76301898D01*
X82050350Y-76411928D01*
X81600000Y-76411928D01*
X81475518Y-76424188D01*
X81355820Y-76460498D01*
X81335000Y-76471627D01*
X81314180Y-76460498D01*
X81194482Y-76424188D01*
X81070000Y-76411928D01*
X80330000Y-76411928D01*
X80205518Y-76424188D01*
X80085820Y-76460498D01*
X80065000Y-76471627D01*
X80044180Y-76460498D01*
X79924482Y-76424188D01*
X79800000Y-76411928D01*
X79060000Y-76411928D01*
X78935518Y-76424188D01*
X78815820Y-76460498D01*
X78795000Y-76471627D01*
X78774180Y-76460498D01*
X78654482Y-76424188D01*
X78530000Y-76411928D01*
X77790000Y-76411928D01*
X77665518Y-76424188D01*
X77545820Y-76460498D01*
X77435506Y-76519463D01*
X77338815Y-76598815D01*
X77259463Y-76695506D01*
X77200498Y-76805820D01*
X77164188Y-76925518D01*
X77151928Y-77050000D01*
X77151928Y-79450000D01*
X77164188Y-79574482D01*
X77200498Y-79694180D01*
X77215001Y-79721312D01*
X77215000Y-80842041D01*
X77201726Y-80866875D01*
X77157023Y-81014243D01*
X77141928Y-81167500D01*
X77141928Y-81462500D01*
X77157023Y-81615757D01*
X77182878Y-81700991D01*
X77001939Y-81665000D01*
X76798061Y-81665000D01*
X76598102Y-81704774D01*
X76409744Y-81782795D01*
X76240226Y-81896063D01*
X76096063Y-82040226D01*
X75982795Y-82209744D01*
X75904774Y-82398102D01*
X75865000Y-82598061D01*
X75865000Y-82801939D01*
X75904774Y-83001898D01*
X75982795Y-83190256D01*
X76096063Y-83359774D01*
X76240226Y-83503937D01*
X76409744Y-83617205D01*
X76499301Y-83654301D01*
X76445053Y-83755791D01*
X76394872Y-83921215D01*
X76377928Y-84093250D01*
X76377928Y-84580750D01*
X76394872Y-84752785D01*
X76445053Y-84918209D01*
X76526542Y-85070664D01*
X76636208Y-85204292D01*
X76721756Y-85274500D01*
X76636208Y-85344708D01*
X76526542Y-85478336D01*
X76445053Y-85630791D01*
X76394872Y-85796215D01*
X76377928Y-85968250D01*
X76377928Y-86455750D01*
X76394872Y-86627785D01*
X76445053Y-86793209D01*
X76526542Y-86945664D01*
X76636208Y-87079292D01*
X76769836Y-87188958D01*
X76922291Y-87270447D01*
X77087715Y-87320628D01*
X77259750Y-87337572D01*
X77589994Y-87337572D01*
X78323470Y-88071049D01*
X78351183Y-88104817D01*
X78384951Y-88132530D01*
X78384953Y-88132532D01*
X78446199Y-88182795D01*
X78485941Y-88215411D01*
X78639687Y-88297589D01*
X78750469Y-88331195D01*
X78756928Y-88333154D01*
X78756928Y-88401000D01*
X78771590Y-88549868D01*
X78809852Y-88676000D01*
X78771590Y-88802132D01*
X78756928Y-88951000D01*
X78756928Y-89201000D01*
X78771590Y-89349868D01*
X78809852Y-89476000D01*
X78771590Y-89602132D01*
X78756928Y-89751000D01*
X78756928Y-90001000D01*
X78771590Y-90149868D01*
X78809852Y-90276000D01*
X78771590Y-90402132D01*
X78756928Y-90551000D01*
X78756928Y-90801000D01*
X78771590Y-90949868D01*
X78809852Y-91076000D01*
X78771590Y-91202132D01*
X78756928Y-91351000D01*
X78756928Y-91391000D01*
X78322469Y-91391000D01*
X78279000Y-91386719D01*
X78235531Y-91391000D01*
X78235523Y-91391000D01*
X78165181Y-91397928D01*
X78051500Y-91397928D01*
X77898243Y-91413023D01*
X77750875Y-91457726D01*
X77615060Y-91530321D01*
X77496017Y-91628017D01*
X77398321Y-91747060D01*
X77325726Y-91882875D01*
X77281023Y-92030243D01*
X77265928Y-92183500D01*
X77265928Y-92478500D01*
X77281023Y-92631757D01*
X77325726Y-92779125D01*
X77345436Y-92816000D01*
X77325726Y-92852875D01*
X77281023Y-93000243D01*
X77265928Y-93153500D01*
X77265928Y-93448500D01*
X77281023Y-93601757D01*
X77325726Y-93749125D01*
X77339000Y-93773959D01*
X77339000Y-93891564D01*
X77201898Y-93834774D01*
X77001939Y-93795000D01*
X76798061Y-93795000D01*
X76598102Y-93834774D01*
X76409744Y-93912795D01*
X76240226Y-94026063D01*
X76096063Y-94170226D01*
X75982795Y-94339744D01*
X75904774Y-94528102D01*
X75865000Y-94728061D01*
X75865000Y-94931939D01*
X75904774Y-95131898D01*
X75982795Y-95320256D01*
X76096063Y-95489774D01*
X76240226Y-95633937D01*
X76409744Y-95747205D01*
X76598102Y-95825226D01*
X76798061Y-95865000D01*
X77001939Y-95865000D01*
X77201898Y-95825226D01*
X77339001Y-95768436D01*
X77339001Y-96580521D01*
X77334719Y-96624000D01*
X77351805Y-96797490D01*
X77365000Y-96840987D01*
X77365000Y-96901939D01*
X77404774Y-97101898D01*
X77482795Y-97290256D01*
X77596063Y-97459774D01*
X77740226Y-97603937D01*
X77909744Y-97717205D01*
X78098102Y-97795226D01*
X78298061Y-97835000D01*
X78501939Y-97835000D01*
X78701898Y-97795226D01*
X78890256Y-97717205D01*
X79059774Y-97603937D01*
X79203937Y-97459774D01*
X79317205Y-97290256D01*
X79395226Y-97101898D01*
X79418945Y-96982656D01*
X79540226Y-97103937D01*
X79612461Y-97152203D01*
X79578815Y-97179815D01*
X79499463Y-97276506D01*
X79440498Y-97386820D01*
X79404188Y-97506518D01*
X79391928Y-97631000D01*
X79391928Y-99431000D01*
X79404188Y-99555482D01*
X79440498Y-99675180D01*
X79499463Y-99785494D01*
X79570004Y-99871449D01*
X79557023Y-99914243D01*
X79541928Y-100067500D01*
X79541928Y-100362500D01*
X79557023Y-100515757D01*
X79594312Y-100638684D01*
X79590498Y-100645820D01*
X79554188Y-100765518D01*
X79541928Y-100890000D01*
X79545000Y-100899250D01*
X79703750Y-101058000D01*
X79970237Y-101058000D01*
X80026875Y-101088274D01*
X80174243Y-101132977D01*
X80327500Y-101148072D01*
X80672500Y-101148072D01*
X80825757Y-101132977D01*
X80973125Y-101088274D01*
X81029763Y-101058000D01*
X81296250Y-101058000D01*
X81455000Y-100899250D01*
X81458072Y-100890000D01*
X81445812Y-100765518D01*
X81409502Y-100645820D01*
X81405688Y-100638684D01*
X81442977Y-100515757D01*
X81458072Y-100362500D01*
X81458072Y-100067500D01*
X81442977Y-99914243D01*
X81442807Y-99913681D01*
X81481185Y-99882185D01*
X81560537Y-99785494D01*
X81619502Y-99675180D01*
X81655812Y-99555482D01*
X81668072Y-99431000D01*
X81668072Y-98644506D01*
X81891928Y-98420650D01*
X81891928Y-99431000D01*
X81904188Y-99555482D01*
X81940498Y-99675180D01*
X81999463Y-99785494D01*
X82078815Y-99882185D01*
X82109187Y-99907110D01*
X82107023Y-99914243D01*
X82091928Y-100067500D01*
X82091928Y-100362500D01*
X82107023Y-100515757D01*
X82144312Y-100638684D01*
X82140498Y-100645820D01*
X82104188Y-100765518D01*
X82091928Y-100890000D01*
X82095000Y-100899250D01*
X82253750Y-101058000D01*
X82520237Y-101058000D01*
X82576875Y-101088274D01*
X82724243Y-101132977D01*
X82877500Y-101148072D01*
X83222500Y-101148072D01*
X83375757Y-101132977D01*
X83523125Y-101088274D01*
X83579763Y-101058000D01*
X83846250Y-101058000D01*
X84005000Y-100899250D01*
X84007340Y-100892203D01*
X84046150Y-101020142D01*
X84125329Y-101168275D01*
X84231885Y-101298115D01*
X84361725Y-101404671D01*
X84509858Y-101483850D01*
X84670592Y-101532608D01*
X84805327Y-101545879D01*
X84834002Y-101554577D01*
X85056500Y-101576491D01*
X85278999Y-101554577D01*
X85307674Y-101545878D01*
X85442408Y-101532608D01*
X85603142Y-101483850D01*
X85751275Y-101404671D01*
X85772930Y-101386900D01*
X85839506Y-101441537D01*
X85949820Y-101500502D01*
X86069518Y-101536812D01*
X86194000Y-101549072D01*
X86345750Y-101546000D01*
X86504500Y-101387250D01*
X86504500Y-100563000D01*
X86758500Y-100563000D01*
X86758500Y-101387250D01*
X86917250Y-101546000D01*
X87069000Y-101549072D01*
X87193482Y-101536812D01*
X87313180Y-101500502D01*
X87317746Y-101498061D01*
X95965000Y-101498061D01*
X95965000Y-101701939D01*
X96004774Y-101901898D01*
X96082795Y-102090256D01*
X96196063Y-102259774D01*
X96340226Y-102403937D01*
X96509744Y-102517205D01*
X96698102Y-102595226D01*
X96898061Y-102635000D01*
X97101939Y-102635000D01*
X97301898Y-102595226D01*
X97490256Y-102517205D01*
X97659774Y-102403937D01*
X97803937Y-102259774D01*
X97917205Y-102090256D01*
X97995226Y-101901898D01*
X98035000Y-101701939D01*
X98035000Y-101498061D01*
X97995226Y-101298102D01*
X97917205Y-101109744D01*
X97803937Y-100940226D01*
X97659774Y-100796063D01*
X97490256Y-100682795D01*
X97301898Y-100604774D01*
X97101939Y-100565000D01*
X96898061Y-100565000D01*
X96698102Y-100604774D01*
X96509744Y-100682795D01*
X96340226Y-100796063D01*
X96196063Y-100940226D01*
X96082795Y-101109744D01*
X96004774Y-101298102D01*
X95965000Y-101498061D01*
X87317746Y-101498061D01*
X87423494Y-101441537D01*
X87520185Y-101362185D01*
X87599537Y-101265494D01*
X87658502Y-101155180D01*
X87694812Y-101035482D01*
X87707072Y-100911000D01*
X87704000Y-100721750D01*
X87545250Y-100563000D01*
X86758500Y-100563000D01*
X86504500Y-100563000D01*
X86484500Y-100563000D01*
X86484500Y-100309000D01*
X86504500Y-100309000D01*
X86504500Y-99039000D01*
X86758500Y-99039000D01*
X86758500Y-100309000D01*
X87545250Y-100309000D01*
X87704000Y-100150250D01*
X87707072Y-99961000D01*
X87694812Y-99836518D01*
X87658502Y-99716820D01*
X87635614Y-99674000D01*
X87658502Y-99631180D01*
X87694812Y-99511482D01*
X87707072Y-99387000D01*
X87704000Y-99197750D01*
X87545250Y-99039000D01*
X86758500Y-99039000D01*
X86504500Y-99039000D01*
X86484500Y-99039000D01*
X86484500Y-98785000D01*
X86504500Y-98785000D01*
X86504500Y-98765000D01*
X86758500Y-98765000D01*
X86758500Y-98785000D01*
X87545250Y-98785000D01*
X87704000Y-98626250D01*
X87707072Y-98437000D01*
X87694812Y-98312518D01*
X87658502Y-98192820D01*
X87607284Y-98097000D01*
X87865000Y-98097000D01*
X87865000Y-99944248D01*
X87859509Y-100000000D01*
X87881423Y-100222499D01*
X87946324Y-100436447D01*
X88051716Y-100633623D01*
X88193551Y-100806449D01*
X88366377Y-100948284D01*
X88563553Y-101053676D01*
X88777501Y-101118577D01*
X88944248Y-101135000D01*
X88944249Y-101135000D01*
X89000000Y-101140491D01*
X89055752Y-101135000D01*
X89944249Y-101135000D01*
X90000000Y-101140491D01*
X90055752Y-101135000D01*
X90944248Y-101135000D01*
X91000000Y-101140491D01*
X91055751Y-101135000D01*
X91055752Y-101135000D01*
X91222499Y-101118577D01*
X91436447Y-101053676D01*
X91633623Y-100948284D01*
X91806449Y-100806449D01*
X91948284Y-100633623D01*
X92053676Y-100436447D01*
X92074524Y-100367723D01*
X92118715Y-100381128D01*
X92290750Y-100398072D01*
X92778250Y-100398072D01*
X92950285Y-100381128D01*
X93115709Y-100330947D01*
X93268164Y-100249458D01*
X93401792Y-100139792D01*
X93407008Y-100133436D01*
X93470815Y-100211185D01*
X93567506Y-100290537D01*
X93677820Y-100349502D01*
X93797518Y-100385812D01*
X93922000Y-100398072D01*
X94123750Y-100395000D01*
X94282500Y-100236250D01*
X94282500Y-99187000D01*
X94536500Y-99187000D01*
X94536500Y-100236250D01*
X94695250Y-100395000D01*
X94897000Y-100398072D01*
X95021482Y-100385812D01*
X95141180Y-100349502D01*
X95251494Y-100290537D01*
X95348185Y-100211185D01*
X95427537Y-100114494D01*
X95486502Y-100004180D01*
X95522812Y-99884482D01*
X95535072Y-99760000D01*
X95532000Y-99345750D01*
X95373250Y-99187000D01*
X94536500Y-99187000D01*
X94282500Y-99187000D01*
X94262500Y-99187000D01*
X94262500Y-98933000D01*
X94282500Y-98933000D01*
X94282500Y-97883750D01*
X94123750Y-97725000D01*
X93922000Y-97721928D01*
X93797518Y-97734188D01*
X93677820Y-97770498D01*
X93669500Y-97774945D01*
X93669500Y-97479814D01*
X93697812Y-97386482D01*
X93710072Y-97262000D01*
X93710072Y-96926453D01*
X93747518Y-96937812D01*
X93872000Y-96950072D01*
X93875934Y-96950072D01*
X93888377Y-96960284D01*
X94085553Y-97065676D01*
X94299501Y-97130577D01*
X94466248Y-97147000D01*
X95463500Y-97147000D01*
X95463500Y-98072787D01*
X95427537Y-98005506D01*
X95348185Y-97908815D01*
X95251494Y-97829463D01*
X95141180Y-97770498D01*
X95021482Y-97734188D01*
X94897000Y-97721928D01*
X94695250Y-97725000D01*
X94536500Y-97883750D01*
X94536500Y-98933000D01*
X95373250Y-98933000D01*
X95523409Y-98782841D01*
X95540053Y-98837709D01*
X95621542Y-98990164D01*
X95731208Y-99123792D01*
X95864836Y-99233458D01*
X96017291Y-99314947D01*
X96182715Y-99365128D01*
X96354750Y-99382072D01*
X96842250Y-99382072D01*
X97014285Y-99365128D01*
X97179709Y-99314947D01*
X97332164Y-99233458D01*
X97465792Y-99123792D01*
X97471008Y-99117436D01*
X97534815Y-99195185D01*
X97631506Y-99274537D01*
X97741820Y-99333502D01*
X97861518Y-99369812D01*
X97986000Y-99382072D01*
X98187750Y-99379000D01*
X98346500Y-99220250D01*
X98346500Y-98171000D01*
X98326500Y-98171000D01*
X98326500Y-97917000D01*
X98346500Y-97917000D01*
X98346500Y-96867750D01*
X98187750Y-96709000D01*
X97986000Y-96705928D01*
X97861518Y-96718188D01*
X97741820Y-96754498D01*
X97733500Y-96758945D01*
X97733500Y-96064241D01*
X97738990Y-96008499D01*
X97733500Y-95952758D01*
X97733500Y-95952748D01*
X97730867Y-95926012D01*
X97731506Y-95926537D01*
X97841820Y-95985502D01*
X97961518Y-96021812D01*
X98066827Y-96032184D01*
X98099553Y-96049676D01*
X98313501Y-96114577D01*
X98480248Y-96131000D01*
X99173990Y-96131000D01*
X99104774Y-96298102D01*
X99065000Y-96498061D01*
X99065000Y-96701939D01*
X99067887Y-96716455D01*
X98961000Y-96705928D01*
X98759250Y-96709000D01*
X98600500Y-96867750D01*
X98600500Y-97917000D01*
X99437250Y-97917000D01*
X99596000Y-97758250D01*
X99597846Y-97509255D01*
X99609744Y-97517205D01*
X99798102Y-97595226D01*
X99998061Y-97635000D01*
X100201939Y-97635000D01*
X100401898Y-97595226D01*
X100590256Y-97517205D01*
X100759774Y-97403937D01*
X100903937Y-97259774D01*
X101017205Y-97090256D01*
X101095226Y-96901898D01*
X101135000Y-96701939D01*
X101135000Y-96498061D01*
X101095226Y-96298102D01*
X101026010Y-96131000D01*
X102001928Y-96131000D01*
X102001928Y-96440000D01*
X102018992Y-96613254D01*
X102069528Y-96779850D01*
X102151595Y-96933386D01*
X102262038Y-97067962D01*
X102396614Y-97178405D01*
X102550150Y-97260472D01*
X102716746Y-97311008D01*
X102890000Y-97328072D01*
X103390000Y-97328072D01*
X103563254Y-97311008D01*
X103729850Y-97260472D01*
X103883386Y-97178405D01*
X104017962Y-97067962D01*
X104080969Y-96991187D01*
X104109463Y-97044494D01*
X104188815Y-97141185D01*
X104285506Y-97220537D01*
X104395820Y-97279502D01*
X104515518Y-97315812D01*
X104640000Y-97328072D01*
X104854250Y-97325000D01*
X105013000Y-97166250D01*
X105013000Y-95067000D01*
X105267000Y-95067000D01*
X105267000Y-97166250D01*
X105425750Y-97325000D01*
X105640000Y-97328072D01*
X105764482Y-97315812D01*
X105884180Y-97279502D01*
X105994494Y-97220537D01*
X106091185Y-97141185D01*
X106170537Y-97044494D01*
X106229502Y-96934180D01*
X106265812Y-96814482D01*
X106278072Y-96690000D01*
X106275000Y-95225750D01*
X106116250Y-95067000D01*
X105267000Y-95067000D01*
X105013000Y-95067000D01*
X104993000Y-95067000D01*
X104993000Y-94813000D01*
X105013000Y-94813000D01*
X105013000Y-92713750D01*
X105267000Y-92713750D01*
X105267000Y-94813000D01*
X106116250Y-94813000D01*
X106275000Y-94654250D01*
X106278072Y-93190000D01*
X106265812Y-93065518D01*
X106229502Y-92945820D01*
X106170537Y-92835506D01*
X106145502Y-92805000D01*
X113036928Y-92805000D01*
X113049188Y-92929482D01*
X113085498Y-93049180D01*
X113144463Y-93159494D01*
X113223815Y-93256185D01*
X113320506Y-93335537D01*
X113430820Y-93394502D01*
X113550518Y-93430812D01*
X113675000Y-93443072D01*
X114489250Y-93440000D01*
X114648000Y-93281250D01*
X114648000Y-92407000D01*
X113198750Y-92407000D01*
X113040000Y-92565750D01*
X113036928Y-92805000D01*
X106145502Y-92805000D01*
X106091185Y-92738815D01*
X105994494Y-92659463D01*
X105884180Y-92600498D01*
X105764482Y-92564188D01*
X105640000Y-92551928D01*
X105425750Y-92555000D01*
X105267000Y-92713750D01*
X105013000Y-92713750D01*
X104854250Y-92555000D01*
X104640000Y-92551928D01*
X104515518Y-92564188D01*
X104395820Y-92600498D01*
X104285506Y-92659463D01*
X104188815Y-92738815D01*
X104109463Y-92835506D01*
X104080969Y-92888813D01*
X104017962Y-92812038D01*
X103883386Y-92701595D01*
X103729850Y-92619528D01*
X103563254Y-92568992D01*
X103390000Y-92551928D01*
X102890000Y-92551928D01*
X102716746Y-92568992D01*
X102550150Y-92619528D01*
X102396614Y-92701595D01*
X102262038Y-92812038D01*
X102151595Y-92946614D01*
X102069528Y-93100150D01*
X102018992Y-93266746D01*
X102001928Y-93440000D01*
X102001928Y-93861000D01*
X98480248Y-93861000D01*
X98313501Y-93877423D01*
X98099553Y-93942324D01*
X98066827Y-93959816D01*
X97961518Y-93970188D01*
X97841820Y-94006498D01*
X97731506Y-94065463D01*
X97634815Y-94144815D01*
X97555463Y-94241506D01*
X97546857Y-94257607D01*
X97462250Y-94173000D01*
X96663000Y-94173000D01*
X96663000Y-94193000D01*
X96409000Y-94193000D01*
X96409000Y-94173000D01*
X95609750Y-94173000D01*
X95451000Y-94331750D01*
X95447928Y-94446000D01*
X95460188Y-94570482D01*
X95496498Y-94690180D01*
X95555463Y-94800494D01*
X95618250Y-94877000D01*
X94466248Y-94877000D01*
X94299501Y-94893423D01*
X94085553Y-94958324D01*
X93888377Y-95063716D01*
X93875934Y-95073928D01*
X93872000Y-95073928D01*
X93747518Y-95086188D01*
X93627820Y-95122498D01*
X93517506Y-95181463D01*
X93508322Y-95189000D01*
X92549000Y-95189000D01*
X92549000Y-95209000D01*
X92295000Y-95209000D01*
X92295000Y-95189000D01*
X91295750Y-95189000D01*
X91137000Y-95347750D01*
X91133928Y-95362000D01*
X91146188Y-95486482D01*
X91182498Y-95606180D01*
X91241463Y-95716494D01*
X91320815Y-95813185D01*
X91337649Y-95827000D01*
X91017751Y-95827000D01*
X90962000Y-95821509D01*
X90906249Y-95827000D01*
X90093751Y-95827000D01*
X90037999Y-95821509D01*
X89982248Y-95827000D01*
X89093751Y-95827000D01*
X89037999Y-95821509D01*
X88982248Y-95827000D01*
X87761952Y-95827000D01*
X87779128Y-95806072D01*
X87859411Y-95708247D01*
X87941589Y-95554502D01*
X87992195Y-95387678D01*
X87993764Y-95371744D01*
X88005000Y-95257665D01*
X88005000Y-95257657D01*
X88009281Y-95214188D01*
X88005000Y-95170719D01*
X88005000Y-95107191D01*
X88008072Y-95076000D01*
X88008072Y-94762000D01*
X91133928Y-94762000D01*
X91137000Y-94776250D01*
X91295750Y-94935000D01*
X92295000Y-94935000D01*
X92295000Y-94285750D01*
X92549000Y-94285750D01*
X92549000Y-94935000D01*
X93548250Y-94935000D01*
X93707000Y-94776250D01*
X93710072Y-94762000D01*
X93697812Y-94637518D01*
X93661502Y-94517820D01*
X93602537Y-94407506D01*
X93523185Y-94310815D01*
X93426494Y-94231463D01*
X93316180Y-94172498D01*
X93196482Y-94136188D01*
X93072000Y-94123928D01*
X92707750Y-94127000D01*
X92549000Y-94285750D01*
X92295000Y-94285750D01*
X92136250Y-94127000D01*
X91772000Y-94123928D01*
X91647518Y-94136188D01*
X91527820Y-94172498D01*
X91417506Y-94231463D01*
X91320815Y-94310815D01*
X91241463Y-94407506D01*
X91182498Y-94517820D01*
X91146188Y-94637518D01*
X91133928Y-94762000D01*
X88008072Y-94762000D01*
X88008072Y-93964072D01*
X89120000Y-93964072D01*
X89268868Y-93949410D01*
X89412015Y-93905987D01*
X89543940Y-93835471D01*
X89659573Y-93740573D01*
X89754471Y-93624940D01*
X89824987Y-93493015D01*
X89868410Y-93349868D01*
X89883072Y-93201000D01*
X89883072Y-93036000D01*
X90986678Y-93036000D01*
X91024000Y-93039676D01*
X91061322Y-93036000D01*
X91061333Y-93036000D01*
X91172986Y-93025003D01*
X91316247Y-92981546D01*
X91448276Y-92910974D01*
X91564001Y-92816001D01*
X91587803Y-92786998D01*
X92039802Y-92335000D01*
X92101939Y-92335000D01*
X92301898Y-92295226D01*
X92490256Y-92217205D01*
X92659774Y-92103937D01*
X92803937Y-91959774D01*
X92917205Y-91790256D01*
X92946306Y-91720000D01*
X93096928Y-91720000D01*
X93109188Y-91844482D01*
X93145498Y-91964180D01*
X93204463Y-92074494D01*
X93283815Y-92171185D01*
X93380506Y-92250537D01*
X93490820Y-92309502D01*
X93610518Y-92345812D01*
X93735000Y-92358072D01*
X94622469Y-92355384D01*
X94604774Y-92398102D01*
X94565000Y-92598061D01*
X94565000Y-92801939D01*
X94604774Y-93001898D01*
X94682795Y-93190256D01*
X94796063Y-93359774D01*
X94940226Y-93503937D01*
X95109744Y-93617205D01*
X95298102Y-93695226D01*
X95450064Y-93725453D01*
X95451000Y-93760250D01*
X95609750Y-93919000D01*
X96409000Y-93919000D01*
X96409000Y-93899000D01*
X96663000Y-93899000D01*
X96663000Y-93919000D01*
X97462250Y-93919000D01*
X97621000Y-93760250D01*
X97624072Y-93646000D01*
X97611812Y-93521518D01*
X97575502Y-93401820D01*
X97516537Y-93291506D01*
X97437185Y-93194815D01*
X97340494Y-93115463D01*
X97230180Y-93056498D01*
X97110482Y-93020188D01*
X96986000Y-93007928D01*
X96821750Y-93011000D01*
X96663002Y-93169748D01*
X96663002Y-93011000D01*
X96591456Y-93011000D01*
X96595226Y-93001898D01*
X96635000Y-92801939D01*
X96635000Y-92598061D01*
X96595226Y-92398102D01*
X96560832Y-92315068D01*
X96579180Y-92309502D01*
X96689494Y-92250537D01*
X96786185Y-92171185D01*
X96865537Y-92074494D01*
X96924502Y-91964180D01*
X96960812Y-91844482D01*
X96973072Y-91720000D01*
X96970000Y-91105750D01*
X96811250Y-90947000D01*
X95162000Y-90947000D01*
X95162000Y-90967000D01*
X94908000Y-90967000D01*
X94908000Y-90947000D01*
X93258750Y-90947000D01*
X93100000Y-91105750D01*
X93096928Y-91720000D01*
X92946306Y-91720000D01*
X92995226Y-91601898D01*
X93035000Y-91401939D01*
X93035000Y-91198061D01*
X92995226Y-90998102D01*
X92917205Y-90809744D01*
X92803937Y-90640226D01*
X92682811Y-90519100D01*
X92900000Y-90540491D01*
X93099933Y-90520799D01*
X93100000Y-90534250D01*
X93258750Y-90693000D01*
X94908000Y-90693000D01*
X94908000Y-90673000D01*
X95162000Y-90673000D01*
X95162000Y-90693000D01*
X96811250Y-90693000D01*
X96970000Y-90534250D01*
X96973072Y-89920000D01*
X96963223Y-89820000D01*
X96973072Y-89720000D01*
X107496928Y-89720000D01*
X107506777Y-89820000D01*
X107496928Y-89920000D01*
X107496928Y-91720000D01*
X107509188Y-91844482D01*
X107545498Y-91964180D01*
X107604463Y-92074494D01*
X107683815Y-92171185D01*
X107780506Y-92250537D01*
X107890820Y-92309502D01*
X108010518Y-92345812D01*
X108135000Y-92358072D01*
X110735000Y-92358072D01*
X110859482Y-92345812D01*
X110911607Y-92330000D01*
X111584828Y-92330000D01*
X111658998Y-92337305D01*
X111733168Y-92330000D01*
X111733176Y-92330000D01*
X111885472Y-92315000D01*
X112764176Y-92315000D01*
X112986010Y-92293151D01*
X113270646Y-92206808D01*
X113371314Y-92153000D01*
X114648000Y-92153000D01*
X114648000Y-91278750D01*
X114489250Y-91120000D01*
X114413072Y-91119713D01*
X114413072Y-90490287D01*
X114489250Y-90490000D01*
X114648000Y-90331250D01*
X114648000Y-89457000D01*
X113371314Y-89457000D01*
X113270646Y-89403192D01*
X112986010Y-89316849D01*
X112764176Y-89295000D01*
X111748168Y-89295000D01*
X111673997Y-89287695D01*
X111599827Y-89295000D01*
X111484278Y-89295000D01*
X111411166Y-89309543D01*
X111406526Y-89310000D01*
X111371021Y-89310000D01*
X111370000Y-89105750D01*
X111211250Y-88947000D01*
X109562000Y-88947000D01*
X109562000Y-88967000D01*
X109308000Y-88967000D01*
X109308000Y-88947000D01*
X107658750Y-88947000D01*
X107500000Y-89105750D01*
X107496928Y-89720000D01*
X96973072Y-89720000D01*
X96973072Y-88805000D01*
X113036928Y-88805000D01*
X113040000Y-89044250D01*
X113198750Y-89203000D01*
X114648000Y-89203000D01*
X114648000Y-88328750D01*
X114489250Y-88170000D01*
X113675000Y-88166928D01*
X113550518Y-88179188D01*
X113430820Y-88215498D01*
X113320506Y-88274463D01*
X113223815Y-88353815D01*
X113144463Y-88450506D01*
X113085498Y-88560820D01*
X113049188Y-88680518D01*
X113036928Y-88805000D01*
X96973072Y-88805000D01*
X96973072Y-87920000D01*
X96963223Y-87820000D01*
X96973072Y-87720000D01*
X96973072Y-85984858D01*
X96998102Y-85995226D01*
X97198061Y-86035000D01*
X97401939Y-86035000D01*
X97601898Y-85995226D01*
X97790256Y-85917205D01*
X97959774Y-85803937D01*
X98103937Y-85659774D01*
X98217205Y-85490256D01*
X98295226Y-85301898D01*
X98335000Y-85101939D01*
X98335000Y-84898061D01*
X98295226Y-84698102D01*
X98217205Y-84509744D01*
X98103937Y-84340226D01*
X97959774Y-84196063D01*
X97790256Y-84082795D01*
X97601898Y-84004774D01*
X97518767Y-83988238D01*
X97690256Y-83917205D01*
X97859774Y-83803937D01*
X98003937Y-83659774D01*
X98117205Y-83490256D01*
X98195226Y-83301898D01*
X98235000Y-83101939D01*
X98235000Y-82898061D01*
X98195226Y-82698102D01*
X98117205Y-82509744D01*
X98003937Y-82340226D01*
X97859774Y-82196063D01*
X97690256Y-82082795D01*
X97501898Y-82004774D01*
X97301939Y-81965000D01*
X97098061Y-81965000D01*
X96973072Y-81989862D01*
X96973072Y-81920000D01*
X96963223Y-81820000D01*
X96973072Y-81720000D01*
X96973072Y-79920000D01*
X96964034Y-79828232D01*
X96998061Y-79835000D01*
X97201939Y-79835000D01*
X97401898Y-79795226D01*
X97590256Y-79717205D01*
X97759774Y-79603937D01*
X97903937Y-79459774D01*
X98017205Y-79290256D01*
X98095226Y-79101898D01*
X98135000Y-78901939D01*
X98135000Y-78698061D01*
X98095226Y-78498102D01*
X98017205Y-78309744D01*
X97903937Y-78140226D01*
X97759774Y-77996063D01*
X97590256Y-77882795D01*
X97401898Y-77804774D01*
X97201939Y-77765000D01*
X96998061Y-77765000D01*
X96968052Y-77770969D01*
X96973072Y-77720000D01*
X96970000Y-77105750D01*
X96811250Y-76947000D01*
X95162000Y-76947000D01*
X95162000Y-76967000D01*
X94908000Y-76967000D01*
X94908000Y-76947000D01*
X93258750Y-76947000D01*
X93100000Y-77105750D01*
X93096928Y-77720000D01*
X93106777Y-77820000D01*
X93096928Y-77920000D01*
X93096928Y-78903785D01*
X92901939Y-78865000D01*
X92698061Y-78865000D01*
X92498102Y-78904774D01*
X92309744Y-78982795D01*
X92140226Y-79096063D01*
X91996063Y-79240226D01*
X91882795Y-79409744D01*
X91804774Y-79598102D01*
X91765000Y-79798061D01*
X91765000Y-80001939D01*
X91804774Y-80201898D01*
X91882795Y-80390256D01*
X91996063Y-80559774D01*
X92140226Y-80703937D01*
X92272739Y-80792479D01*
X90257703Y-82807515D01*
X90217205Y-82709744D01*
X90103937Y-82540226D01*
X89959774Y-82396063D01*
X89790256Y-82282795D01*
X89601898Y-82204774D01*
X89401939Y-82165000D01*
X89328577Y-82165000D01*
X89845050Y-81648527D01*
X89878818Y-81620814D01*
X89910659Y-81582017D01*
X89989411Y-81486057D01*
X89990339Y-81484321D01*
X90071590Y-81332310D01*
X90118275Y-81178412D01*
X90122196Y-81165488D01*
X90126035Y-81126510D01*
X90135001Y-81035474D01*
X90135001Y-81035467D01*
X90139282Y-80991998D01*
X90135001Y-80948529D01*
X90135001Y-77133468D01*
X90139282Y-77089999D01*
X90135001Y-77046530D01*
X90135001Y-77046522D01*
X90122196Y-76916509D01*
X90071590Y-76749686D01*
X89989412Y-76595940D01*
X89905525Y-76493724D01*
X90090256Y-76417205D01*
X90259774Y-76303937D01*
X90403937Y-76159774D01*
X90517205Y-75990256D01*
X90546306Y-75920000D01*
X93096928Y-75920000D01*
X93100000Y-76534250D01*
X93258750Y-76693000D01*
X94908000Y-76693000D01*
X94908000Y-75443750D01*
X95162000Y-75443750D01*
X95162000Y-76693000D01*
X96811250Y-76693000D01*
X96970000Y-76534250D01*
X96973072Y-75920000D01*
X96960812Y-75795518D01*
X96924502Y-75675820D01*
X96882939Y-75598061D01*
X102965000Y-75598061D01*
X102965000Y-75801939D01*
X103004774Y-76001898D01*
X103082795Y-76190256D01*
X103196063Y-76359774D01*
X103340226Y-76503937D01*
X103509744Y-76617205D01*
X103698102Y-76695226D01*
X103898061Y-76735000D01*
X104101939Y-76735000D01*
X104301898Y-76695226D01*
X104490256Y-76617205D01*
X104659774Y-76503937D01*
X104803937Y-76359774D01*
X104917205Y-76190256D01*
X104995226Y-76001898D01*
X105011516Y-75920000D01*
X107496928Y-75920000D01*
X107496928Y-77720000D01*
X107506777Y-77820000D01*
X107496928Y-77920000D01*
X107496928Y-79720000D01*
X107506777Y-79820000D01*
X107496928Y-79920000D01*
X107496928Y-81720000D01*
X107506777Y-81820000D01*
X107496928Y-81920000D01*
X107496928Y-83720000D01*
X107506777Y-83820000D01*
X107496928Y-83920000D01*
X107496928Y-85720000D01*
X107506777Y-85820000D01*
X107496928Y-85920000D01*
X107496928Y-87720000D01*
X107506777Y-87820000D01*
X107496928Y-87920000D01*
X107500000Y-88534250D01*
X107658750Y-88693000D01*
X109308000Y-88693000D01*
X109308000Y-88673000D01*
X109562000Y-88673000D01*
X109562000Y-88693000D01*
X111211250Y-88693000D01*
X111370000Y-88534250D01*
X111373072Y-87920000D01*
X111363223Y-87820000D01*
X111373072Y-87720000D01*
X111373072Y-85920000D01*
X111363223Y-85820000D01*
X111373072Y-85720000D01*
X111373072Y-85231480D01*
X111440000Y-85238072D01*
X111474250Y-85235000D01*
X111633000Y-85076250D01*
X111633000Y-84432000D01*
X111887000Y-84432000D01*
X111887000Y-85076250D01*
X112045750Y-85235000D01*
X112080000Y-85238072D01*
X112204482Y-85225812D01*
X112324180Y-85189502D01*
X112434494Y-85130537D01*
X112531185Y-85051185D01*
X112610537Y-84954494D01*
X112669502Y-84844180D01*
X112705812Y-84724482D01*
X112718072Y-84600000D01*
X112715000Y-84590750D01*
X112556250Y-84432000D01*
X111887000Y-84432000D01*
X111633000Y-84432000D01*
X111613000Y-84432000D01*
X111613000Y-84268072D01*
X111932500Y-84268072D01*
X112085757Y-84252977D01*
X112233125Y-84208274D01*
X112289763Y-84178000D01*
X112556250Y-84178000D01*
X112715000Y-84019250D01*
X112718072Y-84010000D01*
X112705812Y-83885518D01*
X112669502Y-83765820D01*
X112665688Y-83758684D01*
X112702977Y-83635757D01*
X112718072Y-83482500D01*
X112718072Y-83187500D01*
X112702977Y-83034243D01*
X112658274Y-82886875D01*
X112645000Y-82862041D01*
X112645000Y-82813809D01*
X112659774Y-82803937D01*
X112803937Y-82659774D01*
X112917205Y-82490256D01*
X112995226Y-82301898D01*
X113035000Y-82101939D01*
X113035000Y-81898061D01*
X112995226Y-81698102D01*
X112917205Y-81509744D01*
X112803937Y-81340226D01*
X112659774Y-81196063D01*
X112490256Y-81082795D01*
X112301898Y-81004774D01*
X112101939Y-80965000D01*
X111898061Y-80965000D01*
X111698102Y-81004774D01*
X111509744Y-81082795D01*
X111373072Y-81174116D01*
X111373072Y-79920000D01*
X111363223Y-79820000D01*
X111373072Y-79720000D01*
X111373072Y-77920000D01*
X111363223Y-77820000D01*
X111373072Y-77720000D01*
X111373072Y-76071349D01*
X112195256Y-76071349D01*
X112399362Y-76427867D01*
X112842223Y-76658575D01*
X113321583Y-76798452D01*
X113819021Y-76842123D01*
X114315422Y-76787909D01*
X114791707Y-76637894D01*
X115184638Y-76427867D01*
X115388744Y-76071349D01*
X113792000Y-74474605D01*
X112195256Y-76071349D01*
X111373072Y-76071349D01*
X111373072Y-75920000D01*
X111360812Y-75795518D01*
X111324502Y-75675820D01*
X111265537Y-75565506D01*
X111186185Y-75468815D01*
X111089494Y-75389463D01*
X110979180Y-75330498D01*
X110859482Y-75294188D01*
X110735000Y-75281928D01*
X108135000Y-75281928D01*
X108010518Y-75294188D01*
X107890820Y-75330498D01*
X107780506Y-75389463D01*
X107683815Y-75468815D01*
X107604463Y-75565506D01*
X107545498Y-75675820D01*
X107509188Y-75795518D01*
X107496928Y-75920000D01*
X105011516Y-75920000D01*
X105035000Y-75801939D01*
X105035000Y-75598061D01*
X104995226Y-75398102D01*
X104917205Y-75209744D01*
X104803937Y-75040226D01*
X104659774Y-74896063D01*
X104490256Y-74782795D01*
X104301898Y-74704774D01*
X104101939Y-74665000D01*
X103898061Y-74665000D01*
X103698102Y-74704774D01*
X103509744Y-74782795D01*
X103340226Y-74896063D01*
X103196063Y-75040226D01*
X103082795Y-75209744D01*
X103004774Y-75398102D01*
X102965000Y-75598061D01*
X96882939Y-75598061D01*
X96865537Y-75565506D01*
X96786185Y-75468815D01*
X96689494Y-75389463D01*
X96579180Y-75330498D01*
X96459482Y-75294188D01*
X96335000Y-75281928D01*
X95320750Y-75285000D01*
X95162000Y-75443750D01*
X94908000Y-75443750D01*
X94749250Y-75285000D01*
X93735000Y-75281928D01*
X93610518Y-75294188D01*
X93490820Y-75330498D01*
X93380506Y-75389463D01*
X93283815Y-75468815D01*
X93204463Y-75565506D01*
X93145498Y-75675820D01*
X93109188Y-75795518D01*
X93096928Y-75920000D01*
X90546306Y-75920000D01*
X90595226Y-75801898D01*
X90635000Y-75601939D01*
X90635000Y-75398061D01*
X90595226Y-75198102D01*
X90517205Y-75009744D01*
X90485000Y-74961546D01*
X90485000Y-74842959D01*
X90498274Y-74818125D01*
X90542977Y-74670757D01*
X90558072Y-74517500D01*
X90558072Y-74222500D01*
X90542977Y-74069243D01*
X90498274Y-73921875D01*
X90488019Y-73902689D01*
X90509744Y-73917205D01*
X90698102Y-73995226D01*
X90898061Y-74035000D01*
X91101939Y-74035000D01*
X91301898Y-73995226D01*
X91490256Y-73917205D01*
X91659774Y-73803937D01*
X91786821Y-73676890D01*
X92774048Y-73676890D01*
X92774048Y-73923110D01*
X92822083Y-74164598D01*
X92916307Y-74392074D01*
X93053099Y-74596798D01*
X93227202Y-74770901D01*
X93431926Y-74907693D01*
X93659402Y-75001917D01*
X93900890Y-75049952D01*
X94147110Y-75049952D01*
X94388598Y-75001917D01*
X94616074Y-74907693D01*
X94820798Y-74770901D01*
X94994901Y-74596798D01*
X95131693Y-74392074D01*
X95225917Y-74164598D01*
X95273952Y-73923110D01*
X95273952Y-73876890D01*
X108274048Y-73876890D01*
X108274048Y-74123110D01*
X108322083Y-74364598D01*
X108416307Y-74592074D01*
X108553099Y-74796798D01*
X108727202Y-74970901D01*
X108931926Y-75107693D01*
X109159402Y-75201917D01*
X109400890Y-75249952D01*
X109647110Y-75249952D01*
X109888598Y-75201917D01*
X110116074Y-75107693D01*
X110320798Y-74970901D01*
X110494901Y-74796798D01*
X110631693Y-74592074D01*
X110725917Y-74364598D01*
X110734386Y-74322021D01*
X111244877Y-74322021D01*
X111299091Y-74818422D01*
X111449106Y-75294707D01*
X111659133Y-75687638D01*
X112015651Y-75891744D01*
X113612395Y-74295000D01*
X112015651Y-72698256D01*
X111659133Y-72902362D01*
X111428425Y-73345223D01*
X111288548Y-73824583D01*
X111244877Y-74322021D01*
X110734386Y-74322021D01*
X110773952Y-74123110D01*
X110773952Y-73876890D01*
X110725917Y-73635402D01*
X110631693Y-73407926D01*
X110494901Y-73203202D01*
X110320798Y-73029099D01*
X110116074Y-72892307D01*
X109888598Y-72798083D01*
X109647110Y-72750048D01*
X109400890Y-72750048D01*
X109159402Y-72798083D01*
X108931926Y-72892307D01*
X108727202Y-73029099D01*
X108553099Y-73203202D01*
X108416307Y-73407926D01*
X108322083Y-73635402D01*
X108274048Y-73876890D01*
X95273952Y-73876890D01*
X95273952Y-73676890D01*
X95225917Y-73435402D01*
X95131693Y-73207926D01*
X94994901Y-73003202D01*
X94820798Y-72829099D01*
X94616074Y-72692307D01*
X94388598Y-72598083D01*
X94147110Y-72550048D01*
X93900890Y-72550048D01*
X93659402Y-72598083D01*
X93431926Y-72692307D01*
X93227202Y-72829099D01*
X93053099Y-73003202D01*
X92916307Y-73207926D01*
X92822083Y-73435402D01*
X92774048Y-73676890D01*
X91786821Y-73676890D01*
X91803937Y-73659774D01*
X91917205Y-73490256D01*
X91995226Y-73301898D01*
X92035000Y-73101939D01*
X92035000Y-72898061D01*
X91995226Y-72698102D01*
X91917205Y-72509744D01*
X91853899Y-72415000D01*
X112254596Y-72415000D01*
X112195256Y-72518651D01*
X113792000Y-74115395D01*
X113806143Y-74101253D01*
X113985748Y-74280858D01*
X113971605Y-74295000D01*
X115568349Y-75891744D01*
X115672001Y-75832403D01*
X115672000Y-88167694D01*
X115060750Y-88170000D01*
X114902000Y-88328750D01*
X114902000Y-89203000D01*
X114922000Y-89203000D01*
X114922000Y-89457000D01*
X114902000Y-89457000D01*
X114902000Y-90331250D01*
X115060750Y-90490000D01*
X115672000Y-90492306D01*
X115672000Y-91117694D01*
X115060750Y-91120000D01*
X114902000Y-91278750D01*
X114902000Y-92153000D01*
X114922000Y-92153000D01*
X114922000Y-92407000D01*
X114902000Y-92407000D01*
X114902000Y-93281250D01*
X115060750Y-93440000D01*
X115672000Y-93442306D01*
X115672000Y-99427596D01*
X115568349Y-99368256D01*
X113971605Y-100965000D01*
X113985748Y-100979143D01*
X113806143Y-101158748D01*
X113792000Y-101144605D01*
X112195256Y-102741349D01*
X112254596Y-102845000D01*
X108524090Y-102845000D01*
X108617962Y-102767962D01*
X108728405Y-102633386D01*
X108810472Y-102479850D01*
X108861008Y-102313254D01*
X108878072Y-102140000D01*
X108878072Y-100992021D01*
X111244877Y-100992021D01*
X111299091Y-101488422D01*
X111449106Y-101964707D01*
X111659133Y-102357638D01*
X112015651Y-102561744D01*
X113612395Y-100965000D01*
X112015651Y-99368256D01*
X111659133Y-99572362D01*
X111428425Y-100015223D01*
X111288548Y-100494583D01*
X111244877Y-100992021D01*
X108878072Y-100992021D01*
X108878072Y-99240000D01*
X108873015Y-99188651D01*
X112195256Y-99188651D01*
X113792000Y-100785395D01*
X115388744Y-99188651D01*
X115184638Y-98832133D01*
X114741777Y-98601425D01*
X114262417Y-98461548D01*
X113764979Y-98417877D01*
X113268578Y-98472091D01*
X112792293Y-98622106D01*
X112399362Y-98832133D01*
X112195256Y-99188651D01*
X108873015Y-99188651D01*
X108861008Y-99066746D01*
X108810472Y-98900150D01*
X108728405Y-98746614D01*
X108617962Y-98612038D01*
X108483386Y-98501595D01*
X108329850Y-98419528D01*
X108163254Y-98368992D01*
X107990000Y-98351928D01*
X106990000Y-98351928D01*
X106816746Y-98368992D01*
X106650150Y-98419528D01*
X106496614Y-98501595D01*
X106362038Y-98612038D01*
X106251595Y-98746614D01*
X106169528Y-98900150D01*
X106118992Y-99066746D01*
X106101928Y-99240000D01*
X106101928Y-102140000D01*
X106118992Y-102313254D01*
X106169528Y-102479850D01*
X106251595Y-102633386D01*
X106362038Y-102767962D01*
X106455910Y-102845000D01*
X101824090Y-102845000D01*
X101917962Y-102767962D01*
X102028405Y-102633386D01*
X102110472Y-102479850D01*
X102161008Y-102313254D01*
X102178072Y-102140000D01*
X102178072Y-99240000D01*
X102161008Y-99066746D01*
X102110472Y-98900150D01*
X102028405Y-98746614D01*
X101917962Y-98612038D01*
X101783386Y-98501595D01*
X101629850Y-98419528D01*
X101463254Y-98368992D01*
X101290000Y-98351928D01*
X100290000Y-98351928D01*
X100116746Y-98368992D01*
X99950150Y-98419528D01*
X99796614Y-98501595D01*
X99662038Y-98612038D01*
X99598666Y-98689257D01*
X99596000Y-98329750D01*
X99437250Y-98171000D01*
X98600500Y-98171000D01*
X98600500Y-99220250D01*
X98759250Y-99379000D01*
X98961000Y-99382072D01*
X99085482Y-99369812D01*
X99205180Y-99333502D01*
X99315494Y-99274537D01*
X99405828Y-99200402D01*
X99401928Y-99240000D01*
X99401928Y-102140000D01*
X99418992Y-102313254D01*
X99469528Y-102479850D01*
X99551595Y-102633386D01*
X99662038Y-102767962D01*
X99755910Y-102845000D01*
X75832404Y-102845000D01*
X75891744Y-102741349D01*
X74295000Y-101144605D01*
X74280858Y-101158748D01*
X74101253Y-100979143D01*
X74115395Y-100965000D01*
X74474605Y-100965000D01*
X76071349Y-102561744D01*
X76427867Y-102357638D01*
X76658575Y-101914777D01*
X76798452Y-101435417D01*
X76842123Y-100937979D01*
X76835452Y-100876890D01*
X76874048Y-100876890D01*
X76874048Y-101123110D01*
X76922083Y-101364598D01*
X77016307Y-101592074D01*
X77153099Y-101796798D01*
X77327202Y-101970901D01*
X77531926Y-102107693D01*
X77759402Y-102201917D01*
X78000890Y-102249952D01*
X78247110Y-102249952D01*
X78488598Y-102201917D01*
X78716074Y-102107693D01*
X78920798Y-101970901D01*
X79094901Y-101796798D01*
X79231693Y-101592074D01*
X79278115Y-101480000D01*
X79541928Y-101480000D01*
X79554188Y-101604482D01*
X79590498Y-101724180D01*
X79649463Y-101834494D01*
X79728815Y-101931185D01*
X79825506Y-102010537D01*
X79935820Y-102069502D01*
X80055518Y-102105812D01*
X80180000Y-102118072D01*
X80214250Y-102115000D01*
X80373000Y-101956250D01*
X80373000Y-101312000D01*
X80627000Y-101312000D01*
X80627000Y-101956250D01*
X80785750Y-102115000D01*
X80820000Y-102118072D01*
X80944482Y-102105812D01*
X81064180Y-102069502D01*
X81174494Y-102010537D01*
X81271185Y-101931185D01*
X81350537Y-101834494D01*
X81409502Y-101724180D01*
X81445812Y-101604482D01*
X81458072Y-101480000D01*
X82091928Y-101480000D01*
X82104188Y-101604482D01*
X82140498Y-101724180D01*
X82199463Y-101834494D01*
X82278815Y-101931185D01*
X82375506Y-102010537D01*
X82485820Y-102069502D01*
X82605518Y-102105812D01*
X82730000Y-102118072D01*
X82764250Y-102115000D01*
X82923000Y-101956250D01*
X82923000Y-101312000D01*
X83177000Y-101312000D01*
X83177000Y-101956250D01*
X83335750Y-102115000D01*
X83370000Y-102118072D01*
X83494482Y-102105812D01*
X83614180Y-102069502D01*
X83724494Y-102010537D01*
X83821185Y-101931185D01*
X83900537Y-101834494D01*
X83959502Y-101724180D01*
X83995812Y-101604482D01*
X84008072Y-101480000D01*
X84005000Y-101470750D01*
X83846250Y-101312000D01*
X83177000Y-101312000D01*
X82923000Y-101312000D01*
X82253750Y-101312000D01*
X82095000Y-101470750D01*
X82091928Y-101480000D01*
X81458072Y-101480000D01*
X81455000Y-101470750D01*
X81296250Y-101312000D01*
X80627000Y-101312000D01*
X80373000Y-101312000D01*
X79703750Y-101312000D01*
X79545000Y-101470750D01*
X79541928Y-101480000D01*
X79278115Y-101480000D01*
X79325917Y-101364598D01*
X79373952Y-101123110D01*
X79373952Y-100876890D01*
X79325917Y-100635402D01*
X79231693Y-100407926D01*
X79094901Y-100203202D01*
X78920798Y-100029099D01*
X78716074Y-99892307D01*
X78488598Y-99798083D01*
X78247110Y-99750048D01*
X78000890Y-99750048D01*
X77759402Y-99798083D01*
X77531926Y-99892307D01*
X77327202Y-100029099D01*
X77153099Y-100203202D01*
X77016307Y-100407926D01*
X76922083Y-100635402D01*
X76874048Y-100876890D01*
X76835452Y-100876890D01*
X76787909Y-100441578D01*
X76637894Y-99965293D01*
X76427867Y-99572362D01*
X76071349Y-99368256D01*
X74474605Y-100965000D01*
X74115395Y-100965000D01*
X72518651Y-99368256D01*
X72415000Y-99427596D01*
X72415000Y-99188651D01*
X72698256Y-99188651D01*
X74295000Y-100785395D01*
X75891744Y-99188651D01*
X75687638Y-98832133D01*
X75244777Y-98601425D01*
X74765417Y-98461548D01*
X74267979Y-98417877D01*
X73771578Y-98472091D01*
X73295293Y-98622106D01*
X72902362Y-98832133D01*
X72698256Y-99188651D01*
X72415000Y-99188651D01*
X72415000Y-96876890D01*
X72853524Y-96876890D01*
X72898175Y-97024099D01*
X73023359Y-97286920D01*
X73197412Y-97520269D01*
X73413645Y-97715178D01*
X73663748Y-97864157D01*
X73938109Y-97961481D01*
X74168000Y-97840814D01*
X74168000Y-96647000D01*
X74422000Y-96647000D01*
X74422000Y-97840814D01*
X74651891Y-97961481D01*
X74926252Y-97864157D01*
X75176355Y-97715178D01*
X75392588Y-97520269D01*
X75566641Y-97286920D01*
X75691825Y-97024099D01*
X75736476Y-96876890D01*
X75615155Y-96647000D01*
X74422000Y-96647000D01*
X74168000Y-96647000D01*
X72974845Y-96647000D01*
X72853524Y-96876890D01*
X72415000Y-96876890D01*
X72415000Y-77890000D01*
X72806928Y-77890000D01*
X72806928Y-79590000D01*
X72819188Y-79714482D01*
X72855498Y-79834180D01*
X72914463Y-79944494D01*
X72993815Y-80041185D01*
X73090506Y-80120537D01*
X73200820Y-80179502D01*
X73273380Y-80201513D01*
X73141525Y-80333368D01*
X72979010Y-80576589D01*
X72867068Y-80846842D01*
X72810000Y-81133740D01*
X72810000Y-81426260D01*
X72867068Y-81713158D01*
X72979010Y-81983411D01*
X73141525Y-82226632D01*
X73348368Y-82433475D01*
X73522760Y-82550000D01*
X73348368Y-82666525D01*
X73141525Y-82873368D01*
X72979010Y-83116589D01*
X72867068Y-83386842D01*
X72810000Y-83673740D01*
X72810000Y-83966260D01*
X72867068Y-84253158D01*
X72979010Y-84523411D01*
X73141525Y-84766632D01*
X73348368Y-84973475D01*
X73522760Y-85090000D01*
X73348368Y-85206525D01*
X73141525Y-85413368D01*
X72979010Y-85656589D01*
X72867068Y-85926842D01*
X72810000Y-86213740D01*
X72810000Y-86506260D01*
X72867068Y-86793158D01*
X72979010Y-87063411D01*
X73141525Y-87306632D01*
X73348368Y-87513475D01*
X73522760Y-87630000D01*
X73348368Y-87746525D01*
X73141525Y-87953368D01*
X72979010Y-88196589D01*
X72867068Y-88466842D01*
X72810000Y-88753740D01*
X72810000Y-89046260D01*
X72867068Y-89333158D01*
X72979010Y-89603411D01*
X73141525Y-89846632D01*
X73348368Y-90053475D01*
X73522760Y-90170000D01*
X73348368Y-90286525D01*
X73141525Y-90493368D01*
X72979010Y-90736589D01*
X72867068Y-91006842D01*
X72810000Y-91293740D01*
X72810000Y-91586260D01*
X72867068Y-91873158D01*
X72979010Y-92143411D01*
X73141525Y-92386632D01*
X73348368Y-92593475D01*
X73522760Y-92710000D01*
X73348368Y-92826525D01*
X73141525Y-93033368D01*
X72979010Y-93276589D01*
X72867068Y-93546842D01*
X72810000Y-93833740D01*
X72810000Y-94126260D01*
X72867068Y-94413158D01*
X72979010Y-94683411D01*
X73141525Y-94926632D01*
X73348368Y-95133475D01*
X73530534Y-95255195D01*
X73413645Y-95324822D01*
X73197412Y-95519731D01*
X73023359Y-95753080D01*
X72898175Y-96015901D01*
X72853524Y-96163110D01*
X72974845Y-96393000D01*
X74168000Y-96393000D01*
X74168000Y-96373000D01*
X74422000Y-96373000D01*
X74422000Y-96393000D01*
X75615155Y-96393000D01*
X75736476Y-96163110D01*
X75691825Y-96015901D01*
X75566641Y-95753080D01*
X75392588Y-95519731D01*
X75176355Y-95324822D01*
X75059466Y-95255195D01*
X75241632Y-95133475D01*
X75448475Y-94926632D01*
X75610990Y-94683411D01*
X75722932Y-94413158D01*
X75780000Y-94126260D01*
X75780000Y-93833740D01*
X75722932Y-93546842D01*
X75610990Y-93276589D01*
X75448475Y-93033368D01*
X75241632Y-92826525D01*
X75067240Y-92710000D01*
X75241632Y-92593475D01*
X75448475Y-92386632D01*
X75610990Y-92143411D01*
X75722932Y-91873158D01*
X75780000Y-91586260D01*
X75780000Y-91293740D01*
X75722932Y-91006842D01*
X75610990Y-90736589D01*
X75448475Y-90493368D01*
X75241632Y-90286525D01*
X75067240Y-90170000D01*
X75241632Y-90053475D01*
X75448475Y-89846632D01*
X75610990Y-89603411D01*
X75722932Y-89333158D01*
X75780000Y-89046260D01*
X75780000Y-88753740D01*
X75722932Y-88466842D01*
X75610990Y-88196589D01*
X75448475Y-87953368D01*
X75241632Y-87746525D01*
X75067240Y-87630000D01*
X75241632Y-87513475D01*
X75448475Y-87306632D01*
X75610990Y-87063411D01*
X75722932Y-86793158D01*
X75780000Y-86506260D01*
X75780000Y-86213740D01*
X75722932Y-85926842D01*
X75610990Y-85656589D01*
X75448475Y-85413368D01*
X75241632Y-85206525D01*
X75067240Y-85090000D01*
X75241632Y-84973475D01*
X75448475Y-84766632D01*
X75610990Y-84523411D01*
X75722932Y-84253158D01*
X75780000Y-83966260D01*
X75780000Y-83673740D01*
X75722932Y-83386842D01*
X75610990Y-83116589D01*
X75448475Y-82873368D01*
X75241632Y-82666525D01*
X75067240Y-82550000D01*
X75241632Y-82433475D01*
X75448475Y-82226632D01*
X75610990Y-81983411D01*
X75722932Y-81713158D01*
X75780000Y-81426260D01*
X75780000Y-81133740D01*
X75722932Y-80846842D01*
X75610990Y-80576589D01*
X75448475Y-80333368D01*
X75316620Y-80201513D01*
X75389180Y-80179502D01*
X75499494Y-80120537D01*
X75596185Y-80041185D01*
X75675537Y-79944494D01*
X75734502Y-79834180D01*
X75770812Y-79714482D01*
X75783072Y-79590000D01*
X75783072Y-77890000D01*
X75770812Y-77765518D01*
X75734502Y-77645820D01*
X75675537Y-77535506D01*
X75596185Y-77438815D01*
X75499494Y-77359463D01*
X75389180Y-77300498D01*
X75269482Y-77264188D01*
X75145000Y-77251928D01*
X73445000Y-77251928D01*
X73320518Y-77264188D01*
X73200820Y-77300498D01*
X73090506Y-77359463D01*
X72993815Y-77438815D01*
X72914463Y-77535506D01*
X72855498Y-77645820D01*
X72819188Y-77765518D01*
X72806928Y-77890000D01*
X72415000Y-77890000D01*
X72415000Y-76071349D01*
X72698256Y-76071349D01*
X72902362Y-76427867D01*
X73345223Y-76658575D01*
X73824583Y-76798452D01*
X74322021Y-76842123D01*
X74818422Y-76787909D01*
X75294707Y-76637894D01*
X75687638Y-76427867D01*
X75891744Y-76071349D01*
X74295000Y-74474605D01*
X72698256Y-76071349D01*
X72415000Y-76071349D01*
X72415000Y-75832404D01*
X72518651Y-75891744D01*
X74115395Y-74295000D01*
X74474605Y-74295000D01*
X76071349Y-75891744D01*
X76427867Y-75687638D01*
X76499569Y-75550000D01*
X77151928Y-75550000D01*
X77164188Y-75674482D01*
X77200498Y-75794180D01*
X77259463Y-75904494D01*
X77338815Y-76001185D01*
X77435506Y-76080537D01*
X77545820Y-76139502D01*
X77665518Y-76175812D01*
X77790000Y-76188072D01*
X77874250Y-76185000D01*
X78033000Y-76026250D01*
X78033000Y-74477000D01*
X77313750Y-74477000D01*
X77155000Y-74635750D01*
X77151928Y-75550000D01*
X76499569Y-75550000D01*
X76658575Y-75244777D01*
X76798452Y-74765417D01*
X76842123Y-74267979D01*
X76787909Y-73771578D01*
X76637894Y-73295293D01*
X76560233Y-73150000D01*
X77151928Y-73150000D01*
X77155000Y-74064250D01*
X77313750Y-74223000D01*
X78033000Y-74223000D01*
X78033000Y-72673750D01*
X78287000Y-72673750D01*
X78287000Y-74223000D01*
X78307000Y-74223000D01*
X78307000Y-74477000D01*
X78287000Y-74477000D01*
X78287000Y-76026250D01*
X78445750Y-76185000D01*
X78530000Y-76188072D01*
X78654482Y-76175812D01*
X78774180Y-76139502D01*
X78795000Y-76128373D01*
X78815820Y-76139502D01*
X78935518Y-76175812D01*
X79060000Y-76188072D01*
X79800000Y-76188072D01*
X79924482Y-76175812D01*
X80044180Y-76139502D01*
X80065000Y-76128373D01*
X80085820Y-76139502D01*
X80205518Y-76175812D01*
X80330000Y-76188072D01*
X80414250Y-76185000D01*
X80573000Y-76026250D01*
X80573000Y-74477000D01*
X80827000Y-74477000D01*
X80827000Y-76026250D01*
X80985750Y-76185000D01*
X81070000Y-76188072D01*
X81194482Y-76175812D01*
X81314180Y-76139502D01*
X81335000Y-76128373D01*
X81355820Y-76139502D01*
X81475518Y-76175812D01*
X81600000Y-76188072D01*
X81684250Y-76185000D01*
X81843000Y-76026250D01*
X81843000Y-74477000D01*
X80827000Y-74477000D01*
X80573000Y-74477000D01*
X80553000Y-74477000D01*
X80553000Y-74223000D01*
X80573000Y-74223000D01*
X80573000Y-72673750D01*
X80827000Y-72673750D01*
X80827000Y-74223000D01*
X81843000Y-74223000D01*
X81843000Y-72673750D01*
X81684250Y-72515000D01*
X81600000Y-72511928D01*
X81475518Y-72524188D01*
X81355820Y-72560498D01*
X81335000Y-72571627D01*
X81314180Y-72560498D01*
X81194482Y-72524188D01*
X81070000Y-72511928D01*
X80985750Y-72515000D01*
X80827000Y-72673750D01*
X80573000Y-72673750D01*
X80414250Y-72515000D01*
X80330000Y-72511928D01*
X80205518Y-72524188D01*
X80085820Y-72560498D01*
X80065000Y-72571627D01*
X80044180Y-72560498D01*
X79924482Y-72524188D01*
X79800000Y-72511928D01*
X79060000Y-72511928D01*
X78935518Y-72524188D01*
X78815820Y-72560498D01*
X78795000Y-72571627D01*
X78774180Y-72560498D01*
X78654482Y-72524188D01*
X78530000Y-72511928D01*
X78445750Y-72515000D01*
X78287000Y-72673750D01*
X78033000Y-72673750D01*
X77874250Y-72515000D01*
X77790000Y-72511928D01*
X77665518Y-72524188D01*
X77545820Y-72560498D01*
X77435506Y-72619463D01*
X77338815Y-72698815D01*
X77259463Y-72795506D01*
X77200498Y-72905820D01*
X77164188Y-73025518D01*
X77151928Y-73150000D01*
X76560233Y-73150000D01*
X76427867Y-72902362D01*
X76071349Y-72698256D01*
X74474605Y-74295000D01*
X74115395Y-74295000D01*
X74101253Y-74280858D01*
X74280858Y-74101253D01*
X74295000Y-74115395D01*
X75891744Y-72518651D01*
X75832404Y-72415000D01*
X83569868Y-72415000D01*
X83472940Y-72511928D01*
G37*
%TD.AperFunction*%
D27*
X79276928Y-95020500D02*
X79292023Y-95173757D01*
X79315001Y-95249505D01*
X79315000Y-95761545D01*
X79282795Y-95809744D01*
X79204774Y-95998102D01*
X79181055Y-96117344D01*
X79109000Y-96045289D01*
X79109000Y-95648250D01*
X79113000Y-95644250D01*
X79113000Y-94975000D01*
X79109000Y-94975000D01*
X79109000Y-94721000D01*
X79113000Y-94721000D01*
X79113000Y-94701000D01*
X79276928Y-94701000D01*
X79276928Y-95020500D01*
%TA.AperFunction,Conductor*%
D28*
G36*
X79276928Y-95020500D02*
G01*
X79292023Y-95173757D01*
X79315001Y-95249505D01*
X79315000Y-95761545D01*
X79282795Y-95809744D01*
X79204774Y-95998102D01*
X79181055Y-96117344D01*
X79109000Y-96045289D01*
X79109000Y-95648250D01*
X79113000Y-95644250D01*
X79113000Y-94975000D01*
X79109000Y-94975000D01*
X79109000Y-94721000D01*
X79113000Y-94721000D01*
X79113000Y-94701000D01*
X79276928Y-94701000D01*
X79276928Y-95020500D01*
G37*
%TD.AperFunction*%
D27*
X80085820Y-80039502D02*
X80205518Y-80075812D01*
X80330000Y-80088072D01*
X81070000Y-80088072D01*
X81085001Y-80086595D01*
X81085001Y-81041521D01*
X81080719Y-81085000D01*
X81097805Y-81258490D01*
X81148412Y-81425313D01*
X81230590Y-81579059D01*
X81256521Y-81610655D01*
X81257023Y-81615757D01*
X81301726Y-81763125D01*
X81321436Y-81800000D01*
X81301726Y-81836875D01*
X81257023Y-81984243D01*
X81241928Y-82137500D01*
X81241928Y-82432500D01*
X81257023Y-82585757D01*
X81301726Y-82733125D01*
X81315001Y-82757960D01*
X81315000Y-84101271D01*
X81213072Y-84203200D01*
X81213072Y-83868750D01*
X81196608Y-83701592D01*
X81147850Y-83540858D01*
X81068671Y-83392725D01*
X81050900Y-83371070D01*
X81105537Y-83304494D01*
X81164502Y-83194180D01*
X81200812Y-83074482D01*
X81213072Y-82950000D01*
X81210000Y-82798250D01*
X81051250Y-82639500D01*
X80227000Y-82639500D01*
X80227000Y-82659500D01*
X79973000Y-82659500D01*
X79973000Y-82639500D01*
X79953000Y-82639500D01*
X79953000Y-82385500D01*
X79973000Y-82385500D01*
X79973000Y-81598750D01*
X80227000Y-81598750D01*
X80227000Y-82385500D01*
X81051250Y-82385500D01*
X81210000Y-82226750D01*
X81213072Y-82075000D01*
X81200812Y-81950518D01*
X81164502Y-81830820D01*
X81105537Y-81720506D01*
X81026185Y-81623815D01*
X80929494Y-81544463D01*
X80819180Y-81485498D01*
X80699482Y-81449188D01*
X80575000Y-81436928D01*
X80385750Y-81440000D01*
X80227000Y-81598750D01*
X79973000Y-81598750D01*
X79814250Y-81440000D01*
X79625000Y-81436928D01*
X79500518Y-81449188D01*
X79380820Y-81485498D01*
X79270506Y-81544463D01*
X79173815Y-81623815D01*
X79094463Y-81720506D01*
X79035498Y-81830820D01*
X79015967Y-81895203D01*
X78998274Y-81836875D01*
X78978564Y-81800000D01*
X78998274Y-81763125D01*
X79042977Y-81615757D01*
X79058072Y-81462500D01*
X79058072Y-81167500D01*
X79042977Y-81014243D01*
X78998274Y-80866875D01*
X78985000Y-80842041D01*
X78985000Y-80080685D01*
X79060000Y-80088072D01*
X79800000Y-80088072D01*
X79924482Y-80075812D01*
X80044180Y-80039502D01*
X80065000Y-80028373D01*
X80085820Y-80039502D01*
%TA.AperFunction,Conductor*%
D28*
G36*
X80085820Y-80039502D02*
G01*
X80205518Y-80075812D01*
X80330000Y-80088072D01*
X81070000Y-80088072D01*
X81085001Y-80086595D01*
X81085001Y-81041521D01*
X81080719Y-81085000D01*
X81097805Y-81258490D01*
X81148412Y-81425313D01*
X81230590Y-81579059D01*
X81256521Y-81610655D01*
X81257023Y-81615757D01*
X81301726Y-81763125D01*
X81321436Y-81800000D01*
X81301726Y-81836875D01*
X81257023Y-81984243D01*
X81241928Y-82137500D01*
X81241928Y-82432500D01*
X81257023Y-82585757D01*
X81301726Y-82733125D01*
X81315001Y-82757960D01*
X81315000Y-84101271D01*
X81213072Y-84203200D01*
X81213072Y-83868750D01*
X81196608Y-83701592D01*
X81147850Y-83540858D01*
X81068671Y-83392725D01*
X81050900Y-83371070D01*
X81105537Y-83304494D01*
X81164502Y-83194180D01*
X81200812Y-83074482D01*
X81213072Y-82950000D01*
X81210000Y-82798250D01*
X81051250Y-82639500D01*
X80227000Y-82639500D01*
X80227000Y-82659500D01*
X79973000Y-82659500D01*
X79973000Y-82639500D01*
X79953000Y-82639500D01*
X79953000Y-82385500D01*
X79973000Y-82385500D01*
X79973000Y-81598750D01*
X80227000Y-81598750D01*
X80227000Y-82385500D01*
X81051250Y-82385500D01*
X81210000Y-82226750D01*
X81213072Y-82075000D01*
X81200812Y-81950518D01*
X81164502Y-81830820D01*
X81105537Y-81720506D01*
X81026185Y-81623815D01*
X80929494Y-81544463D01*
X80819180Y-81485498D01*
X80699482Y-81449188D01*
X80575000Y-81436928D01*
X80385750Y-81440000D01*
X80227000Y-81598750D01*
X79973000Y-81598750D01*
X79814250Y-81440000D01*
X79625000Y-81436928D01*
X79500518Y-81449188D01*
X79380820Y-81485498D01*
X79270506Y-81544463D01*
X79173815Y-81623815D01*
X79094463Y-81720506D01*
X79035498Y-81830820D01*
X79015967Y-81895203D01*
X78998274Y-81836875D01*
X78978564Y-81800000D01*
X78998274Y-81763125D01*
X79042977Y-81615757D01*
X79058072Y-81462500D01*
X79058072Y-81167500D01*
X79042977Y-81014243D01*
X78998274Y-80866875D01*
X78985000Y-80842041D01*
X78985000Y-80080685D01*
X79060000Y-80088072D01*
X79800000Y-80088072D01*
X79924482Y-80075812D01*
X80044180Y-80039502D01*
X80065000Y-80028373D01*
X80085820Y-80039502D01*
G37*
%TD.AperFunction*%
D27*
X87410498Y-79194180D02*
X87469463Y-79304494D01*
X87548815Y-79401185D01*
X87645506Y-79480537D01*
X87755820Y-79539502D01*
X87875518Y-79575812D01*
X88000000Y-79588072D01*
X88365002Y-79588072D01*
X88365002Y-80625417D01*
X85605000Y-83385420D01*
X85605000Y-79447295D01*
X85645506Y-79480537D01*
X85755820Y-79539502D01*
X85875518Y-79575812D01*
X86000000Y-79588072D01*
X86800000Y-79588072D01*
X86924482Y-79575812D01*
X87044180Y-79539502D01*
X87154494Y-79480537D01*
X87251185Y-79401185D01*
X87330537Y-79304494D01*
X87389502Y-79194180D01*
X87400000Y-79159573D01*
X87410498Y-79194180D01*
%TA.AperFunction,Conductor*%
D28*
G36*
X87410498Y-79194180D02*
G01*
X87469463Y-79304494D01*
X87548815Y-79401185D01*
X87645506Y-79480537D01*
X87755820Y-79539502D01*
X87875518Y-79575812D01*
X88000000Y-79588072D01*
X88365002Y-79588072D01*
X88365002Y-80625417D01*
X85605000Y-83385420D01*
X85605000Y-79447295D01*
X85645506Y-79480537D01*
X85755820Y-79539502D01*
X85875518Y-79575812D01*
X86000000Y-79588072D01*
X86800000Y-79588072D01*
X86924482Y-79575812D01*
X87044180Y-79539502D01*
X87154494Y-79480537D01*
X87251185Y-79401185D01*
X87330537Y-79304494D01*
X87389502Y-79194180D01*
X87400000Y-79159573D01*
X87410498Y-79194180D01*
G37*
%TD.AperFunction*%
D27*
X86400000Y-77589282D02*
X86412285Y-77588072D01*
X86547000Y-77588072D01*
X86547000Y-77811928D01*
X86253000Y-77811928D01*
X86253000Y-77638577D01*
X86303505Y-77588072D01*
X86387714Y-77588072D01*
X86400000Y-77589282D01*
%TA.AperFunction,Conductor*%
D28*
G36*
X86400000Y-77589282D02*
G01*
X86412285Y-77588072D01*
X86547000Y-77588072D01*
X86547000Y-77811928D01*
X86253000Y-77811928D01*
X86253000Y-77638577D01*
X86303505Y-77588072D01*
X86387714Y-77588072D01*
X86400000Y-77589282D01*
G37*
%TD.AperFunction*%
D27*
X89282181Y-72481241D02*
X89274243Y-72482023D01*
X89126875Y-72526726D01*
X89109416Y-72536058D01*
X89024180Y-72490498D01*
X88904482Y-72454188D01*
X88780000Y-72441928D01*
X88770750Y-72445000D01*
X88612000Y-72603750D01*
X88612000Y-73273000D01*
X88632000Y-73273000D01*
X88632000Y-73527000D01*
X88612000Y-73527000D01*
X88612000Y-74373000D01*
X88632000Y-74373000D01*
X88632000Y-74627000D01*
X88612000Y-74627000D01*
X88612000Y-74647000D01*
X88448072Y-74647000D01*
X88448072Y-74327500D01*
X88432977Y-74174243D01*
X88400000Y-74065531D01*
X88400000Y-73834469D01*
X88432977Y-73725757D01*
X88448072Y-73572500D01*
X88448072Y-73227500D01*
X88432977Y-73074243D01*
X88388274Y-72926875D01*
X88358000Y-72870237D01*
X88358000Y-72603750D01*
X88199250Y-72445000D01*
X88190000Y-72441928D01*
X88065518Y-72454188D01*
X87945820Y-72490498D01*
X87938684Y-72494312D01*
X87815757Y-72457023D01*
X87662500Y-72441928D01*
X87367500Y-72441928D01*
X87214243Y-72457023D01*
X87066875Y-72501726D01*
X87013978Y-72530000D01*
X86834469Y-72530000D01*
X86737016Y-72500438D01*
X86651578Y-72415000D01*
X89348422Y-72415000D01*
X89282181Y-72481241D01*
%TA.AperFunction,Conductor*%
D28*
G36*
X89282181Y-72481241D02*
G01*
X89274243Y-72482023D01*
X89126875Y-72526726D01*
X89109416Y-72536058D01*
X89024180Y-72490498D01*
X88904482Y-72454188D01*
X88780000Y-72441928D01*
X88770750Y-72445000D01*
X88612000Y-72603750D01*
X88612000Y-73273000D01*
X88632000Y-73273000D01*
X88632000Y-73527000D01*
X88612000Y-73527000D01*
X88612000Y-74373000D01*
X88632000Y-74373000D01*
X88632000Y-74627000D01*
X88612000Y-74627000D01*
X88612000Y-74647000D01*
X88448072Y-74647000D01*
X88448072Y-74327500D01*
X88432977Y-74174243D01*
X88400000Y-74065531D01*
X88400000Y-73834469D01*
X88432977Y-73725757D01*
X88448072Y-73572500D01*
X88448072Y-73227500D01*
X88432977Y-73074243D01*
X88388274Y-72926875D01*
X88358000Y-72870237D01*
X88358000Y-72603750D01*
X88199250Y-72445000D01*
X88190000Y-72441928D01*
X88065518Y-72454188D01*
X87945820Y-72490498D01*
X87938684Y-72494312D01*
X87815757Y-72457023D01*
X87662500Y-72441928D01*
X87367500Y-72441928D01*
X87214243Y-72457023D01*
X87066875Y-72501726D01*
X87013978Y-72530000D01*
X86834469Y-72530000D01*
X86737016Y-72500438D01*
X86651578Y-72415000D01*
X89348422Y-72415000D01*
X89282181Y-72481241D01*
G37*
%TD.AperFunction*%
%TD*%
M02*
