%TF.GenerationSoftware,KiCad,Pcbnew,5.1.9*%
%TF.CreationDate,2021-02-20T15:12:24-08:00*%
%TF.ProjectId,Transmitter,5472616e-736d-4697-9474-65722e6b6963,rev?*%
%TF.SameCoordinates,Original*%
%TF.FileFunction,Copper,L4,Bot*%
%TF.FilePolarity,Positive*%
%FSLAX46Y46*%
G04 Gerber Fmt 4.6, Leading zero omitted, Abs format (unit mm)*
G04 Created by KiCad (PCBNEW 5.1.9) date 2021-02-20 15:12:24*
%MOMM*%
%LPD*%
G01*
G04 APERTURE LIST*
%TA.AperFunction,EtchedComponent*%
%ADD10C,0.010000*%
%TD*%
%TA.AperFunction,EtchedComponent*%
%ADD11C,0.100000*%
%TD*%
%TA.AperFunction,SMDPad,CuDef*%
%ADD12C,0.100000*%
%TD*%
%TA.AperFunction,ComponentPad*%
%ADD13C,1.750000*%
%TD*%
%TA.AperFunction,ComponentPad*%
%ADD14C,3.800000*%
%TD*%
%TA.AperFunction,SMDPad,CuDef*%
%ADD15R,2.000000X2.000000*%
%TD*%
%TA.AperFunction,ComponentPad*%
%ADD16O,1.700000X1.700000*%
%TD*%
%TA.AperFunction,ComponentPad*%
%ADD17R,1.700000X1.700000*%
%TD*%
%TA.AperFunction,SMDPad,CuDef*%
%ADD18R,1.500000X1.000000*%
%TD*%
%TA.AperFunction,SMDPad,CuDef*%
%ADD19R,1.000000X1.500000*%
%TD*%
%TA.AperFunction,ViaPad*%
%ADD20C,0.800000*%
%TD*%
%TA.AperFunction,Conductor*%
%ADD21C,0.500000*%
%TD*%
%TA.AperFunction,Conductor*%
%ADD22C,1.000000*%
%TD*%
%TA.AperFunction,Conductor*%
%ADD23C,0.250000*%
%TD*%
%TA.AperFunction,Conductor*%
%ADD24C,0.254000*%
%TD*%
%TA.AperFunction,Conductor*%
%ADD25C,0.100000*%
%TD*%
G04 APERTURE END LIST*
D10*
%TO.C,G\u002A\u002A\u002A*%
G36*
X104565200Y-96939600D02*
G01*
X104573358Y-97099331D01*
X104601601Y-97177346D01*
X104641400Y-97193600D01*
X104669636Y-97206742D01*
X104690086Y-97255073D01*
X104703930Y-97351942D01*
X104712344Y-97510702D01*
X104716508Y-97744704D01*
X104717600Y-98057200D01*
X104717600Y-98920800D01*
X104311200Y-98920800D01*
X104311200Y-98514400D01*
X104313322Y-98311914D01*
X104323091Y-98190559D01*
X104345619Y-98129898D01*
X104386013Y-98109495D01*
X104412800Y-98108000D01*
X104473741Y-98094627D01*
X104504134Y-98037865D01*
X104513966Y-97912749D01*
X104514400Y-97854000D01*
X104514400Y-97600000D01*
X103600000Y-97600000D01*
X103600000Y-97854000D01*
X103608158Y-98013731D01*
X103636401Y-98091746D01*
X103676200Y-98108000D01*
X103715298Y-98127141D01*
X103738762Y-98196593D01*
X103749975Y-98334395D01*
X103752400Y-98514400D01*
X103752400Y-98920800D01*
X103600000Y-98920800D01*
X103479009Y-98898081D01*
X103447600Y-98844600D01*
X103409045Y-98788241D01*
X103285994Y-98768537D01*
X103269800Y-98768400D01*
X103092000Y-98768400D01*
X103092000Y-99428800D01*
X103752400Y-99428800D01*
X103752400Y-99835200D01*
X103117400Y-99835200D01*
X102848410Y-99833401D01*
X102665695Y-99826782D01*
X102553976Y-99813511D01*
X102497972Y-99791752D01*
X102482404Y-99759672D01*
X102482400Y-99759000D01*
X102443845Y-99702641D01*
X102320794Y-99682937D01*
X102304600Y-99682800D01*
X102126800Y-99682800D01*
X102126800Y-100343200D01*
X104463600Y-100343200D01*
X104463600Y-100089200D01*
X104455443Y-99929468D01*
X104427200Y-99851453D01*
X104387400Y-99835200D01*
X104334416Y-99801646D01*
X104312583Y-99690418D01*
X104311200Y-99632000D01*
X104311200Y-99428800D01*
X105428800Y-99428800D01*
X105428800Y-99174800D01*
X105420643Y-99015068D01*
X105392400Y-98937053D01*
X105352600Y-98920800D01*
X105324365Y-98907657D01*
X105303915Y-98859326D01*
X105290071Y-98762457D01*
X105281657Y-98603697D01*
X105277493Y-98369695D01*
X105276400Y-98057200D01*
X105277560Y-97737199D01*
X105281825Y-97505428D01*
X105290372Y-97348535D01*
X105304380Y-97253169D01*
X105325027Y-97205977D01*
X105352600Y-97193600D01*
X105400520Y-97166408D01*
X105423924Y-97072263D01*
X105428800Y-96939600D01*
X105428800Y-96685600D01*
X104565200Y-96685600D01*
X104565200Y-96939600D01*
G37*
X104565200Y-96939600D02*
X104573358Y-97099331D01*
X104601601Y-97177346D01*
X104641400Y-97193600D01*
X104669636Y-97206742D01*
X104690086Y-97255073D01*
X104703930Y-97351942D01*
X104712344Y-97510702D01*
X104716508Y-97744704D01*
X104717600Y-98057200D01*
X104717600Y-98920800D01*
X104311200Y-98920800D01*
X104311200Y-98514400D01*
X104313322Y-98311914D01*
X104323091Y-98190559D01*
X104345619Y-98129898D01*
X104386013Y-98109495D01*
X104412800Y-98108000D01*
X104473741Y-98094627D01*
X104504134Y-98037865D01*
X104513966Y-97912749D01*
X104514400Y-97854000D01*
X104514400Y-97600000D01*
X103600000Y-97600000D01*
X103600000Y-97854000D01*
X103608158Y-98013731D01*
X103636401Y-98091746D01*
X103676200Y-98108000D01*
X103715298Y-98127141D01*
X103738762Y-98196593D01*
X103749975Y-98334395D01*
X103752400Y-98514400D01*
X103752400Y-98920800D01*
X103600000Y-98920800D01*
X103479009Y-98898081D01*
X103447600Y-98844600D01*
X103409045Y-98788241D01*
X103285994Y-98768537D01*
X103269800Y-98768400D01*
X103092000Y-98768400D01*
X103092000Y-99428800D01*
X103752400Y-99428800D01*
X103752400Y-99835200D01*
X103117400Y-99835200D01*
X102848410Y-99833401D01*
X102665695Y-99826782D01*
X102553976Y-99813511D01*
X102497972Y-99791752D01*
X102482404Y-99759672D01*
X102482400Y-99759000D01*
X102443845Y-99702641D01*
X102320794Y-99682937D01*
X102304600Y-99682800D01*
X102126800Y-99682800D01*
X102126800Y-100343200D01*
X104463600Y-100343200D01*
X104463600Y-100089200D01*
X104455443Y-99929468D01*
X104427200Y-99851453D01*
X104387400Y-99835200D01*
X104334416Y-99801646D01*
X104312583Y-99690418D01*
X104311200Y-99632000D01*
X104311200Y-99428800D01*
X105428800Y-99428800D01*
X105428800Y-99174800D01*
X105420643Y-99015068D01*
X105392400Y-98937053D01*
X105352600Y-98920800D01*
X105324365Y-98907657D01*
X105303915Y-98859326D01*
X105290071Y-98762457D01*
X105281657Y-98603697D01*
X105277493Y-98369695D01*
X105276400Y-98057200D01*
X105277560Y-97737199D01*
X105281825Y-97505428D01*
X105290372Y-97348535D01*
X105304380Y-97253169D01*
X105325027Y-97205977D01*
X105352600Y-97193600D01*
X105400520Y-97166408D01*
X105423924Y-97072263D01*
X105428800Y-96939600D01*
X105428800Y-96685600D01*
X104565200Y-96685600D01*
X104565200Y-96939600D01*
D11*
%TO.C,S1*%
G36*
X77200000Y-97700000D02*
G01*
X77200000Y-97200000D01*
X76600000Y-97200000D01*
X76600000Y-97700000D01*
X77200000Y-97700000D01*
G37*
%TD*%
%TA.AperFunction,SMDPad,CuDef*%
D12*
%TO.P,CFG1,1*%
%TO.N,HSE_IN*%
G36*
X90900000Y-89600000D02*
G01*
X90400000Y-90350000D01*
X89400000Y-90350000D01*
X89400000Y-88850000D01*
X90400000Y-88850000D01*
X90900000Y-89600000D01*
G37*
%TD.AperFunction*%
%TA.AperFunction,SMDPad,CuDef*%
%TO.P,CFG1,2*%
%TO.N,Net-(CFG1-Pad2)*%
G36*
X91850000Y-90350000D02*
G01*
X90700000Y-90350000D01*
X91200000Y-89600000D01*
X90700000Y-88850000D01*
X91850000Y-88850000D01*
X91850000Y-90350000D01*
G37*
%TD.AperFunction*%
%TD*%
D13*
%TO.P,J1,1*%
%TO.N,Net-(J1-Pad1)*%
X111633000Y-90805000D03*
%TD*%
D14*
%TO.P,H1,1*%
%TO.N,GND*%
X74295000Y-74295000D03*
%TD*%
%TO.P,H2,1*%
%TO.N,GND*%
X74295000Y-100965000D03*
%TD*%
%TO.P,H3,1*%
%TO.N,GND*%
X113792000Y-74295000D03*
%TD*%
%TO.P,H4,1*%
%TO.N,GND*%
X113792000Y-100965000D03*
%TD*%
D15*
%TO.P,J3,4*%
%TO.N,GND*%
X97900000Y-90600000D03*
%TO.P,J3,3*%
%TO.N,USART2_TX*%
X97900000Y-93600000D03*
%TO.P,J3,2*%
%TO.N,USART2_RX*%
X97900000Y-96600000D03*
%TO.P,J3,1*%
%TO.N,+3V3*%
X97900000Y-99600000D03*
%TD*%
%TO.P,J5,4*%
%TO.N,GND*%
X90800000Y-78600000D03*
%TO.P,J5,3*%
%TO.N,I2C_SCL*%
X87800000Y-78600000D03*
%TO.P,J5,2*%
%TO.N,I2C_SDA*%
X84800000Y-78600000D03*
%TO.P,J5,1*%
%TO.N,+3V3*%
X81800000Y-78600000D03*
%TD*%
%TO.P,J6,6*%
%TO.N,GND*%
X101700000Y-91000000D03*
%TO.P,J6,5*%
%TO.N,CS*%
X101700000Y-88000000D03*
%TO.P,J6,4*%
%TO.N,SCK*%
X101700000Y-85000000D03*
%TO.P,J6,3*%
%TO.N,MISO*%
X101700000Y-82000000D03*
%TO.P,J6,2*%
%TO.N,MOSI*%
X101700000Y-79000000D03*
%TO.P,J6,1*%
%TO.N,+3V3*%
X101700000Y-76000000D03*
%TD*%
D16*
%TO.P,J7,8*%
%TO.N,GND*%
X74295000Y-96520000D03*
%TO.P,J7,7*%
%TO.N,SYS_WAKEUP*%
X74295000Y-93980000D03*
%TO.P,J7,6*%
%TO.N,USART2_CTS*%
X74295000Y-91440000D03*
%TO.P,J7,5*%
%TO.N,USART2_RTS*%
X74295000Y-88900000D03*
%TO.P,J7,4*%
%TO.N,ADC_9*%
X74295000Y-86360000D03*
%TO.P,J7,3*%
%TO.N,ADC_8*%
X74295000Y-83820000D03*
%TO.P,J7,2*%
%TO.N,ADC_1*%
X74295000Y-81280000D03*
D17*
%TO.P,J7,1*%
%TO.N,+3V3*%
X74295000Y-78740000D03*
%TD*%
D18*
%TO.P,S1,2*%
%TO.N,Net-(R9-Pad1)*%
X76900000Y-96800000D03*
%TO.P,S1,3*%
%TO.N,+3V3*%
X76900000Y-95500000D03*
%TO.P,S1,1*%
%TO.N,GND*%
X76900000Y-98100000D03*
%TD*%
D19*
%TO.P,S2,1*%
%TO.N,NRST*%
X78650000Y-83800000D03*
%TO.P,S2,2*%
%TO.N,GND*%
X79950000Y-83800000D03*
%TD*%
D20*
%TO.N,+3V3*%
X91000000Y-98000000D03*
X91000000Y-99000000D03*
X91000000Y-100000000D03*
X90000000Y-100000000D03*
X90000000Y-99000000D03*
X90000000Y-98000000D03*
X89000000Y-98000000D03*
X89000000Y-99000000D03*
X89000000Y-100000000D03*
X112000000Y-82000000D03*
X83000000Y-76000000D03*
X85000000Y-74000000D03*
X85000000Y-73000000D03*
X91000000Y-73000000D03*
X88300000Y-83200000D03*
X89300000Y-83200000D03*
X80200000Y-96300000D03*
X81200000Y-96300000D03*
X92500000Y-85800000D03*
X76900000Y-94830000D03*
X104000000Y-75700000D03*
X97000000Y-101600000D03*
%TO.N,GND*%
X109105000Y-94179000D03*
X110105000Y-94179000D03*
X111105000Y-94179000D03*
X112105000Y-94179000D03*
X114100000Y-94200000D03*
X113105000Y-94179000D03*
X115100000Y-94200000D03*
X115100000Y-94200000D03*
X115100000Y-98200000D03*
X113105000Y-98179000D03*
X114100000Y-98200000D03*
X109105000Y-95179000D03*
X110105000Y-95179000D03*
X111105000Y-95179000D03*
X112105000Y-95179000D03*
X113105000Y-95179000D03*
X114100000Y-95200000D03*
X114100000Y-95200000D03*
X115100000Y-95200000D03*
X115100000Y-96200000D03*
X115100000Y-97200000D03*
X114100000Y-96200000D03*
X114100000Y-97200000D03*
X113105000Y-97179000D03*
X113105000Y-97179000D03*
X112105000Y-96179000D03*
X113105000Y-96179000D03*
X112105000Y-97179000D03*
X112105000Y-98179000D03*
X111105000Y-102179000D03*
X111105000Y-101179000D03*
X111105000Y-100179000D03*
X111105000Y-99179000D03*
X111105000Y-98179000D03*
X111105000Y-97179000D03*
X111105000Y-96179000D03*
X110105000Y-96179000D03*
X110105000Y-97179000D03*
X110105000Y-98179000D03*
X110105000Y-99179000D03*
X110105000Y-101179000D03*
X110105000Y-100179000D03*
X110105000Y-102179000D03*
X109105000Y-102179000D03*
X109105000Y-101179000D03*
X109105000Y-100179000D03*
X109105000Y-99179000D03*
X109105000Y-98179000D03*
X109105000Y-97179000D03*
X109105000Y-96179000D03*
X82000000Y-76200000D03*
X88500000Y-75300000D03*
X86400000Y-81600000D03*
X86400000Y-80600000D03*
X87400000Y-80600000D03*
X80700000Y-76200000D03*
X79500000Y-80750000D03*
X80600000Y-80750000D03*
X88900000Y-86600000D03*
X81300000Y-82900000D03*
X78358002Y-98100000D03*
X97500000Y-87800000D03*
X98600000Y-87800000D03*
X98700000Y-82500000D03*
X97800000Y-81400000D03*
%TO.N,HSE_IN*%
X85500000Y-93100000D03*
%TO.N,Net-(CFG1-Pad2)*%
X92900000Y-89400000D03*
%TO.N,USART2_TX*%
X83300000Y-90800000D03*
X95600000Y-92700000D03*
%TO.N,USART2_RX*%
X81700000Y-92300000D03*
X100100000Y-96600000D03*
%TO.N,I2C_SDA*%
X84900000Y-76600000D03*
%TO.N,I2C_SCL*%
X89600000Y-75500000D03*
%TO.N,MOSI*%
X92800000Y-79900000D03*
%TO.N,MISO*%
X90595010Y-84800000D03*
X97100000Y-78800000D03*
%TO.N,SCK*%
X97200000Y-83000000D03*
%TO.N,CS*%
X92000000Y-91300000D03*
X93134998Y-83700000D03*
X97300000Y-85000000D03*
%TO.N,ADC_1*%
X86323959Y-91073959D03*
%TO.N,ADC_8*%
X85473959Y-89100000D03*
%TO.N,ADC_9*%
X84700000Y-88200000D03*
%TO.N,USART2_RTS*%
X82300000Y-87800000D03*
%TO.N,USART2_CTS*%
X83400000Y-87800000D03*
%TO.N,SYS_WAKEUP*%
X86414352Y-95862000D03*
%TO.N,RST*%
X92500000Y-87900000D03*
X85473959Y-90200000D03*
%TO.N,NRST*%
X83800000Y-93000000D03*
X76900000Y-82700000D03*
%TO.N,Net-(R9-Pad1)*%
X78400000Y-96800000D03*
%TD*%
D21*
%TO.N,+3V3*%
X76900000Y-95500000D02*
X76900000Y-94830000D01*
X102000000Y-75700000D02*
X101700000Y-76000000D01*
X104000000Y-75700000D02*
X102000000Y-75700000D01*
X83000000Y-77200000D02*
X83000000Y-76000000D01*
X81800000Y-78400000D02*
X83000000Y-77200000D01*
X97900000Y-100700000D02*
X97000000Y-101600000D01*
X97900000Y-99600000D02*
X97900000Y-100700000D01*
%TO.N,GND*%
X78358002Y-98100000D02*
X78358002Y-98100000D01*
X78358002Y-98100000D02*
X76900000Y-98100000D01*
X80400000Y-83800000D02*
X81300000Y-82900000D01*
X79950000Y-83800000D02*
X80400000Y-83800000D01*
D22*
%TO.N,HSE_IN*%
X86400000Y-93100000D02*
X89900000Y-89600000D01*
X85500000Y-93100000D02*
X86400000Y-93100000D01*
%TO.N,Net-(CFG1-Pad2)*%
X91800010Y-89400000D02*
X91600010Y-89600000D01*
X92900000Y-89400000D02*
X91800010Y-89400000D01*
D21*
%TO.N,USART2_TX*%
X97000000Y-92700000D02*
X97900000Y-93600000D01*
X95600000Y-92700000D02*
X97000000Y-92700000D01*
%TO.N,USART2_RX*%
X100100000Y-96600000D02*
X97900000Y-96600000D01*
%TO.N,I2C_SDA*%
X84800000Y-76700000D02*
X84900000Y-76600000D01*
X84800000Y-78400000D02*
X84800000Y-76700000D01*
%TO.N,I2C_SCL*%
X87800000Y-77300000D02*
X89600000Y-75500000D01*
X87800000Y-78400000D02*
X87800000Y-77300000D01*
%TO.N,MOSI*%
X94750001Y-77949999D02*
X92800000Y-79900000D01*
X100649999Y-77949999D02*
X94750001Y-77949999D01*
X101700000Y-79000000D02*
X100649999Y-77949999D01*
D23*
%TO.N,MISO*%
X96595010Y-78800000D02*
X97100000Y-78800000D01*
X90595010Y-84800000D02*
X96595010Y-78800000D01*
D21*
X98500000Y-78800000D02*
X101700000Y-82000000D01*
X97100000Y-78800000D02*
X98500000Y-78800000D01*
%TO.N,SCK*%
X99200000Y-85000000D02*
X97200000Y-83000000D01*
X101700000Y-85000000D02*
X99200000Y-85000000D01*
D23*
%TO.N,CS*%
X93725010Y-84290012D02*
X93134998Y-83700000D01*
X93725010Y-90140675D02*
X93725010Y-84290012D01*
X92565685Y-91300000D02*
X93725010Y-90140675D01*
X92000000Y-91300000D02*
X92565685Y-91300000D01*
D21*
X100300000Y-88000000D02*
X97300000Y-85000000D01*
X101700000Y-88000000D02*
X100300000Y-88000000D01*
%TO.N,ADC_1*%
X74615001Y-81600001D02*
X74295000Y-81280000D01*
X84300001Y-81600001D02*
X74615001Y-81600001D01*
X86323959Y-83623959D02*
X84300001Y-81600001D01*
X86323959Y-91073959D02*
X86323959Y-83623959D01*
%TO.N,ADC_8*%
X85550001Y-88749999D02*
X85550001Y-87494354D01*
X85473959Y-88826041D02*
X85550001Y-88749999D01*
X85473959Y-89100000D02*
X85473959Y-88826041D01*
X85550001Y-87494354D02*
X83715638Y-85659990D01*
X76134990Y-85659990D02*
X74295000Y-83820000D01*
X83715638Y-85659990D02*
X76134990Y-85659990D01*
%TO.N,ADC_9*%
X83425685Y-86360000D02*
X74295000Y-86360000D01*
X84700000Y-87634315D02*
X83425685Y-86360000D01*
X84700000Y-88200000D02*
X84700000Y-87634315D01*
%TO.N,USART2_RTS*%
X81200000Y-88900000D02*
X82300000Y-87800000D01*
X74295000Y-88900000D02*
X81200000Y-88900000D01*
%TO.N,USART2_CTS*%
X80625685Y-91440000D02*
X74295000Y-91440000D01*
X83400000Y-88665685D02*
X83400000Y-87800000D01*
X80625685Y-91440000D02*
X83400000Y-88665685D01*
%TO.N,SYS_WAKEUP*%
X84532352Y-93980000D02*
X74295000Y-93980000D01*
X86414352Y-95862000D02*
X84532352Y-93980000D01*
%TO.N,NRST*%
X78000000Y-83800000D02*
X76900000Y-82700000D01*
X78650000Y-83800000D02*
X78000000Y-83800000D01*
%TO.N,Net-(R9-Pad1)*%
X78400000Y-96800000D02*
X76900000Y-96800000D01*
%TD*%
D24*
%TO.N,GND*%
X84082795Y-72509744D02*
X84004774Y-72698102D01*
X83965000Y-72898061D01*
X83965000Y-73101939D01*
X84004774Y-73301898D01*
X84082795Y-73490256D01*
X84089306Y-73500000D01*
X84082795Y-73509744D01*
X84004774Y-73698102D01*
X83965000Y-73898061D01*
X83965000Y-74101939D01*
X84004774Y-74301898D01*
X84082795Y-74490256D01*
X84196063Y-74659774D01*
X84340226Y-74803937D01*
X84509744Y-74917205D01*
X84698102Y-74995226D01*
X84898061Y-75035000D01*
X85101939Y-75035000D01*
X85301898Y-74995226D01*
X85490256Y-74917205D01*
X85659774Y-74803937D01*
X85803937Y-74659774D01*
X85917205Y-74490256D01*
X85995226Y-74301898D01*
X86035000Y-74101939D01*
X86035000Y-73898061D01*
X85995226Y-73698102D01*
X85917205Y-73509744D01*
X85910694Y-73500000D01*
X85917205Y-73490256D01*
X85995226Y-73301898D01*
X86035000Y-73101939D01*
X86035000Y-72898061D01*
X85995226Y-72698102D01*
X85917205Y-72509744D01*
X85853899Y-72415000D01*
X90146101Y-72415000D01*
X90082795Y-72509744D01*
X90004774Y-72698102D01*
X89965000Y-72898061D01*
X89965000Y-73101939D01*
X90004774Y-73301898D01*
X90082795Y-73490256D01*
X90196063Y-73659774D01*
X90340226Y-73803937D01*
X90509744Y-73917205D01*
X90698102Y-73995226D01*
X90898061Y-74035000D01*
X91101939Y-74035000D01*
X91301898Y-73995226D01*
X91490256Y-73917205D01*
X91659774Y-73803937D01*
X91786821Y-73676890D01*
X92774048Y-73676890D01*
X92774048Y-73923110D01*
X92822083Y-74164598D01*
X92916307Y-74392074D01*
X93053099Y-74596798D01*
X93227202Y-74770901D01*
X93431926Y-74907693D01*
X93659402Y-75001917D01*
X93900890Y-75049952D01*
X94147110Y-75049952D01*
X94388598Y-75001917D01*
X94616074Y-74907693D01*
X94820798Y-74770901D01*
X94994901Y-74596798D01*
X95131693Y-74392074D01*
X95225917Y-74164598D01*
X95273952Y-73923110D01*
X95273952Y-73876890D01*
X108274048Y-73876890D01*
X108274048Y-74123110D01*
X108322083Y-74364598D01*
X108416307Y-74592074D01*
X108553099Y-74796798D01*
X108727202Y-74970901D01*
X108931926Y-75107693D01*
X109159402Y-75201917D01*
X109400890Y-75249952D01*
X109647110Y-75249952D01*
X109888598Y-75201917D01*
X110116074Y-75107693D01*
X110320798Y-74970901D01*
X110494901Y-74796798D01*
X110631693Y-74592074D01*
X110725917Y-74364598D01*
X110734386Y-74322021D01*
X111244877Y-74322021D01*
X111299091Y-74818422D01*
X111449106Y-75294707D01*
X111659133Y-75687638D01*
X112015651Y-75891744D01*
X113612395Y-74295000D01*
X112015651Y-72698256D01*
X111659133Y-72902362D01*
X111428425Y-73345223D01*
X111288548Y-73824583D01*
X111244877Y-74322021D01*
X110734386Y-74322021D01*
X110773952Y-74123110D01*
X110773952Y-73876890D01*
X110725917Y-73635402D01*
X110631693Y-73407926D01*
X110494901Y-73203202D01*
X110320798Y-73029099D01*
X110116074Y-72892307D01*
X109888598Y-72798083D01*
X109647110Y-72750048D01*
X109400890Y-72750048D01*
X109159402Y-72798083D01*
X108931926Y-72892307D01*
X108727202Y-73029099D01*
X108553099Y-73203202D01*
X108416307Y-73407926D01*
X108322083Y-73635402D01*
X108274048Y-73876890D01*
X95273952Y-73876890D01*
X95273952Y-73676890D01*
X95225917Y-73435402D01*
X95131693Y-73207926D01*
X94994901Y-73003202D01*
X94820798Y-72829099D01*
X94616074Y-72692307D01*
X94388598Y-72598083D01*
X94147110Y-72550048D01*
X93900890Y-72550048D01*
X93659402Y-72598083D01*
X93431926Y-72692307D01*
X93227202Y-72829099D01*
X93053099Y-73003202D01*
X92916307Y-73207926D01*
X92822083Y-73435402D01*
X92774048Y-73676890D01*
X91786821Y-73676890D01*
X91803937Y-73659774D01*
X91917205Y-73490256D01*
X91995226Y-73301898D01*
X92035000Y-73101939D01*
X92035000Y-72898061D01*
X91995226Y-72698102D01*
X91917205Y-72509744D01*
X91853899Y-72415000D01*
X112254596Y-72415000D01*
X112195256Y-72518651D01*
X113792000Y-74115395D01*
X113806143Y-74101253D01*
X113985748Y-74280858D01*
X113971605Y-74295000D01*
X115568349Y-75891744D01*
X115672001Y-75832403D01*
X115672000Y-99427596D01*
X115568349Y-99368256D01*
X113971605Y-100965000D01*
X113985748Y-100979143D01*
X113806143Y-101158748D01*
X113792000Y-101144605D01*
X112195256Y-102741349D01*
X112254596Y-102845000D01*
X75832404Y-102845000D01*
X75891744Y-102741349D01*
X74295000Y-101144605D01*
X74280858Y-101158748D01*
X74101253Y-100979143D01*
X74115395Y-100965000D01*
X72518651Y-99368256D01*
X72415000Y-99427596D01*
X72415000Y-99188651D01*
X72698256Y-99188651D01*
X74295000Y-100785395D01*
X74309143Y-100771253D01*
X74488748Y-100950858D01*
X74474605Y-100965000D01*
X76071349Y-102561744D01*
X76427867Y-102357638D01*
X76658575Y-101914777D01*
X76798452Y-101435417D01*
X76842123Y-100937979D01*
X76835452Y-100876890D01*
X76874048Y-100876890D01*
X76874048Y-101123110D01*
X76922083Y-101364598D01*
X77016307Y-101592074D01*
X77153099Y-101796798D01*
X77327202Y-101970901D01*
X77531926Y-102107693D01*
X77759402Y-102201917D01*
X78000890Y-102249952D01*
X78247110Y-102249952D01*
X78488598Y-102201917D01*
X78716074Y-102107693D01*
X78920798Y-101970901D01*
X79094901Y-101796798D01*
X79231693Y-101592074D01*
X79325917Y-101364598D01*
X79373952Y-101123110D01*
X79373952Y-100876890D01*
X79325917Y-100635402D01*
X79231693Y-100407926D01*
X79094901Y-100203202D01*
X78920798Y-100029099D01*
X78716074Y-99892307D01*
X78488598Y-99798083D01*
X78247110Y-99750048D01*
X78000890Y-99750048D01*
X77759402Y-99798083D01*
X77531926Y-99892307D01*
X77327202Y-100029099D01*
X77153099Y-100203202D01*
X77016307Y-100407926D01*
X76922083Y-100635402D01*
X76874048Y-100876890D01*
X76835452Y-100876890D01*
X76787909Y-100441578D01*
X76637894Y-99965293D01*
X76427867Y-99572362D01*
X76071351Y-99368257D01*
X76185558Y-99254050D01*
X76169451Y-99237943D01*
X76614250Y-99235000D01*
X76773000Y-99076250D01*
X76773000Y-98335000D01*
X77027000Y-98335000D01*
X77027000Y-99076250D01*
X77185750Y-99235000D01*
X77650000Y-99238072D01*
X77774482Y-99225812D01*
X77894180Y-99189502D01*
X78004494Y-99130537D01*
X78101185Y-99051185D01*
X78180537Y-98954494D01*
X78239502Y-98844180D01*
X78275812Y-98724482D01*
X78288072Y-98600000D01*
X78285000Y-98385750D01*
X78126250Y-98227000D01*
X77553740Y-98227000D01*
X77597737Y-98191117D01*
X77644286Y-98153690D01*
X77645717Y-98151985D01*
X77647443Y-98150577D01*
X77685539Y-98104527D01*
X77723947Y-98058754D01*
X77725020Y-98056802D01*
X77726439Y-98055087D01*
X77754851Y-98002539D01*
X77771091Y-97973000D01*
X78126250Y-97973000D01*
X78201189Y-97898061D01*
X87965000Y-97898061D01*
X87965000Y-98101939D01*
X88004774Y-98301898D01*
X88082795Y-98490256D01*
X88089306Y-98500000D01*
X88082795Y-98509744D01*
X88004774Y-98698102D01*
X87965000Y-98898061D01*
X87965000Y-99101939D01*
X88004774Y-99301898D01*
X88082795Y-99490256D01*
X88089306Y-99500000D01*
X88082795Y-99509744D01*
X88004774Y-99698102D01*
X87965000Y-99898061D01*
X87965000Y-100101939D01*
X88004774Y-100301898D01*
X88082795Y-100490256D01*
X88196063Y-100659774D01*
X88340226Y-100803937D01*
X88509744Y-100917205D01*
X88698102Y-100995226D01*
X88898061Y-101035000D01*
X89101939Y-101035000D01*
X89301898Y-100995226D01*
X89490256Y-100917205D01*
X89500000Y-100910694D01*
X89509744Y-100917205D01*
X89698102Y-100995226D01*
X89898061Y-101035000D01*
X90101939Y-101035000D01*
X90301898Y-100995226D01*
X90490256Y-100917205D01*
X90500000Y-100910694D01*
X90509744Y-100917205D01*
X90698102Y-100995226D01*
X90898061Y-101035000D01*
X91101939Y-101035000D01*
X91301898Y-100995226D01*
X91490256Y-100917205D01*
X91659774Y-100803937D01*
X91803937Y-100659774D01*
X91917205Y-100490256D01*
X91995226Y-100301898D01*
X92035000Y-100101939D01*
X92035000Y-99898061D01*
X91995226Y-99698102D01*
X91917205Y-99509744D01*
X91910694Y-99500000D01*
X91917205Y-99490256D01*
X91995226Y-99301898D01*
X92035000Y-99101939D01*
X92035000Y-98898061D01*
X91995226Y-98698102D01*
X91917205Y-98509744D01*
X91910694Y-98500000D01*
X91917205Y-98490256D01*
X91995226Y-98301898D01*
X92035000Y-98101939D01*
X92035000Y-97898061D01*
X91995226Y-97698102D01*
X91917205Y-97509744D01*
X91803937Y-97340226D01*
X91659774Y-97196063D01*
X91490256Y-97082795D01*
X91301898Y-97004774D01*
X91101939Y-96965000D01*
X90898061Y-96965000D01*
X90698102Y-97004774D01*
X90509744Y-97082795D01*
X90500000Y-97089306D01*
X90490256Y-97082795D01*
X90301898Y-97004774D01*
X90101939Y-96965000D01*
X89898061Y-96965000D01*
X89698102Y-97004774D01*
X89509744Y-97082795D01*
X89500000Y-97089306D01*
X89490256Y-97082795D01*
X89301898Y-97004774D01*
X89101939Y-96965000D01*
X88898061Y-96965000D01*
X88698102Y-97004774D01*
X88509744Y-97082795D01*
X88340226Y-97196063D01*
X88196063Y-97340226D01*
X88082795Y-97509744D01*
X88004774Y-97698102D01*
X87965000Y-97898061D01*
X78201189Y-97898061D01*
X78269860Y-97829390D01*
X78298061Y-97835000D01*
X78501939Y-97835000D01*
X78701898Y-97795226D01*
X78890256Y-97717205D01*
X79059774Y-97603937D01*
X79203937Y-97459774D01*
X79317205Y-97290256D01*
X79395226Y-97101898D01*
X79418945Y-96982656D01*
X79540226Y-97103937D01*
X79709744Y-97217205D01*
X79898102Y-97295226D01*
X80098061Y-97335000D01*
X80301939Y-97335000D01*
X80501898Y-97295226D01*
X80690256Y-97217205D01*
X80700000Y-97210694D01*
X80709744Y-97217205D01*
X80898102Y-97295226D01*
X81098061Y-97335000D01*
X81301939Y-97335000D01*
X81501898Y-97295226D01*
X81690256Y-97217205D01*
X81859774Y-97103937D01*
X82003937Y-96959774D01*
X82117205Y-96790256D01*
X82195226Y-96601898D01*
X82235000Y-96401939D01*
X82235000Y-96198061D01*
X82195226Y-95998102D01*
X82117205Y-95809744D01*
X82003937Y-95640226D01*
X81859774Y-95496063D01*
X81690256Y-95382795D01*
X81501898Y-95304774D01*
X81301939Y-95265000D01*
X81098061Y-95265000D01*
X80898102Y-95304774D01*
X80709744Y-95382795D01*
X80700000Y-95389306D01*
X80690256Y-95382795D01*
X80501898Y-95304774D01*
X80301939Y-95265000D01*
X80098061Y-95265000D01*
X79898102Y-95304774D01*
X79709744Y-95382795D01*
X79540226Y-95496063D01*
X79396063Y-95640226D01*
X79282795Y-95809744D01*
X79204774Y-95998102D01*
X79181055Y-96117344D01*
X79059774Y-95996063D01*
X78890256Y-95882795D01*
X78701898Y-95804774D01*
X78501939Y-95765000D01*
X78298061Y-95765000D01*
X78288072Y-95766987D01*
X78288072Y-95000000D01*
X78275812Y-94875518D01*
X78272621Y-94865000D01*
X84165774Y-94865000D01*
X85407817Y-96107044D01*
X85419126Y-96163898D01*
X85497147Y-96352256D01*
X85610415Y-96521774D01*
X85754578Y-96665937D01*
X85924096Y-96779205D01*
X86112454Y-96857226D01*
X86312413Y-96897000D01*
X86516291Y-96897000D01*
X86716250Y-96857226D01*
X86904608Y-96779205D01*
X87074126Y-96665937D01*
X87218289Y-96521774D01*
X87331557Y-96352256D01*
X87409578Y-96163898D01*
X87449352Y-95963939D01*
X87449352Y-95760061D01*
X87409578Y-95560102D01*
X87331557Y-95371744D01*
X87218289Y-95202226D01*
X87074126Y-95058063D01*
X86904608Y-94944795D01*
X86716250Y-94866774D01*
X86659396Y-94855465D01*
X86038930Y-94235000D01*
X86344249Y-94235000D01*
X86400000Y-94240491D01*
X86455751Y-94235000D01*
X86455752Y-94235000D01*
X86622499Y-94218577D01*
X86836447Y-94153676D01*
X87033623Y-94048284D01*
X87206449Y-93906449D01*
X87241996Y-93863135D01*
X88507070Y-92598061D01*
X94565000Y-92598061D01*
X94565000Y-92801939D01*
X94604774Y-93001898D01*
X94682795Y-93190256D01*
X94796063Y-93359774D01*
X94940226Y-93503937D01*
X95109744Y-93617205D01*
X95298102Y-93695226D01*
X95498061Y-93735000D01*
X95701939Y-93735000D01*
X95901898Y-93695226D01*
X96090256Y-93617205D01*
X96138454Y-93585000D01*
X96261928Y-93585000D01*
X96261928Y-94600000D01*
X96274188Y-94724482D01*
X96310498Y-94844180D01*
X96369463Y-94954494D01*
X96448815Y-95051185D01*
X96508296Y-95100000D01*
X96448815Y-95148815D01*
X96369463Y-95245506D01*
X96310498Y-95355820D01*
X96274188Y-95475518D01*
X96261928Y-95600000D01*
X96261928Y-97600000D01*
X96274188Y-97724482D01*
X96310498Y-97844180D01*
X96369463Y-97954494D01*
X96448815Y-98051185D01*
X96508296Y-98100000D01*
X96448815Y-98148815D01*
X96369463Y-98245506D01*
X96310498Y-98355820D01*
X96274188Y-98475518D01*
X96261928Y-98600000D01*
X96261928Y-100600000D01*
X96274188Y-100724482D01*
X96306218Y-100830071D01*
X96196063Y-100940226D01*
X96082795Y-101109744D01*
X96004774Y-101298102D01*
X95965000Y-101498061D01*
X95965000Y-101701939D01*
X96004774Y-101901898D01*
X96082795Y-102090256D01*
X96196063Y-102259774D01*
X96340226Y-102403937D01*
X96509744Y-102517205D01*
X96698102Y-102595226D01*
X96898061Y-102635000D01*
X97101939Y-102635000D01*
X97301898Y-102595226D01*
X97490256Y-102517205D01*
X97659774Y-102403937D01*
X97803937Y-102259774D01*
X97917205Y-102090256D01*
X97995226Y-101901898D01*
X98006535Y-101845043D01*
X98495049Y-101356530D01*
X98528817Y-101328817D01*
X98558672Y-101292440D01*
X98603290Y-101238072D01*
X98900000Y-101238072D01*
X99024482Y-101225812D01*
X99144180Y-101189502D01*
X99254494Y-101130537D01*
X99351185Y-101051185D01*
X99399739Y-100992021D01*
X111244877Y-100992021D01*
X111299091Y-101488422D01*
X111449106Y-101964707D01*
X111659133Y-102357638D01*
X112015651Y-102561744D01*
X113612395Y-100965000D01*
X112015651Y-99368256D01*
X111659133Y-99572362D01*
X111428425Y-100015223D01*
X111288548Y-100494583D01*
X111244877Y-100992021D01*
X99399739Y-100992021D01*
X99430537Y-100954494D01*
X99489502Y-100844180D01*
X99525812Y-100724482D01*
X99538072Y-100600000D01*
X99538072Y-99682800D01*
X101486800Y-99682800D01*
X101486800Y-100343200D01*
X101492677Y-100403138D01*
X101498136Y-100463124D01*
X101498770Y-100465279D01*
X101498989Y-100467510D01*
X101516374Y-100525091D01*
X101533402Y-100582948D01*
X101534443Y-100584940D01*
X101535091Y-100587085D01*
X101563376Y-100640282D01*
X101591271Y-100693640D01*
X101592674Y-100695385D01*
X101593730Y-100697371D01*
X101631805Y-100744054D01*
X101669537Y-100790985D01*
X101671259Y-100792430D01*
X101672675Y-100794166D01*
X101719004Y-100832493D01*
X101765221Y-100871273D01*
X101767191Y-100872356D01*
X101768917Y-100873784D01*
X101821809Y-100902383D01*
X101874677Y-100931447D01*
X101876820Y-100932127D01*
X101878790Y-100933192D01*
X101936305Y-100950996D01*
X101993737Y-100969214D01*
X101995965Y-100969464D01*
X101998110Y-100970128D01*
X102057977Y-100976420D01*
X102117864Y-100983138D01*
X102122179Y-100983168D01*
X102122332Y-100983184D01*
X102122485Y-100983170D01*
X102126800Y-100983200D01*
X104463600Y-100983200D01*
X104523538Y-100977323D01*
X104583524Y-100971864D01*
X104585679Y-100971230D01*
X104587910Y-100971011D01*
X104645491Y-100953626D01*
X104703348Y-100936598D01*
X104705340Y-100935557D01*
X104707485Y-100934909D01*
X104760682Y-100906624D01*
X104814040Y-100878729D01*
X104815785Y-100877326D01*
X104817771Y-100876270D01*
X104864454Y-100838195D01*
X104911385Y-100800463D01*
X104912830Y-100798741D01*
X104914566Y-100797325D01*
X104952893Y-100750996D01*
X104991673Y-100704779D01*
X104992756Y-100702809D01*
X104994184Y-100701083D01*
X105022783Y-100648191D01*
X105051847Y-100595323D01*
X105052527Y-100593180D01*
X105053592Y-100591210D01*
X105071396Y-100533695D01*
X105089614Y-100476263D01*
X105089864Y-100474035D01*
X105090528Y-100471890D01*
X105096827Y-100411959D01*
X105103538Y-100352136D01*
X105103568Y-100347821D01*
X105103584Y-100347668D01*
X105103570Y-100347515D01*
X105103600Y-100343200D01*
X105103600Y-100089200D01*
X105102439Y-100077364D01*
X105102960Y-100068800D01*
X105428800Y-100068800D01*
X105488738Y-100062923D01*
X105548724Y-100057464D01*
X105550879Y-100056830D01*
X105553110Y-100056611D01*
X105610691Y-100039226D01*
X105668548Y-100022198D01*
X105670540Y-100021157D01*
X105672685Y-100020509D01*
X105725882Y-99992224D01*
X105779240Y-99964329D01*
X105780985Y-99962926D01*
X105782971Y-99961870D01*
X105829654Y-99923795D01*
X105876585Y-99886063D01*
X105878030Y-99884341D01*
X105879766Y-99882925D01*
X105918093Y-99836596D01*
X105956873Y-99790379D01*
X105957956Y-99788409D01*
X105959384Y-99786683D01*
X105987983Y-99733791D01*
X106017047Y-99680923D01*
X106017727Y-99678780D01*
X106018792Y-99676810D01*
X106036596Y-99619295D01*
X106054814Y-99561863D01*
X106055064Y-99559635D01*
X106055728Y-99557490D01*
X106062020Y-99497623D01*
X106068738Y-99437736D01*
X106068768Y-99433421D01*
X106068784Y-99433268D01*
X106068770Y-99433115D01*
X106068800Y-99428800D01*
X106068800Y-99188651D01*
X112195256Y-99188651D01*
X113792000Y-100785395D01*
X115388744Y-99188651D01*
X115184638Y-98832133D01*
X114741777Y-98601425D01*
X114262417Y-98461548D01*
X113764979Y-98417877D01*
X113268578Y-98472091D01*
X112792293Y-98622106D01*
X112399362Y-98832133D01*
X112195256Y-99188651D01*
X106068800Y-99188651D01*
X106068800Y-99174800D01*
X106067639Y-99162964D01*
X106068361Y-99151087D01*
X106067967Y-99142160D01*
X106059810Y-98982428D01*
X106055685Y-98954903D01*
X106054567Y-98927089D01*
X106046449Y-98893279D01*
X106041297Y-98858901D01*
X106031906Y-98832705D01*
X106025406Y-98805635D01*
X106022423Y-98797212D01*
X105994180Y-98719197D01*
X105988670Y-98707647D01*
X105985015Y-98695374D01*
X105961810Y-98651337D01*
X105940403Y-98606460D01*
X105932757Y-98596203D01*
X105926786Y-98584871D01*
X105921303Y-98578097D01*
X105917473Y-98362854D01*
X105916404Y-98057200D01*
X105917539Y-97744255D01*
X105921382Y-97535391D01*
X105940722Y-97503906D01*
X105971637Y-97455244D01*
X105973400Y-97450704D01*
X105975941Y-97446568D01*
X105995990Y-97392547D01*
X106016861Y-97338812D01*
X106017707Y-97334030D01*
X106019400Y-97329467D01*
X106021616Y-97320810D01*
X106045020Y-97226665D01*
X106053984Y-97165670D01*
X106063102Y-97104698D01*
X106063169Y-97103169D01*
X106063181Y-97103086D01*
X106063176Y-97102994D01*
X106063492Y-97095770D01*
X106068368Y-96963107D01*
X106067922Y-96955808D01*
X106068738Y-96948536D01*
X106068800Y-96939600D01*
X106068800Y-96685600D01*
X106062923Y-96625662D01*
X106057464Y-96565676D01*
X106056830Y-96563521D01*
X106056611Y-96561290D01*
X106039226Y-96503709D01*
X106022198Y-96445852D01*
X106021157Y-96443860D01*
X106020509Y-96441715D01*
X105992224Y-96388518D01*
X105964329Y-96335160D01*
X105962926Y-96333415D01*
X105961870Y-96331429D01*
X105923795Y-96284746D01*
X105886063Y-96237815D01*
X105884341Y-96236370D01*
X105882925Y-96234634D01*
X105836596Y-96196307D01*
X105790379Y-96157527D01*
X105788409Y-96156444D01*
X105786683Y-96155016D01*
X105733791Y-96126417D01*
X105680923Y-96097353D01*
X105678780Y-96096673D01*
X105676810Y-96095608D01*
X105619295Y-96077804D01*
X105561863Y-96059586D01*
X105559635Y-96059336D01*
X105557490Y-96058672D01*
X105497623Y-96052380D01*
X105437736Y-96045662D01*
X105433421Y-96045632D01*
X105433268Y-96045616D01*
X105433115Y-96045630D01*
X105428800Y-96045600D01*
X104565200Y-96045600D01*
X104505262Y-96051477D01*
X104445276Y-96056936D01*
X104443121Y-96057570D01*
X104440890Y-96057789D01*
X104383309Y-96075174D01*
X104325452Y-96092202D01*
X104323460Y-96093243D01*
X104321315Y-96093891D01*
X104268118Y-96122176D01*
X104214760Y-96150071D01*
X104213015Y-96151474D01*
X104211029Y-96152530D01*
X104164346Y-96190605D01*
X104117415Y-96228337D01*
X104115970Y-96230059D01*
X104114234Y-96231475D01*
X104075907Y-96277804D01*
X104037127Y-96324021D01*
X104036044Y-96325991D01*
X104034616Y-96327717D01*
X104006017Y-96380609D01*
X103976953Y-96433477D01*
X103976273Y-96435620D01*
X103975208Y-96437590D01*
X103957404Y-96495105D01*
X103939186Y-96552537D01*
X103938936Y-96554765D01*
X103938272Y-96556910D01*
X103931980Y-96616777D01*
X103925262Y-96676664D01*
X103925232Y-96680979D01*
X103925216Y-96681132D01*
X103925230Y-96681285D01*
X103925200Y-96685600D01*
X103925200Y-96939600D01*
X103926361Y-96951438D01*
X103925841Y-96960000D01*
X103600000Y-96960000D01*
X103540062Y-96965877D01*
X103480076Y-96971336D01*
X103477921Y-96971970D01*
X103475690Y-96972189D01*
X103418109Y-96989574D01*
X103360252Y-97006602D01*
X103358260Y-97007643D01*
X103356115Y-97008291D01*
X103302918Y-97036576D01*
X103249560Y-97064471D01*
X103247815Y-97065874D01*
X103245829Y-97066930D01*
X103199146Y-97105005D01*
X103152215Y-97142737D01*
X103150770Y-97144459D01*
X103149034Y-97145875D01*
X103110707Y-97192204D01*
X103071927Y-97238421D01*
X103070844Y-97240391D01*
X103069416Y-97242117D01*
X103040817Y-97295009D01*
X103011753Y-97347877D01*
X103011073Y-97350020D01*
X103010008Y-97351990D01*
X102992204Y-97409505D01*
X102973986Y-97466937D01*
X102973736Y-97469165D01*
X102973072Y-97471310D01*
X102966780Y-97531177D01*
X102960062Y-97591064D01*
X102960032Y-97595379D01*
X102960016Y-97595532D01*
X102960030Y-97595685D01*
X102960000Y-97600000D01*
X102960000Y-97854000D01*
X102961161Y-97865838D01*
X102960439Y-97877717D01*
X102960833Y-97886644D01*
X102968991Y-98046375D01*
X102973117Y-98073906D01*
X102974235Y-98101710D01*
X102982351Y-98135514D01*
X102982837Y-98138757D01*
X102972076Y-98139736D01*
X102969921Y-98140370D01*
X102967690Y-98140589D01*
X102910109Y-98157974D01*
X102852252Y-98175002D01*
X102850260Y-98176043D01*
X102848115Y-98176691D01*
X102794918Y-98204976D01*
X102741560Y-98232871D01*
X102739815Y-98234274D01*
X102737829Y-98235330D01*
X102691146Y-98273405D01*
X102644215Y-98311137D01*
X102642770Y-98312859D01*
X102641034Y-98314275D01*
X102602707Y-98360604D01*
X102563927Y-98406821D01*
X102562844Y-98408791D01*
X102561416Y-98410517D01*
X102532817Y-98463409D01*
X102503753Y-98516277D01*
X102503073Y-98518420D01*
X102502008Y-98520390D01*
X102484204Y-98577905D01*
X102465986Y-98635337D01*
X102465736Y-98637565D01*
X102465072Y-98639710D01*
X102458780Y-98699577D01*
X102452062Y-98759464D01*
X102452032Y-98763779D01*
X102452016Y-98763932D01*
X102452030Y-98764085D01*
X102452000Y-98768400D01*
X102452000Y-99055794D01*
X102421987Y-99050988D01*
X102378461Y-99048328D01*
X102335144Y-99043097D01*
X102326209Y-99042960D01*
X102310014Y-99042823D01*
X102309863Y-99042837D01*
X102304600Y-99042800D01*
X102126800Y-99042800D01*
X102066862Y-99048677D01*
X102006876Y-99054136D01*
X102004721Y-99054770D01*
X102002490Y-99054989D01*
X101944909Y-99072374D01*
X101887052Y-99089402D01*
X101885060Y-99090443D01*
X101882915Y-99091091D01*
X101829718Y-99119376D01*
X101776360Y-99147271D01*
X101774615Y-99148674D01*
X101772629Y-99149730D01*
X101725946Y-99187805D01*
X101679015Y-99225537D01*
X101677570Y-99227259D01*
X101675834Y-99228675D01*
X101637535Y-99274971D01*
X101598727Y-99321221D01*
X101597644Y-99323191D01*
X101596216Y-99324917D01*
X101567617Y-99377809D01*
X101538553Y-99430677D01*
X101537873Y-99432820D01*
X101536808Y-99434790D01*
X101519004Y-99492305D01*
X101500786Y-99549737D01*
X101500536Y-99551965D01*
X101499872Y-99554110D01*
X101493580Y-99613977D01*
X101486862Y-99673864D01*
X101486832Y-99678179D01*
X101486816Y-99678332D01*
X101486830Y-99678485D01*
X101486800Y-99682800D01*
X99538072Y-99682800D01*
X99538072Y-98600000D01*
X99525812Y-98475518D01*
X99489502Y-98355820D01*
X99430537Y-98245506D01*
X99351185Y-98148815D01*
X99291704Y-98100000D01*
X99351185Y-98051185D01*
X99430537Y-97954494D01*
X99489502Y-97844180D01*
X99525812Y-97724482D01*
X99538072Y-97600000D01*
X99538072Y-97485000D01*
X99561546Y-97485000D01*
X99609744Y-97517205D01*
X99798102Y-97595226D01*
X99998061Y-97635000D01*
X100201939Y-97635000D01*
X100401898Y-97595226D01*
X100590256Y-97517205D01*
X100759774Y-97403937D01*
X100903937Y-97259774D01*
X101017205Y-97090256D01*
X101095226Y-96901898D01*
X101135000Y-96701939D01*
X101135000Y-96498061D01*
X101095226Y-96298102D01*
X101017205Y-96109744D01*
X100903937Y-95940226D01*
X100759774Y-95796063D01*
X100590256Y-95682795D01*
X100401898Y-95604774D01*
X100201939Y-95565000D01*
X99998061Y-95565000D01*
X99798102Y-95604774D01*
X99609744Y-95682795D01*
X99561546Y-95715000D01*
X99538072Y-95715000D01*
X99538072Y-95600000D01*
X99525812Y-95475518D01*
X99489502Y-95355820D01*
X99430537Y-95245506D01*
X99351185Y-95148815D01*
X99291704Y-95100000D01*
X99351185Y-95051185D01*
X99430537Y-94954494D01*
X99489502Y-94844180D01*
X99525812Y-94724482D01*
X99538072Y-94600000D01*
X99538072Y-92600000D01*
X99525812Y-92475518D01*
X99489502Y-92355820D01*
X99430537Y-92245506D01*
X99351185Y-92148815D01*
X99291704Y-92100000D01*
X99351185Y-92051185D01*
X99393191Y-92000000D01*
X100061928Y-92000000D01*
X100074188Y-92124482D01*
X100110498Y-92244180D01*
X100169463Y-92354494D01*
X100248815Y-92451185D01*
X100345506Y-92530537D01*
X100455820Y-92589502D01*
X100575518Y-92625812D01*
X100700000Y-92638072D01*
X101414250Y-92635000D01*
X101573000Y-92476250D01*
X101573000Y-91127000D01*
X101827000Y-91127000D01*
X101827000Y-92476250D01*
X101985750Y-92635000D01*
X102700000Y-92638072D01*
X102824482Y-92625812D01*
X102944180Y-92589502D01*
X103054494Y-92530537D01*
X103151185Y-92451185D01*
X103230537Y-92354494D01*
X103289502Y-92244180D01*
X103325812Y-92124482D01*
X103338072Y-92000000D01*
X103335000Y-91285750D01*
X103176250Y-91127000D01*
X101827000Y-91127000D01*
X101573000Y-91127000D01*
X100223750Y-91127000D01*
X100065000Y-91285750D01*
X100061928Y-92000000D01*
X99393191Y-92000000D01*
X99430537Y-91954494D01*
X99489502Y-91844180D01*
X99525812Y-91724482D01*
X99538072Y-91600000D01*
X99535000Y-90885750D01*
X99376250Y-90727000D01*
X98027000Y-90727000D01*
X98027000Y-90747000D01*
X97773000Y-90747000D01*
X97773000Y-90727000D01*
X96423750Y-90727000D01*
X96265000Y-90885750D01*
X96261928Y-91600000D01*
X96274188Y-91724482D01*
X96301646Y-91815000D01*
X96138454Y-91815000D01*
X96090256Y-91782795D01*
X95901898Y-91704774D01*
X95701939Y-91665000D01*
X95498061Y-91665000D01*
X95298102Y-91704774D01*
X95109744Y-91782795D01*
X94940226Y-91896063D01*
X94796063Y-92040226D01*
X94682795Y-92209744D01*
X94604774Y-92398102D01*
X94565000Y-92598061D01*
X88507070Y-92598061D01*
X90117060Y-90988072D01*
X90400000Y-90988072D01*
X90525136Y-90975681D01*
X90550064Y-90968091D01*
X90575518Y-90975812D01*
X90700000Y-90988072D01*
X91008929Y-90988072D01*
X91004774Y-90998102D01*
X90965000Y-91198061D01*
X90965000Y-91401939D01*
X91004774Y-91601898D01*
X91082795Y-91790256D01*
X91196063Y-91959774D01*
X91340226Y-92103937D01*
X91509744Y-92217205D01*
X91698102Y-92295226D01*
X91898061Y-92335000D01*
X92101939Y-92335000D01*
X92301898Y-92295226D01*
X92490256Y-92217205D01*
X92659774Y-92103937D01*
X92714724Y-92048987D01*
X92857932Y-92005546D01*
X92989961Y-91934974D01*
X93105686Y-91840001D01*
X93129489Y-91810997D01*
X94236014Y-90704473D01*
X94265011Y-90680676D01*
X94291342Y-90648592D01*
X94359984Y-90564952D01*
X94430556Y-90432922D01*
X94441991Y-90395226D01*
X94474013Y-90289661D01*
X94485010Y-90178008D01*
X94485010Y-90177999D01*
X94488686Y-90140676D01*
X94485010Y-90103353D01*
X94485010Y-89600000D01*
X96261928Y-89600000D01*
X96265000Y-90314250D01*
X96423750Y-90473000D01*
X97773000Y-90473000D01*
X97773000Y-89123750D01*
X98027000Y-89123750D01*
X98027000Y-90473000D01*
X99376250Y-90473000D01*
X99535000Y-90314250D01*
X99538072Y-89600000D01*
X99525812Y-89475518D01*
X99489502Y-89355820D01*
X99430537Y-89245506D01*
X99351185Y-89148815D01*
X99254494Y-89069463D01*
X99144180Y-89010498D01*
X99024482Y-88974188D01*
X98900000Y-88961928D01*
X98185750Y-88965000D01*
X98027000Y-89123750D01*
X97773000Y-89123750D01*
X97614250Y-88965000D01*
X96900000Y-88961928D01*
X96775518Y-88974188D01*
X96655820Y-89010498D01*
X96545506Y-89069463D01*
X96448815Y-89148815D01*
X96369463Y-89245506D01*
X96310498Y-89355820D01*
X96274188Y-89475518D01*
X96261928Y-89600000D01*
X94485010Y-89600000D01*
X94485010Y-84327335D01*
X94488686Y-84290012D01*
X94485010Y-84252689D01*
X94485010Y-84252679D01*
X94474013Y-84141026D01*
X94430556Y-83997765D01*
X94413716Y-83966260D01*
X94359984Y-83865735D01*
X94288809Y-83779009D01*
X94265011Y-83750011D01*
X94236012Y-83726212D01*
X94169998Y-83660198D01*
X94169998Y-83598061D01*
X94130224Y-83398102D01*
X94052203Y-83209744D01*
X93938935Y-83040226D01*
X93794772Y-82896063D01*
X93662278Y-82807534D01*
X96710764Y-79759049D01*
X96798102Y-79795226D01*
X96998061Y-79835000D01*
X97201939Y-79835000D01*
X97401898Y-79795226D01*
X97590256Y-79717205D01*
X97638454Y-79685000D01*
X98133422Y-79685000D01*
X100061928Y-81613507D01*
X100061928Y-83000000D01*
X100074188Y-83124482D01*
X100110498Y-83244180D01*
X100169463Y-83354494D01*
X100248815Y-83451185D01*
X100308296Y-83500000D01*
X100248815Y-83548815D01*
X100169463Y-83645506D01*
X100110498Y-83755820D01*
X100074188Y-83875518D01*
X100061928Y-84000000D01*
X100061928Y-84115000D01*
X99566579Y-84115000D01*
X98206535Y-82754957D01*
X98195226Y-82698102D01*
X98117205Y-82509744D01*
X98003937Y-82340226D01*
X97859774Y-82196063D01*
X97690256Y-82082795D01*
X97501898Y-82004774D01*
X97301939Y-81965000D01*
X97098061Y-81965000D01*
X96898102Y-82004774D01*
X96709744Y-82082795D01*
X96540226Y-82196063D01*
X96396063Y-82340226D01*
X96282795Y-82509744D01*
X96204774Y-82698102D01*
X96165000Y-82898061D01*
X96165000Y-83101939D01*
X96204774Y-83301898D01*
X96282795Y-83490256D01*
X96396063Y-83659774D01*
X96540226Y-83803937D01*
X96709744Y-83917205D01*
X96898102Y-83995226D01*
X96954957Y-84006535D01*
X96966349Y-84017927D01*
X96809744Y-84082795D01*
X96640226Y-84196063D01*
X96496063Y-84340226D01*
X96382795Y-84509744D01*
X96304774Y-84698102D01*
X96265000Y-84898061D01*
X96265000Y-85101939D01*
X96304774Y-85301898D01*
X96382795Y-85490256D01*
X96496063Y-85659774D01*
X96640226Y-85803937D01*
X96809744Y-85917205D01*
X96998102Y-85995226D01*
X97054957Y-86006535D01*
X99643470Y-88595049D01*
X99671183Y-88628817D01*
X99704951Y-88656530D01*
X99704953Y-88656532D01*
X99805941Y-88739411D01*
X99959686Y-88821589D01*
X100017659Y-88839175D01*
X100061928Y-88852604D01*
X100061928Y-89000000D01*
X100074188Y-89124482D01*
X100110498Y-89244180D01*
X100169463Y-89354494D01*
X100248815Y-89451185D01*
X100308296Y-89500000D01*
X100248815Y-89548815D01*
X100169463Y-89645506D01*
X100110498Y-89755820D01*
X100074188Y-89875518D01*
X100061928Y-90000000D01*
X100065000Y-90714250D01*
X100223750Y-90873000D01*
X101573000Y-90873000D01*
X101573000Y-90853000D01*
X101827000Y-90853000D01*
X101827000Y-90873000D01*
X103176250Y-90873000D01*
X103335000Y-90714250D01*
X103335249Y-90656278D01*
X110123000Y-90656278D01*
X110123000Y-90953722D01*
X110181029Y-91245451D01*
X110294856Y-91520253D01*
X110460107Y-91767569D01*
X110670431Y-91977893D01*
X110917747Y-92143144D01*
X111192549Y-92256971D01*
X111484278Y-92315000D01*
X111781722Y-92315000D01*
X112073451Y-92256971D01*
X112348253Y-92143144D01*
X112595569Y-91977893D01*
X112805893Y-91767569D01*
X112971144Y-91520253D01*
X113084971Y-91245451D01*
X113143000Y-90953722D01*
X113143000Y-90656278D01*
X113084971Y-90364549D01*
X112971144Y-90089747D01*
X112805893Y-89842431D01*
X112595569Y-89632107D01*
X112348253Y-89466856D01*
X112073451Y-89353029D01*
X111781722Y-89295000D01*
X111484278Y-89295000D01*
X111192549Y-89353029D01*
X110917747Y-89466856D01*
X110670431Y-89632107D01*
X110460107Y-89842431D01*
X110294856Y-90089747D01*
X110181029Y-90364549D01*
X110123000Y-90656278D01*
X103335249Y-90656278D01*
X103338072Y-90000000D01*
X103325812Y-89875518D01*
X103289502Y-89755820D01*
X103230537Y-89645506D01*
X103151185Y-89548815D01*
X103091704Y-89500000D01*
X103151185Y-89451185D01*
X103230537Y-89354494D01*
X103289502Y-89244180D01*
X103325812Y-89124482D01*
X103338072Y-89000000D01*
X103338072Y-87000000D01*
X103325812Y-86875518D01*
X103289502Y-86755820D01*
X103230537Y-86645506D01*
X103151185Y-86548815D01*
X103091704Y-86500000D01*
X103151185Y-86451185D01*
X103230537Y-86354494D01*
X103289502Y-86244180D01*
X103325812Y-86124482D01*
X103338072Y-86000000D01*
X103338072Y-84000000D01*
X103325812Y-83875518D01*
X103289502Y-83755820D01*
X103230537Y-83645506D01*
X103151185Y-83548815D01*
X103091704Y-83500000D01*
X103151185Y-83451185D01*
X103230537Y-83354494D01*
X103289502Y-83244180D01*
X103325812Y-83124482D01*
X103338072Y-83000000D01*
X103338072Y-81898061D01*
X110965000Y-81898061D01*
X110965000Y-82101939D01*
X111004774Y-82301898D01*
X111082795Y-82490256D01*
X111196063Y-82659774D01*
X111340226Y-82803937D01*
X111509744Y-82917205D01*
X111698102Y-82995226D01*
X111898061Y-83035000D01*
X112101939Y-83035000D01*
X112301898Y-82995226D01*
X112490256Y-82917205D01*
X112659774Y-82803937D01*
X112803937Y-82659774D01*
X112917205Y-82490256D01*
X112995226Y-82301898D01*
X113035000Y-82101939D01*
X113035000Y-81898061D01*
X112995226Y-81698102D01*
X112917205Y-81509744D01*
X112803937Y-81340226D01*
X112659774Y-81196063D01*
X112490256Y-81082795D01*
X112301898Y-81004774D01*
X112101939Y-80965000D01*
X111898061Y-80965000D01*
X111698102Y-81004774D01*
X111509744Y-81082795D01*
X111340226Y-81196063D01*
X111196063Y-81340226D01*
X111082795Y-81509744D01*
X111004774Y-81698102D01*
X110965000Y-81898061D01*
X103338072Y-81898061D01*
X103338072Y-81000000D01*
X103325812Y-80875518D01*
X103289502Y-80755820D01*
X103230537Y-80645506D01*
X103151185Y-80548815D01*
X103091704Y-80500000D01*
X103151185Y-80451185D01*
X103230537Y-80354494D01*
X103289502Y-80244180D01*
X103325812Y-80124482D01*
X103338072Y-80000000D01*
X103338072Y-78000000D01*
X103325812Y-77875518D01*
X103289502Y-77755820D01*
X103230537Y-77645506D01*
X103151185Y-77548815D01*
X103091704Y-77500000D01*
X103151185Y-77451185D01*
X103230537Y-77354494D01*
X103289502Y-77244180D01*
X103325812Y-77124482D01*
X103338072Y-77000000D01*
X103338072Y-76585000D01*
X103461546Y-76585000D01*
X103509744Y-76617205D01*
X103698102Y-76695226D01*
X103898061Y-76735000D01*
X104101939Y-76735000D01*
X104301898Y-76695226D01*
X104490256Y-76617205D01*
X104659774Y-76503937D01*
X104803937Y-76359774D01*
X104917205Y-76190256D01*
X104966458Y-76071349D01*
X112195256Y-76071349D01*
X112399362Y-76427867D01*
X112842223Y-76658575D01*
X113321583Y-76798452D01*
X113819021Y-76842123D01*
X114315422Y-76787909D01*
X114791707Y-76637894D01*
X115184638Y-76427867D01*
X115388744Y-76071349D01*
X113792000Y-74474605D01*
X112195256Y-76071349D01*
X104966458Y-76071349D01*
X104995226Y-76001898D01*
X105035000Y-75801939D01*
X105035000Y-75598061D01*
X104995226Y-75398102D01*
X104917205Y-75209744D01*
X104803937Y-75040226D01*
X104659774Y-74896063D01*
X104490256Y-74782795D01*
X104301898Y-74704774D01*
X104101939Y-74665000D01*
X103898061Y-74665000D01*
X103698102Y-74704774D01*
X103509744Y-74782795D01*
X103461546Y-74815000D01*
X103307454Y-74815000D01*
X103289502Y-74755820D01*
X103230537Y-74645506D01*
X103151185Y-74548815D01*
X103054494Y-74469463D01*
X102944180Y-74410498D01*
X102824482Y-74374188D01*
X102700000Y-74361928D01*
X100700000Y-74361928D01*
X100575518Y-74374188D01*
X100455820Y-74410498D01*
X100345506Y-74469463D01*
X100248815Y-74548815D01*
X100169463Y-74645506D01*
X100110498Y-74755820D01*
X100074188Y-74875518D01*
X100061928Y-75000000D01*
X100061928Y-77000000D01*
X100068330Y-77064999D01*
X94793470Y-77064999D01*
X94750001Y-77060718D01*
X94706532Y-77064999D01*
X94706524Y-77064999D01*
X94576511Y-77077804D01*
X94409688Y-77128410D01*
X94275749Y-77200001D01*
X94255942Y-77210588D01*
X94154954Y-77293467D01*
X94154952Y-77293469D01*
X94121184Y-77321182D01*
X94093471Y-77354950D01*
X92554957Y-78893465D01*
X92498102Y-78904774D01*
X92435194Y-78930832D01*
X92435000Y-78885750D01*
X92276250Y-78727000D01*
X90927000Y-78727000D01*
X90927000Y-80076250D01*
X91085750Y-80235000D01*
X91800000Y-80238072D01*
X91818983Y-80236202D01*
X91882795Y-80390256D01*
X91996063Y-80559774D01*
X92140226Y-80703937D01*
X92309744Y-80817205D01*
X92498102Y-80895226D01*
X92698061Y-80935000D01*
X92901939Y-80935000D01*
X93101898Y-80895226D01*
X93290256Y-80817205D01*
X93459774Y-80703937D01*
X93603937Y-80559774D01*
X93717205Y-80390256D01*
X93795226Y-80201898D01*
X93806535Y-80145043D01*
X95116580Y-78834999D01*
X95485208Y-78834999D01*
X90555209Y-83765000D01*
X90493071Y-83765000D01*
X90293112Y-83804774D01*
X90104754Y-83882795D01*
X90032915Y-83930796D01*
X90103937Y-83859774D01*
X90217205Y-83690256D01*
X90295226Y-83501898D01*
X90335000Y-83301939D01*
X90335000Y-83098061D01*
X90295226Y-82898102D01*
X90217205Y-82709744D01*
X90103937Y-82540226D01*
X89959774Y-82396063D01*
X89790256Y-82282795D01*
X89601898Y-82204774D01*
X89401939Y-82165000D01*
X89198061Y-82165000D01*
X88998102Y-82204774D01*
X88809744Y-82282795D01*
X88800000Y-82289306D01*
X88790256Y-82282795D01*
X88601898Y-82204774D01*
X88401939Y-82165000D01*
X88198061Y-82165000D01*
X87998102Y-82204774D01*
X87809744Y-82282795D01*
X87640226Y-82396063D01*
X87496063Y-82540226D01*
X87382795Y-82709744D01*
X87304774Y-82898102D01*
X87265000Y-83098061D01*
X87265000Y-83301939D01*
X87304774Y-83501898D01*
X87382795Y-83690256D01*
X87496063Y-83859774D01*
X87640226Y-84003937D01*
X87809744Y-84117205D01*
X87998102Y-84195226D01*
X88198061Y-84235000D01*
X88401939Y-84235000D01*
X88601898Y-84195226D01*
X88790256Y-84117205D01*
X88800000Y-84110694D01*
X88809744Y-84117205D01*
X88998102Y-84195226D01*
X89198061Y-84235000D01*
X89401939Y-84235000D01*
X89601898Y-84195226D01*
X89790256Y-84117205D01*
X89862095Y-84069204D01*
X89791073Y-84140226D01*
X89677805Y-84309744D01*
X89599784Y-84498102D01*
X89560010Y-84698061D01*
X89560010Y-84901939D01*
X89599784Y-85101898D01*
X89677805Y-85290256D01*
X89791073Y-85459774D01*
X89935236Y-85603937D01*
X90104754Y-85717205D01*
X90293112Y-85795226D01*
X90493071Y-85835000D01*
X90696949Y-85835000D01*
X90896908Y-85795226D01*
X91085266Y-85717205D01*
X91254784Y-85603937D01*
X91398947Y-85459774D01*
X91512215Y-85290256D01*
X91590236Y-85101898D01*
X91630010Y-84901939D01*
X91630010Y-84839801D01*
X92242531Y-84227280D01*
X92331061Y-84359774D01*
X92475224Y-84503937D01*
X92644742Y-84617205D01*
X92833100Y-84695226D01*
X92965011Y-84721465D01*
X92965011Y-84872338D01*
X92801898Y-84804774D01*
X92601939Y-84765000D01*
X92398061Y-84765000D01*
X92198102Y-84804774D01*
X92009744Y-84882795D01*
X91840226Y-84996063D01*
X91696063Y-85140226D01*
X91582795Y-85309744D01*
X91504774Y-85498102D01*
X91465000Y-85698061D01*
X91465000Y-85901939D01*
X91504774Y-86101898D01*
X91582795Y-86290256D01*
X91696063Y-86459774D01*
X91840226Y-86603937D01*
X92009744Y-86717205D01*
X92198102Y-86795226D01*
X92398061Y-86835000D01*
X92601939Y-86835000D01*
X92801898Y-86795226D01*
X92965011Y-86727662D01*
X92965011Y-86972338D01*
X92801898Y-86904774D01*
X92601939Y-86865000D01*
X92398061Y-86865000D01*
X92198102Y-86904774D01*
X92009744Y-86982795D01*
X91840226Y-87096063D01*
X91696063Y-87240226D01*
X91582795Y-87409744D01*
X91504774Y-87598102D01*
X91465000Y-87798061D01*
X91465000Y-88001939D01*
X91504774Y-88201898D01*
X91508929Y-88211928D01*
X90700000Y-88211928D01*
X90576173Y-88224059D01*
X90550065Y-88231949D01*
X90524482Y-88224188D01*
X90400000Y-88211928D01*
X89400000Y-88211928D01*
X89275518Y-88224188D01*
X89155820Y-88260498D01*
X89045506Y-88319463D01*
X88948815Y-88398815D01*
X88869463Y-88495506D01*
X88810498Y-88605820D01*
X88774188Y-88725518D01*
X88761928Y-88850000D01*
X88761928Y-89132940D01*
X87261667Y-90633201D01*
X87241164Y-90583703D01*
X87208959Y-90535505D01*
X87208959Y-83667428D01*
X87213240Y-83623959D01*
X87208959Y-83580490D01*
X87208959Y-83580482D01*
X87196154Y-83450469D01*
X87145548Y-83283646D01*
X87063370Y-83129900D01*
X87010129Y-83065026D01*
X86980491Y-83028912D01*
X86980489Y-83028910D01*
X86952776Y-82995142D01*
X86919008Y-82967429D01*
X84956533Y-81004955D01*
X84928818Y-80971184D01*
X84794060Y-80860590D01*
X84640314Y-80778412D01*
X84473491Y-80727806D01*
X84343478Y-80715001D01*
X84343470Y-80715001D01*
X84300001Y-80710720D01*
X84256532Y-80715001D01*
X75668322Y-80715001D01*
X75610990Y-80576589D01*
X75448475Y-80333368D01*
X75316620Y-80201513D01*
X75389180Y-80179502D01*
X75499494Y-80120537D01*
X75596185Y-80041185D01*
X75675537Y-79944494D01*
X75734502Y-79834180D01*
X75770812Y-79714482D01*
X75783072Y-79590000D01*
X75783072Y-77890000D01*
X75770812Y-77765518D01*
X75734502Y-77645820D01*
X75710011Y-77600000D01*
X80161928Y-77600000D01*
X80161928Y-79600000D01*
X80174188Y-79724482D01*
X80210498Y-79844180D01*
X80269463Y-79954494D01*
X80348815Y-80051185D01*
X80445506Y-80130537D01*
X80555820Y-80189502D01*
X80675518Y-80225812D01*
X80800000Y-80238072D01*
X82800000Y-80238072D01*
X82924482Y-80225812D01*
X83044180Y-80189502D01*
X83154494Y-80130537D01*
X83251185Y-80051185D01*
X83300000Y-79991704D01*
X83348815Y-80051185D01*
X83445506Y-80130537D01*
X83555820Y-80189502D01*
X83675518Y-80225812D01*
X83800000Y-80238072D01*
X85800000Y-80238072D01*
X85924482Y-80225812D01*
X86044180Y-80189502D01*
X86154494Y-80130537D01*
X86251185Y-80051185D01*
X86300000Y-79991704D01*
X86348815Y-80051185D01*
X86445506Y-80130537D01*
X86555820Y-80189502D01*
X86675518Y-80225812D01*
X86800000Y-80238072D01*
X88800000Y-80238072D01*
X88924482Y-80225812D01*
X89044180Y-80189502D01*
X89154494Y-80130537D01*
X89251185Y-80051185D01*
X89300000Y-79991704D01*
X89348815Y-80051185D01*
X89445506Y-80130537D01*
X89555820Y-80189502D01*
X89675518Y-80225812D01*
X89800000Y-80238072D01*
X90514250Y-80235000D01*
X90673000Y-80076250D01*
X90673000Y-78727000D01*
X90653000Y-78727000D01*
X90653000Y-78473000D01*
X90673000Y-78473000D01*
X90673000Y-77123750D01*
X90927000Y-77123750D01*
X90927000Y-78473000D01*
X92276250Y-78473000D01*
X92435000Y-78314250D01*
X92438072Y-77600000D01*
X92425812Y-77475518D01*
X92389502Y-77355820D01*
X92330537Y-77245506D01*
X92251185Y-77148815D01*
X92154494Y-77069463D01*
X92044180Y-77010498D01*
X91924482Y-76974188D01*
X91800000Y-76961928D01*
X91085750Y-76965000D01*
X90927000Y-77123750D01*
X90673000Y-77123750D01*
X90514250Y-76965000D01*
X89800000Y-76961928D01*
X89675518Y-76974188D01*
X89555820Y-77010498D01*
X89445506Y-77069463D01*
X89348815Y-77148815D01*
X89300000Y-77208296D01*
X89251185Y-77148815D01*
X89224590Y-77126989D01*
X89845044Y-76506535D01*
X89901898Y-76495226D01*
X90090256Y-76417205D01*
X90259774Y-76303937D01*
X90403937Y-76159774D01*
X90517205Y-75990256D01*
X90595226Y-75801898D01*
X90635000Y-75601939D01*
X90635000Y-75398061D01*
X90595226Y-75198102D01*
X90517205Y-75009744D01*
X90403937Y-74840226D01*
X90259774Y-74696063D01*
X90090256Y-74582795D01*
X89901898Y-74504774D01*
X89701939Y-74465000D01*
X89498061Y-74465000D01*
X89298102Y-74504774D01*
X89109744Y-74582795D01*
X88940226Y-74696063D01*
X88796063Y-74840226D01*
X88682795Y-75009744D01*
X88604774Y-75198102D01*
X88593465Y-75254956D01*
X87204951Y-76643471D01*
X87171184Y-76671183D01*
X87143471Y-76704951D01*
X87143468Y-76704954D01*
X87060590Y-76805941D01*
X86978412Y-76959687D01*
X86977732Y-76961928D01*
X86800000Y-76961928D01*
X86675518Y-76974188D01*
X86555820Y-77010498D01*
X86445506Y-77069463D01*
X86348815Y-77148815D01*
X86300000Y-77208296D01*
X86251185Y-77148815D01*
X86154494Y-77069463D01*
X86044180Y-77010498D01*
X85924482Y-76974188D01*
X85867603Y-76968586D01*
X85895226Y-76901898D01*
X85935000Y-76701939D01*
X85935000Y-76498061D01*
X85895226Y-76298102D01*
X85817205Y-76109744D01*
X85703937Y-75940226D01*
X85559774Y-75796063D01*
X85390256Y-75682795D01*
X85201898Y-75604774D01*
X85001939Y-75565000D01*
X84798061Y-75565000D01*
X84598102Y-75604774D01*
X84409744Y-75682795D01*
X84240226Y-75796063D01*
X84096063Y-75940226D01*
X84035000Y-76031613D01*
X84035000Y-75898061D01*
X83995226Y-75698102D01*
X83917205Y-75509744D01*
X83803937Y-75340226D01*
X83659774Y-75196063D01*
X83490256Y-75082795D01*
X83301898Y-75004774D01*
X83101939Y-74965000D01*
X82898061Y-74965000D01*
X82698102Y-75004774D01*
X82509744Y-75082795D01*
X82340226Y-75196063D01*
X82196063Y-75340226D01*
X82082795Y-75509744D01*
X82004774Y-75698102D01*
X81965000Y-75898061D01*
X81965000Y-76101939D01*
X82004774Y-76301898D01*
X82082795Y-76490256D01*
X82115001Y-76538455D01*
X82115000Y-76833421D01*
X81986493Y-76961928D01*
X80800000Y-76961928D01*
X80675518Y-76974188D01*
X80555820Y-77010498D01*
X80445506Y-77069463D01*
X80348815Y-77148815D01*
X80269463Y-77245506D01*
X80210498Y-77355820D01*
X80174188Y-77475518D01*
X80161928Y-77600000D01*
X75710011Y-77600000D01*
X75675537Y-77535506D01*
X75596185Y-77438815D01*
X75499494Y-77359463D01*
X75389180Y-77300498D01*
X75269482Y-77264188D01*
X75145000Y-77251928D01*
X73445000Y-77251928D01*
X73320518Y-77264188D01*
X73200820Y-77300498D01*
X73090506Y-77359463D01*
X72993815Y-77438815D01*
X72914463Y-77535506D01*
X72855498Y-77645820D01*
X72819188Y-77765518D01*
X72806928Y-77890000D01*
X72806928Y-79590000D01*
X72819188Y-79714482D01*
X72855498Y-79834180D01*
X72914463Y-79944494D01*
X72993815Y-80041185D01*
X73090506Y-80120537D01*
X73200820Y-80179502D01*
X73273380Y-80201513D01*
X73141525Y-80333368D01*
X72979010Y-80576589D01*
X72867068Y-80846842D01*
X72810000Y-81133740D01*
X72810000Y-81426260D01*
X72867068Y-81713158D01*
X72979010Y-81983411D01*
X73141525Y-82226632D01*
X73348368Y-82433475D01*
X73522760Y-82550000D01*
X73348368Y-82666525D01*
X73141525Y-82873368D01*
X72979010Y-83116589D01*
X72867068Y-83386842D01*
X72810000Y-83673740D01*
X72810000Y-83966260D01*
X72867068Y-84253158D01*
X72979010Y-84523411D01*
X73141525Y-84766632D01*
X73348368Y-84973475D01*
X73522760Y-85090000D01*
X73348368Y-85206525D01*
X73141525Y-85413368D01*
X72979010Y-85656589D01*
X72867068Y-85926842D01*
X72810000Y-86213740D01*
X72810000Y-86506260D01*
X72867068Y-86793158D01*
X72979010Y-87063411D01*
X73141525Y-87306632D01*
X73348368Y-87513475D01*
X73522760Y-87630000D01*
X73348368Y-87746525D01*
X73141525Y-87953368D01*
X72979010Y-88196589D01*
X72867068Y-88466842D01*
X72810000Y-88753740D01*
X72810000Y-89046260D01*
X72867068Y-89333158D01*
X72979010Y-89603411D01*
X73141525Y-89846632D01*
X73348368Y-90053475D01*
X73522760Y-90170000D01*
X73348368Y-90286525D01*
X73141525Y-90493368D01*
X72979010Y-90736589D01*
X72867068Y-91006842D01*
X72810000Y-91293740D01*
X72810000Y-91586260D01*
X72867068Y-91873158D01*
X72979010Y-92143411D01*
X73141525Y-92386632D01*
X73348368Y-92593475D01*
X73522760Y-92710000D01*
X73348368Y-92826525D01*
X73141525Y-93033368D01*
X72979010Y-93276589D01*
X72867068Y-93546842D01*
X72810000Y-93833740D01*
X72810000Y-94126260D01*
X72867068Y-94413158D01*
X72979010Y-94683411D01*
X73141525Y-94926632D01*
X73348368Y-95133475D01*
X73530534Y-95255195D01*
X73413645Y-95324822D01*
X73197412Y-95519731D01*
X73023359Y-95753080D01*
X72898175Y-96015901D01*
X72853524Y-96163110D01*
X72974845Y-96393000D01*
X74168000Y-96393000D01*
X74168000Y-96373000D01*
X74422000Y-96373000D01*
X74422000Y-96393000D01*
X74442000Y-96393000D01*
X74442000Y-96647000D01*
X74422000Y-96647000D01*
X74422000Y-97840814D01*
X74651891Y-97961481D01*
X74926252Y-97864157D01*
X75176355Y-97715178D01*
X75392588Y-97520269D01*
X75517172Y-97353242D01*
X75524188Y-97424482D01*
X75531929Y-97450000D01*
X75524188Y-97475518D01*
X75511928Y-97600000D01*
X75515000Y-97814250D01*
X75673750Y-97973000D01*
X76029407Y-97973000D01*
X76040988Y-97994781D01*
X76068655Y-98047703D01*
X76070049Y-98049437D01*
X76071095Y-98051404D01*
X76108883Y-98097737D01*
X76146310Y-98144286D01*
X76148015Y-98145717D01*
X76149423Y-98147443D01*
X76195473Y-98185539D01*
X76241246Y-98223947D01*
X76243198Y-98225020D01*
X76244913Y-98226439D01*
X76245951Y-98227000D01*
X75673750Y-98227000D01*
X75515000Y-98385750D01*
X75511928Y-98600000D01*
X75524188Y-98724482D01*
X75532295Y-98751207D01*
X75244777Y-98601425D01*
X74765417Y-98461548D01*
X74267979Y-98417877D01*
X73771578Y-98472091D01*
X73295293Y-98622106D01*
X72902362Y-98832133D01*
X72698256Y-99188651D01*
X72415000Y-99188651D01*
X72415000Y-96876890D01*
X72853524Y-96876890D01*
X72898175Y-97024099D01*
X73023359Y-97286920D01*
X73197412Y-97520269D01*
X73413645Y-97715178D01*
X73663748Y-97864157D01*
X73938109Y-97961481D01*
X74168000Y-97840814D01*
X74168000Y-96647000D01*
X72974845Y-96647000D01*
X72853524Y-96876890D01*
X72415000Y-96876890D01*
X72415000Y-76071349D01*
X72698256Y-76071349D01*
X72902362Y-76427867D01*
X73345223Y-76658575D01*
X73824583Y-76798452D01*
X74322021Y-76842123D01*
X74818422Y-76787909D01*
X75294707Y-76637894D01*
X75687638Y-76427867D01*
X75891744Y-76071349D01*
X74295000Y-74474605D01*
X72698256Y-76071349D01*
X72415000Y-76071349D01*
X72415000Y-75832404D01*
X72518651Y-75891744D01*
X74115395Y-74295000D01*
X74474605Y-74295000D01*
X76071349Y-75891744D01*
X76427867Y-75687638D01*
X76658575Y-75244777D01*
X76798452Y-74765417D01*
X76842123Y-74267979D01*
X76787909Y-73771578D01*
X76637894Y-73295293D01*
X76427867Y-72902362D01*
X76071349Y-72698256D01*
X74474605Y-74295000D01*
X74115395Y-74295000D01*
X74101253Y-74280858D01*
X74280858Y-74101253D01*
X74295000Y-74115395D01*
X75891744Y-72518651D01*
X75832404Y-72415000D01*
X84146101Y-72415000D01*
X84082795Y-72509744D01*
%TA.AperFunction,Conductor*%
D25*
G36*
X84082795Y-72509744D02*
G01*
X84004774Y-72698102D01*
X83965000Y-72898061D01*
X83965000Y-73101939D01*
X84004774Y-73301898D01*
X84082795Y-73490256D01*
X84089306Y-73500000D01*
X84082795Y-73509744D01*
X84004774Y-73698102D01*
X83965000Y-73898061D01*
X83965000Y-74101939D01*
X84004774Y-74301898D01*
X84082795Y-74490256D01*
X84196063Y-74659774D01*
X84340226Y-74803937D01*
X84509744Y-74917205D01*
X84698102Y-74995226D01*
X84898061Y-75035000D01*
X85101939Y-75035000D01*
X85301898Y-74995226D01*
X85490256Y-74917205D01*
X85659774Y-74803937D01*
X85803937Y-74659774D01*
X85917205Y-74490256D01*
X85995226Y-74301898D01*
X86035000Y-74101939D01*
X86035000Y-73898061D01*
X85995226Y-73698102D01*
X85917205Y-73509744D01*
X85910694Y-73500000D01*
X85917205Y-73490256D01*
X85995226Y-73301898D01*
X86035000Y-73101939D01*
X86035000Y-72898061D01*
X85995226Y-72698102D01*
X85917205Y-72509744D01*
X85853899Y-72415000D01*
X90146101Y-72415000D01*
X90082795Y-72509744D01*
X90004774Y-72698102D01*
X89965000Y-72898061D01*
X89965000Y-73101939D01*
X90004774Y-73301898D01*
X90082795Y-73490256D01*
X90196063Y-73659774D01*
X90340226Y-73803937D01*
X90509744Y-73917205D01*
X90698102Y-73995226D01*
X90898061Y-74035000D01*
X91101939Y-74035000D01*
X91301898Y-73995226D01*
X91490256Y-73917205D01*
X91659774Y-73803937D01*
X91786821Y-73676890D01*
X92774048Y-73676890D01*
X92774048Y-73923110D01*
X92822083Y-74164598D01*
X92916307Y-74392074D01*
X93053099Y-74596798D01*
X93227202Y-74770901D01*
X93431926Y-74907693D01*
X93659402Y-75001917D01*
X93900890Y-75049952D01*
X94147110Y-75049952D01*
X94388598Y-75001917D01*
X94616074Y-74907693D01*
X94820798Y-74770901D01*
X94994901Y-74596798D01*
X95131693Y-74392074D01*
X95225917Y-74164598D01*
X95273952Y-73923110D01*
X95273952Y-73876890D01*
X108274048Y-73876890D01*
X108274048Y-74123110D01*
X108322083Y-74364598D01*
X108416307Y-74592074D01*
X108553099Y-74796798D01*
X108727202Y-74970901D01*
X108931926Y-75107693D01*
X109159402Y-75201917D01*
X109400890Y-75249952D01*
X109647110Y-75249952D01*
X109888598Y-75201917D01*
X110116074Y-75107693D01*
X110320798Y-74970901D01*
X110494901Y-74796798D01*
X110631693Y-74592074D01*
X110725917Y-74364598D01*
X110734386Y-74322021D01*
X111244877Y-74322021D01*
X111299091Y-74818422D01*
X111449106Y-75294707D01*
X111659133Y-75687638D01*
X112015651Y-75891744D01*
X113612395Y-74295000D01*
X112015651Y-72698256D01*
X111659133Y-72902362D01*
X111428425Y-73345223D01*
X111288548Y-73824583D01*
X111244877Y-74322021D01*
X110734386Y-74322021D01*
X110773952Y-74123110D01*
X110773952Y-73876890D01*
X110725917Y-73635402D01*
X110631693Y-73407926D01*
X110494901Y-73203202D01*
X110320798Y-73029099D01*
X110116074Y-72892307D01*
X109888598Y-72798083D01*
X109647110Y-72750048D01*
X109400890Y-72750048D01*
X109159402Y-72798083D01*
X108931926Y-72892307D01*
X108727202Y-73029099D01*
X108553099Y-73203202D01*
X108416307Y-73407926D01*
X108322083Y-73635402D01*
X108274048Y-73876890D01*
X95273952Y-73876890D01*
X95273952Y-73676890D01*
X95225917Y-73435402D01*
X95131693Y-73207926D01*
X94994901Y-73003202D01*
X94820798Y-72829099D01*
X94616074Y-72692307D01*
X94388598Y-72598083D01*
X94147110Y-72550048D01*
X93900890Y-72550048D01*
X93659402Y-72598083D01*
X93431926Y-72692307D01*
X93227202Y-72829099D01*
X93053099Y-73003202D01*
X92916307Y-73207926D01*
X92822083Y-73435402D01*
X92774048Y-73676890D01*
X91786821Y-73676890D01*
X91803937Y-73659774D01*
X91917205Y-73490256D01*
X91995226Y-73301898D01*
X92035000Y-73101939D01*
X92035000Y-72898061D01*
X91995226Y-72698102D01*
X91917205Y-72509744D01*
X91853899Y-72415000D01*
X112254596Y-72415000D01*
X112195256Y-72518651D01*
X113792000Y-74115395D01*
X113806143Y-74101253D01*
X113985748Y-74280858D01*
X113971605Y-74295000D01*
X115568349Y-75891744D01*
X115672001Y-75832403D01*
X115672000Y-99427596D01*
X115568349Y-99368256D01*
X113971605Y-100965000D01*
X113985748Y-100979143D01*
X113806143Y-101158748D01*
X113792000Y-101144605D01*
X112195256Y-102741349D01*
X112254596Y-102845000D01*
X75832404Y-102845000D01*
X75891744Y-102741349D01*
X74295000Y-101144605D01*
X74280858Y-101158748D01*
X74101253Y-100979143D01*
X74115395Y-100965000D01*
X72518651Y-99368256D01*
X72415000Y-99427596D01*
X72415000Y-99188651D01*
X72698256Y-99188651D01*
X74295000Y-100785395D01*
X74309143Y-100771253D01*
X74488748Y-100950858D01*
X74474605Y-100965000D01*
X76071349Y-102561744D01*
X76427867Y-102357638D01*
X76658575Y-101914777D01*
X76798452Y-101435417D01*
X76842123Y-100937979D01*
X76835452Y-100876890D01*
X76874048Y-100876890D01*
X76874048Y-101123110D01*
X76922083Y-101364598D01*
X77016307Y-101592074D01*
X77153099Y-101796798D01*
X77327202Y-101970901D01*
X77531926Y-102107693D01*
X77759402Y-102201917D01*
X78000890Y-102249952D01*
X78247110Y-102249952D01*
X78488598Y-102201917D01*
X78716074Y-102107693D01*
X78920798Y-101970901D01*
X79094901Y-101796798D01*
X79231693Y-101592074D01*
X79325917Y-101364598D01*
X79373952Y-101123110D01*
X79373952Y-100876890D01*
X79325917Y-100635402D01*
X79231693Y-100407926D01*
X79094901Y-100203202D01*
X78920798Y-100029099D01*
X78716074Y-99892307D01*
X78488598Y-99798083D01*
X78247110Y-99750048D01*
X78000890Y-99750048D01*
X77759402Y-99798083D01*
X77531926Y-99892307D01*
X77327202Y-100029099D01*
X77153099Y-100203202D01*
X77016307Y-100407926D01*
X76922083Y-100635402D01*
X76874048Y-100876890D01*
X76835452Y-100876890D01*
X76787909Y-100441578D01*
X76637894Y-99965293D01*
X76427867Y-99572362D01*
X76071351Y-99368257D01*
X76185558Y-99254050D01*
X76169451Y-99237943D01*
X76614250Y-99235000D01*
X76773000Y-99076250D01*
X76773000Y-98335000D01*
X77027000Y-98335000D01*
X77027000Y-99076250D01*
X77185750Y-99235000D01*
X77650000Y-99238072D01*
X77774482Y-99225812D01*
X77894180Y-99189502D01*
X78004494Y-99130537D01*
X78101185Y-99051185D01*
X78180537Y-98954494D01*
X78239502Y-98844180D01*
X78275812Y-98724482D01*
X78288072Y-98600000D01*
X78285000Y-98385750D01*
X78126250Y-98227000D01*
X77553740Y-98227000D01*
X77597737Y-98191117D01*
X77644286Y-98153690D01*
X77645717Y-98151985D01*
X77647443Y-98150577D01*
X77685539Y-98104527D01*
X77723947Y-98058754D01*
X77725020Y-98056802D01*
X77726439Y-98055087D01*
X77754851Y-98002539D01*
X77771091Y-97973000D01*
X78126250Y-97973000D01*
X78201189Y-97898061D01*
X87965000Y-97898061D01*
X87965000Y-98101939D01*
X88004774Y-98301898D01*
X88082795Y-98490256D01*
X88089306Y-98500000D01*
X88082795Y-98509744D01*
X88004774Y-98698102D01*
X87965000Y-98898061D01*
X87965000Y-99101939D01*
X88004774Y-99301898D01*
X88082795Y-99490256D01*
X88089306Y-99500000D01*
X88082795Y-99509744D01*
X88004774Y-99698102D01*
X87965000Y-99898061D01*
X87965000Y-100101939D01*
X88004774Y-100301898D01*
X88082795Y-100490256D01*
X88196063Y-100659774D01*
X88340226Y-100803937D01*
X88509744Y-100917205D01*
X88698102Y-100995226D01*
X88898061Y-101035000D01*
X89101939Y-101035000D01*
X89301898Y-100995226D01*
X89490256Y-100917205D01*
X89500000Y-100910694D01*
X89509744Y-100917205D01*
X89698102Y-100995226D01*
X89898061Y-101035000D01*
X90101939Y-101035000D01*
X90301898Y-100995226D01*
X90490256Y-100917205D01*
X90500000Y-100910694D01*
X90509744Y-100917205D01*
X90698102Y-100995226D01*
X90898061Y-101035000D01*
X91101939Y-101035000D01*
X91301898Y-100995226D01*
X91490256Y-100917205D01*
X91659774Y-100803937D01*
X91803937Y-100659774D01*
X91917205Y-100490256D01*
X91995226Y-100301898D01*
X92035000Y-100101939D01*
X92035000Y-99898061D01*
X91995226Y-99698102D01*
X91917205Y-99509744D01*
X91910694Y-99500000D01*
X91917205Y-99490256D01*
X91995226Y-99301898D01*
X92035000Y-99101939D01*
X92035000Y-98898061D01*
X91995226Y-98698102D01*
X91917205Y-98509744D01*
X91910694Y-98500000D01*
X91917205Y-98490256D01*
X91995226Y-98301898D01*
X92035000Y-98101939D01*
X92035000Y-97898061D01*
X91995226Y-97698102D01*
X91917205Y-97509744D01*
X91803937Y-97340226D01*
X91659774Y-97196063D01*
X91490256Y-97082795D01*
X91301898Y-97004774D01*
X91101939Y-96965000D01*
X90898061Y-96965000D01*
X90698102Y-97004774D01*
X90509744Y-97082795D01*
X90500000Y-97089306D01*
X90490256Y-97082795D01*
X90301898Y-97004774D01*
X90101939Y-96965000D01*
X89898061Y-96965000D01*
X89698102Y-97004774D01*
X89509744Y-97082795D01*
X89500000Y-97089306D01*
X89490256Y-97082795D01*
X89301898Y-97004774D01*
X89101939Y-96965000D01*
X88898061Y-96965000D01*
X88698102Y-97004774D01*
X88509744Y-97082795D01*
X88340226Y-97196063D01*
X88196063Y-97340226D01*
X88082795Y-97509744D01*
X88004774Y-97698102D01*
X87965000Y-97898061D01*
X78201189Y-97898061D01*
X78269860Y-97829390D01*
X78298061Y-97835000D01*
X78501939Y-97835000D01*
X78701898Y-97795226D01*
X78890256Y-97717205D01*
X79059774Y-97603937D01*
X79203937Y-97459774D01*
X79317205Y-97290256D01*
X79395226Y-97101898D01*
X79418945Y-96982656D01*
X79540226Y-97103937D01*
X79709744Y-97217205D01*
X79898102Y-97295226D01*
X80098061Y-97335000D01*
X80301939Y-97335000D01*
X80501898Y-97295226D01*
X80690256Y-97217205D01*
X80700000Y-97210694D01*
X80709744Y-97217205D01*
X80898102Y-97295226D01*
X81098061Y-97335000D01*
X81301939Y-97335000D01*
X81501898Y-97295226D01*
X81690256Y-97217205D01*
X81859774Y-97103937D01*
X82003937Y-96959774D01*
X82117205Y-96790256D01*
X82195226Y-96601898D01*
X82235000Y-96401939D01*
X82235000Y-96198061D01*
X82195226Y-95998102D01*
X82117205Y-95809744D01*
X82003937Y-95640226D01*
X81859774Y-95496063D01*
X81690256Y-95382795D01*
X81501898Y-95304774D01*
X81301939Y-95265000D01*
X81098061Y-95265000D01*
X80898102Y-95304774D01*
X80709744Y-95382795D01*
X80700000Y-95389306D01*
X80690256Y-95382795D01*
X80501898Y-95304774D01*
X80301939Y-95265000D01*
X80098061Y-95265000D01*
X79898102Y-95304774D01*
X79709744Y-95382795D01*
X79540226Y-95496063D01*
X79396063Y-95640226D01*
X79282795Y-95809744D01*
X79204774Y-95998102D01*
X79181055Y-96117344D01*
X79059774Y-95996063D01*
X78890256Y-95882795D01*
X78701898Y-95804774D01*
X78501939Y-95765000D01*
X78298061Y-95765000D01*
X78288072Y-95766987D01*
X78288072Y-95000000D01*
X78275812Y-94875518D01*
X78272621Y-94865000D01*
X84165774Y-94865000D01*
X85407817Y-96107044D01*
X85419126Y-96163898D01*
X85497147Y-96352256D01*
X85610415Y-96521774D01*
X85754578Y-96665937D01*
X85924096Y-96779205D01*
X86112454Y-96857226D01*
X86312413Y-96897000D01*
X86516291Y-96897000D01*
X86716250Y-96857226D01*
X86904608Y-96779205D01*
X87074126Y-96665937D01*
X87218289Y-96521774D01*
X87331557Y-96352256D01*
X87409578Y-96163898D01*
X87449352Y-95963939D01*
X87449352Y-95760061D01*
X87409578Y-95560102D01*
X87331557Y-95371744D01*
X87218289Y-95202226D01*
X87074126Y-95058063D01*
X86904608Y-94944795D01*
X86716250Y-94866774D01*
X86659396Y-94855465D01*
X86038930Y-94235000D01*
X86344249Y-94235000D01*
X86400000Y-94240491D01*
X86455751Y-94235000D01*
X86455752Y-94235000D01*
X86622499Y-94218577D01*
X86836447Y-94153676D01*
X87033623Y-94048284D01*
X87206449Y-93906449D01*
X87241996Y-93863135D01*
X88507070Y-92598061D01*
X94565000Y-92598061D01*
X94565000Y-92801939D01*
X94604774Y-93001898D01*
X94682795Y-93190256D01*
X94796063Y-93359774D01*
X94940226Y-93503937D01*
X95109744Y-93617205D01*
X95298102Y-93695226D01*
X95498061Y-93735000D01*
X95701939Y-93735000D01*
X95901898Y-93695226D01*
X96090256Y-93617205D01*
X96138454Y-93585000D01*
X96261928Y-93585000D01*
X96261928Y-94600000D01*
X96274188Y-94724482D01*
X96310498Y-94844180D01*
X96369463Y-94954494D01*
X96448815Y-95051185D01*
X96508296Y-95100000D01*
X96448815Y-95148815D01*
X96369463Y-95245506D01*
X96310498Y-95355820D01*
X96274188Y-95475518D01*
X96261928Y-95600000D01*
X96261928Y-97600000D01*
X96274188Y-97724482D01*
X96310498Y-97844180D01*
X96369463Y-97954494D01*
X96448815Y-98051185D01*
X96508296Y-98100000D01*
X96448815Y-98148815D01*
X96369463Y-98245506D01*
X96310498Y-98355820D01*
X96274188Y-98475518D01*
X96261928Y-98600000D01*
X96261928Y-100600000D01*
X96274188Y-100724482D01*
X96306218Y-100830071D01*
X96196063Y-100940226D01*
X96082795Y-101109744D01*
X96004774Y-101298102D01*
X95965000Y-101498061D01*
X95965000Y-101701939D01*
X96004774Y-101901898D01*
X96082795Y-102090256D01*
X96196063Y-102259774D01*
X96340226Y-102403937D01*
X96509744Y-102517205D01*
X96698102Y-102595226D01*
X96898061Y-102635000D01*
X97101939Y-102635000D01*
X97301898Y-102595226D01*
X97490256Y-102517205D01*
X97659774Y-102403937D01*
X97803937Y-102259774D01*
X97917205Y-102090256D01*
X97995226Y-101901898D01*
X98006535Y-101845043D01*
X98495049Y-101356530D01*
X98528817Y-101328817D01*
X98558672Y-101292440D01*
X98603290Y-101238072D01*
X98900000Y-101238072D01*
X99024482Y-101225812D01*
X99144180Y-101189502D01*
X99254494Y-101130537D01*
X99351185Y-101051185D01*
X99399739Y-100992021D01*
X111244877Y-100992021D01*
X111299091Y-101488422D01*
X111449106Y-101964707D01*
X111659133Y-102357638D01*
X112015651Y-102561744D01*
X113612395Y-100965000D01*
X112015651Y-99368256D01*
X111659133Y-99572362D01*
X111428425Y-100015223D01*
X111288548Y-100494583D01*
X111244877Y-100992021D01*
X99399739Y-100992021D01*
X99430537Y-100954494D01*
X99489502Y-100844180D01*
X99525812Y-100724482D01*
X99538072Y-100600000D01*
X99538072Y-99682800D01*
X101486800Y-99682800D01*
X101486800Y-100343200D01*
X101492677Y-100403138D01*
X101498136Y-100463124D01*
X101498770Y-100465279D01*
X101498989Y-100467510D01*
X101516374Y-100525091D01*
X101533402Y-100582948D01*
X101534443Y-100584940D01*
X101535091Y-100587085D01*
X101563376Y-100640282D01*
X101591271Y-100693640D01*
X101592674Y-100695385D01*
X101593730Y-100697371D01*
X101631805Y-100744054D01*
X101669537Y-100790985D01*
X101671259Y-100792430D01*
X101672675Y-100794166D01*
X101719004Y-100832493D01*
X101765221Y-100871273D01*
X101767191Y-100872356D01*
X101768917Y-100873784D01*
X101821809Y-100902383D01*
X101874677Y-100931447D01*
X101876820Y-100932127D01*
X101878790Y-100933192D01*
X101936305Y-100950996D01*
X101993737Y-100969214D01*
X101995965Y-100969464D01*
X101998110Y-100970128D01*
X102057977Y-100976420D01*
X102117864Y-100983138D01*
X102122179Y-100983168D01*
X102122332Y-100983184D01*
X102122485Y-100983170D01*
X102126800Y-100983200D01*
X104463600Y-100983200D01*
X104523538Y-100977323D01*
X104583524Y-100971864D01*
X104585679Y-100971230D01*
X104587910Y-100971011D01*
X104645491Y-100953626D01*
X104703348Y-100936598D01*
X104705340Y-100935557D01*
X104707485Y-100934909D01*
X104760682Y-100906624D01*
X104814040Y-100878729D01*
X104815785Y-100877326D01*
X104817771Y-100876270D01*
X104864454Y-100838195D01*
X104911385Y-100800463D01*
X104912830Y-100798741D01*
X104914566Y-100797325D01*
X104952893Y-100750996D01*
X104991673Y-100704779D01*
X104992756Y-100702809D01*
X104994184Y-100701083D01*
X105022783Y-100648191D01*
X105051847Y-100595323D01*
X105052527Y-100593180D01*
X105053592Y-100591210D01*
X105071396Y-100533695D01*
X105089614Y-100476263D01*
X105089864Y-100474035D01*
X105090528Y-100471890D01*
X105096827Y-100411959D01*
X105103538Y-100352136D01*
X105103568Y-100347821D01*
X105103584Y-100347668D01*
X105103570Y-100347515D01*
X105103600Y-100343200D01*
X105103600Y-100089200D01*
X105102439Y-100077364D01*
X105102960Y-100068800D01*
X105428800Y-100068800D01*
X105488738Y-100062923D01*
X105548724Y-100057464D01*
X105550879Y-100056830D01*
X105553110Y-100056611D01*
X105610691Y-100039226D01*
X105668548Y-100022198D01*
X105670540Y-100021157D01*
X105672685Y-100020509D01*
X105725882Y-99992224D01*
X105779240Y-99964329D01*
X105780985Y-99962926D01*
X105782971Y-99961870D01*
X105829654Y-99923795D01*
X105876585Y-99886063D01*
X105878030Y-99884341D01*
X105879766Y-99882925D01*
X105918093Y-99836596D01*
X105956873Y-99790379D01*
X105957956Y-99788409D01*
X105959384Y-99786683D01*
X105987983Y-99733791D01*
X106017047Y-99680923D01*
X106017727Y-99678780D01*
X106018792Y-99676810D01*
X106036596Y-99619295D01*
X106054814Y-99561863D01*
X106055064Y-99559635D01*
X106055728Y-99557490D01*
X106062020Y-99497623D01*
X106068738Y-99437736D01*
X106068768Y-99433421D01*
X106068784Y-99433268D01*
X106068770Y-99433115D01*
X106068800Y-99428800D01*
X106068800Y-99188651D01*
X112195256Y-99188651D01*
X113792000Y-100785395D01*
X115388744Y-99188651D01*
X115184638Y-98832133D01*
X114741777Y-98601425D01*
X114262417Y-98461548D01*
X113764979Y-98417877D01*
X113268578Y-98472091D01*
X112792293Y-98622106D01*
X112399362Y-98832133D01*
X112195256Y-99188651D01*
X106068800Y-99188651D01*
X106068800Y-99174800D01*
X106067639Y-99162964D01*
X106068361Y-99151087D01*
X106067967Y-99142160D01*
X106059810Y-98982428D01*
X106055685Y-98954903D01*
X106054567Y-98927089D01*
X106046449Y-98893279D01*
X106041297Y-98858901D01*
X106031906Y-98832705D01*
X106025406Y-98805635D01*
X106022423Y-98797212D01*
X105994180Y-98719197D01*
X105988670Y-98707647D01*
X105985015Y-98695374D01*
X105961810Y-98651337D01*
X105940403Y-98606460D01*
X105932757Y-98596203D01*
X105926786Y-98584871D01*
X105921303Y-98578097D01*
X105917473Y-98362854D01*
X105916404Y-98057200D01*
X105917539Y-97744255D01*
X105921382Y-97535391D01*
X105940722Y-97503906D01*
X105971637Y-97455244D01*
X105973400Y-97450704D01*
X105975941Y-97446568D01*
X105995990Y-97392547D01*
X106016861Y-97338812D01*
X106017707Y-97334030D01*
X106019400Y-97329467D01*
X106021616Y-97320810D01*
X106045020Y-97226665D01*
X106053984Y-97165670D01*
X106063102Y-97104698D01*
X106063169Y-97103169D01*
X106063181Y-97103086D01*
X106063176Y-97102994D01*
X106063492Y-97095770D01*
X106068368Y-96963107D01*
X106067922Y-96955808D01*
X106068738Y-96948536D01*
X106068800Y-96939600D01*
X106068800Y-96685600D01*
X106062923Y-96625662D01*
X106057464Y-96565676D01*
X106056830Y-96563521D01*
X106056611Y-96561290D01*
X106039226Y-96503709D01*
X106022198Y-96445852D01*
X106021157Y-96443860D01*
X106020509Y-96441715D01*
X105992224Y-96388518D01*
X105964329Y-96335160D01*
X105962926Y-96333415D01*
X105961870Y-96331429D01*
X105923795Y-96284746D01*
X105886063Y-96237815D01*
X105884341Y-96236370D01*
X105882925Y-96234634D01*
X105836596Y-96196307D01*
X105790379Y-96157527D01*
X105788409Y-96156444D01*
X105786683Y-96155016D01*
X105733791Y-96126417D01*
X105680923Y-96097353D01*
X105678780Y-96096673D01*
X105676810Y-96095608D01*
X105619295Y-96077804D01*
X105561863Y-96059586D01*
X105559635Y-96059336D01*
X105557490Y-96058672D01*
X105497623Y-96052380D01*
X105437736Y-96045662D01*
X105433421Y-96045632D01*
X105433268Y-96045616D01*
X105433115Y-96045630D01*
X105428800Y-96045600D01*
X104565200Y-96045600D01*
X104505262Y-96051477D01*
X104445276Y-96056936D01*
X104443121Y-96057570D01*
X104440890Y-96057789D01*
X104383309Y-96075174D01*
X104325452Y-96092202D01*
X104323460Y-96093243D01*
X104321315Y-96093891D01*
X104268118Y-96122176D01*
X104214760Y-96150071D01*
X104213015Y-96151474D01*
X104211029Y-96152530D01*
X104164346Y-96190605D01*
X104117415Y-96228337D01*
X104115970Y-96230059D01*
X104114234Y-96231475D01*
X104075907Y-96277804D01*
X104037127Y-96324021D01*
X104036044Y-96325991D01*
X104034616Y-96327717D01*
X104006017Y-96380609D01*
X103976953Y-96433477D01*
X103976273Y-96435620D01*
X103975208Y-96437590D01*
X103957404Y-96495105D01*
X103939186Y-96552537D01*
X103938936Y-96554765D01*
X103938272Y-96556910D01*
X103931980Y-96616777D01*
X103925262Y-96676664D01*
X103925232Y-96680979D01*
X103925216Y-96681132D01*
X103925230Y-96681285D01*
X103925200Y-96685600D01*
X103925200Y-96939600D01*
X103926361Y-96951438D01*
X103925841Y-96960000D01*
X103600000Y-96960000D01*
X103540062Y-96965877D01*
X103480076Y-96971336D01*
X103477921Y-96971970D01*
X103475690Y-96972189D01*
X103418109Y-96989574D01*
X103360252Y-97006602D01*
X103358260Y-97007643D01*
X103356115Y-97008291D01*
X103302918Y-97036576D01*
X103249560Y-97064471D01*
X103247815Y-97065874D01*
X103245829Y-97066930D01*
X103199146Y-97105005D01*
X103152215Y-97142737D01*
X103150770Y-97144459D01*
X103149034Y-97145875D01*
X103110707Y-97192204D01*
X103071927Y-97238421D01*
X103070844Y-97240391D01*
X103069416Y-97242117D01*
X103040817Y-97295009D01*
X103011753Y-97347877D01*
X103011073Y-97350020D01*
X103010008Y-97351990D01*
X102992204Y-97409505D01*
X102973986Y-97466937D01*
X102973736Y-97469165D01*
X102973072Y-97471310D01*
X102966780Y-97531177D01*
X102960062Y-97591064D01*
X102960032Y-97595379D01*
X102960016Y-97595532D01*
X102960030Y-97595685D01*
X102960000Y-97600000D01*
X102960000Y-97854000D01*
X102961161Y-97865838D01*
X102960439Y-97877717D01*
X102960833Y-97886644D01*
X102968991Y-98046375D01*
X102973117Y-98073906D01*
X102974235Y-98101710D01*
X102982351Y-98135514D01*
X102982837Y-98138757D01*
X102972076Y-98139736D01*
X102969921Y-98140370D01*
X102967690Y-98140589D01*
X102910109Y-98157974D01*
X102852252Y-98175002D01*
X102850260Y-98176043D01*
X102848115Y-98176691D01*
X102794918Y-98204976D01*
X102741560Y-98232871D01*
X102739815Y-98234274D01*
X102737829Y-98235330D01*
X102691146Y-98273405D01*
X102644215Y-98311137D01*
X102642770Y-98312859D01*
X102641034Y-98314275D01*
X102602707Y-98360604D01*
X102563927Y-98406821D01*
X102562844Y-98408791D01*
X102561416Y-98410517D01*
X102532817Y-98463409D01*
X102503753Y-98516277D01*
X102503073Y-98518420D01*
X102502008Y-98520390D01*
X102484204Y-98577905D01*
X102465986Y-98635337D01*
X102465736Y-98637565D01*
X102465072Y-98639710D01*
X102458780Y-98699577D01*
X102452062Y-98759464D01*
X102452032Y-98763779D01*
X102452016Y-98763932D01*
X102452030Y-98764085D01*
X102452000Y-98768400D01*
X102452000Y-99055794D01*
X102421987Y-99050988D01*
X102378461Y-99048328D01*
X102335144Y-99043097D01*
X102326209Y-99042960D01*
X102310014Y-99042823D01*
X102309863Y-99042837D01*
X102304600Y-99042800D01*
X102126800Y-99042800D01*
X102066862Y-99048677D01*
X102006876Y-99054136D01*
X102004721Y-99054770D01*
X102002490Y-99054989D01*
X101944909Y-99072374D01*
X101887052Y-99089402D01*
X101885060Y-99090443D01*
X101882915Y-99091091D01*
X101829718Y-99119376D01*
X101776360Y-99147271D01*
X101774615Y-99148674D01*
X101772629Y-99149730D01*
X101725946Y-99187805D01*
X101679015Y-99225537D01*
X101677570Y-99227259D01*
X101675834Y-99228675D01*
X101637535Y-99274971D01*
X101598727Y-99321221D01*
X101597644Y-99323191D01*
X101596216Y-99324917D01*
X101567617Y-99377809D01*
X101538553Y-99430677D01*
X101537873Y-99432820D01*
X101536808Y-99434790D01*
X101519004Y-99492305D01*
X101500786Y-99549737D01*
X101500536Y-99551965D01*
X101499872Y-99554110D01*
X101493580Y-99613977D01*
X101486862Y-99673864D01*
X101486832Y-99678179D01*
X101486816Y-99678332D01*
X101486830Y-99678485D01*
X101486800Y-99682800D01*
X99538072Y-99682800D01*
X99538072Y-98600000D01*
X99525812Y-98475518D01*
X99489502Y-98355820D01*
X99430537Y-98245506D01*
X99351185Y-98148815D01*
X99291704Y-98100000D01*
X99351185Y-98051185D01*
X99430537Y-97954494D01*
X99489502Y-97844180D01*
X99525812Y-97724482D01*
X99538072Y-97600000D01*
X99538072Y-97485000D01*
X99561546Y-97485000D01*
X99609744Y-97517205D01*
X99798102Y-97595226D01*
X99998061Y-97635000D01*
X100201939Y-97635000D01*
X100401898Y-97595226D01*
X100590256Y-97517205D01*
X100759774Y-97403937D01*
X100903937Y-97259774D01*
X101017205Y-97090256D01*
X101095226Y-96901898D01*
X101135000Y-96701939D01*
X101135000Y-96498061D01*
X101095226Y-96298102D01*
X101017205Y-96109744D01*
X100903937Y-95940226D01*
X100759774Y-95796063D01*
X100590256Y-95682795D01*
X100401898Y-95604774D01*
X100201939Y-95565000D01*
X99998061Y-95565000D01*
X99798102Y-95604774D01*
X99609744Y-95682795D01*
X99561546Y-95715000D01*
X99538072Y-95715000D01*
X99538072Y-95600000D01*
X99525812Y-95475518D01*
X99489502Y-95355820D01*
X99430537Y-95245506D01*
X99351185Y-95148815D01*
X99291704Y-95100000D01*
X99351185Y-95051185D01*
X99430537Y-94954494D01*
X99489502Y-94844180D01*
X99525812Y-94724482D01*
X99538072Y-94600000D01*
X99538072Y-92600000D01*
X99525812Y-92475518D01*
X99489502Y-92355820D01*
X99430537Y-92245506D01*
X99351185Y-92148815D01*
X99291704Y-92100000D01*
X99351185Y-92051185D01*
X99393191Y-92000000D01*
X100061928Y-92000000D01*
X100074188Y-92124482D01*
X100110498Y-92244180D01*
X100169463Y-92354494D01*
X100248815Y-92451185D01*
X100345506Y-92530537D01*
X100455820Y-92589502D01*
X100575518Y-92625812D01*
X100700000Y-92638072D01*
X101414250Y-92635000D01*
X101573000Y-92476250D01*
X101573000Y-91127000D01*
X101827000Y-91127000D01*
X101827000Y-92476250D01*
X101985750Y-92635000D01*
X102700000Y-92638072D01*
X102824482Y-92625812D01*
X102944180Y-92589502D01*
X103054494Y-92530537D01*
X103151185Y-92451185D01*
X103230537Y-92354494D01*
X103289502Y-92244180D01*
X103325812Y-92124482D01*
X103338072Y-92000000D01*
X103335000Y-91285750D01*
X103176250Y-91127000D01*
X101827000Y-91127000D01*
X101573000Y-91127000D01*
X100223750Y-91127000D01*
X100065000Y-91285750D01*
X100061928Y-92000000D01*
X99393191Y-92000000D01*
X99430537Y-91954494D01*
X99489502Y-91844180D01*
X99525812Y-91724482D01*
X99538072Y-91600000D01*
X99535000Y-90885750D01*
X99376250Y-90727000D01*
X98027000Y-90727000D01*
X98027000Y-90747000D01*
X97773000Y-90747000D01*
X97773000Y-90727000D01*
X96423750Y-90727000D01*
X96265000Y-90885750D01*
X96261928Y-91600000D01*
X96274188Y-91724482D01*
X96301646Y-91815000D01*
X96138454Y-91815000D01*
X96090256Y-91782795D01*
X95901898Y-91704774D01*
X95701939Y-91665000D01*
X95498061Y-91665000D01*
X95298102Y-91704774D01*
X95109744Y-91782795D01*
X94940226Y-91896063D01*
X94796063Y-92040226D01*
X94682795Y-92209744D01*
X94604774Y-92398102D01*
X94565000Y-92598061D01*
X88507070Y-92598061D01*
X90117060Y-90988072D01*
X90400000Y-90988072D01*
X90525136Y-90975681D01*
X90550064Y-90968091D01*
X90575518Y-90975812D01*
X90700000Y-90988072D01*
X91008929Y-90988072D01*
X91004774Y-90998102D01*
X90965000Y-91198061D01*
X90965000Y-91401939D01*
X91004774Y-91601898D01*
X91082795Y-91790256D01*
X91196063Y-91959774D01*
X91340226Y-92103937D01*
X91509744Y-92217205D01*
X91698102Y-92295226D01*
X91898061Y-92335000D01*
X92101939Y-92335000D01*
X92301898Y-92295226D01*
X92490256Y-92217205D01*
X92659774Y-92103937D01*
X92714724Y-92048987D01*
X92857932Y-92005546D01*
X92989961Y-91934974D01*
X93105686Y-91840001D01*
X93129489Y-91810997D01*
X94236014Y-90704473D01*
X94265011Y-90680676D01*
X94291342Y-90648592D01*
X94359984Y-90564952D01*
X94430556Y-90432922D01*
X94441991Y-90395226D01*
X94474013Y-90289661D01*
X94485010Y-90178008D01*
X94485010Y-90177999D01*
X94488686Y-90140676D01*
X94485010Y-90103353D01*
X94485010Y-89600000D01*
X96261928Y-89600000D01*
X96265000Y-90314250D01*
X96423750Y-90473000D01*
X97773000Y-90473000D01*
X97773000Y-89123750D01*
X98027000Y-89123750D01*
X98027000Y-90473000D01*
X99376250Y-90473000D01*
X99535000Y-90314250D01*
X99538072Y-89600000D01*
X99525812Y-89475518D01*
X99489502Y-89355820D01*
X99430537Y-89245506D01*
X99351185Y-89148815D01*
X99254494Y-89069463D01*
X99144180Y-89010498D01*
X99024482Y-88974188D01*
X98900000Y-88961928D01*
X98185750Y-88965000D01*
X98027000Y-89123750D01*
X97773000Y-89123750D01*
X97614250Y-88965000D01*
X96900000Y-88961928D01*
X96775518Y-88974188D01*
X96655820Y-89010498D01*
X96545506Y-89069463D01*
X96448815Y-89148815D01*
X96369463Y-89245506D01*
X96310498Y-89355820D01*
X96274188Y-89475518D01*
X96261928Y-89600000D01*
X94485010Y-89600000D01*
X94485010Y-84327335D01*
X94488686Y-84290012D01*
X94485010Y-84252689D01*
X94485010Y-84252679D01*
X94474013Y-84141026D01*
X94430556Y-83997765D01*
X94413716Y-83966260D01*
X94359984Y-83865735D01*
X94288809Y-83779009D01*
X94265011Y-83750011D01*
X94236012Y-83726212D01*
X94169998Y-83660198D01*
X94169998Y-83598061D01*
X94130224Y-83398102D01*
X94052203Y-83209744D01*
X93938935Y-83040226D01*
X93794772Y-82896063D01*
X93662278Y-82807534D01*
X96710764Y-79759049D01*
X96798102Y-79795226D01*
X96998061Y-79835000D01*
X97201939Y-79835000D01*
X97401898Y-79795226D01*
X97590256Y-79717205D01*
X97638454Y-79685000D01*
X98133422Y-79685000D01*
X100061928Y-81613507D01*
X100061928Y-83000000D01*
X100074188Y-83124482D01*
X100110498Y-83244180D01*
X100169463Y-83354494D01*
X100248815Y-83451185D01*
X100308296Y-83500000D01*
X100248815Y-83548815D01*
X100169463Y-83645506D01*
X100110498Y-83755820D01*
X100074188Y-83875518D01*
X100061928Y-84000000D01*
X100061928Y-84115000D01*
X99566579Y-84115000D01*
X98206535Y-82754957D01*
X98195226Y-82698102D01*
X98117205Y-82509744D01*
X98003937Y-82340226D01*
X97859774Y-82196063D01*
X97690256Y-82082795D01*
X97501898Y-82004774D01*
X97301939Y-81965000D01*
X97098061Y-81965000D01*
X96898102Y-82004774D01*
X96709744Y-82082795D01*
X96540226Y-82196063D01*
X96396063Y-82340226D01*
X96282795Y-82509744D01*
X96204774Y-82698102D01*
X96165000Y-82898061D01*
X96165000Y-83101939D01*
X96204774Y-83301898D01*
X96282795Y-83490256D01*
X96396063Y-83659774D01*
X96540226Y-83803937D01*
X96709744Y-83917205D01*
X96898102Y-83995226D01*
X96954957Y-84006535D01*
X96966349Y-84017927D01*
X96809744Y-84082795D01*
X96640226Y-84196063D01*
X96496063Y-84340226D01*
X96382795Y-84509744D01*
X96304774Y-84698102D01*
X96265000Y-84898061D01*
X96265000Y-85101939D01*
X96304774Y-85301898D01*
X96382795Y-85490256D01*
X96496063Y-85659774D01*
X96640226Y-85803937D01*
X96809744Y-85917205D01*
X96998102Y-85995226D01*
X97054957Y-86006535D01*
X99643470Y-88595049D01*
X99671183Y-88628817D01*
X99704951Y-88656530D01*
X99704953Y-88656532D01*
X99805941Y-88739411D01*
X99959686Y-88821589D01*
X100017659Y-88839175D01*
X100061928Y-88852604D01*
X100061928Y-89000000D01*
X100074188Y-89124482D01*
X100110498Y-89244180D01*
X100169463Y-89354494D01*
X100248815Y-89451185D01*
X100308296Y-89500000D01*
X100248815Y-89548815D01*
X100169463Y-89645506D01*
X100110498Y-89755820D01*
X100074188Y-89875518D01*
X100061928Y-90000000D01*
X100065000Y-90714250D01*
X100223750Y-90873000D01*
X101573000Y-90873000D01*
X101573000Y-90853000D01*
X101827000Y-90853000D01*
X101827000Y-90873000D01*
X103176250Y-90873000D01*
X103335000Y-90714250D01*
X103335249Y-90656278D01*
X110123000Y-90656278D01*
X110123000Y-90953722D01*
X110181029Y-91245451D01*
X110294856Y-91520253D01*
X110460107Y-91767569D01*
X110670431Y-91977893D01*
X110917747Y-92143144D01*
X111192549Y-92256971D01*
X111484278Y-92315000D01*
X111781722Y-92315000D01*
X112073451Y-92256971D01*
X112348253Y-92143144D01*
X112595569Y-91977893D01*
X112805893Y-91767569D01*
X112971144Y-91520253D01*
X113084971Y-91245451D01*
X113143000Y-90953722D01*
X113143000Y-90656278D01*
X113084971Y-90364549D01*
X112971144Y-90089747D01*
X112805893Y-89842431D01*
X112595569Y-89632107D01*
X112348253Y-89466856D01*
X112073451Y-89353029D01*
X111781722Y-89295000D01*
X111484278Y-89295000D01*
X111192549Y-89353029D01*
X110917747Y-89466856D01*
X110670431Y-89632107D01*
X110460107Y-89842431D01*
X110294856Y-90089747D01*
X110181029Y-90364549D01*
X110123000Y-90656278D01*
X103335249Y-90656278D01*
X103338072Y-90000000D01*
X103325812Y-89875518D01*
X103289502Y-89755820D01*
X103230537Y-89645506D01*
X103151185Y-89548815D01*
X103091704Y-89500000D01*
X103151185Y-89451185D01*
X103230537Y-89354494D01*
X103289502Y-89244180D01*
X103325812Y-89124482D01*
X103338072Y-89000000D01*
X103338072Y-87000000D01*
X103325812Y-86875518D01*
X103289502Y-86755820D01*
X103230537Y-86645506D01*
X103151185Y-86548815D01*
X103091704Y-86500000D01*
X103151185Y-86451185D01*
X103230537Y-86354494D01*
X103289502Y-86244180D01*
X103325812Y-86124482D01*
X103338072Y-86000000D01*
X103338072Y-84000000D01*
X103325812Y-83875518D01*
X103289502Y-83755820D01*
X103230537Y-83645506D01*
X103151185Y-83548815D01*
X103091704Y-83500000D01*
X103151185Y-83451185D01*
X103230537Y-83354494D01*
X103289502Y-83244180D01*
X103325812Y-83124482D01*
X103338072Y-83000000D01*
X103338072Y-81898061D01*
X110965000Y-81898061D01*
X110965000Y-82101939D01*
X111004774Y-82301898D01*
X111082795Y-82490256D01*
X111196063Y-82659774D01*
X111340226Y-82803937D01*
X111509744Y-82917205D01*
X111698102Y-82995226D01*
X111898061Y-83035000D01*
X112101939Y-83035000D01*
X112301898Y-82995226D01*
X112490256Y-82917205D01*
X112659774Y-82803937D01*
X112803937Y-82659774D01*
X112917205Y-82490256D01*
X112995226Y-82301898D01*
X113035000Y-82101939D01*
X113035000Y-81898061D01*
X112995226Y-81698102D01*
X112917205Y-81509744D01*
X112803937Y-81340226D01*
X112659774Y-81196063D01*
X112490256Y-81082795D01*
X112301898Y-81004774D01*
X112101939Y-80965000D01*
X111898061Y-80965000D01*
X111698102Y-81004774D01*
X111509744Y-81082795D01*
X111340226Y-81196063D01*
X111196063Y-81340226D01*
X111082795Y-81509744D01*
X111004774Y-81698102D01*
X110965000Y-81898061D01*
X103338072Y-81898061D01*
X103338072Y-81000000D01*
X103325812Y-80875518D01*
X103289502Y-80755820D01*
X103230537Y-80645506D01*
X103151185Y-80548815D01*
X103091704Y-80500000D01*
X103151185Y-80451185D01*
X103230537Y-80354494D01*
X103289502Y-80244180D01*
X103325812Y-80124482D01*
X103338072Y-80000000D01*
X103338072Y-78000000D01*
X103325812Y-77875518D01*
X103289502Y-77755820D01*
X103230537Y-77645506D01*
X103151185Y-77548815D01*
X103091704Y-77500000D01*
X103151185Y-77451185D01*
X103230537Y-77354494D01*
X103289502Y-77244180D01*
X103325812Y-77124482D01*
X103338072Y-77000000D01*
X103338072Y-76585000D01*
X103461546Y-76585000D01*
X103509744Y-76617205D01*
X103698102Y-76695226D01*
X103898061Y-76735000D01*
X104101939Y-76735000D01*
X104301898Y-76695226D01*
X104490256Y-76617205D01*
X104659774Y-76503937D01*
X104803937Y-76359774D01*
X104917205Y-76190256D01*
X104966458Y-76071349D01*
X112195256Y-76071349D01*
X112399362Y-76427867D01*
X112842223Y-76658575D01*
X113321583Y-76798452D01*
X113819021Y-76842123D01*
X114315422Y-76787909D01*
X114791707Y-76637894D01*
X115184638Y-76427867D01*
X115388744Y-76071349D01*
X113792000Y-74474605D01*
X112195256Y-76071349D01*
X104966458Y-76071349D01*
X104995226Y-76001898D01*
X105035000Y-75801939D01*
X105035000Y-75598061D01*
X104995226Y-75398102D01*
X104917205Y-75209744D01*
X104803937Y-75040226D01*
X104659774Y-74896063D01*
X104490256Y-74782795D01*
X104301898Y-74704774D01*
X104101939Y-74665000D01*
X103898061Y-74665000D01*
X103698102Y-74704774D01*
X103509744Y-74782795D01*
X103461546Y-74815000D01*
X103307454Y-74815000D01*
X103289502Y-74755820D01*
X103230537Y-74645506D01*
X103151185Y-74548815D01*
X103054494Y-74469463D01*
X102944180Y-74410498D01*
X102824482Y-74374188D01*
X102700000Y-74361928D01*
X100700000Y-74361928D01*
X100575518Y-74374188D01*
X100455820Y-74410498D01*
X100345506Y-74469463D01*
X100248815Y-74548815D01*
X100169463Y-74645506D01*
X100110498Y-74755820D01*
X100074188Y-74875518D01*
X100061928Y-75000000D01*
X100061928Y-77000000D01*
X100068330Y-77064999D01*
X94793470Y-77064999D01*
X94750001Y-77060718D01*
X94706532Y-77064999D01*
X94706524Y-77064999D01*
X94576511Y-77077804D01*
X94409688Y-77128410D01*
X94275749Y-77200001D01*
X94255942Y-77210588D01*
X94154954Y-77293467D01*
X94154952Y-77293469D01*
X94121184Y-77321182D01*
X94093471Y-77354950D01*
X92554957Y-78893465D01*
X92498102Y-78904774D01*
X92435194Y-78930832D01*
X92435000Y-78885750D01*
X92276250Y-78727000D01*
X90927000Y-78727000D01*
X90927000Y-80076250D01*
X91085750Y-80235000D01*
X91800000Y-80238072D01*
X91818983Y-80236202D01*
X91882795Y-80390256D01*
X91996063Y-80559774D01*
X92140226Y-80703937D01*
X92309744Y-80817205D01*
X92498102Y-80895226D01*
X92698061Y-80935000D01*
X92901939Y-80935000D01*
X93101898Y-80895226D01*
X93290256Y-80817205D01*
X93459774Y-80703937D01*
X93603937Y-80559774D01*
X93717205Y-80390256D01*
X93795226Y-80201898D01*
X93806535Y-80145043D01*
X95116580Y-78834999D01*
X95485208Y-78834999D01*
X90555209Y-83765000D01*
X90493071Y-83765000D01*
X90293112Y-83804774D01*
X90104754Y-83882795D01*
X90032915Y-83930796D01*
X90103937Y-83859774D01*
X90217205Y-83690256D01*
X90295226Y-83501898D01*
X90335000Y-83301939D01*
X90335000Y-83098061D01*
X90295226Y-82898102D01*
X90217205Y-82709744D01*
X90103937Y-82540226D01*
X89959774Y-82396063D01*
X89790256Y-82282795D01*
X89601898Y-82204774D01*
X89401939Y-82165000D01*
X89198061Y-82165000D01*
X88998102Y-82204774D01*
X88809744Y-82282795D01*
X88800000Y-82289306D01*
X88790256Y-82282795D01*
X88601898Y-82204774D01*
X88401939Y-82165000D01*
X88198061Y-82165000D01*
X87998102Y-82204774D01*
X87809744Y-82282795D01*
X87640226Y-82396063D01*
X87496063Y-82540226D01*
X87382795Y-82709744D01*
X87304774Y-82898102D01*
X87265000Y-83098061D01*
X87265000Y-83301939D01*
X87304774Y-83501898D01*
X87382795Y-83690256D01*
X87496063Y-83859774D01*
X87640226Y-84003937D01*
X87809744Y-84117205D01*
X87998102Y-84195226D01*
X88198061Y-84235000D01*
X88401939Y-84235000D01*
X88601898Y-84195226D01*
X88790256Y-84117205D01*
X88800000Y-84110694D01*
X88809744Y-84117205D01*
X88998102Y-84195226D01*
X89198061Y-84235000D01*
X89401939Y-84235000D01*
X89601898Y-84195226D01*
X89790256Y-84117205D01*
X89862095Y-84069204D01*
X89791073Y-84140226D01*
X89677805Y-84309744D01*
X89599784Y-84498102D01*
X89560010Y-84698061D01*
X89560010Y-84901939D01*
X89599784Y-85101898D01*
X89677805Y-85290256D01*
X89791073Y-85459774D01*
X89935236Y-85603937D01*
X90104754Y-85717205D01*
X90293112Y-85795226D01*
X90493071Y-85835000D01*
X90696949Y-85835000D01*
X90896908Y-85795226D01*
X91085266Y-85717205D01*
X91254784Y-85603937D01*
X91398947Y-85459774D01*
X91512215Y-85290256D01*
X91590236Y-85101898D01*
X91630010Y-84901939D01*
X91630010Y-84839801D01*
X92242531Y-84227280D01*
X92331061Y-84359774D01*
X92475224Y-84503937D01*
X92644742Y-84617205D01*
X92833100Y-84695226D01*
X92965011Y-84721465D01*
X92965011Y-84872338D01*
X92801898Y-84804774D01*
X92601939Y-84765000D01*
X92398061Y-84765000D01*
X92198102Y-84804774D01*
X92009744Y-84882795D01*
X91840226Y-84996063D01*
X91696063Y-85140226D01*
X91582795Y-85309744D01*
X91504774Y-85498102D01*
X91465000Y-85698061D01*
X91465000Y-85901939D01*
X91504774Y-86101898D01*
X91582795Y-86290256D01*
X91696063Y-86459774D01*
X91840226Y-86603937D01*
X92009744Y-86717205D01*
X92198102Y-86795226D01*
X92398061Y-86835000D01*
X92601939Y-86835000D01*
X92801898Y-86795226D01*
X92965011Y-86727662D01*
X92965011Y-86972338D01*
X92801898Y-86904774D01*
X92601939Y-86865000D01*
X92398061Y-86865000D01*
X92198102Y-86904774D01*
X92009744Y-86982795D01*
X91840226Y-87096063D01*
X91696063Y-87240226D01*
X91582795Y-87409744D01*
X91504774Y-87598102D01*
X91465000Y-87798061D01*
X91465000Y-88001939D01*
X91504774Y-88201898D01*
X91508929Y-88211928D01*
X90700000Y-88211928D01*
X90576173Y-88224059D01*
X90550065Y-88231949D01*
X90524482Y-88224188D01*
X90400000Y-88211928D01*
X89400000Y-88211928D01*
X89275518Y-88224188D01*
X89155820Y-88260498D01*
X89045506Y-88319463D01*
X88948815Y-88398815D01*
X88869463Y-88495506D01*
X88810498Y-88605820D01*
X88774188Y-88725518D01*
X88761928Y-88850000D01*
X88761928Y-89132940D01*
X87261667Y-90633201D01*
X87241164Y-90583703D01*
X87208959Y-90535505D01*
X87208959Y-83667428D01*
X87213240Y-83623959D01*
X87208959Y-83580490D01*
X87208959Y-83580482D01*
X87196154Y-83450469D01*
X87145548Y-83283646D01*
X87063370Y-83129900D01*
X87010129Y-83065026D01*
X86980491Y-83028912D01*
X86980489Y-83028910D01*
X86952776Y-82995142D01*
X86919008Y-82967429D01*
X84956533Y-81004955D01*
X84928818Y-80971184D01*
X84794060Y-80860590D01*
X84640314Y-80778412D01*
X84473491Y-80727806D01*
X84343478Y-80715001D01*
X84343470Y-80715001D01*
X84300001Y-80710720D01*
X84256532Y-80715001D01*
X75668322Y-80715001D01*
X75610990Y-80576589D01*
X75448475Y-80333368D01*
X75316620Y-80201513D01*
X75389180Y-80179502D01*
X75499494Y-80120537D01*
X75596185Y-80041185D01*
X75675537Y-79944494D01*
X75734502Y-79834180D01*
X75770812Y-79714482D01*
X75783072Y-79590000D01*
X75783072Y-77890000D01*
X75770812Y-77765518D01*
X75734502Y-77645820D01*
X75710011Y-77600000D01*
X80161928Y-77600000D01*
X80161928Y-79600000D01*
X80174188Y-79724482D01*
X80210498Y-79844180D01*
X80269463Y-79954494D01*
X80348815Y-80051185D01*
X80445506Y-80130537D01*
X80555820Y-80189502D01*
X80675518Y-80225812D01*
X80800000Y-80238072D01*
X82800000Y-80238072D01*
X82924482Y-80225812D01*
X83044180Y-80189502D01*
X83154494Y-80130537D01*
X83251185Y-80051185D01*
X83300000Y-79991704D01*
X83348815Y-80051185D01*
X83445506Y-80130537D01*
X83555820Y-80189502D01*
X83675518Y-80225812D01*
X83800000Y-80238072D01*
X85800000Y-80238072D01*
X85924482Y-80225812D01*
X86044180Y-80189502D01*
X86154494Y-80130537D01*
X86251185Y-80051185D01*
X86300000Y-79991704D01*
X86348815Y-80051185D01*
X86445506Y-80130537D01*
X86555820Y-80189502D01*
X86675518Y-80225812D01*
X86800000Y-80238072D01*
X88800000Y-80238072D01*
X88924482Y-80225812D01*
X89044180Y-80189502D01*
X89154494Y-80130537D01*
X89251185Y-80051185D01*
X89300000Y-79991704D01*
X89348815Y-80051185D01*
X89445506Y-80130537D01*
X89555820Y-80189502D01*
X89675518Y-80225812D01*
X89800000Y-80238072D01*
X90514250Y-80235000D01*
X90673000Y-80076250D01*
X90673000Y-78727000D01*
X90653000Y-78727000D01*
X90653000Y-78473000D01*
X90673000Y-78473000D01*
X90673000Y-77123750D01*
X90927000Y-77123750D01*
X90927000Y-78473000D01*
X92276250Y-78473000D01*
X92435000Y-78314250D01*
X92438072Y-77600000D01*
X92425812Y-77475518D01*
X92389502Y-77355820D01*
X92330537Y-77245506D01*
X92251185Y-77148815D01*
X92154494Y-77069463D01*
X92044180Y-77010498D01*
X91924482Y-76974188D01*
X91800000Y-76961928D01*
X91085750Y-76965000D01*
X90927000Y-77123750D01*
X90673000Y-77123750D01*
X90514250Y-76965000D01*
X89800000Y-76961928D01*
X89675518Y-76974188D01*
X89555820Y-77010498D01*
X89445506Y-77069463D01*
X89348815Y-77148815D01*
X89300000Y-77208296D01*
X89251185Y-77148815D01*
X89224590Y-77126989D01*
X89845044Y-76506535D01*
X89901898Y-76495226D01*
X90090256Y-76417205D01*
X90259774Y-76303937D01*
X90403937Y-76159774D01*
X90517205Y-75990256D01*
X90595226Y-75801898D01*
X90635000Y-75601939D01*
X90635000Y-75398061D01*
X90595226Y-75198102D01*
X90517205Y-75009744D01*
X90403937Y-74840226D01*
X90259774Y-74696063D01*
X90090256Y-74582795D01*
X89901898Y-74504774D01*
X89701939Y-74465000D01*
X89498061Y-74465000D01*
X89298102Y-74504774D01*
X89109744Y-74582795D01*
X88940226Y-74696063D01*
X88796063Y-74840226D01*
X88682795Y-75009744D01*
X88604774Y-75198102D01*
X88593465Y-75254956D01*
X87204951Y-76643471D01*
X87171184Y-76671183D01*
X87143471Y-76704951D01*
X87143468Y-76704954D01*
X87060590Y-76805941D01*
X86978412Y-76959687D01*
X86977732Y-76961928D01*
X86800000Y-76961928D01*
X86675518Y-76974188D01*
X86555820Y-77010498D01*
X86445506Y-77069463D01*
X86348815Y-77148815D01*
X86300000Y-77208296D01*
X86251185Y-77148815D01*
X86154494Y-77069463D01*
X86044180Y-77010498D01*
X85924482Y-76974188D01*
X85867603Y-76968586D01*
X85895226Y-76901898D01*
X85935000Y-76701939D01*
X85935000Y-76498061D01*
X85895226Y-76298102D01*
X85817205Y-76109744D01*
X85703937Y-75940226D01*
X85559774Y-75796063D01*
X85390256Y-75682795D01*
X85201898Y-75604774D01*
X85001939Y-75565000D01*
X84798061Y-75565000D01*
X84598102Y-75604774D01*
X84409744Y-75682795D01*
X84240226Y-75796063D01*
X84096063Y-75940226D01*
X84035000Y-76031613D01*
X84035000Y-75898061D01*
X83995226Y-75698102D01*
X83917205Y-75509744D01*
X83803937Y-75340226D01*
X83659774Y-75196063D01*
X83490256Y-75082795D01*
X83301898Y-75004774D01*
X83101939Y-74965000D01*
X82898061Y-74965000D01*
X82698102Y-75004774D01*
X82509744Y-75082795D01*
X82340226Y-75196063D01*
X82196063Y-75340226D01*
X82082795Y-75509744D01*
X82004774Y-75698102D01*
X81965000Y-75898061D01*
X81965000Y-76101939D01*
X82004774Y-76301898D01*
X82082795Y-76490256D01*
X82115001Y-76538455D01*
X82115000Y-76833421D01*
X81986493Y-76961928D01*
X80800000Y-76961928D01*
X80675518Y-76974188D01*
X80555820Y-77010498D01*
X80445506Y-77069463D01*
X80348815Y-77148815D01*
X80269463Y-77245506D01*
X80210498Y-77355820D01*
X80174188Y-77475518D01*
X80161928Y-77600000D01*
X75710011Y-77600000D01*
X75675537Y-77535506D01*
X75596185Y-77438815D01*
X75499494Y-77359463D01*
X75389180Y-77300498D01*
X75269482Y-77264188D01*
X75145000Y-77251928D01*
X73445000Y-77251928D01*
X73320518Y-77264188D01*
X73200820Y-77300498D01*
X73090506Y-77359463D01*
X72993815Y-77438815D01*
X72914463Y-77535506D01*
X72855498Y-77645820D01*
X72819188Y-77765518D01*
X72806928Y-77890000D01*
X72806928Y-79590000D01*
X72819188Y-79714482D01*
X72855498Y-79834180D01*
X72914463Y-79944494D01*
X72993815Y-80041185D01*
X73090506Y-80120537D01*
X73200820Y-80179502D01*
X73273380Y-80201513D01*
X73141525Y-80333368D01*
X72979010Y-80576589D01*
X72867068Y-80846842D01*
X72810000Y-81133740D01*
X72810000Y-81426260D01*
X72867068Y-81713158D01*
X72979010Y-81983411D01*
X73141525Y-82226632D01*
X73348368Y-82433475D01*
X73522760Y-82550000D01*
X73348368Y-82666525D01*
X73141525Y-82873368D01*
X72979010Y-83116589D01*
X72867068Y-83386842D01*
X72810000Y-83673740D01*
X72810000Y-83966260D01*
X72867068Y-84253158D01*
X72979010Y-84523411D01*
X73141525Y-84766632D01*
X73348368Y-84973475D01*
X73522760Y-85090000D01*
X73348368Y-85206525D01*
X73141525Y-85413368D01*
X72979010Y-85656589D01*
X72867068Y-85926842D01*
X72810000Y-86213740D01*
X72810000Y-86506260D01*
X72867068Y-86793158D01*
X72979010Y-87063411D01*
X73141525Y-87306632D01*
X73348368Y-87513475D01*
X73522760Y-87630000D01*
X73348368Y-87746525D01*
X73141525Y-87953368D01*
X72979010Y-88196589D01*
X72867068Y-88466842D01*
X72810000Y-88753740D01*
X72810000Y-89046260D01*
X72867068Y-89333158D01*
X72979010Y-89603411D01*
X73141525Y-89846632D01*
X73348368Y-90053475D01*
X73522760Y-90170000D01*
X73348368Y-90286525D01*
X73141525Y-90493368D01*
X72979010Y-90736589D01*
X72867068Y-91006842D01*
X72810000Y-91293740D01*
X72810000Y-91586260D01*
X72867068Y-91873158D01*
X72979010Y-92143411D01*
X73141525Y-92386632D01*
X73348368Y-92593475D01*
X73522760Y-92710000D01*
X73348368Y-92826525D01*
X73141525Y-93033368D01*
X72979010Y-93276589D01*
X72867068Y-93546842D01*
X72810000Y-93833740D01*
X72810000Y-94126260D01*
X72867068Y-94413158D01*
X72979010Y-94683411D01*
X73141525Y-94926632D01*
X73348368Y-95133475D01*
X73530534Y-95255195D01*
X73413645Y-95324822D01*
X73197412Y-95519731D01*
X73023359Y-95753080D01*
X72898175Y-96015901D01*
X72853524Y-96163110D01*
X72974845Y-96393000D01*
X74168000Y-96393000D01*
X74168000Y-96373000D01*
X74422000Y-96373000D01*
X74422000Y-96393000D01*
X74442000Y-96393000D01*
X74442000Y-96647000D01*
X74422000Y-96647000D01*
X74422000Y-97840814D01*
X74651891Y-97961481D01*
X74926252Y-97864157D01*
X75176355Y-97715178D01*
X75392588Y-97520269D01*
X75517172Y-97353242D01*
X75524188Y-97424482D01*
X75531929Y-97450000D01*
X75524188Y-97475518D01*
X75511928Y-97600000D01*
X75515000Y-97814250D01*
X75673750Y-97973000D01*
X76029407Y-97973000D01*
X76040988Y-97994781D01*
X76068655Y-98047703D01*
X76070049Y-98049437D01*
X76071095Y-98051404D01*
X76108883Y-98097737D01*
X76146310Y-98144286D01*
X76148015Y-98145717D01*
X76149423Y-98147443D01*
X76195473Y-98185539D01*
X76241246Y-98223947D01*
X76243198Y-98225020D01*
X76244913Y-98226439D01*
X76245951Y-98227000D01*
X75673750Y-98227000D01*
X75515000Y-98385750D01*
X75511928Y-98600000D01*
X75524188Y-98724482D01*
X75532295Y-98751207D01*
X75244777Y-98601425D01*
X74765417Y-98461548D01*
X74267979Y-98417877D01*
X73771578Y-98472091D01*
X73295293Y-98622106D01*
X72902362Y-98832133D01*
X72698256Y-99188651D01*
X72415000Y-99188651D01*
X72415000Y-96876890D01*
X72853524Y-96876890D01*
X72898175Y-97024099D01*
X73023359Y-97286920D01*
X73197412Y-97520269D01*
X73413645Y-97715178D01*
X73663748Y-97864157D01*
X73938109Y-97961481D01*
X74168000Y-97840814D01*
X74168000Y-96647000D01*
X72974845Y-96647000D01*
X72853524Y-96876890D01*
X72415000Y-96876890D01*
X72415000Y-76071349D01*
X72698256Y-76071349D01*
X72902362Y-76427867D01*
X73345223Y-76658575D01*
X73824583Y-76798452D01*
X74322021Y-76842123D01*
X74818422Y-76787909D01*
X75294707Y-76637894D01*
X75687638Y-76427867D01*
X75891744Y-76071349D01*
X74295000Y-74474605D01*
X72698256Y-76071349D01*
X72415000Y-76071349D01*
X72415000Y-75832404D01*
X72518651Y-75891744D01*
X74115395Y-74295000D01*
X74474605Y-74295000D01*
X76071349Y-75891744D01*
X76427867Y-75687638D01*
X76658575Y-75244777D01*
X76798452Y-74765417D01*
X76842123Y-74267979D01*
X76787909Y-73771578D01*
X76637894Y-73295293D01*
X76427867Y-72902362D01*
X76071349Y-72698256D01*
X74474605Y-74295000D01*
X74115395Y-74295000D01*
X74101253Y-74280858D01*
X74280858Y-74101253D01*
X74295000Y-74115395D01*
X75891744Y-72518651D01*
X75832404Y-72415000D01*
X84146101Y-72415000D01*
X84082795Y-72509744D01*
G37*
%TD.AperFunction*%
D24*
X85438960Y-83990539D02*
X85438960Y-86131734D01*
X84372172Y-85064946D01*
X84344455Y-85031173D01*
X84209697Y-84920579D01*
X84055951Y-84838401D01*
X83889128Y-84787795D01*
X83759115Y-84774990D01*
X83759104Y-84774990D01*
X83715638Y-84770709D01*
X83672169Y-84774990D01*
X81045323Y-84774990D01*
X81075812Y-84674482D01*
X81088072Y-84550000D01*
X81085000Y-84085750D01*
X80926250Y-83927000D01*
X80077000Y-83927000D01*
X80077000Y-83947000D01*
X79823000Y-83947000D01*
X79823000Y-83927000D01*
X79803000Y-83927000D01*
X79803000Y-83673000D01*
X79823000Y-83673000D01*
X79823000Y-83653000D01*
X80077000Y-83653000D01*
X80077000Y-83673000D01*
X80926250Y-83673000D01*
X81085000Y-83514250D01*
X81088072Y-83050000D01*
X81075812Y-82925518D01*
X81039502Y-82805820D01*
X80980537Y-82695506D01*
X80901185Y-82598815D01*
X80804494Y-82519463D01*
X80740021Y-82485001D01*
X83933423Y-82485001D01*
X85438960Y-83990539D01*
%TA.AperFunction,Conductor*%
D25*
G36*
X85438960Y-83990539D02*
G01*
X85438960Y-86131734D01*
X84372172Y-85064946D01*
X84344455Y-85031173D01*
X84209697Y-84920579D01*
X84055951Y-84838401D01*
X83889128Y-84787795D01*
X83759115Y-84774990D01*
X83759104Y-84774990D01*
X83715638Y-84770709D01*
X83672169Y-84774990D01*
X81045323Y-84774990D01*
X81075812Y-84674482D01*
X81088072Y-84550000D01*
X81085000Y-84085750D01*
X80926250Y-83927000D01*
X80077000Y-83927000D01*
X80077000Y-83947000D01*
X79823000Y-83947000D01*
X79823000Y-83927000D01*
X79803000Y-83927000D01*
X79803000Y-83673000D01*
X79823000Y-83673000D01*
X79823000Y-83653000D01*
X80077000Y-83653000D01*
X80077000Y-83673000D01*
X80926250Y-83673000D01*
X81085000Y-83514250D01*
X81088072Y-83050000D01*
X81075812Y-82925518D01*
X81039502Y-82805820D01*
X80980537Y-82695506D01*
X80901185Y-82598815D01*
X80804494Y-82519463D01*
X80740021Y-82485001D01*
X83933423Y-82485001D01*
X85438960Y-83990539D01*
G37*
%TD.AperFunction*%
%TD*%
M02*
