M48
; DRILL file {KiCad 5.1.9} date Sat Feb 20 15:12:44 2021
; FORMAT={-:-/ absolute / inch / decimal}
; #@! TF.CreationDate,2021-02-20T15:12:44-08:00
; #@! TF.GenerationSoftware,Kicad,Pcbnew,5.1.9
; #@! TF.FileFunction,Plated,1,4,PTH
FMAT,2
INCH
T1C0.0157
T2C0.0394
T3C0.0866
%
G90
G05
T1
X3.0276Y-3.2559
X3.0276Y-3.7335
X3.085Y-3.8622
X3.0866Y-3.811
X3.1299Y-3.1791
X3.1575Y-3.7913
X3.1732Y-3.1791
X3.1772Y-3.0
X3.1969Y-3.7913
X3.2008Y-3.2638
X3.2165Y-3.6339
X3.2283Y-3.0
X3.2402Y-3.4567
X3.2677Y-2.9921
X3.2795Y-3.5748
X3.2835Y-3.4567
X3.2992Y-3.6614
X3.3346Y-3.4724
X3.3425Y-3.0157
X3.3465Y-2.874
X3.3465Y-2.9134
X3.3651Y-3.5079
X3.3651Y-3.5512
X3.3661Y-3.6654
X3.3986Y-3.5856
X3.4016Y-3.1732
X3.4016Y-3.2126
X3.4021Y-3.7741
X3.4409Y-3.1732
X3.4764Y-3.2756
X3.4843Y-2.9646
X3.5Y-3.4094
X3.5039Y-3.8583
X3.5039Y-3.8976
X3.5039Y-3.937
X3.5157Y-3.2756
X3.5276Y-2.9724
X3.5433Y-3.8583
X3.5433Y-3.8976
X3.5433Y-3.937
X3.5667Y-3.3386
X3.5827Y-2.874
X3.5827Y-3.8583
X3.5827Y-3.8976
X3.5827Y-3.937
X3.622Y-3.5945
X3.6417Y-3.378
X3.6417Y-3.4606
X3.6535Y-3.1457
X3.6575Y-3.5197
X3.6667Y-3.2953
X3.7638Y-3.6496
X3.8189Y-4.0
X3.8228Y-3.1024
X3.8268Y-3.2677
X3.8307Y-3.3465
X3.8386Y-3.4567
X3.8504Y-3.2047
X3.8819Y-3.4567
X3.8858Y-3.248
X3.9409Y-3.8031
X4.0945Y-2.9803
X4.2955Y-3.7078
X4.2955Y-3.7472
X4.2955Y-3.7866
X4.2955Y-3.8259
X4.2955Y-3.8653
X4.2955Y-3.9047
X4.2955Y-3.9441
X4.2955Y-3.9834
X4.2955Y-4.0228
X4.3348Y-3.7078
X4.3348Y-3.7472
X4.3348Y-3.7866
X4.3348Y-3.8259
X4.3348Y-3.8653
X4.3348Y-3.9047
X4.3348Y-3.9441
X4.3348Y-3.9834
X4.3348Y-4.0228
X4.3742Y-3.7078
X4.3742Y-3.7472
X4.3742Y-3.7866
X4.3742Y-3.8259
X4.3742Y-3.8653
X4.3742Y-3.9047
X4.3742Y-3.9441
X4.3742Y-3.9834
X4.3742Y-4.0228
X4.4094Y-3.2283
X4.4136Y-3.7078
X4.4136Y-3.7472
X4.4136Y-3.7866
X4.4136Y-3.8259
X4.4136Y-3.8653
X4.453Y-3.7078
X4.453Y-3.7472
X4.453Y-3.7866
X4.453Y-3.8259
X4.453Y-3.8259
X4.453Y-3.8653
X4.4921Y-3.7087
X4.4921Y-3.748
X4.4921Y-3.748
X4.4921Y-3.7874
X4.4921Y-3.8268
X4.4921Y-3.8661
X4.5315Y-3.7087
X4.5315Y-3.7087
X4.5315Y-3.748
X4.5315Y-3.7874
X4.5315Y-3.8268
X4.5315Y-3.8661
T2
X2.925Y-3.1
X2.925Y-3.2
X2.925Y-3.3
X2.925Y-3.4
X2.925Y-3.5
X2.925Y-3.6
X2.925Y-3.7
X2.925Y-3.8
X4.395Y-3.575
T3
X2.925Y-2.925
X2.925Y-3.975
X4.48Y-2.925
X4.48Y-3.975
T0
M30
