%TF.GenerationSoftware,KiCad,Pcbnew,5.1.6*%
%TF.CreationDate,2020-08-05T20:54:26-07:00*%
%TF.ProjectId,shield,73686965-6c64-42e6-9b69-6361645f7063,rev?*%
%TF.SameCoordinates,Original*%
%TF.FileFunction,Legend,Top*%
%TF.FilePolarity,Positive*%
%FSLAX46Y46*%
G04 Gerber Fmt 4.6, Leading zero omitted, Abs format (unit mm)*
G04 Created by KiCad (PCBNEW 5.1.6) date 2020-08-05 20:54:26*
%MOMM*%
%LPD*%
G01*
G04 APERTURE LIST*
%ADD10C,0.150000*%
%ADD11C,0.120000*%
G04 APERTURE END LIST*
D10*
X124469047Y-103212380D02*
X124707142Y-104212380D01*
X124897619Y-103498095D01*
X125088095Y-104212380D01*
X125326190Y-103212380D01*
X126135714Y-104212380D02*
X126135714Y-103688571D01*
X126088095Y-103593333D01*
X125992857Y-103545714D01*
X125802380Y-103545714D01*
X125707142Y-103593333D01*
X126135714Y-104164761D02*
X126040476Y-104212380D01*
X125802380Y-104212380D01*
X125707142Y-104164761D01*
X125659523Y-104069523D01*
X125659523Y-103974285D01*
X125707142Y-103879047D01*
X125802380Y-103831428D01*
X126040476Y-103831428D01*
X126135714Y-103783809D01*
X126754761Y-104212380D02*
X126659523Y-104164761D01*
X126611904Y-104069523D01*
X126611904Y-103212380D01*
X127278571Y-104212380D02*
X127183333Y-104164761D01*
X127135714Y-104069523D01*
X127135714Y-103212380D01*
X128421428Y-104212380D02*
X128421428Y-103212380D01*
X128802380Y-103212380D01*
X128897619Y-103260000D01*
X128945238Y-103307619D01*
X128992857Y-103402857D01*
X128992857Y-103545714D01*
X128945238Y-103640952D01*
X128897619Y-103688571D01*
X128802380Y-103736190D01*
X128421428Y-103736190D01*
X129850000Y-103545714D02*
X129850000Y-104212380D01*
X129421428Y-103545714D02*
X129421428Y-104069523D01*
X129469047Y-104164761D01*
X129564285Y-104212380D01*
X129707142Y-104212380D01*
X129802380Y-104164761D01*
X129850000Y-104117142D01*
X130230952Y-103545714D02*
X130754761Y-103545714D01*
X130230952Y-104212380D01*
X130754761Y-104212380D01*
X131040476Y-103545714D02*
X131564285Y-103545714D01*
X131040476Y-104212380D01*
X131564285Y-104212380D01*
X132088095Y-104212380D02*
X131992857Y-104164761D01*
X131945238Y-104069523D01*
X131945238Y-103212380D01*
X132850000Y-104164761D02*
X132754761Y-104212380D01*
X132564285Y-104212380D01*
X132469047Y-104164761D01*
X132421428Y-104069523D01*
X132421428Y-103688571D01*
X132469047Y-103593333D01*
X132564285Y-103545714D01*
X132754761Y-103545714D01*
X132850000Y-103593333D01*
X132897619Y-103688571D01*
X132897619Y-103783809D01*
X132421428Y-103879047D01*
X134088095Y-104212380D02*
X134088095Y-103212380D01*
X134421428Y-103926666D01*
X134754761Y-103212380D01*
X134754761Y-104212380D01*
X135659523Y-104212380D02*
X135659523Y-103688571D01*
X135611904Y-103593333D01*
X135516666Y-103545714D01*
X135326190Y-103545714D01*
X135230952Y-103593333D01*
X135659523Y-104164761D02*
X135564285Y-104212380D01*
X135326190Y-104212380D01*
X135230952Y-104164761D01*
X135183333Y-104069523D01*
X135183333Y-103974285D01*
X135230952Y-103879047D01*
X135326190Y-103831428D01*
X135564285Y-103831428D01*
X135659523Y-103783809D01*
X136135714Y-104212380D02*
X136135714Y-103545714D01*
X136135714Y-103212380D02*
X136088095Y-103260000D01*
X136135714Y-103307619D01*
X136183333Y-103260000D01*
X136135714Y-103212380D01*
X136135714Y-103307619D01*
X136611904Y-103545714D02*
X136611904Y-104212380D01*
X136611904Y-103640952D02*
X136659523Y-103593333D01*
X136754761Y-103545714D01*
X136897619Y-103545714D01*
X136992857Y-103593333D01*
X137040476Y-103688571D01*
X137040476Y-104212380D01*
X138611904Y-103688571D02*
X138754761Y-103736190D01*
X138802380Y-103783809D01*
X138850000Y-103879047D01*
X138850000Y-104021904D01*
X138802380Y-104117142D01*
X138754761Y-104164761D01*
X138659523Y-104212380D01*
X138278571Y-104212380D01*
X138278571Y-103212380D01*
X138611904Y-103212380D01*
X138707142Y-103260000D01*
X138754761Y-103307619D01*
X138802380Y-103402857D01*
X138802380Y-103498095D01*
X138754761Y-103593333D01*
X138707142Y-103640952D01*
X138611904Y-103688571D01*
X138278571Y-103688571D01*
X139421428Y-104212380D02*
X139326190Y-104164761D01*
X139278571Y-104117142D01*
X139230952Y-104021904D01*
X139230952Y-103736190D01*
X139278571Y-103640952D01*
X139326190Y-103593333D01*
X139421428Y-103545714D01*
X139564285Y-103545714D01*
X139659523Y-103593333D01*
X139707142Y-103640952D01*
X139754761Y-103736190D01*
X139754761Y-104021904D01*
X139707142Y-104117142D01*
X139659523Y-104164761D01*
X139564285Y-104212380D01*
X139421428Y-104212380D01*
X140611904Y-104212380D02*
X140611904Y-103688571D01*
X140564285Y-103593333D01*
X140469047Y-103545714D01*
X140278571Y-103545714D01*
X140183333Y-103593333D01*
X140611904Y-104164761D02*
X140516666Y-104212380D01*
X140278571Y-104212380D01*
X140183333Y-104164761D01*
X140135714Y-104069523D01*
X140135714Y-103974285D01*
X140183333Y-103879047D01*
X140278571Y-103831428D01*
X140516666Y-103831428D01*
X140611904Y-103783809D01*
X141088095Y-104212380D02*
X141088095Y-103545714D01*
X141088095Y-103736190D02*
X141135714Y-103640952D01*
X141183333Y-103593333D01*
X141278571Y-103545714D01*
X141373809Y-103545714D01*
X142135714Y-104212380D02*
X142135714Y-103212380D01*
X142135714Y-104164761D02*
X142040476Y-104212380D01*
X141850000Y-104212380D01*
X141754761Y-104164761D01*
X141707142Y-104117142D01*
X141659523Y-104021904D01*
X141659523Y-103736190D01*
X141707142Y-103640952D01*
X141754761Y-103593333D01*
X141850000Y-103545714D01*
X142040476Y-103545714D01*
X142135714Y-103593333D01*
X131207142Y-105195714D02*
X131445238Y-105862380D01*
X131683333Y-105195714D01*
X132016666Y-104957619D02*
X132064285Y-104910000D01*
X132159523Y-104862380D01*
X132397619Y-104862380D01*
X132492857Y-104910000D01*
X132540476Y-104957619D01*
X132588095Y-105052857D01*
X132588095Y-105148095D01*
X132540476Y-105290952D01*
X131969047Y-105862380D01*
X132588095Y-105862380D01*
X133016666Y-105767142D02*
X133064285Y-105814761D01*
X133016666Y-105862380D01*
X132969047Y-105814761D01*
X133016666Y-105767142D01*
X133016666Y-105862380D01*
X133683333Y-104862380D02*
X133778571Y-104862380D01*
X133873809Y-104910000D01*
X133921428Y-104957619D01*
X133969047Y-105052857D01*
X134016666Y-105243333D01*
X134016666Y-105481428D01*
X133969047Y-105671904D01*
X133921428Y-105767142D01*
X133873809Y-105814761D01*
X133778571Y-105862380D01*
X133683333Y-105862380D01*
X133588095Y-105814761D01*
X133540476Y-105767142D01*
X133492857Y-105671904D01*
X133445238Y-105481428D01*
X133445238Y-105243333D01*
X133492857Y-105052857D01*
X133540476Y-104957619D01*
X133588095Y-104910000D01*
X133683333Y-104862380D01*
X134445238Y-105767142D02*
X134492857Y-105814761D01*
X134445238Y-105862380D01*
X134397619Y-105814761D01*
X134445238Y-105767142D01*
X134445238Y-105862380D01*
X135111904Y-104862380D02*
X135207142Y-104862380D01*
X135302380Y-104910000D01*
X135350000Y-104957619D01*
X135397619Y-105052857D01*
X135445238Y-105243333D01*
X135445238Y-105481428D01*
X135397619Y-105671904D01*
X135350000Y-105767142D01*
X135302380Y-105814761D01*
X135207142Y-105862380D01*
X135111904Y-105862380D01*
X135016666Y-105814761D01*
X134969047Y-105767142D01*
X134921428Y-105671904D01*
X134873809Y-105481428D01*
X134873809Y-105243333D01*
X134921428Y-105052857D01*
X134969047Y-104957619D01*
X135016666Y-104910000D01*
X135111904Y-104862380D01*
X128730952Y-106512380D02*
X128730952Y-107226666D01*
X128683333Y-107369523D01*
X128588095Y-107464761D01*
X128445238Y-107512380D01*
X128350000Y-107512380D01*
X129683333Y-107512380D02*
X129207142Y-107512380D01*
X129207142Y-106512380D01*
X130588095Y-107417142D02*
X130540476Y-107464761D01*
X130397619Y-107512380D01*
X130302380Y-107512380D01*
X130159523Y-107464761D01*
X130064285Y-107369523D01*
X130016666Y-107274285D01*
X129969047Y-107083809D01*
X129969047Y-106940952D01*
X130016666Y-106750476D01*
X130064285Y-106655238D01*
X130159523Y-106560000D01*
X130302380Y-106512380D01*
X130397619Y-106512380D01*
X130540476Y-106560000D01*
X130588095Y-106607619D01*
X131302380Y-106512380D02*
X131302380Y-107226666D01*
X131254761Y-107369523D01*
X131159523Y-107464761D01*
X131016666Y-107512380D01*
X130921428Y-107512380D01*
X132254761Y-107512380D02*
X131778571Y-107512380D01*
X131778571Y-106512380D01*
X133159523Y-107417142D02*
X133111904Y-107464761D01*
X132969047Y-107512380D01*
X132873809Y-107512380D01*
X132730952Y-107464761D01*
X132635714Y-107369523D01*
X132588095Y-107274285D01*
X132540476Y-107083809D01*
X132540476Y-106940952D01*
X132588095Y-106750476D01*
X132635714Y-106655238D01*
X132730952Y-106560000D01*
X132873809Y-106512380D01*
X132969047Y-106512380D01*
X133111904Y-106560000D01*
X133159523Y-106607619D01*
X133873809Y-106512380D02*
X133873809Y-107226666D01*
X133826190Y-107369523D01*
X133730952Y-107464761D01*
X133588095Y-107512380D01*
X133492857Y-107512380D01*
X134826190Y-107512380D02*
X134350000Y-107512380D01*
X134350000Y-106512380D01*
X135730952Y-107417142D02*
X135683333Y-107464761D01*
X135540476Y-107512380D01*
X135445238Y-107512380D01*
X135302380Y-107464761D01*
X135207142Y-107369523D01*
X135159523Y-107274285D01*
X135111904Y-107083809D01*
X135111904Y-106940952D01*
X135159523Y-106750476D01*
X135207142Y-106655238D01*
X135302380Y-106560000D01*
X135445238Y-106512380D01*
X135540476Y-106512380D01*
X135683333Y-106560000D01*
X135730952Y-106607619D01*
X136445238Y-106512380D02*
X136445238Y-107226666D01*
X136397619Y-107369523D01*
X136302380Y-107464761D01*
X136159523Y-107512380D01*
X136064285Y-107512380D01*
X137397619Y-107512380D02*
X136921428Y-107512380D01*
X136921428Y-106512380D01*
X138302380Y-107417142D02*
X138254761Y-107464761D01*
X138111904Y-107512380D01*
X138016666Y-107512380D01*
X137873809Y-107464761D01*
X137778571Y-107369523D01*
X137730952Y-107274285D01*
X137683333Y-107083809D01*
X137683333Y-106940952D01*
X137730952Y-106750476D01*
X137778571Y-106655238D01*
X137873809Y-106560000D01*
X138016666Y-106512380D01*
X138111904Y-106512380D01*
X138254761Y-106560000D01*
X138302380Y-106607619D01*
D11*
%TO.C,J15*%
X154940000Y-91440000D02*
X154930000Y-91440000D01*
X138430000Y-91440000D02*
X138430000Y-75940000D01*
X138430000Y-75940000D02*
X154930000Y-75940000D01*
X154930000Y-75940000D02*
X154930000Y-91440000D01*
%TO.C,J1*%
X135890000Y-44450000D02*
X135890000Y-44440000D01*
X135890000Y-27940000D02*
X135890000Y-44450000D01*
X135890000Y-27940000D02*
X151390000Y-27940000D01*
X151390000Y-27940000D02*
X151390000Y-44440000D01*
X151390000Y-44440000D02*
X135890000Y-44440000D01*
%TO.C,J2*%
X143510000Y-50800000D02*
X143510000Y-50810000D01*
X143510000Y-67310000D02*
X143510000Y-50800000D01*
X143510000Y-67310000D02*
X128010000Y-67310000D01*
X128010000Y-67310000D02*
X128010000Y-50810000D01*
X128010000Y-50810000D02*
X143510000Y-50810000D01*
%TO.C,J3*%
X119380000Y-44450000D02*
X119380000Y-44440000D01*
X119380000Y-27940000D02*
X119380000Y-44450000D01*
X119380000Y-27940000D02*
X134880000Y-27940000D01*
X134880000Y-27940000D02*
X134880000Y-44440000D01*
X134880000Y-44440000D02*
X119380000Y-44440000D01*
%TO.C,J4*%
X127000000Y-50800000D02*
X127000000Y-50810000D01*
X127000000Y-67310000D02*
X127000000Y-50800000D01*
X127000000Y-67310000D02*
X111500000Y-67310000D01*
X111500000Y-67310000D02*
X111500000Y-50810000D01*
X111500000Y-50810000D02*
X127000000Y-50810000D01*
%TO.C,J5*%
X127000000Y-74930000D02*
X127000000Y-74940000D01*
X127000000Y-91440000D02*
X127000000Y-74930000D01*
X127000000Y-91440000D02*
X111500000Y-91440000D01*
X111500000Y-91440000D02*
X111500000Y-74940000D01*
X111500000Y-74940000D02*
X127000000Y-74940000D01*
%TO.C,J6*%
X173990000Y-66040000D02*
X173980000Y-66040000D01*
X157480000Y-66040000D02*
X173990000Y-66040000D01*
X157480000Y-66040000D02*
X157480000Y-50540000D01*
X157480000Y-50540000D02*
X173980000Y-50540000D01*
X173980000Y-50540000D02*
X173980000Y-66040000D01*
%TO.C,J7*%
X185420000Y-41910000D02*
X185430000Y-41910000D01*
X201930000Y-41910000D02*
X185420000Y-41910000D01*
X201930000Y-41910000D02*
X201930000Y-57410000D01*
X201930000Y-57410000D02*
X185430000Y-57410000D01*
X185430000Y-57410000D02*
X185430000Y-41910000D01*
%TO.C,J8*%
X185420000Y-58420000D02*
X185430000Y-58420000D01*
X201930000Y-58420000D02*
X185420000Y-58420000D01*
X201930000Y-58420000D02*
X201930000Y-73920000D01*
X201930000Y-73920000D02*
X185430000Y-73920000D01*
X185430000Y-73920000D02*
X185430000Y-58420000D01*
%TO.C,J9*%
X152400000Y-44450000D02*
X152400000Y-44440000D01*
X152400000Y-27940000D02*
X152400000Y-44450000D01*
X152400000Y-27940000D02*
X167900000Y-27940000D01*
X167900000Y-27940000D02*
X167900000Y-44440000D01*
X167900000Y-44440000D02*
X152400000Y-44440000D01*
%TO.C,J10*%
X173990000Y-82550000D02*
X173980000Y-82550000D01*
X157480000Y-82550000D02*
X173990000Y-82550000D01*
X157480000Y-82550000D02*
X157480000Y-67050000D01*
X157480000Y-67050000D02*
X173980000Y-67050000D01*
X173980000Y-67050000D02*
X173980000Y-82550000D01*
%TO.C,J11*%
X185420000Y-74930000D02*
X185430000Y-74930000D01*
X201930000Y-74930000D02*
X185420000Y-74930000D01*
X201930000Y-74930000D02*
X201930000Y-90430000D01*
X201930000Y-90430000D02*
X185430000Y-90430000D01*
X185430000Y-90430000D02*
X185430000Y-74930000D01*
%TO.C,J12*%
X167640000Y-100330000D02*
X167640000Y-100340000D01*
X167640000Y-116840000D02*
X167640000Y-100330000D01*
X167640000Y-116840000D02*
X152140000Y-116840000D01*
X152140000Y-116840000D02*
X152140000Y-100340000D01*
X152140000Y-100340000D02*
X167640000Y-100340000D01*
%TO.C,J13*%
X168910000Y-44450000D02*
X168910000Y-44440000D01*
X168910000Y-27940000D02*
X168910000Y-44450000D01*
X168910000Y-27940000D02*
X184410000Y-27940000D01*
X184410000Y-27940000D02*
X184410000Y-44440000D01*
X184410000Y-44440000D02*
X168910000Y-44440000D01*
%TO.C,J14*%
X185420000Y-91440000D02*
X185430000Y-91440000D01*
X201930000Y-91440000D02*
X185420000Y-91440000D01*
X201930000Y-91440000D02*
X201930000Y-106940000D01*
X201930000Y-106940000D02*
X185430000Y-106940000D01*
X185430000Y-106940000D02*
X185430000Y-91440000D01*
%TO.C,J16*%
X184150000Y-100330000D02*
X184150000Y-100340000D01*
X184150000Y-116840000D02*
X184150000Y-100330000D01*
X184150000Y-116840000D02*
X168650000Y-116840000D01*
X168650000Y-116840000D02*
X168650000Y-100340000D01*
X168650000Y-100340000D02*
X184150000Y-100340000D01*
D10*
%TO.C,XA1*%
X181685001Y-58495001D02*
X181685001Y-47319001D01*
X184225001Y-61035001D02*
X181685001Y-58495001D01*
X184225001Y-95325001D02*
X184225001Y-61035001D01*
X181685001Y-97865001D02*
X184225001Y-95325001D01*
X181685001Y-99135001D02*
X181685001Y-97865001D01*
X180161001Y-45795001D02*
X181685001Y-47319001D01*
D11*
X180161001Y-45795001D02*
X110565001Y-45795001D01*
X181685001Y-99135001D02*
X110565001Y-99135001D01*
%TO.C,J15*%
D10*
X139652380Y-87169523D02*
X140366666Y-87169523D01*
X140509523Y-87217142D01*
X140604761Y-87312380D01*
X140652380Y-87455238D01*
X140652380Y-87550476D01*
X140652380Y-86169523D02*
X140652380Y-86740952D01*
X140652380Y-86455238D02*
X139652380Y-86455238D01*
X139795238Y-86550476D01*
X139890476Y-86645714D01*
X139938095Y-86740952D01*
X139652380Y-85264761D02*
X139652380Y-85740952D01*
X140128571Y-85788571D01*
X140080952Y-85740952D01*
X140033333Y-85645714D01*
X140033333Y-85407619D01*
X140080952Y-85312380D01*
X140128571Y-85264761D01*
X140223809Y-85217142D01*
X140461904Y-85217142D01*
X140557142Y-85264761D01*
X140604761Y-85312380D01*
X140652380Y-85407619D01*
X140652380Y-85645714D01*
X140604761Y-85740952D01*
X140557142Y-85788571D01*
%TO.C,J1*%
X140636666Y-29162380D02*
X140636666Y-29876666D01*
X140589047Y-30019523D01*
X140493809Y-30114761D01*
X140350952Y-30162380D01*
X140255714Y-30162380D01*
X141636666Y-30162380D02*
X141065238Y-30162380D01*
X141350952Y-30162380D02*
X141350952Y-29162380D01*
X141255714Y-29305238D01*
X141160476Y-29400476D01*
X141065238Y-29448095D01*
%TO.C,J2*%
X138096666Y-64992380D02*
X138096666Y-65706666D01*
X138049047Y-65849523D01*
X137953809Y-65944761D01*
X137810952Y-65992380D01*
X137715714Y-65992380D01*
X138525238Y-65087619D02*
X138572857Y-65040000D01*
X138668095Y-64992380D01*
X138906190Y-64992380D01*
X139001428Y-65040000D01*
X139049047Y-65087619D01*
X139096666Y-65182857D01*
X139096666Y-65278095D01*
X139049047Y-65420952D01*
X138477619Y-65992380D01*
X139096666Y-65992380D01*
%TO.C,J3*%
X124126666Y-29162380D02*
X124126666Y-29876666D01*
X124079047Y-30019523D01*
X123983809Y-30114761D01*
X123840952Y-30162380D01*
X123745714Y-30162380D01*
X124507619Y-29162380D02*
X125126666Y-29162380D01*
X124793333Y-29543333D01*
X124936190Y-29543333D01*
X125031428Y-29590952D01*
X125079047Y-29638571D01*
X125126666Y-29733809D01*
X125126666Y-29971904D01*
X125079047Y-30067142D01*
X125031428Y-30114761D01*
X124936190Y-30162380D01*
X124650476Y-30162380D01*
X124555238Y-30114761D01*
X124507619Y-30067142D01*
%TO.C,J4*%
X121586666Y-64992380D02*
X121586666Y-65706666D01*
X121539047Y-65849523D01*
X121443809Y-65944761D01*
X121300952Y-65992380D01*
X121205714Y-65992380D01*
X122491428Y-65325714D02*
X122491428Y-65992380D01*
X122253333Y-64944761D02*
X122015238Y-65659047D01*
X122634285Y-65659047D01*
%TO.C,J5*%
X121586666Y-89122380D02*
X121586666Y-89836666D01*
X121539047Y-89979523D01*
X121443809Y-90074761D01*
X121300952Y-90122380D01*
X121205714Y-90122380D01*
X122539047Y-89122380D02*
X122062857Y-89122380D01*
X122015238Y-89598571D01*
X122062857Y-89550952D01*
X122158095Y-89503333D01*
X122396190Y-89503333D01*
X122491428Y-89550952D01*
X122539047Y-89598571D01*
X122586666Y-89693809D01*
X122586666Y-89931904D01*
X122539047Y-90027142D01*
X122491428Y-90074761D01*
X122396190Y-90122380D01*
X122158095Y-90122380D01*
X122062857Y-90074761D01*
X122015238Y-90027142D01*
%TO.C,J6*%
X158702380Y-61293333D02*
X159416666Y-61293333D01*
X159559523Y-61340952D01*
X159654761Y-61436190D01*
X159702380Y-61579047D01*
X159702380Y-61674285D01*
X158702380Y-60388571D02*
X158702380Y-60579047D01*
X158750000Y-60674285D01*
X158797619Y-60721904D01*
X158940476Y-60817142D01*
X159130952Y-60864761D01*
X159511904Y-60864761D01*
X159607142Y-60817142D01*
X159654761Y-60769523D01*
X159702380Y-60674285D01*
X159702380Y-60483809D01*
X159654761Y-60388571D01*
X159607142Y-60340952D01*
X159511904Y-60293333D01*
X159273809Y-60293333D01*
X159178571Y-60340952D01*
X159130952Y-60388571D01*
X159083333Y-60483809D01*
X159083333Y-60674285D01*
X159130952Y-60769523D01*
X159178571Y-60817142D01*
X159273809Y-60864761D01*
%TO.C,J7*%
X199612380Y-47323333D02*
X200326666Y-47323333D01*
X200469523Y-47370952D01*
X200564761Y-47466190D01*
X200612380Y-47609047D01*
X200612380Y-47704285D01*
X199612380Y-46942380D02*
X199612380Y-46275714D01*
X200612380Y-46704285D01*
%TO.C,J8*%
X199612380Y-63833333D02*
X200326666Y-63833333D01*
X200469523Y-63880952D01*
X200564761Y-63976190D01*
X200612380Y-64119047D01*
X200612380Y-64214285D01*
X200040952Y-63214285D02*
X199993333Y-63309523D01*
X199945714Y-63357142D01*
X199850476Y-63404761D01*
X199802857Y-63404761D01*
X199707619Y-63357142D01*
X199660000Y-63309523D01*
X199612380Y-63214285D01*
X199612380Y-63023809D01*
X199660000Y-62928571D01*
X199707619Y-62880952D01*
X199802857Y-62833333D01*
X199850476Y-62833333D01*
X199945714Y-62880952D01*
X199993333Y-62928571D01*
X200040952Y-63023809D01*
X200040952Y-63214285D01*
X200088571Y-63309523D01*
X200136190Y-63357142D01*
X200231428Y-63404761D01*
X200421904Y-63404761D01*
X200517142Y-63357142D01*
X200564761Y-63309523D01*
X200612380Y-63214285D01*
X200612380Y-63023809D01*
X200564761Y-62928571D01*
X200517142Y-62880952D01*
X200421904Y-62833333D01*
X200231428Y-62833333D01*
X200136190Y-62880952D01*
X200088571Y-62928571D01*
X200040952Y-63023809D01*
%TO.C,J9*%
X157146666Y-29162380D02*
X157146666Y-29876666D01*
X157099047Y-30019523D01*
X157003809Y-30114761D01*
X156860952Y-30162380D01*
X156765714Y-30162380D01*
X157670476Y-30162380D02*
X157860952Y-30162380D01*
X157956190Y-30114761D01*
X158003809Y-30067142D01*
X158099047Y-29924285D01*
X158146666Y-29733809D01*
X158146666Y-29352857D01*
X158099047Y-29257619D01*
X158051428Y-29210000D01*
X157956190Y-29162380D01*
X157765714Y-29162380D01*
X157670476Y-29210000D01*
X157622857Y-29257619D01*
X157575238Y-29352857D01*
X157575238Y-29590952D01*
X157622857Y-29686190D01*
X157670476Y-29733809D01*
X157765714Y-29781428D01*
X157956190Y-29781428D01*
X158051428Y-29733809D01*
X158099047Y-29686190D01*
X158146666Y-29590952D01*
%TO.C,J10*%
X158702380Y-78279523D02*
X159416666Y-78279523D01*
X159559523Y-78327142D01*
X159654761Y-78422380D01*
X159702380Y-78565238D01*
X159702380Y-78660476D01*
X159702380Y-77279523D02*
X159702380Y-77850952D01*
X159702380Y-77565238D02*
X158702380Y-77565238D01*
X158845238Y-77660476D01*
X158940476Y-77755714D01*
X158988095Y-77850952D01*
X158702380Y-76660476D02*
X158702380Y-76565238D01*
X158750000Y-76470000D01*
X158797619Y-76422380D01*
X158892857Y-76374761D01*
X159083333Y-76327142D01*
X159321428Y-76327142D01*
X159511904Y-76374761D01*
X159607142Y-76422380D01*
X159654761Y-76470000D01*
X159702380Y-76565238D01*
X159702380Y-76660476D01*
X159654761Y-76755714D01*
X159607142Y-76803333D01*
X159511904Y-76850952D01*
X159321428Y-76898571D01*
X159083333Y-76898571D01*
X158892857Y-76850952D01*
X158797619Y-76803333D01*
X158750000Y-76755714D01*
X158702380Y-76660476D01*
%TO.C,J11*%
X199612380Y-80819523D02*
X200326666Y-80819523D01*
X200469523Y-80867142D01*
X200564761Y-80962380D01*
X200612380Y-81105238D01*
X200612380Y-81200476D01*
X200612380Y-79819523D02*
X200612380Y-80390952D01*
X200612380Y-80105238D02*
X199612380Y-80105238D01*
X199755238Y-80200476D01*
X199850476Y-80295714D01*
X199898095Y-80390952D01*
X200612380Y-78867142D02*
X200612380Y-79438571D01*
X200612380Y-79152857D02*
X199612380Y-79152857D01*
X199755238Y-79248095D01*
X199850476Y-79343333D01*
X199898095Y-79438571D01*
%TO.C,J12*%
X161750476Y-114522380D02*
X161750476Y-115236666D01*
X161702857Y-115379523D01*
X161607619Y-115474761D01*
X161464761Y-115522380D01*
X161369523Y-115522380D01*
X162750476Y-115522380D02*
X162179047Y-115522380D01*
X162464761Y-115522380D02*
X162464761Y-114522380D01*
X162369523Y-114665238D01*
X162274285Y-114760476D01*
X162179047Y-114808095D01*
X163131428Y-114617619D02*
X163179047Y-114570000D01*
X163274285Y-114522380D01*
X163512380Y-114522380D01*
X163607619Y-114570000D01*
X163655238Y-114617619D01*
X163702857Y-114712857D01*
X163702857Y-114808095D01*
X163655238Y-114950952D01*
X163083809Y-115522380D01*
X163702857Y-115522380D01*
%TO.C,J13*%
X173180476Y-29162380D02*
X173180476Y-29876666D01*
X173132857Y-30019523D01*
X173037619Y-30114761D01*
X172894761Y-30162380D01*
X172799523Y-30162380D01*
X174180476Y-30162380D02*
X173609047Y-30162380D01*
X173894761Y-30162380D02*
X173894761Y-29162380D01*
X173799523Y-29305238D01*
X173704285Y-29400476D01*
X173609047Y-29448095D01*
X174513809Y-29162380D02*
X175132857Y-29162380D01*
X174799523Y-29543333D01*
X174942380Y-29543333D01*
X175037619Y-29590952D01*
X175085238Y-29638571D01*
X175132857Y-29733809D01*
X175132857Y-29971904D01*
X175085238Y-30067142D01*
X175037619Y-30114761D01*
X174942380Y-30162380D01*
X174656666Y-30162380D01*
X174561428Y-30114761D01*
X174513809Y-30067142D01*
%TO.C,J14*%
X199612380Y-97329523D02*
X200326666Y-97329523D01*
X200469523Y-97377142D01*
X200564761Y-97472380D01*
X200612380Y-97615238D01*
X200612380Y-97710476D01*
X200612380Y-96329523D02*
X200612380Y-96900952D01*
X200612380Y-96615238D02*
X199612380Y-96615238D01*
X199755238Y-96710476D01*
X199850476Y-96805714D01*
X199898095Y-96900952D01*
X199945714Y-95472380D02*
X200612380Y-95472380D01*
X199564761Y-95710476D02*
X200279047Y-95948571D01*
X200279047Y-95329523D01*
%TO.C,J16*%
X178260476Y-114522380D02*
X178260476Y-115236666D01*
X178212857Y-115379523D01*
X178117619Y-115474761D01*
X177974761Y-115522380D01*
X177879523Y-115522380D01*
X179260476Y-115522380D02*
X178689047Y-115522380D01*
X178974761Y-115522380D02*
X178974761Y-114522380D01*
X178879523Y-114665238D01*
X178784285Y-114760476D01*
X178689047Y-114808095D01*
X180117619Y-114522380D02*
X179927142Y-114522380D01*
X179831904Y-114570000D01*
X179784285Y-114617619D01*
X179689047Y-114760476D01*
X179641428Y-114950952D01*
X179641428Y-115331904D01*
X179689047Y-115427142D01*
X179736666Y-115474761D01*
X179831904Y-115522380D01*
X180022380Y-115522380D01*
X180117619Y-115474761D01*
X180165238Y-115427142D01*
X180212857Y-115331904D01*
X180212857Y-115093809D01*
X180165238Y-114998571D01*
X180117619Y-114950952D01*
X180022380Y-114903333D01*
X179831904Y-114903333D01*
X179736666Y-114950952D01*
X179689047Y-114998571D01*
X179641428Y-115093809D01*
%TO.C,XA1*%
X145109001Y-67488143D02*
X145156620Y-67535762D01*
X145109001Y-67583381D01*
X145061381Y-67535762D01*
X145109001Y-67488143D01*
X145109001Y-67583381D01*
%TD*%
M02*
