M48
; DRILL file {KiCad 5.1.6} date Wed Aug  5 20:54:31 2020
; FORMAT={-:-/ absolute / inch / decimal}
; #@! TF.CreationDate,2020-08-05T20:54:31-07:00
; #@! TF.GenerationSoftware,Kicad,Pcbnew,5.1.6
; #@! TF.FileFunction,Plated,1,4,PTH
FMAT,2
INCH
T1C0.0157
T2C0.0197
T3C0.0354
T4C0.0400
T5C0.1260
%
G90
G05
T1
X4.5Y-1.55
X4.5Y-1.6
X4.5Y-1.65
X4.5Y-1.7
X4.5Y-2.75
X4.5Y-4.05
X4.5Y-4.1
X4.5Y-4.15
X4.5Y-4.2
X4.55Y-1.55
X4.55Y-1.6
X4.55Y-1.65
X4.55Y-1.7
X4.55Y-4.05
X4.55Y-4.1
X4.55Y-4.15
X4.55Y-4.2
X4.6Y-1.55
X4.6Y-1.6
X4.6Y-1.65
X4.6Y-1.7
X4.6Y-4.05
X4.6Y-4.1
X4.6Y-4.15
X4.6Y-4.2
X4.65Y-1.55
X4.65Y-1.6
X4.65Y-1.65
X4.65Y-1.7
X4.65Y-4.05
X4.65Y-4.1
X4.65Y-4.15
X4.65Y-4.2
X5.4Y-2.75
X6.0Y-3.65
X6.15Y-3.65
X6.3Y-2.75
X7.45Y-1.4
X7.45Y-1.45
X7.45Y-1.5
X7.45Y-1.55
X7.5Y-1.4
X7.5Y-1.45
X7.5Y-1.5
X7.5Y-1.55
X7.55Y-1.4
X7.55Y-1.45
X7.55Y-1.5
X7.55Y-1.55
X7.6Y-1.4
X7.6Y-1.45
X7.6Y-1.5
X7.6Y-1.55
T2
X7.7555Y-1.2
X7.7832Y-1.1332
X7.7832Y-1.2668
X7.85Y-1.1055
X7.85Y-1.2945
X7.9168Y-1.1332
X7.9168Y-1.2668
X7.9445Y-1.2
X4.3555Y-1.2
X4.3832Y-1.1332
X4.3832Y-1.2668
X4.45Y-1.1055
X4.45Y-1.2945
X4.5168Y-1.1332
X4.5168Y-1.2668
X4.5445Y-1.2
X7.7555Y-4.5
X7.7832Y-4.4332
X7.7832Y-4.5668
X7.85Y-4.4055
X7.85Y-4.5945
X7.9168Y-4.4332
X7.9168Y-4.5668
X7.9445Y-4.5
X4.3555Y-4.5
X4.3832Y-4.4332
X4.3832Y-4.5668
X4.45Y-4.4055
X4.45Y-4.5945
X4.5168Y-4.4332
X4.5168Y-4.5668
X4.5445Y-4.5
T3
X5.9551Y-3.1199
X5.9551Y-3.2199
X5.9551Y-3.3199
X5.9551Y-3.4199
X6.0551Y-3.1699
X6.0551Y-3.2699
X6.0551Y-3.3699
X6.0551Y-3.4699
X4.5199Y-3.0949
X4.5699Y-2.9949
X4.6199Y-3.0949
X4.6699Y-2.9949
X4.7199Y-3.0949
X4.7699Y-2.9949
X4.8199Y-3.0949
X4.8699Y-2.9949
X7.3449Y-3.0801
X7.3449Y-3.1801
X7.3449Y-3.2801
X7.3449Y-3.3801
X7.4449Y-3.1301
X7.4449Y-3.2301
X7.4449Y-3.3301
X7.4449Y-3.4301
X6.1301Y-1.7051
X6.1801Y-1.6051
X6.2301Y-1.7051
X6.2801Y-1.6051
X6.3301Y-1.7051
X6.3801Y-1.6051
X6.4301Y-1.7051
X6.4801Y-1.6051
X4.5199Y-2.1449
X4.5699Y-2.0449
X4.6199Y-2.1449
X4.6699Y-2.0449
X4.7199Y-2.1449
X4.7699Y-2.0449
X4.8199Y-2.1449
X4.8699Y-2.0449
X6.7051Y-2.7699
X6.7051Y-2.8699
X6.7051Y-2.9699
X6.7051Y-3.0699
X6.8051Y-2.8199
X6.8051Y-2.9199
X6.8051Y-3.0199
X6.8051Y-3.1199
X6.7699Y-4.0949
X6.8199Y-3.9949
X6.8699Y-4.0949
X6.9199Y-3.9949
X6.9699Y-4.0949
X7.0199Y-3.9949
X7.0699Y-4.0949
X7.1199Y-3.9949
X6.1199Y-4.0949
X6.1699Y-3.9949
X6.2199Y-4.0949
X6.2699Y-3.9949
X6.3199Y-4.0949
X6.3699Y-3.9949
X6.4199Y-4.0949
X6.4699Y-3.9949
X6.7801Y-1.7051
X6.8301Y-1.6051
X6.8801Y-1.7051
X6.9301Y-1.6051
X6.9801Y-1.7051
X7.0301Y-1.6051
X7.0801Y-1.7051
X7.1301Y-1.6051
X7.3449Y-2.4301
X7.3449Y-2.5301
X7.3449Y-2.6301
X7.3449Y-2.7301
X7.4449Y-2.4801
X7.4449Y-2.5801
X7.4449Y-2.6801
X7.4449Y-2.7801
X6.7051Y-2.1199
X6.7051Y-2.2199
X6.7051Y-2.3199
X6.7051Y-2.4199
X6.8051Y-2.1699
X6.8051Y-2.2699
X6.8051Y-2.3699
X6.8051Y-2.4699
X7.3449Y-1.7801
X7.3449Y-1.8801
X7.3449Y-1.9801
X7.3449Y-2.0801
X7.4449Y-1.8301
X7.4449Y-1.9301
X7.4449Y-2.0301
X7.4449Y-2.1301
X7.3449Y-3.7301
X7.3449Y-3.8301
X7.3449Y-3.9301
X7.3449Y-4.0301
X7.4449Y-3.7801
X7.4449Y-3.8801
X7.4449Y-3.9801
X7.4449Y-4.0801
X5.1699Y-2.1449
X5.2199Y-2.0449
X5.2699Y-2.1449
X5.3199Y-2.0449
X5.3699Y-2.1449
X5.4199Y-2.0449
X5.4699Y-2.1449
X5.5199Y-2.0449
X5.4801Y-1.7051
X5.5301Y-1.6051
X5.5801Y-1.7051
X5.6301Y-1.6051
X5.6801Y-1.7051
X5.7301Y-1.6051
X5.7801Y-1.7051
X5.8301Y-1.6051
X4.8301Y-1.7051
X4.8801Y-1.6051
X4.9301Y-1.7051
X4.9801Y-1.6051
X5.0301Y-1.7051
X5.0801Y-1.6051
X5.1301Y-1.7051
X5.1801Y-1.6051
T4
X4.393Y-1.903
X4.453Y-3.803
X4.493Y-1.903
X4.553Y-3.803
X4.593Y-1.903
X4.653Y-3.803
X4.693Y-1.903
X4.753Y-3.803
X4.793Y-1.903
X4.853Y-3.803
X4.893Y-1.903
X4.953Y-3.803
X5.053Y-1.903
X5.053Y-3.803
X5.153Y-1.903
X5.253Y-1.903
X5.253Y-3.803
X5.353Y-1.903
X5.353Y-3.803
X5.453Y-1.903
X5.453Y-3.803
X5.553Y-1.903
X5.553Y-3.803
X5.653Y-1.903
X5.653Y-3.803
X5.753Y-1.903
X5.753Y-3.803
X5.758Y-2.703
X5.758Y-2.803
X5.758Y-2.903
X5.853Y-3.803
X5.858Y-2.703
X5.858Y-2.803
X5.858Y-2.903
X5.953Y-1.903
X5.953Y-3.803
X6.053Y-1.903
X6.153Y-1.903
X6.153Y-3.803
X6.253Y-1.903
X6.253Y-3.803
X6.353Y-1.903
X6.353Y-3.803
X6.453Y-1.903
X6.453Y-3.803
X6.553Y-1.903
X6.553Y-3.803
X6.653Y-1.903
X6.653Y-3.803
X6.753Y-3.803
X6.853Y-3.803
X6.953Y-1.903
X6.953Y-2.003
X6.953Y-2.103
X6.953Y-2.203
X6.953Y-2.303
X6.953Y-2.403
X6.953Y-2.503
X6.953Y-2.603
X6.953Y-2.703
X6.953Y-2.803
X6.953Y-2.903
X6.953Y-3.003
X6.953Y-3.103
X6.953Y-3.203
X6.953Y-3.303
X6.953Y-3.403
X6.953Y-3.503
X6.953Y-3.603
X7.053Y-1.903
X7.053Y-2.003
X7.053Y-2.103
X7.053Y-2.203
X7.053Y-2.303
X7.053Y-2.403
X7.053Y-2.503
X7.053Y-2.603
X7.053Y-2.703
X7.053Y-2.803
X7.053Y-2.903
X7.053Y-3.003
X7.053Y-3.103
X7.053Y-3.203
X7.053Y-3.303
X7.053Y-3.403
X7.053Y-3.503
X7.053Y-3.603
T5
X7.85Y-1.2
X4.45Y-1.2
X7.85Y-4.5
X4.45Y-4.5
T0
M30
