M48
; DRILL file {KiCad 5.1.6} date Wed Aug  5 20:54:31 2020
; FORMAT={-:-/ absolute / inch / decimal}
; #@! TF.CreationDate,2020-08-05T20:54:31-07:00
; #@! TF.GenerationSoftware,Kicad,Pcbnew,5.1.6
; #@! TF.FileFunction,NonPlated,1,4,NPTH
FMAT,2
INCH
T1C0.1260
T2C0.1358
%
G90
G05
T1
X5.853Y-2.503
X5.853Y-3.603
X6.803Y-1.903
X7.053Y-3.803
T2
X5.1199Y-2.3949
X5.5699Y-2.3949
X5.4301Y-1.3551
X5.8801Y-1.3551
X4.7801Y-1.3551
X5.2301Y-1.3551
X5.7051Y-3.0699
X5.7051Y-3.5199
X4.4699Y-3.3449
X4.9199Y-3.3449
X7.6949Y-3.0301
X7.6949Y-3.4801
X6.0801Y-1.3551
X6.5301Y-1.3551
X4.4699Y-2.3949
X4.9199Y-2.3949
X6.4551Y-2.7199
X6.4551Y-3.1699
X6.7199Y-4.3449
X7.1699Y-4.3449
X6.0699Y-4.3449
X6.5199Y-4.3449
X6.7301Y-1.3551
X7.1801Y-1.3551
X7.6949Y-2.3801
X7.6949Y-2.8301
X6.4551Y-2.0699
X6.4551Y-2.5199
X7.6949Y-1.7301
X7.6949Y-2.1801
X7.6949Y-3.6801
X7.6949Y-4.1301
T0
M30
