%TF.GenerationSoftware,KiCad,Pcbnew,5.1.6*%
%TF.CreationDate,2020-08-05T20:54:26-07:00*%
%TF.ProjectId,shield,73686965-6c64-42e6-9b69-6361645f7063,rev?*%
%TF.SameCoordinates,Original*%
%TF.FileFunction,Legend,Bot*%
%TF.FilePolarity,Positive*%
%FSLAX46Y46*%
G04 Gerber Fmt 4.6, Leading zero omitted, Abs format (unit mm)*
G04 Created by KiCad (PCBNEW 5.1.6) date 2020-08-05 20:54:26*
%MOMM*%
%LPD*%
G01*
G04 APERTURE LIST*
%ADD10C,0.150000*%
%ADD11C,0.120000*%
G04 APERTURE END LIST*
D10*
X193530457Y-113217411D02*
X193059053Y-113688816D01*
X193463114Y-113284755D02*
X193463114Y-113217411D01*
X193429442Y-113116396D01*
X193328427Y-113015381D01*
X193227411Y-112981709D01*
X193126396Y-113015381D01*
X192756007Y-113385770D01*
X193732488Y-113082724D02*
X193732488Y-113015381D01*
X193698816Y-112914366D01*
X193496785Y-112847022D01*
X193463114Y-112746007D01*
X193463114Y-112678663D01*
X193126396Y-112543976D02*
X192654992Y-112072572D01*
X192621320Y-112577648D02*
X192284602Y-112914366D01*
X193227411Y-112442961D02*
X192621320Y-112577648D01*
X192756007Y-111971557D01*
X192520305Y-111937885D02*
X192048900Y-111466480D01*
X192015228Y-111971557D02*
X191678511Y-112308274D01*
X192621320Y-111836870D02*
X192015228Y-111971557D01*
X192149915Y-111365465D01*
X191914213Y-111331793D02*
X191442809Y-110860389D01*
X191409137Y-111365465D02*
X191072419Y-111702183D01*
X192015228Y-111230778D02*
X191409137Y-111365465D01*
X191543824Y-110759374D01*
X190365312Y-110927732D02*
X190398984Y-111028748D01*
X190533671Y-111163435D01*
X190634687Y-111197106D01*
X190735702Y-111163435D01*
X191005076Y-110894061D01*
X191038748Y-110793045D01*
X191005076Y-110692030D01*
X190870389Y-110557343D01*
X190769374Y-110523671D01*
X190668358Y-110557343D01*
X190601015Y-110624687D01*
X190870389Y-111028748D01*
X191240778Y-110591015D02*
X191207106Y-110355312D01*
X190971404Y-110321641D01*
X189759221Y-110321641D02*
X189792893Y-110422656D01*
X189927580Y-110557343D01*
X190028595Y-110591015D01*
X190129610Y-110557343D01*
X190398984Y-110287969D01*
X190432656Y-110186954D01*
X190398984Y-110085938D01*
X190264297Y-109951251D01*
X190163282Y-109917580D01*
X190062267Y-109951251D01*
X189994923Y-110018595D01*
X190264297Y-110422656D01*
X190634687Y-109984923D02*
X190601015Y-109749221D01*
X190365312Y-109715549D01*
X189153129Y-109715549D02*
X189186801Y-109816564D01*
X189321488Y-109951251D01*
X189422503Y-109984923D01*
X189523519Y-109951251D01*
X189792893Y-109681877D01*
X189826564Y-109580862D01*
X189792893Y-109479847D01*
X189658206Y-109345160D01*
X189557190Y-109311488D01*
X189456175Y-109345160D01*
X189388832Y-109412503D01*
X189658206Y-109816564D01*
X190028595Y-109378832D02*
X189994923Y-109143129D01*
X189759221Y-109109458D01*
X188547038Y-109109458D02*
X188580710Y-109210473D01*
X188715397Y-109345160D01*
X188816412Y-109378832D01*
X188917427Y-109345160D01*
X189186801Y-109075786D01*
X189220473Y-108974771D01*
X189186801Y-108873755D01*
X189052114Y-108739068D01*
X188951099Y-108705397D01*
X188850084Y-108739068D01*
X188782740Y-108806412D01*
X189052114Y-109210473D01*
X189422503Y-108772740D02*
X189388832Y-108537038D01*
X189153129Y-108503366D01*
X187940946Y-108503366D02*
X187974618Y-108604381D01*
X188109305Y-108739068D01*
X188210320Y-108772740D01*
X188311336Y-108739068D01*
X188580710Y-108469694D01*
X188614381Y-108368679D01*
X188580710Y-108267664D01*
X188446023Y-108132977D01*
X188345007Y-108099305D01*
X188243992Y-108132977D01*
X188176649Y-108200320D01*
X188446023Y-108604381D01*
X188816412Y-108166649D02*
X188782740Y-107930946D01*
X188547038Y-107897275D01*
X187334855Y-107897275D02*
X187368527Y-107998290D01*
X187503214Y-108132977D01*
X187604229Y-108166649D01*
X187705244Y-108132977D01*
X187974618Y-107863603D01*
X188008290Y-107762588D01*
X187974618Y-107661572D01*
X187839931Y-107526885D01*
X187738916Y-107493214D01*
X187637901Y-107526885D01*
X187570557Y-107594229D01*
X187839931Y-107998290D01*
X188210320Y-107560557D02*
X188176649Y-107324855D01*
X187940946Y-107291183D01*
D11*
X194310000Y-114300000D02*
X194310000Y-107950000D01*
X186690000Y-114300000D02*
X194310000Y-114300000D01*
X194310000Y-114300000D02*
X186690000Y-114300000D01*
M02*
