%TF.GenerationSoftware,KiCad,Pcbnew,5.1.6*%
%TF.CreationDate,2020-08-05T20:54:26-07:00*%
%TF.ProjectId,shield,73686965-6c64-42e6-9b69-6361645f7063,rev?*%
%TF.SameCoordinates,Original*%
%TF.FileFunction,Soldermask,Bot*%
%TF.FilePolarity,Negative*%
%FSLAX46Y46*%
G04 Gerber Fmt 4.6, Leading zero omitted, Abs format (unit mm)*
G04 Created by KiCad (PCBNEW 5.1.6) date 2020-08-05 20:54:26*
%MOMM*%
%LPD*%
G01*
G04 APERTURE LIST*
%ADD10C,2.000000*%
%ADD11C,3.550000*%
%ADD12C,0.900000*%
%ADD13C,6.500000*%
%ADD14O,1.827200X1.827200*%
%ADD15C,3.300000*%
G04 APERTURE END LIST*
D10*
%TO.C,J15*%
X151260000Y-79245000D03*
X151260000Y-81785000D03*
X151260000Y-84325000D03*
X151260000Y-86865000D03*
X153800000Y-80515000D03*
X153800000Y-83055000D03*
X153800000Y-85595000D03*
X153800000Y-88135000D03*
D11*
X144910000Y-77975000D03*
X144910000Y-89405000D03*
%TD*%
D12*
%TO.C,H4*%
X201087056Y-112602944D03*
X199390000Y-111900000D03*
X197692944Y-112602944D03*
X196990000Y-114300000D03*
X197692944Y-115997056D03*
X199390000Y-116700000D03*
X201087056Y-115997056D03*
X201790000Y-114300000D03*
D13*
X199390000Y-114300000D03*
%TD*%
D12*
%TO.C,H3*%
X201087056Y-28782944D03*
X199390000Y-28080000D03*
X197692944Y-28782944D03*
X196990000Y-30480000D03*
X197692944Y-32177056D03*
X199390000Y-32880000D03*
X201087056Y-32177056D03*
X201790000Y-30480000D03*
D13*
X199390000Y-30480000D03*
%TD*%
D12*
%TO.C,H2*%
X114727056Y-112602944D03*
X113030000Y-111900000D03*
X111332944Y-112602944D03*
X110630000Y-114300000D03*
X111332944Y-115997056D03*
X113030000Y-116700000D03*
X114727056Y-115997056D03*
X115430000Y-114300000D03*
D13*
X113030000Y-114300000D03*
%TD*%
D12*
%TO.C,H1*%
X114727056Y-28782944D03*
X113030000Y-28080000D03*
X111332944Y-28782944D03*
X110630000Y-30480000D03*
X111332944Y-32177056D03*
X113030000Y-32880000D03*
X114727056Y-32177056D03*
X115430000Y-30480000D03*
D13*
X113030000Y-30480000D03*
%TD*%
D10*
%TO.C,J1*%
X148085000Y-40770000D03*
X145545000Y-40770000D03*
X143005000Y-40770000D03*
X140465000Y-40770000D03*
X146815000Y-43310000D03*
X144275000Y-43310000D03*
X141735000Y-43310000D03*
X139195000Y-43310000D03*
D11*
X149355000Y-34420000D03*
X137925000Y-34420000D03*
%TD*%
D10*
%TO.C,J2*%
X131315000Y-54480000D03*
X133855000Y-54480000D03*
X136395000Y-54480000D03*
X138935000Y-54480000D03*
X132585000Y-51940000D03*
X135125000Y-51940000D03*
X137665000Y-51940000D03*
X140205000Y-51940000D03*
D11*
X130045000Y-60830000D03*
X141475000Y-60830000D03*
%TD*%
D10*
%TO.C,J3*%
X131575000Y-40770000D03*
X129035000Y-40770000D03*
X126495000Y-40770000D03*
X123955000Y-40770000D03*
X130305000Y-43310000D03*
X127765000Y-43310000D03*
X125225000Y-43310000D03*
X122685000Y-43310000D03*
D11*
X132845000Y-34420000D03*
X121415000Y-34420000D03*
%TD*%
D10*
%TO.C,J4*%
X114805000Y-54480000D03*
X117345000Y-54480000D03*
X119885000Y-54480000D03*
X122425000Y-54480000D03*
X116075000Y-51940000D03*
X118615000Y-51940000D03*
X121155000Y-51940000D03*
X123695000Y-51940000D03*
D11*
X113535000Y-60830000D03*
X124965000Y-60830000D03*
%TD*%
D10*
%TO.C,J5*%
X114805000Y-78610000D03*
X117345000Y-78610000D03*
X119885000Y-78610000D03*
X122425000Y-78610000D03*
X116075000Y-76070000D03*
X118615000Y-76070000D03*
X121155000Y-76070000D03*
X123695000Y-76070000D03*
D11*
X113535000Y-84960000D03*
X124965000Y-84960000D03*
%TD*%
D10*
%TO.C,J6*%
X170310000Y-53845000D03*
X170310000Y-56385000D03*
X170310000Y-58925000D03*
X170310000Y-61465000D03*
X172850000Y-55115000D03*
X172850000Y-57655000D03*
X172850000Y-60195000D03*
X172850000Y-62735000D03*
D11*
X163960000Y-52575000D03*
X163960000Y-64005000D03*
%TD*%
D10*
%TO.C,J7*%
X189100000Y-54105000D03*
X189100000Y-51565000D03*
X189100000Y-49025000D03*
X189100000Y-46485000D03*
X186560000Y-52835000D03*
X186560000Y-50295000D03*
X186560000Y-47755000D03*
X186560000Y-45215000D03*
D11*
X195450000Y-55375000D03*
X195450000Y-43945000D03*
%TD*%
D10*
%TO.C,J8*%
X189100000Y-70615000D03*
X189100000Y-68075000D03*
X189100000Y-65535000D03*
X189100000Y-62995000D03*
X186560000Y-69345000D03*
X186560000Y-66805000D03*
X186560000Y-64265000D03*
X186560000Y-61725000D03*
D11*
X195450000Y-71885000D03*
X195450000Y-60455000D03*
%TD*%
D10*
%TO.C,J9*%
X164595000Y-40770000D03*
X162055000Y-40770000D03*
X159515000Y-40770000D03*
X156975000Y-40770000D03*
X163325000Y-43310000D03*
X160785000Y-43310000D03*
X158245000Y-43310000D03*
X155705000Y-43310000D03*
D11*
X165865000Y-34420000D03*
X154435000Y-34420000D03*
%TD*%
D10*
%TO.C,J10*%
X170310000Y-70355000D03*
X170310000Y-72895000D03*
X170310000Y-75435000D03*
X170310000Y-77975000D03*
X172850000Y-71625000D03*
X172850000Y-74165000D03*
X172850000Y-76705000D03*
X172850000Y-79245000D03*
D11*
X163960000Y-69085000D03*
X163960000Y-80515000D03*
%TD*%
D10*
%TO.C,J11*%
X189100000Y-87125000D03*
X189100000Y-84585000D03*
X189100000Y-82045000D03*
X189100000Y-79505000D03*
X186560000Y-85855000D03*
X186560000Y-83315000D03*
X186560000Y-80775000D03*
X186560000Y-78235000D03*
D11*
X195450000Y-88395000D03*
X195450000Y-76965000D03*
%TD*%
D10*
%TO.C,J12*%
X155445000Y-104010000D03*
X157985000Y-104010000D03*
X160525000Y-104010000D03*
X163065000Y-104010000D03*
X156715000Y-101470000D03*
X159255000Y-101470000D03*
X161795000Y-101470000D03*
X164335000Y-101470000D03*
D11*
X154175000Y-110360000D03*
X165605000Y-110360000D03*
%TD*%
D10*
%TO.C,J13*%
X181105000Y-40770000D03*
X178565000Y-40770000D03*
X176025000Y-40770000D03*
X173485000Y-40770000D03*
X179835000Y-43310000D03*
X177295000Y-43310000D03*
X174755000Y-43310000D03*
X172215000Y-43310000D03*
D11*
X182375000Y-34420000D03*
X170945000Y-34420000D03*
%TD*%
D10*
%TO.C,J14*%
X189100000Y-103635000D03*
X189100000Y-101095000D03*
X189100000Y-98555000D03*
X189100000Y-96015000D03*
X186560000Y-102365000D03*
X186560000Y-99825000D03*
X186560000Y-97285000D03*
X186560000Y-94745000D03*
D11*
X195450000Y-104905000D03*
X195450000Y-93475000D03*
%TD*%
D10*
%TO.C,J16*%
X171955000Y-104010000D03*
X174495000Y-104010000D03*
X177035000Y-104010000D03*
X179575000Y-104010000D03*
X173225000Y-101470000D03*
X175765000Y-101470000D03*
X178305000Y-101470000D03*
X180845000Y-101470000D03*
D11*
X170685000Y-110360000D03*
X182115000Y-110360000D03*
%TD*%
D14*
%TO.C,XA1*%
X146252001Y-73735001D03*
X148792001Y-73735001D03*
X148792001Y-71195001D03*
X146252001Y-71195001D03*
X148792001Y-68655001D03*
X133425001Y-96595001D03*
X128345001Y-96595001D03*
X125805001Y-96595001D03*
X123265001Y-96595001D03*
X120725001Y-96595001D03*
X118185001Y-96595001D03*
X115645001Y-96595001D03*
X113105001Y-96595001D03*
X168985001Y-48335001D03*
X166445001Y-48335001D03*
X163905001Y-48335001D03*
X161365001Y-48335001D03*
X158825001Y-48335001D03*
X156285001Y-48335001D03*
X153745001Y-48335001D03*
X151205001Y-48335001D03*
X146125001Y-48335001D03*
X143585001Y-48335001D03*
X141045001Y-48335001D03*
X138505001Y-48335001D03*
X135965001Y-48335001D03*
X133425001Y-48335001D03*
X130885001Y-48335001D03*
X128345001Y-48335001D03*
X124281001Y-48335001D03*
X121741001Y-48335001D03*
X119201001Y-48335001D03*
D15*
X148665001Y-91515001D03*
X148665001Y-63575001D03*
X172795001Y-48335001D03*
X179145001Y-96595001D03*
D14*
X111581001Y-48335001D03*
X114121001Y-48335001D03*
X116661001Y-48335001D03*
X135965001Y-96595001D03*
X138505001Y-96595001D03*
X141045001Y-96595001D03*
X143585001Y-96595001D03*
X146125001Y-96595001D03*
X148665001Y-96595001D03*
X151205001Y-96595001D03*
X156285001Y-96595001D03*
X158825001Y-96595001D03*
X161365001Y-96595001D03*
X163905001Y-96595001D03*
X166445001Y-96595001D03*
X168985001Y-96595001D03*
X171525001Y-96595001D03*
X174065001Y-96595001D03*
X176605001Y-48335001D03*
X179145001Y-48335001D03*
X176605001Y-50875001D03*
X179145001Y-50875001D03*
X176605001Y-53415001D03*
X179145001Y-53415001D03*
X176605001Y-55955001D03*
X179145001Y-55955001D03*
X176605001Y-58495001D03*
X179145001Y-58495001D03*
X176605001Y-61035001D03*
X179145001Y-61035001D03*
X176605001Y-63575001D03*
X179145001Y-63575001D03*
X176605001Y-66115001D03*
X179145001Y-66115001D03*
X176605001Y-68655001D03*
X179145001Y-68655001D03*
X176605001Y-71195001D03*
X179145001Y-71195001D03*
X176605001Y-73735001D03*
X179145001Y-73735001D03*
X176605001Y-76275001D03*
X179145001Y-76275001D03*
X176605001Y-78815001D03*
X179145001Y-78815001D03*
X176605001Y-81355001D03*
X179145001Y-81355001D03*
X176605001Y-83895001D03*
X179145001Y-83895001D03*
X176605001Y-86435001D03*
X179145001Y-86435001D03*
X176605001Y-88975001D03*
X179145001Y-88975001D03*
X176605001Y-91515001D03*
X179145001Y-91515001D03*
X146252001Y-68655001D03*
%TD*%
M02*
