%TF.GenerationSoftware,KiCad,Pcbnew,5.1.9*%
%TF.CreationDate,2021-02-20T15:12:24-08:00*%
%TF.ProjectId,Transmitter,5472616e-736d-4697-9474-65722e6b6963,rev?*%
%TF.SameCoordinates,Original*%
%TF.FileFunction,Legend,Bot*%
%TF.FilePolarity,Positive*%
%FSLAX46Y46*%
G04 Gerber Fmt 4.6, Leading zero omitted, Abs format (unit mm)*
G04 Created by KiCad (PCBNEW 5.1.9) date 2021-02-20 15:12:24*
%MOMM*%
%LPD*%
G01*
G04 APERTURE LIST*
%ADD10C,0.150000*%
%ADD11C,0.120000*%
G04 APERTURE END LIST*
D10*
X111502380Y-78719047D02*
X110835714Y-78719047D01*
X111026190Y-78719047D02*
X110930952Y-78766666D01*
X110883333Y-78814285D01*
X110835714Y-78909523D01*
X110835714Y-79004761D01*
X110835714Y-79338095D02*
X111692857Y-79338095D01*
X111788095Y-79290476D01*
X111835714Y-79195238D01*
X111835714Y-79147619D01*
X110502380Y-79338095D02*
X110550000Y-79290476D01*
X110597619Y-79338095D01*
X110550000Y-79385714D01*
X110502380Y-79338095D01*
X110597619Y-79338095D01*
X111502380Y-80242857D02*
X110978571Y-80242857D01*
X110883333Y-80195238D01*
X110835714Y-80100000D01*
X110835714Y-79909523D01*
X110883333Y-79814285D01*
X111454761Y-80242857D02*
X111502380Y-80147619D01*
X111502380Y-79909523D01*
X111454761Y-79814285D01*
X111359523Y-79766666D01*
X111264285Y-79766666D01*
X111169047Y-79814285D01*
X111121428Y-79909523D01*
X111121428Y-80147619D01*
X111073809Y-80242857D01*
X111454761Y-81147619D02*
X111502380Y-81052380D01*
X111502380Y-80861904D01*
X111454761Y-80766666D01*
X111407142Y-80719047D01*
X111311904Y-80671428D01*
X111026190Y-80671428D01*
X110930952Y-80719047D01*
X110883333Y-80766666D01*
X110835714Y-80861904D01*
X110835714Y-81052380D01*
X110883333Y-81147619D01*
X111502380Y-81719047D02*
X111454761Y-81623809D01*
X111407142Y-81576190D01*
X111311904Y-81528571D01*
X111026190Y-81528571D01*
X110930952Y-81576190D01*
X110883333Y-81623809D01*
X110835714Y-81719047D01*
X110835714Y-81861904D01*
X110883333Y-81957142D01*
X110930952Y-82004761D01*
X111026190Y-82052380D01*
X111311904Y-82052380D01*
X111407142Y-82004761D01*
X111454761Y-81957142D01*
X111502380Y-81861904D01*
X111502380Y-81719047D01*
X111502380Y-82480952D02*
X110502380Y-82480952D01*
X110883333Y-82480952D02*
X110835714Y-82576190D01*
X110835714Y-82766666D01*
X110883333Y-82861904D01*
X110930952Y-82909523D01*
X111026190Y-82957142D01*
X111311904Y-82957142D01*
X111407142Y-82909523D01*
X111454761Y-82861904D01*
X111502380Y-82766666D01*
X111502380Y-82576190D01*
X111454761Y-82480952D01*
X110835714Y-83290476D02*
X111502380Y-83528571D01*
X110835714Y-83766666D02*
X111502380Y-83528571D01*
X111740476Y-83433333D01*
X111788095Y-83385714D01*
X111835714Y-83290476D01*
X111407142Y-84147619D02*
X111454761Y-84195238D01*
X111502380Y-84147619D01*
X111454761Y-84100000D01*
X111407142Y-84147619D01*
X111502380Y-84147619D01*
X110835714Y-84623809D02*
X111502380Y-84623809D01*
X110930952Y-84623809D02*
X110883333Y-84671428D01*
X110835714Y-84766666D01*
X110835714Y-84909523D01*
X110883333Y-85004761D01*
X110978571Y-85052380D01*
X111502380Y-85052380D01*
X111454761Y-85909523D02*
X111502380Y-85814285D01*
X111502380Y-85623809D01*
X111454761Y-85528571D01*
X111359523Y-85480952D01*
X110978571Y-85480952D01*
X110883333Y-85528571D01*
X110835714Y-85623809D01*
X110835714Y-85814285D01*
X110883333Y-85909523D01*
X110978571Y-85957142D01*
X111073809Y-85957142D01*
X111169047Y-85480952D01*
X110835714Y-86242857D02*
X110835714Y-86623809D01*
X110502380Y-86385714D02*
X111359523Y-86385714D01*
X111454761Y-86433333D01*
X111502380Y-86528571D01*
X111502380Y-86623809D01*
X113152380Y-77552380D02*
X113152380Y-77076190D01*
X112152380Y-77076190D01*
X113152380Y-78028571D02*
X113104761Y-77933333D01*
X113057142Y-77885714D01*
X112961904Y-77838095D01*
X112676190Y-77838095D01*
X112580952Y-77885714D01*
X112533333Y-77933333D01*
X112485714Y-78028571D01*
X112485714Y-78171428D01*
X112533333Y-78266666D01*
X112580952Y-78314285D01*
X112676190Y-78361904D01*
X112961904Y-78361904D01*
X113057142Y-78314285D01*
X113104761Y-78266666D01*
X113152380Y-78171428D01*
X113152380Y-78028571D01*
X113152380Y-79361904D02*
X112676190Y-79028571D01*
X113152380Y-78790476D02*
X112152380Y-78790476D01*
X112152380Y-79171428D01*
X112200000Y-79266666D01*
X112247619Y-79314285D01*
X112342857Y-79361904D01*
X112485714Y-79361904D01*
X112580952Y-79314285D01*
X112628571Y-79266666D01*
X112676190Y-79171428D01*
X112676190Y-78790476D01*
X113152380Y-80219047D02*
X112628571Y-80219047D01*
X112533333Y-80171428D01*
X112485714Y-80076190D01*
X112485714Y-79885714D01*
X112533333Y-79790476D01*
X113104761Y-80219047D02*
X113152380Y-80123809D01*
X113152380Y-79885714D01*
X113104761Y-79790476D01*
X113009523Y-79742857D01*
X112914285Y-79742857D01*
X112819047Y-79790476D01*
X112771428Y-79885714D01*
X112771428Y-80123809D01*
X112723809Y-80219047D01*
X113152380Y-81457142D02*
X112152380Y-81457142D01*
X113152380Y-82076190D02*
X113104761Y-81980952D01*
X113057142Y-81933333D01*
X112961904Y-81885714D01*
X112676190Y-81885714D01*
X112580952Y-81933333D01*
X112533333Y-81980952D01*
X112485714Y-82076190D01*
X112485714Y-82219047D01*
X112533333Y-82314285D01*
X112580952Y-82361904D01*
X112676190Y-82409523D01*
X112961904Y-82409523D01*
X113057142Y-82361904D01*
X113104761Y-82314285D01*
X113152380Y-82219047D01*
X113152380Y-82076190D01*
X112152380Y-82695238D02*
X112152380Y-83266666D01*
X113152380Y-82980952D02*
X112152380Y-82980952D01*
X113152380Y-84361904D02*
X112152380Y-84361904D01*
X112533333Y-84361904D02*
X112485714Y-84457142D01*
X112485714Y-84647619D01*
X112533333Y-84742857D01*
X112580952Y-84790476D01*
X112676190Y-84838095D01*
X112961904Y-84838095D01*
X113057142Y-84790476D01*
X113104761Y-84742857D01*
X113152380Y-84647619D01*
X113152380Y-84457142D01*
X113104761Y-84361904D01*
X113152380Y-85409523D02*
X113104761Y-85314285D01*
X113057142Y-85266666D01*
X112961904Y-85219047D01*
X112676190Y-85219047D01*
X112580952Y-85266666D01*
X112533333Y-85314285D01*
X112485714Y-85409523D01*
X112485714Y-85552380D01*
X112533333Y-85647619D01*
X112580952Y-85695238D01*
X112676190Y-85742857D01*
X112961904Y-85742857D01*
X113057142Y-85695238D01*
X113104761Y-85647619D01*
X113152380Y-85552380D01*
X113152380Y-85409523D01*
X113152380Y-86600000D02*
X112628571Y-86600000D01*
X112533333Y-86552380D01*
X112485714Y-86457142D01*
X112485714Y-86266666D01*
X112533333Y-86171428D01*
X113104761Y-86600000D02*
X113152380Y-86504761D01*
X113152380Y-86266666D01*
X113104761Y-86171428D01*
X113009523Y-86123809D01*
X112914285Y-86123809D01*
X112819047Y-86171428D01*
X112771428Y-86266666D01*
X112771428Y-86504761D01*
X112723809Y-86600000D01*
X113152380Y-87076190D02*
X112485714Y-87076190D01*
X112676190Y-87076190D02*
X112580952Y-87123809D01*
X112533333Y-87171428D01*
X112485714Y-87266666D01*
X112485714Y-87361904D01*
X113152380Y-88123809D02*
X112152380Y-88123809D01*
X113104761Y-88123809D02*
X113152380Y-88028571D01*
X113152380Y-87838095D01*
X113104761Y-87742857D01*
X113057142Y-87695238D01*
X112961904Y-87647619D01*
X112676190Y-87647619D01*
X112580952Y-87695238D01*
X112533333Y-87742857D01*
X112485714Y-87838095D01*
X112485714Y-88028571D01*
X112533333Y-88123809D01*
X113802380Y-81076190D02*
X114802380Y-81409523D01*
X113802380Y-81742857D01*
X114802380Y-82599999D02*
X114802380Y-82028571D01*
X114802380Y-82314285D02*
X113802380Y-82314285D01*
X113945238Y-82219047D01*
X114040476Y-82123809D01*
X114088095Y-82028571D01*
X114707142Y-83028571D02*
X114754761Y-83076190D01*
X114802380Y-83028571D01*
X114754761Y-82980952D01*
X114707142Y-83028571D01*
X114802380Y-83028571D01*
X113802380Y-83695238D02*
X113802380Y-83790476D01*
X113850000Y-83885714D01*
X113897619Y-83933333D01*
X113992857Y-83980952D01*
X114183333Y-84028571D01*
X114421428Y-84028571D01*
X114611904Y-83980952D01*
X114707142Y-83933333D01*
X114754761Y-83885714D01*
X114802380Y-83790476D01*
X114802380Y-83695238D01*
X114754761Y-83599999D01*
X114707142Y-83552380D01*
X114611904Y-83504761D01*
X114421428Y-83457142D01*
X114183333Y-83457142D01*
X113992857Y-83504761D01*
X113897619Y-83552380D01*
X113850000Y-83599999D01*
X113802380Y-83695238D01*
X81752380Y-80309523D02*
X81752380Y-80928571D01*
X82133333Y-80595238D01*
X82133333Y-80738095D01*
X82180952Y-80833333D01*
X82228571Y-80880952D01*
X82323809Y-80928571D01*
X82561904Y-80928571D01*
X82657142Y-80880952D01*
X82704761Y-80833333D01*
X82752380Y-80738095D01*
X82752380Y-80452380D01*
X82704761Y-80357142D01*
X82657142Y-80309523D01*
X82085714Y-81261904D02*
X82752380Y-81500000D01*
X82085714Y-81738095D01*
X81752380Y-82023809D02*
X81752380Y-82642857D01*
X82133333Y-82309523D01*
X82133333Y-82452380D01*
X82180952Y-82547619D01*
X82228571Y-82595238D01*
X82323809Y-82642857D01*
X82561904Y-82642857D01*
X82657142Y-82595238D01*
X82704761Y-82547619D01*
X82752380Y-82452380D01*
X82752380Y-82166666D01*
X82704761Y-82071428D01*
X82657142Y-82023809D01*
X85504761Y-80285714D02*
X85552380Y-80428571D01*
X85552380Y-80666666D01*
X85504761Y-80761904D01*
X85457142Y-80809523D01*
X85361904Y-80857142D01*
X85266666Y-80857142D01*
X85171428Y-80809523D01*
X85123809Y-80761904D01*
X85076190Y-80666666D01*
X85028571Y-80476190D01*
X84980952Y-80380952D01*
X84933333Y-80333333D01*
X84838095Y-80285714D01*
X84742857Y-80285714D01*
X84647619Y-80333333D01*
X84600000Y-80380952D01*
X84552380Y-80476190D01*
X84552380Y-80714285D01*
X84600000Y-80857142D01*
X85552380Y-81285714D02*
X84552380Y-81285714D01*
X84552380Y-81523809D01*
X84600000Y-81666666D01*
X84695238Y-81761904D01*
X84790476Y-81809523D01*
X84980952Y-81857142D01*
X85123809Y-81857142D01*
X85314285Y-81809523D01*
X85409523Y-81761904D01*
X85504761Y-81666666D01*
X85552380Y-81523809D01*
X85552380Y-81285714D01*
X85266666Y-82238095D02*
X85266666Y-82714285D01*
X85552380Y-82142857D02*
X84552380Y-82476190D01*
X85552380Y-82809523D01*
X88904761Y-80309523D02*
X88952380Y-80452380D01*
X88952380Y-80690476D01*
X88904761Y-80785714D01*
X88857142Y-80833333D01*
X88761904Y-80880952D01*
X88666666Y-80880952D01*
X88571428Y-80833333D01*
X88523809Y-80785714D01*
X88476190Y-80690476D01*
X88428571Y-80500000D01*
X88380952Y-80404761D01*
X88333333Y-80357142D01*
X88238095Y-80309523D01*
X88142857Y-80309523D01*
X88047619Y-80357142D01*
X88000000Y-80404761D01*
X87952380Y-80500000D01*
X87952380Y-80738095D01*
X88000000Y-80880952D01*
X88857142Y-81880952D02*
X88904761Y-81833333D01*
X88952380Y-81690476D01*
X88952380Y-81595238D01*
X88904761Y-81452380D01*
X88809523Y-81357142D01*
X88714285Y-81309523D01*
X88523809Y-81261904D01*
X88380952Y-81261904D01*
X88190476Y-81309523D01*
X88095238Y-81357142D01*
X88000000Y-81452380D01*
X87952380Y-81595238D01*
X87952380Y-81690476D01*
X88000000Y-81833333D01*
X88047619Y-81880952D01*
X88952380Y-82785714D02*
X88952380Y-82309523D01*
X87952380Y-82309523D01*
X90400000Y-80838095D02*
X90352380Y-80742857D01*
X90352380Y-80600000D01*
X90400000Y-80457142D01*
X90495238Y-80361904D01*
X90590476Y-80314285D01*
X90780952Y-80266666D01*
X90923809Y-80266666D01*
X91114285Y-80314285D01*
X91209523Y-80361904D01*
X91304761Y-80457142D01*
X91352380Y-80600000D01*
X91352380Y-80695238D01*
X91304761Y-80838095D01*
X91257142Y-80885714D01*
X90923809Y-80885714D01*
X90923809Y-80695238D01*
X91352380Y-81314285D02*
X90352380Y-81314285D01*
X91352380Y-81885714D01*
X90352380Y-81885714D01*
X91352380Y-82361904D02*
X90352380Y-82361904D01*
X90352380Y-82600000D01*
X90400000Y-82742857D01*
X90495238Y-82838095D01*
X90590476Y-82885714D01*
X90780952Y-82933333D01*
X90923809Y-82933333D01*
X91114285Y-82885714D01*
X91209523Y-82838095D01*
X91304761Y-82742857D01*
X91352380Y-82600000D01*
X91352380Y-82361904D01*
X75995238Y-93860952D02*
X76090476Y-93813333D01*
X76138095Y-93765714D01*
X76185714Y-93670476D01*
X76185714Y-93622857D01*
X76138095Y-93527619D01*
X76090476Y-93480000D01*
X75995238Y-93432380D01*
X75804761Y-93432380D01*
X75709523Y-93480000D01*
X75661904Y-93527619D01*
X75614285Y-93622857D01*
X75614285Y-93670476D01*
X75661904Y-93765714D01*
X75709523Y-93813333D01*
X75804761Y-93860952D01*
X75995238Y-93860952D01*
X76090476Y-93908571D01*
X76138095Y-93956190D01*
X76185714Y-94051428D01*
X76185714Y-94241904D01*
X76138095Y-94337142D01*
X76090476Y-94384761D01*
X75995238Y-94432380D01*
X75804761Y-94432380D01*
X75709523Y-94384761D01*
X75661904Y-94337142D01*
X75614285Y-94241904D01*
X75614285Y-94051428D01*
X75661904Y-93956190D01*
X75709523Y-93908571D01*
X75804761Y-93860952D01*
X77169904Y-88447619D02*
X77122285Y-88400000D01*
X77027047Y-88352380D01*
X76788952Y-88352380D01*
X76693714Y-88400000D01*
X76646095Y-88447619D01*
X76598476Y-88542857D01*
X76598476Y-88638095D01*
X76646095Y-88780952D01*
X77217523Y-89352380D01*
X76598476Y-89352380D01*
X76217523Y-88447619D02*
X76169904Y-88400000D01*
X76074666Y-88352380D01*
X75836571Y-88352380D01*
X75741333Y-88400000D01*
X75693714Y-88447619D01*
X75646095Y-88542857D01*
X75646095Y-88638095D01*
X75693714Y-88780952D01*
X76265142Y-89352380D01*
X75646095Y-89352380D01*
X77169904Y-90987619D02*
X77122285Y-90940000D01*
X77027047Y-90892380D01*
X76788952Y-90892380D01*
X76693714Y-90940000D01*
X76646095Y-90987619D01*
X76598476Y-91082857D01*
X76598476Y-91178095D01*
X76646095Y-91320952D01*
X77217523Y-91892380D01*
X76598476Y-91892380D01*
X75646095Y-91892380D02*
X76217523Y-91892380D01*
X75931809Y-91892380D02*
X75931809Y-90892380D01*
X76027047Y-91035238D01*
X76122285Y-91130476D01*
X76217523Y-91178095D01*
X76598476Y-86812380D02*
X77169904Y-86812380D01*
X76884190Y-86812380D02*
X76884190Y-85812380D01*
X76979428Y-85955238D01*
X77074666Y-86050476D01*
X77169904Y-86098095D01*
X75693714Y-85812380D02*
X76169904Y-85812380D01*
X76217523Y-86288571D01*
X76169904Y-86240952D01*
X76074666Y-86193333D01*
X75836571Y-86193333D01*
X75741333Y-86240952D01*
X75693714Y-86288571D01*
X75646095Y-86383809D01*
X75646095Y-86621904D01*
X75693714Y-86717142D01*
X75741333Y-86764761D01*
X75836571Y-86812380D01*
X76074666Y-86812380D01*
X76169904Y-86764761D01*
X76217523Y-86717142D01*
X76598476Y-84272380D02*
X77169904Y-84272380D01*
X76884190Y-84272380D02*
X76884190Y-83272380D01*
X76979428Y-83415238D01*
X77074666Y-83510476D01*
X77169904Y-83558095D01*
X75741333Y-83605714D02*
X75741333Y-84272380D01*
X75979428Y-83224761D02*
X76217523Y-83939047D01*
X75598476Y-83939047D01*
X76233333Y-80732380D02*
X75566666Y-80732380D01*
X75995238Y-81732380D01*
X77990476Y-78252380D02*
X77371428Y-78252380D01*
X77704761Y-78633333D01*
X77561904Y-78633333D01*
X77466666Y-78680952D01*
X77419047Y-78728571D01*
X77371428Y-78823809D01*
X77371428Y-79061904D01*
X77419047Y-79157142D01*
X77466666Y-79204761D01*
X77561904Y-79252380D01*
X77847619Y-79252380D01*
X77942857Y-79204761D01*
X77990476Y-79157142D01*
X77038095Y-78585714D02*
X76800000Y-79252380D01*
X76561904Y-78585714D01*
X76276190Y-78252380D02*
X75657142Y-78252380D01*
X75990476Y-78633333D01*
X75847619Y-78633333D01*
X75752380Y-78680952D01*
X75704761Y-78728571D01*
X75657142Y-78823809D01*
X75657142Y-79061904D01*
X75704761Y-79157142D01*
X75752380Y-79204761D01*
X75847619Y-79252380D01*
X76133333Y-79252380D01*
X76228571Y-79204761D01*
X76276190Y-79157142D01*
X81161904Y-98300000D02*
X81257142Y-98252380D01*
X81400000Y-98252380D01*
X81542857Y-98300000D01*
X81638095Y-98395238D01*
X81685714Y-98490476D01*
X81733333Y-98680952D01*
X81733333Y-98823809D01*
X81685714Y-99014285D01*
X81638095Y-99109523D01*
X81542857Y-99204761D01*
X81400000Y-99252380D01*
X81304761Y-99252380D01*
X81161904Y-99204761D01*
X81114285Y-99157142D01*
X81114285Y-98823809D01*
X81304761Y-98823809D01*
X80685714Y-99252380D02*
X80685714Y-98252380D01*
X80114285Y-99252380D01*
X80114285Y-98252380D01*
X79638095Y-99252380D02*
X79638095Y-98252380D01*
X79400000Y-98252380D01*
X79257142Y-98300000D01*
X79161904Y-98395238D01*
X79114285Y-98490476D01*
X79066666Y-98680952D01*
X79066666Y-98823809D01*
X79114285Y-99014285D01*
X79161904Y-99109523D01*
X79257142Y-99204761D01*
X79400000Y-99252380D01*
X79638095Y-99252380D01*
X83133333Y-97328571D02*
X82990476Y-97376190D01*
X82942857Y-97423809D01*
X82895238Y-97519047D01*
X82895238Y-97661904D01*
X82942857Y-97757142D01*
X82990476Y-97804761D01*
X83085714Y-97852380D01*
X83466666Y-97852380D01*
X83466666Y-96852380D01*
X83133333Y-96852380D01*
X83038095Y-96900000D01*
X82990476Y-96947619D01*
X82942857Y-97042857D01*
X82942857Y-97138095D01*
X82990476Y-97233333D01*
X83038095Y-97280952D01*
X83133333Y-97328571D01*
X83466666Y-97328571D01*
X82276190Y-96852380D02*
X82085714Y-96852380D01*
X81990476Y-96900000D01*
X81895238Y-96995238D01*
X81847619Y-97185714D01*
X81847619Y-97519047D01*
X81895238Y-97709523D01*
X81990476Y-97804761D01*
X82085714Y-97852380D01*
X82276190Y-97852380D01*
X82371428Y-97804761D01*
X82466666Y-97709523D01*
X82514285Y-97519047D01*
X82514285Y-97185714D01*
X82466666Y-96995238D01*
X82371428Y-96900000D01*
X82276190Y-96852380D01*
X81228571Y-96852380D02*
X81038095Y-96852380D01*
X80942857Y-96900000D01*
X80847619Y-96995238D01*
X80800000Y-97185714D01*
X80800000Y-97519047D01*
X80847619Y-97709523D01*
X80942857Y-97804761D01*
X81038095Y-97852380D01*
X81228571Y-97852380D01*
X81323809Y-97804761D01*
X81419047Y-97709523D01*
X81466666Y-97519047D01*
X81466666Y-97185714D01*
X81419047Y-96995238D01*
X81323809Y-96900000D01*
X81228571Y-96852380D01*
X80514285Y-96852380D02*
X79942857Y-96852380D01*
X80228571Y-97852380D02*
X80228571Y-96852380D01*
X79419047Y-96852380D02*
X79323809Y-96852380D01*
X79228571Y-96900000D01*
X79180952Y-96947619D01*
X79133333Y-97042857D01*
X79085714Y-97233333D01*
X79085714Y-97471428D01*
X79133333Y-97661904D01*
X79180952Y-97757142D01*
X79228571Y-97804761D01*
X79323809Y-97852380D01*
X79419047Y-97852380D01*
X79514285Y-97804761D01*
X79561904Y-97757142D01*
X79609523Y-97661904D01*
X79657142Y-97471428D01*
X79657142Y-97233333D01*
X79609523Y-97042857D01*
X79561904Y-96947619D01*
X79514285Y-96900000D01*
X79419047Y-96852380D01*
X80690476Y-94752380D02*
X80071428Y-94752380D01*
X80404761Y-95133333D01*
X80261904Y-95133333D01*
X80166666Y-95180952D01*
X80119047Y-95228571D01*
X80071428Y-95323809D01*
X80071428Y-95561904D01*
X80119047Y-95657142D01*
X80166666Y-95704761D01*
X80261904Y-95752380D01*
X80547619Y-95752380D01*
X80642857Y-95704761D01*
X80690476Y-95657142D01*
X79738095Y-95085714D02*
X79500000Y-95752380D01*
X79261904Y-95085714D01*
X78976190Y-94752380D02*
X78357142Y-94752380D01*
X78690476Y-95133333D01*
X78547619Y-95133333D01*
X78452380Y-95180952D01*
X78404761Y-95228571D01*
X78357142Y-95323809D01*
X78357142Y-95561904D01*
X78404761Y-95657142D01*
X78452380Y-95704761D01*
X78547619Y-95752380D01*
X78833333Y-95752380D01*
X78928571Y-95704761D01*
X78976190Y-95657142D01*
X79027380Y-85057142D02*
X78027380Y-85057142D01*
X79027380Y-85628571D01*
X78027380Y-85628571D01*
X79027380Y-86676190D02*
X78551190Y-86342857D01*
X79027380Y-86104761D02*
X78027380Y-86104761D01*
X78027380Y-86485714D01*
X78075000Y-86580952D01*
X78122619Y-86628571D01*
X78217857Y-86676190D01*
X78360714Y-86676190D01*
X78455952Y-86628571D01*
X78503571Y-86580952D01*
X78551190Y-86485714D01*
X78551190Y-86104761D01*
X78979761Y-87057142D02*
X79027380Y-87200000D01*
X79027380Y-87438095D01*
X78979761Y-87533333D01*
X78932142Y-87580952D01*
X78836904Y-87628571D01*
X78741666Y-87628571D01*
X78646428Y-87580952D01*
X78598809Y-87533333D01*
X78551190Y-87438095D01*
X78503571Y-87247619D01*
X78455952Y-87152380D01*
X78408333Y-87104761D01*
X78313095Y-87057142D01*
X78217857Y-87057142D01*
X78122619Y-87104761D01*
X78075000Y-87152380D01*
X78027380Y-87247619D01*
X78027380Y-87485714D01*
X78075000Y-87628571D01*
X78027380Y-87914285D02*
X78027380Y-88485714D01*
X79027380Y-88200000D02*
X78027380Y-88200000D01*
X79725000Y-85938095D02*
X79677380Y-85842857D01*
X79677380Y-85700000D01*
X79725000Y-85557142D01*
X79820238Y-85461904D01*
X79915476Y-85414285D01*
X80105952Y-85366666D01*
X80248809Y-85366666D01*
X80439285Y-85414285D01*
X80534523Y-85461904D01*
X80629761Y-85557142D01*
X80677380Y-85700000D01*
X80677380Y-85795238D01*
X80629761Y-85938095D01*
X80582142Y-85985714D01*
X80248809Y-85985714D01*
X80248809Y-85795238D01*
X80677380Y-86414285D02*
X79677380Y-86414285D01*
X80677380Y-86985714D01*
X79677380Y-86985714D01*
X80677380Y-87461904D02*
X79677380Y-87461904D01*
X79677380Y-87700000D01*
X79725000Y-87842857D01*
X79820238Y-87938095D01*
X79915476Y-87985714D01*
X80105952Y-88033333D01*
X80248809Y-88033333D01*
X80439285Y-87985714D01*
X80534523Y-87938095D01*
X80629761Y-87842857D01*
X80677380Y-87700000D01*
X80677380Y-87461904D01*
X88390476Y-88727380D02*
X88723809Y-88251190D01*
X88961904Y-88727380D02*
X88961904Y-87727380D01*
X88580952Y-87727380D01*
X88485714Y-87775000D01*
X88438095Y-87822619D01*
X88390476Y-87917857D01*
X88390476Y-88060714D01*
X88438095Y-88155952D01*
X88485714Y-88203571D01*
X88580952Y-88251190D01*
X88961904Y-88251190D01*
X87961904Y-88727380D02*
X87961904Y-87727380D01*
X87628571Y-88441666D01*
X87295238Y-87727380D01*
X87295238Y-88727380D01*
X86485714Y-88203571D02*
X86819047Y-88203571D01*
X86819047Y-88727380D02*
X86819047Y-87727380D01*
X86342857Y-87727380D01*
X88914285Y-90377380D02*
X88914285Y-89377380D01*
X88914285Y-89853571D02*
X88342857Y-89853571D01*
X88342857Y-90377380D02*
X88342857Y-89377380D01*
X87914285Y-90329761D02*
X87771428Y-90377380D01*
X87533333Y-90377380D01*
X87438095Y-90329761D01*
X87390476Y-90282142D01*
X87342857Y-90186904D01*
X87342857Y-90091666D01*
X87390476Y-89996428D01*
X87438095Y-89948809D01*
X87533333Y-89901190D01*
X87723809Y-89853571D01*
X87819047Y-89805952D01*
X87866666Y-89758333D01*
X87914285Y-89663095D01*
X87914285Y-89567857D01*
X87866666Y-89472619D01*
X87819047Y-89425000D01*
X87723809Y-89377380D01*
X87485714Y-89377380D01*
X87342857Y-89425000D01*
X86914285Y-89853571D02*
X86580952Y-89853571D01*
X86438095Y-90377380D02*
X86914285Y-90377380D01*
X86914285Y-89377380D01*
X86438095Y-89377380D01*
X95890476Y-99052380D02*
X95271428Y-99052380D01*
X95604761Y-99433333D01*
X95461904Y-99433333D01*
X95366666Y-99480952D01*
X95319047Y-99528571D01*
X95271428Y-99623809D01*
X95271428Y-99861904D01*
X95319047Y-99957142D01*
X95366666Y-100004761D01*
X95461904Y-100052380D01*
X95747619Y-100052380D01*
X95842857Y-100004761D01*
X95890476Y-99957142D01*
X94938095Y-99385714D02*
X94700000Y-100052380D01*
X94461904Y-99385714D01*
X94176190Y-99052380D02*
X93557142Y-99052380D01*
X93890476Y-99433333D01*
X93747619Y-99433333D01*
X93652380Y-99480952D01*
X93604761Y-99528571D01*
X93557142Y-99623809D01*
X93557142Y-99861904D01*
X93604761Y-99957142D01*
X93652380Y-100004761D01*
X93747619Y-100052380D01*
X94033333Y-100052380D01*
X94128571Y-100004761D01*
X94176190Y-99957142D01*
X95366666Y-97052380D02*
X95700000Y-96576190D01*
X95938095Y-97052380D02*
X95938095Y-96052380D01*
X95557142Y-96052380D01*
X95461904Y-96100000D01*
X95414285Y-96147619D01*
X95366666Y-96242857D01*
X95366666Y-96385714D01*
X95414285Y-96480952D01*
X95461904Y-96528571D01*
X95557142Y-96576190D01*
X95938095Y-96576190D01*
X95033333Y-96052380D02*
X94366666Y-97052380D01*
X94366666Y-96052380D02*
X95033333Y-97052380D01*
X95961904Y-93252380D02*
X95390476Y-93252380D01*
X95676190Y-94252380D02*
X95676190Y-93252380D01*
X95152380Y-93252380D02*
X94485714Y-94252380D01*
X94485714Y-93252380D02*
X95152380Y-94252380D01*
X95361904Y-90300000D02*
X95457142Y-90252380D01*
X95600000Y-90252380D01*
X95742857Y-90300000D01*
X95838095Y-90395238D01*
X95885714Y-90490476D01*
X95933333Y-90680952D01*
X95933333Y-90823809D01*
X95885714Y-91014285D01*
X95838095Y-91109523D01*
X95742857Y-91204761D01*
X95600000Y-91252380D01*
X95504761Y-91252380D01*
X95361904Y-91204761D01*
X95314285Y-91157142D01*
X95314285Y-90823809D01*
X95504761Y-90823809D01*
X94885714Y-91252380D02*
X94885714Y-90252380D01*
X94314285Y-91252380D01*
X94314285Y-90252380D01*
X93838095Y-91252380D02*
X93838095Y-90252380D01*
X93600000Y-90252380D01*
X93457142Y-90300000D01*
X93361904Y-90395238D01*
X93314285Y-90490476D01*
X93266666Y-90680952D01*
X93266666Y-90823809D01*
X93314285Y-91014285D01*
X93361904Y-91109523D01*
X93457142Y-91204761D01*
X93600000Y-91252380D01*
X93838095Y-91252380D01*
X107361904Y-90500000D02*
X107457142Y-90452380D01*
X107600000Y-90452380D01*
X107742857Y-90500000D01*
X107838095Y-90595238D01*
X107885714Y-90690476D01*
X107933333Y-90880952D01*
X107933333Y-91023809D01*
X107885714Y-91214285D01*
X107838095Y-91309523D01*
X107742857Y-91404761D01*
X107600000Y-91452380D01*
X107504761Y-91452380D01*
X107361904Y-91404761D01*
X107314285Y-91357142D01*
X107314285Y-91023809D01*
X107504761Y-91023809D01*
X106885714Y-91452380D02*
X106885714Y-90452380D01*
X106314285Y-91452380D01*
X106314285Y-90452380D01*
X105838095Y-91452380D02*
X105838095Y-90452380D01*
X105600000Y-90452380D01*
X105457142Y-90500000D01*
X105361904Y-90595238D01*
X105314285Y-90690476D01*
X105266666Y-90880952D01*
X105266666Y-91023809D01*
X105314285Y-91214285D01*
X105361904Y-91309523D01*
X105457142Y-91404761D01*
X105600000Y-91452380D01*
X105838095Y-91452380D01*
X107266666Y-88357142D02*
X107314285Y-88404761D01*
X107457142Y-88452380D01*
X107552380Y-88452380D01*
X107695238Y-88404761D01*
X107790476Y-88309523D01*
X107838095Y-88214285D01*
X107885714Y-88023809D01*
X107885714Y-87880952D01*
X107838095Y-87690476D01*
X107790476Y-87595238D01*
X107695238Y-87500000D01*
X107552380Y-87452380D01*
X107457142Y-87452380D01*
X107314285Y-87500000D01*
X107266666Y-87547619D01*
X106885714Y-88404761D02*
X106742857Y-88452380D01*
X106504761Y-88452380D01*
X106409523Y-88404761D01*
X106361904Y-88357142D01*
X106314285Y-88261904D01*
X106314285Y-88166666D01*
X106361904Y-88071428D01*
X106409523Y-88023809D01*
X106504761Y-87976190D01*
X106695238Y-87928571D01*
X106790476Y-87880952D01*
X106838095Y-87833333D01*
X106885714Y-87738095D01*
X106885714Y-87642857D01*
X106838095Y-87547619D01*
X106790476Y-87500000D01*
X106695238Y-87452380D01*
X106457142Y-87452380D01*
X106314285Y-87500000D01*
X107885714Y-85404761D02*
X107742857Y-85452380D01*
X107504761Y-85452380D01*
X107409523Y-85404761D01*
X107361904Y-85357142D01*
X107314285Y-85261904D01*
X107314285Y-85166666D01*
X107361904Y-85071428D01*
X107409523Y-85023809D01*
X107504761Y-84976190D01*
X107695238Y-84928571D01*
X107790476Y-84880952D01*
X107838095Y-84833333D01*
X107885714Y-84738095D01*
X107885714Y-84642857D01*
X107838095Y-84547619D01*
X107790476Y-84500000D01*
X107695238Y-84452380D01*
X107457142Y-84452380D01*
X107314285Y-84500000D01*
X106314285Y-85357142D02*
X106361904Y-85404761D01*
X106504761Y-85452380D01*
X106600000Y-85452380D01*
X106742857Y-85404761D01*
X106838095Y-85309523D01*
X106885714Y-85214285D01*
X106933333Y-85023809D01*
X106933333Y-84880952D01*
X106885714Y-84690476D01*
X106838095Y-84595238D01*
X106742857Y-84500000D01*
X106600000Y-84452380D01*
X106504761Y-84452380D01*
X106361904Y-84500000D01*
X106314285Y-84547619D01*
X105885714Y-85452380D02*
X105885714Y-84452380D01*
X105314285Y-85452380D02*
X105742857Y-84880952D01*
X105314285Y-84452380D02*
X105885714Y-85023809D01*
X107871428Y-82452380D02*
X107871428Y-81452380D01*
X107538095Y-82166666D01*
X107204761Y-81452380D01*
X107204761Y-82452380D01*
X106728571Y-82452380D02*
X106728571Y-81452380D01*
X106300000Y-82404761D02*
X106157142Y-82452380D01*
X105919047Y-82452380D01*
X105823809Y-82404761D01*
X105776190Y-82357142D01*
X105728571Y-82261904D01*
X105728571Y-82166666D01*
X105776190Y-82071428D01*
X105823809Y-82023809D01*
X105919047Y-81976190D01*
X106109523Y-81928571D01*
X106204761Y-81880952D01*
X106252380Y-81833333D01*
X106300000Y-81738095D01*
X106300000Y-81642857D01*
X106252380Y-81547619D01*
X106204761Y-81500000D01*
X106109523Y-81452380D01*
X105871428Y-81452380D01*
X105728571Y-81500000D01*
X105109523Y-81452380D02*
X104919047Y-81452380D01*
X104823809Y-81500000D01*
X104728571Y-81595238D01*
X104680952Y-81785714D01*
X104680952Y-82119047D01*
X104728571Y-82309523D01*
X104823809Y-82404761D01*
X104919047Y-82452380D01*
X105109523Y-82452380D01*
X105204761Y-82404761D01*
X105300000Y-82309523D01*
X105347619Y-82119047D01*
X105347619Y-81785714D01*
X105300000Y-81595238D01*
X105204761Y-81500000D01*
X105109523Y-81452380D01*
X107871428Y-79452380D02*
X107871428Y-78452380D01*
X107538095Y-79166666D01*
X107204761Y-78452380D01*
X107204761Y-79452380D01*
X106538095Y-78452380D02*
X106347619Y-78452380D01*
X106252380Y-78500000D01*
X106157142Y-78595238D01*
X106109523Y-78785714D01*
X106109523Y-79119047D01*
X106157142Y-79309523D01*
X106252380Y-79404761D01*
X106347619Y-79452380D01*
X106538095Y-79452380D01*
X106633333Y-79404761D01*
X106728571Y-79309523D01*
X106776190Y-79119047D01*
X106776190Y-78785714D01*
X106728571Y-78595238D01*
X106633333Y-78500000D01*
X106538095Y-78452380D01*
X105728571Y-79404761D02*
X105585714Y-79452380D01*
X105347619Y-79452380D01*
X105252380Y-79404761D01*
X105204761Y-79357142D01*
X105157142Y-79261904D01*
X105157142Y-79166666D01*
X105204761Y-79071428D01*
X105252380Y-79023809D01*
X105347619Y-78976190D01*
X105538095Y-78928571D01*
X105633333Y-78880952D01*
X105680952Y-78833333D01*
X105728571Y-78738095D01*
X105728571Y-78642857D01*
X105680952Y-78547619D01*
X105633333Y-78500000D01*
X105538095Y-78452380D01*
X105300000Y-78452380D01*
X105157142Y-78500000D01*
X104728571Y-79452380D02*
X104728571Y-78452380D01*
X107890476Y-75452380D02*
X107271428Y-75452380D01*
X107604761Y-75833333D01*
X107461904Y-75833333D01*
X107366666Y-75880952D01*
X107319047Y-75928571D01*
X107271428Y-76023809D01*
X107271428Y-76261904D01*
X107319047Y-76357142D01*
X107366666Y-76404761D01*
X107461904Y-76452380D01*
X107747619Y-76452380D01*
X107842857Y-76404761D01*
X107890476Y-76357142D01*
X106938095Y-75785714D02*
X106700000Y-76452380D01*
X106461904Y-75785714D01*
X106176190Y-75452380D02*
X105557142Y-75452380D01*
X105890476Y-75833333D01*
X105747619Y-75833333D01*
X105652380Y-75880952D01*
X105604761Y-75928571D01*
X105557142Y-76023809D01*
X105557142Y-76261904D01*
X105604761Y-76357142D01*
X105652380Y-76404761D01*
X105747619Y-76452380D01*
X106033333Y-76452380D01*
X106128571Y-76404761D01*
X106176190Y-76357142D01*
D11*
%TO.C,CFG1*%
X89225000Y-88600000D02*
X89225000Y-90600000D01*
X92025000Y-88600000D02*
X89225000Y-88600000D01*
X92025000Y-90600000D02*
X92025000Y-88600000D01*
X89225000Y-90600000D02*
X92025000Y-90600000D01*
%TO.C,J3*%
X99400000Y-89100000D02*
X99400000Y-101100000D01*
X96400000Y-89100000D02*
X99400000Y-89100000D01*
X96400000Y-101100000D02*
X96400000Y-89100000D01*
X99400000Y-101100000D02*
X96400000Y-101100000D01*
%TO.C,J5*%
X92300000Y-80100000D02*
X80300000Y-80100000D01*
X92300000Y-77100000D02*
X92300000Y-80100000D01*
X80300000Y-77100000D02*
X92300000Y-77100000D01*
X80300000Y-80100000D02*
X80300000Y-77100000D01*
%TO.C,J6*%
X100200000Y-92500000D02*
X100200000Y-74500000D01*
X103200000Y-92500000D02*
X100200000Y-92500000D01*
X103200000Y-74500000D02*
X103200000Y-92500000D01*
X100200000Y-74500000D02*
X103200000Y-74500000D01*
%TO.C,S1*%
X75700000Y-98100000D02*
X75400000Y-97800000D01*
X75400000Y-98400000D02*
X75400000Y-97800000D01*
X75700000Y-98100000D02*
X75400000Y-98400000D01*
X75900000Y-98850000D02*
X77900000Y-98850000D01*
X75900000Y-94750000D02*
X75900000Y-98850000D01*
X77900000Y-94750000D02*
X75900000Y-94750000D01*
X77900000Y-98850000D02*
X77900000Y-94750000D01*
%TO.C,S2*%
X77900000Y-82800000D02*
X77900000Y-84800000D01*
X80700000Y-82800000D02*
X77900000Y-82800000D01*
X80700000Y-84800000D02*
X80700000Y-82800000D01*
X77900000Y-84800000D02*
X80700000Y-84800000D01*
%TD*%
M02*
